<?xml version="1.0" encoding="UTF-8" standalone="no"?>
<!-- Created with Inkscape (http://www.inkscape.org/) -->

<svg xmlns:dc="http://purl.org/dc/elements/1.1/" xmlns:cc="http://creativecommons.org/ns#" xmlns:rdf="http://www.w3.org/1999/02/22-rdf-syntax-ns#" xmlns:svg="http://www.w3.org/2000/svg" xmlns="http://www.w3.org/2000/svg" xmlns:xlink="http://www.w3.org/1999/xlink" xmlns:sodipodi="http://sodipodi.sourceforge.net/DTD/sodipodi-0.dtd" xmlns:inkscape="http://www.inkscape.org/namespaces/inkscape" version="1.1" width="137.84200000001874" height="1000" id="svg4626" inkscape:version="0.91 r13725" sodipodi:docname="font_bold_raw.svg">
<g transform="translate(-73145.126,0)"><path style="color:#000000;font-style:normal;font-variant:normal;font-weight:normal;font-stretch:normal;font-size:medium;line-height:normal;font-family:sans-serif;text-indent:0;text-align:start;text-decoration:none;text-decoration-line:none;text-decoration-style:solid;text-decoration-color:#000000;letter-spacing:normal;word-spacing:normal;text-transform:none;direction:ltr;block-progression:tb;writing-mode:lr-tb;baseline-shift:baseline;text-anchor:start;white-space:normal;clip-rule:nonzero;display:inline;overflow:visible;visibility:visible;opacity:1;isolation:auto;mix-blend-mode:normal;color-interpolation:sRGB;color-interpolation-filters:linearRGB;solid-color:#000000;solid-opacity:1;fill:#000000;fill-opacity:1;fill-rule:nonzero;stroke:none;stroke-width:1.32024801;stroke-linecap:butt;stroke-linejoin:miter;stroke-miterlimit:4;stroke-dasharray:none;stroke-dashoffset:0;stroke-opacity:1;marker:none;color-rendering:auto;image-rendering:auto;shape-rendering:auto;text-rendering:auto;enable-background:accumulate" d="m 73186.74,166.91367 0.452,30.41331 c 0.451,14.00087 0,28.30866 0,42.93104 0,0.0903 0,0.18054 0,0.27081 -0.452,9.59164 -1.354,19.0587 -2.257,28.38585 l 0,0.52808 0,0.52808 c -0.451,6.34101 -1.805,11.95264 -3.611,18.95308 -1.354,3.32194 -2.257,5.44193 -3.159,7.31683 -1.354,1.69708 -3.16,3.33548 -6.951,7.05234 l 0,0.18054 0,0.18054 c -2.708,2.73518 -3.159,2.55916 -0.903,1.76478 -0.451,0.0903 -0.902,0.18054 -0.902,0.27081 -0.452,0.18054 -1.354,0.36108 -2.257,0.61835 -0.452,0.13541 -0.903,0.22568 -1.806,0.52808 -0.902,0.31595 -4.739,2.08975 -4.784,2.11683 0,0.0122 -7.041,5.45592 -7.041,5.46585 0,0.005 -6.138,9.33978 -6.138,9.34429 0,0.002 -2.257,8.63704 -2.257,8.63929 0,0.002 0.903,10.40001 0.903,10.40181 0,0.002 4.062,8.81351 4.062,8.81577 0,0.002 4.829,5.72808 4.829,5.72988 0,0.004 7.583,4.93371 7.583,4.93642 0,0.003 4.513,1.58423 4.513,1.58875 0,0.003 2.257,0.48746 2.709,0.61835 4.062,0.70862 3.61,0.36108 4.513,0.27081 l 2.708,13.75218 c 17.422,-0.13541 18.144,0.45135 23.2,1.32245 2.708,0.45135 11.689,0.85305 17.512,-0.88013 5.822,-1.73319 7.628,-2.92926 11.103,-4.58436 l 1.354,-0.79438 1.806,-0.9704 c 8.981,-5.68069 13.405,-11.17362 16.654,-14.28116 l 0.452,-0.36108 0.451,-0.45135 c 2.257,-2.13489 10.11,-8.98683 15.978,-20.364 l 0,-0.45135 0,-0.36108 c 3.159,-6.37848 7.131,-15.29354 9.794,-26.62287 l 0,-0.0903 c 2.257,-9.42464 4.062,-20.1284 5.01,-32.00026 0,-0.27081 0,-0.59578 0,-0.88013 1.354,-11.48776 1.806,-23.27295 2.257,-35.34972 l 0,-0.45135 0,-0.36108 c 0,-14.73387 0,-29.20143 0,-43.37156 l 0.451,-18.95354 -17.016,-8.28633 -6.183,-3.08723 -73.254,0 z" id="path4805" inkscape:connector-curvature="0"/></g></svg>