<?xml version="1.0" encoding="UTF-8" standalone="no"?>
<!-- Created with Inkscape (http://www.inkscape.org/) -->

<svg xmlns:dc="http://purl.org/dc/elements/1.1/" xmlns:cc="http://creativecommons.org/ns#" xmlns:rdf="http://www.w3.org/1999/02/22-rdf-syntax-ns#" xmlns:svg="http://www.w3.org/2000/svg" xmlns="http://www.w3.org/2000/svg" xmlns:xlink="http://www.w3.org/1999/xlink" xmlns:sodipodi="http://sodipodi.sourceforge.net/DTD/sodipodi-0.dtd" xmlns:inkscape="http://www.inkscape.org/namespaces/inkscape" version="1.1" width="260.0679999999993" height="1000" id="svg4626" inkscape:version="0.91 r13725" sodipodi:docname="font_bold_raw.svg">
<g transform="translate(-70220.379,0)"><path inkscape:connector-curvature="0" style="color:#000000;display:inline;overflow:visible;visibility:visible;fill:#000000;fill-opacity:1;fill-rule:nonzero;stroke:none;stroke-width:1px;marker:none;enable-background:accumulate" d="m 70399.204,363.28381 -108.956,1.76478 c 4.513,24.39049 5.371,49.24317 7.853,73.87333 -0.902,0.0903 -1.354,0.0903 -2.256,0.18054 -25.141,2.22967 -50.326,3.54761 -75.466,5.28892 l 0,0.0903 1.805,108.87055 c 24.644,-4.33296 49.784,-5.41123 74.654,-7.93428 1.805,-0.18054 3.61,-0.0903 5.641,-0.27081 -0.451,12.12145 -1.805,24.1567 -3.61,36.23166 -1.806,13.8596 -2.257,27.82752 -2.708,41.78507 l 108.504,0.27081 c 0.451,-13.60865 0.903,-27.27733 2.257,-40.81557 1.354,-13.68989 2.708,-27.34503 2.708,-41.07961 9.569,0.83048 19.047,2.16197 28.57,3.34902 13.857,1.78283 27.849,2.32896 41.795,2.64491 l 0.452,-108.51805 c -13.631,-0.27081 -27.262,-0.79889 -40.802,-2.29286 -11.826,-1.25024 -23.561,-2.26577 -35.386,-2.82093 -1.806,-23.51533 -3.16,-47.06586 -5.01,-70.61143 z" id="path4878"/></g></svg>