<?xml version="1.0" encoding="UTF-8" standalone="no"?>
<!-- Created with Inkscape (http://www.inkscape.org/) -->

<svg xmlns:dc="http://purl.org/dc/elements/1.1/" xmlns:cc="http://creativecommons.org/ns#" xmlns:rdf="http://www.w3.org/1999/02/22-rdf-syntax-ns#" xmlns:svg="http://www.w3.org/2000/svg" xmlns="http://www.w3.org/2000/svg" xmlns:xlink="http://www.w3.org/1999/xlink" xmlns:sodipodi="http://sodipodi.sourceforge.net/DTD/sodipodi-0.dtd" xmlns:inkscape="http://www.inkscape.org/namespaces/inkscape" version="1.1" width="237.5401430452912" height="1000" id="svg4626" inkscape:version="0.91 r13725" sodipodi:docname="font_bold_raw.svg">
<g transform="translate(-75403.41485695471,0)"><path style="color:#000000;display:inline;overflow:visible;visibility:visible;fill:#000000;fill-opacity:1;fill-rule:nonzero;stroke:none;stroke-width:1px;marker:none;enable-background:accumulate" id="path4408" d="m 75640.955,660.09644 c -0.902,15.96921 -0.451,31.96595 -0.451,47.94644 -0.903,12.63058 -3.611,25.06662 -6.77,37.23772 -2.257,11.28104 -7.312,21.34027 -13.405,30.9468 -6.003,9.23282 -14.308,15.90783 -22.929,22.41765 -9.975,6.98915 -21.71,10.35803 -32.949,14.56416 -12.141,4.18852 -24.147,8.76431 -36.694,11.64482 -43.149,7.42245 -4.062,1.07422 -118.57,1.37211 0,0 107.647,-16.58756 107.647,-16.58756 l 0,0 c -104.849,0.70862 -136.894,3.65142 -96.589,0.1354 12.683,-1.67451 24.508,-5.46314 36.469,-9.81866 10.878,-3.85453 21.8,-7.25049 32.317,-12.04292 8.53,-4.89218 16.158,-10.62839 22.658,-18.06167 5.912,-8.50659 11.554,-17.19056 13.45,-27.55942 3.159,-11.25982 5.597,-22.65912 7.176,-34.27054 0,-15.9805 0.452,-31.97724 -0.451,-47.94645 0,0 108.956,0 108.956,0 z" inkscape:connector-curvature="0"/></g></svg>