<?xml version="1.0" encoding="UTF-8" standalone="no"?>
<!-- Created with Inkscape (http://www.inkscape.org/) -->

<svg xmlns:dc="http://purl.org/dc/elements/1.1/" xmlns:cc="http://creativecommons.org/ns#" xmlns:rdf="http://www.w3.org/1999/02/22-rdf-syntax-ns#" xmlns:svg="http://www.w3.org/2000/svg" xmlns="http://www.w3.org/2000/svg" xmlns:xlink="http://www.w3.org/1999/xlink" xmlns:sodipodi="http://sodipodi.sourceforge.net/DTD/sodipodi-0.dtd" xmlns:inkscape="http://www.inkscape.org/namespaces/inkscape" version="1.1" width="559.5405042866041" height="1000" id="svg4626" inkscape:version="0.91 r13725" sodipodi:docname="font_bold_raw.svg">
<g transform="translate(-76243.63352126312,0)"><path style="color:#000000;display:inline;overflow:visible;visibility:visible;fill:#000000;fill-opacity:1;fill-rule:nonzero;stroke:none;stroke-width:1px;marker:none;enable-background:accumulate" d="m 76519.056,194.99711 c -23.921,0.27081 -47.662,1.46689 -70.184,2.02656 -5.958,0.13541 -11.51,3.2091 -17.287,4.76039 -18.46,6.49538 -36.469,14.46441 -53.214,24.59496 -17.152,11.3379 -32.949,24.18648 -47.437,38.70009 -16.52,17.77641 -29.834,37.75316 -41.254,59.06319 -10.877,22.40094 -19.362,46.08508 -25.681,70.17091 -6.5,23.96261 -12.999,47.81194 -16.745,72.3744 -2.709,24.20228 -4.514,48.7354 -3.16,73.07986 1.805,19.85082 3.16,39.65425 6.454,59.32813 3.611,17.73354 9.975,34.79998 16.023,51.83483 6.274,16.05903 12.638,32.0341 19.228,47.95592 5.19,13.058 12.141,25.16456 19.137,37.28917 6.319,11.15376 14.488,21.15522 21.936,31.55929 7.041,10.6189 16.429,19.21576 25.907,27.59191 11.284,9.3258 23.651,17.14002 37.146,22.83199 12.593,5.01224 25.411,8.68307 38.771,10.75476 13.134,1.67902 26.404,1.8054 39.584,1.85054 50.957,0.22567 101.914,-0.0447 152.872,-0.0903 13.676,-2.27481 26.99,-5.30246 39.673,-11.01926 11.284,-4.56946 21.62,-10.99669 32.362,-16.66113 9.885,-5.48119 18.596,-12.73303 28.616,-18.07204 11.103,-7.15209 16.971,-18.99867 24.869,-29.00239 7.357,-10.7823 14.082,-21.90988 18.957,-34.02772 3.159,-11.2341 8.982,-21.44769 13.044,-32.35276 l 6.951,0.0903 c 5.055,-19.75693 7.041,-40.03247 10.155,-60.12115 4.514,-25.08106 5.958,-50.50289 6.68,-75.90125 0.451,-27.28906 1.354,-54.62552 0,-81.89518 -1.354,-20.44434 -5.461,-40.53889 -11.013,-60.20916 -4.513,-16.27252 -9.523,-32.4823 -15.165,-48.3969 -5.958,-16.62998 -11.6,-33.30691 -20.627,-48.57291 -8.621,-14.27033 -19.408,-26.61656 -32.091,-37.37764 -16.655,-12.67977 -33.851,-24.67259 -51.183,-36.40768 -13.315,-9.65889 -27.216,-18.49452 -41.434,-26.71044 -12.909,-6.89076 -26.449,-12.23564 -40.757,-15.25066 -23.199,-3.33547 -47.211,-4.04861 -71.133,-3.79134 z m -1.805,29.53182 c 1.354,0.58224 2.708,0.8666 4.062,1.49848 14.624,7.20671 28.48,16.02924 41.75,25.4769 17.287,11.51754 34.528,23.02065 51.138,35.43773 12.502,9.47654 23.109,20.74269 31.549,34.02772 10.201,13.75444 14.759,30.15649 20.717,46.01647 5.913,15.57157 10.246,31.71771 14.94,47.69143 5.777,18.8082 10.742,38.02262 12.051,57.74119 1.805,26.8815 0.451,53.91419 0,80.83721 -0.903,21.3976 -2.708,42.72162 -5.732,63.91204 l -7.222,0 c 0,11.68816 -0.451,23.41017 -2.708,34.90921 -2.708,10.85 -6.228,21.45717 -8.982,32.26429 -4.513,11.0337 -10.065,21.61515 -13.495,33.05777 -5.145,11.14563 -11.735,21.42828 -18.866,31.3828 -6.771,9.67379 -13.767,19.10564 -24.509,24.68342 -9.478,6.16499 -18.866,12.40129 -28.841,17.7191 -10.155,5.87386 -20.807,11.09553 -31.82,15.16219 -7.267,2.24773 -14.624,4.01702 -22.116,5.28937 -9.93,-1.2051 -19.679,-2.96085 -28.932,-7.14035 -13.54,-3.61532 -25.727,-10.35216 -36.74,-19.04155 -9.523,-6.98554 -18.55,-15.47227 -25.456,-25.03547 -7.989,-9.32309 -14.714,-20.03452 -21.981,-29.88433 -6.499,-12.03705 -14.398,-23.18043 -19.453,-35.96717 -6.635,-15.75707 -13.224,-31.5155 -19.408,-47.42694 -5.958,-16.44267 -12.141,-32.89076 -15.978,-49.98338 -3.61,-19.20539 -5.01,-38.65135 -6.95,-58.09369 -1.806,-23.54241 0,-47.20939 2.708,-70.61143 4.062,-24.12104 10.336,-47.63005 16.564,-71.22888 6.409,-23.24677 14.85,-46.12705 25.863,-67.61446 11.238,-20.38161 24.598,-39.40149 41.253,-55.80129 14.443,-13.59737 30.421,-25.60282 47.392,-35.87915 9.433,-5.02353 19.227,-9.45353 29.202,-13.39923 z" id="path4412" inkscape:connector-curvature="0"/></g></svg>