<?xml version="1.0" encoding="UTF-8" standalone="no"?>
<!-- Created with Inkscape (http://www.inkscape.org/) -->

<svg xmlns:dc="http://purl.org/dc/elements/1.1/" xmlns:cc="http://creativecommons.org/ns#" xmlns:rdf="http://www.w3.org/1999/02/22-rdf-syntax-ns#" xmlns:svg="http://www.w3.org/2000/svg" xmlns="http://www.w3.org/2000/svg" xmlns:xlink="http://www.w3.org/1999/xlink" xmlns:sodipodi="http://sodipodi.sourceforge.net/DTD/sodipodi-0.dtd" xmlns:inkscape="http://www.inkscape.org/namespaces/inkscape" version="1.1" width="268.14699999998265" height="1000" id="svg4626" inkscape:version="0.91 r13725" sodipodi:docname="font_bold_raw.svg">
<g transform="translate(-76892.007,0)"><path style="color:#000000;display:inline;overflow:visible;visibility:visible;fill:#000000;fill-opacity:1;fill-rule:nonzero;stroke:none;stroke-width:1px;marker:none;enable-background:accumulate" d="m 76996.314,177.807 c -6.048,1.72416 -9.298,10.28717 -20.807,30.50132 -8.17,14.83677 -18.235,28.5041 -29.88,40.46307 -16.248,14.56009 -34.077,26.84854 -53.62,35.8787 l 84.131,20.98055 c 0,1.85504 -0.451,3.70106 -0.902,5.55386 -4.514,28.73022 -5.326,57.82378 -6.996,86.83203 0.451,29.53589 -1.806,59.00903 -2.708,88.507 0,26.27488 -1.354,52.48883 -3.611,78.63327 -2.257,21.79072 -1.805,43.79087 -3.16,65.67502 -2.256,16.80872 -0.902,33.7208 -0.902,50.60083 -0.452,14.25182 -1.354,28.32311 -0.903,42.57854 0.903,15.23035 0,30.41241 -1.354,45.5755 -0.903,9.24229 -1.805,18.46021 -3.159,27.68039 -1.354,0.0271 -2.709,-0.27081 -4.063,-0.18054 -12.096,0.65446 -24.914,1.8731 -36.108,6.96387 -6.093,2.35605 -12.141,3.89064 -18.37,1.76478 l 107.196,32.6168 c 6.409,-1.66999 12.728,-3.33096 18.957,-5.64187 11.554,-2.19808 23.019,-4.48642 34.844,-3.70107 15.842,1.20059 31.775,2.51853 47.663,1.23218 19.272,-1.55715 38.455,-4.36906 57.592,-7.31638 l -96.093,-26.79935 c 0.452,-3.88161 0.903,-7.74155 1.354,-11.63625 1.354,-15.63656 1.806,-31.37378 1.354,-47.07443 0,-14.18367 0.452,-28.12903 0.903,-42.31405 0,-16.64353 -1.354,-33.28705 0.452,-49.89492 0.902,-21.75055 0.451,-43.57016 2.256,-65.2345 2.257,-26.45678 3.16,-52.95462 3.16,-79.51521 0.451,-29.35218 3.159,-58.6809 2.708,-88.06603 1.805,-28.72932 2.257,-57.53763 6.86,-85.9501 3.16,-24.18333 6.364,-48.46505 9.704,-72.63934 2.257,-16.5501 5.01,-33.0167 5.823,-49.7189 -0.452,-0.0903 -0.903,-0.18054 -1.354,-0.27081 2.256,-8.3247 -9.885,-7.589 -33.581,-6.96433 -46.173,-11.03956 -59.984,-21.48696 -68.244,-19.12956 z" id="path4414" inkscape:connector-curvature="0"/></g></svg>