<?xml version="1.0" encoding="UTF-8" standalone="no"?>
<!-- Created with Inkscape (http://www.inkscape.org/) -->

<svg xmlns:dc="http://purl.org/dc/elements/1.1/" xmlns:cc="http://creativecommons.org/ns#" xmlns:rdf="http://www.w3.org/1999/02/22-rdf-syntax-ns#" xmlns:svg="http://www.w3.org/2000/svg" xmlns="http://www.w3.org/2000/svg" xmlns:xlink="http://www.w3.org/1999/xlink" xmlns:sodipodi="http://sodipodi.sourceforge.net/DTD/sodipodi-0.dtd" xmlns:inkscape="http://www.inkscape.org/namespaces/inkscape" version="1.1" width="466.8770000000077" height="1000" id="svg4626" inkscape:version="0.91 r13725" sodipodi:docname="font_bold_raw.svg">
<g transform="translate(-77223.884,0)"><path style="color:#000000;display:inline;overflow:visible;visibility:visible;fill:#000000;fill-opacity:1;fill-rule:nonzero;stroke:none;stroke-width:1px;marker:none;enable-background:accumulate" d="m 77418.326,165.46574 c -12.322,0.61384 -24.147,2.87961 -35.476,7.93383 -15.12,4.92784 -30.06,10.73039 -44.503,17.4546 -13.766,7.08258 -27.307,14.54385 -40.441,22.74352 -11.194,7.68784 -21.755,16.01796 -30.06,26.88691 -8.666,11.01339 -16.023,23.07752 -21.71,35.87916 -6.093,15.84689 -11.464,31.94519 -16.294,48.22041 l 110.536,11.90074 c 3.159,-16.21564 9.252,-31.74479 15.346,-47.07443 6.589,-10.9818 12.367,-22.84914 21.574,-31.91179 7.989,-9.91526 18.28,-17.59543 29.383,-23.71347 13.134,-7.39041 25.908,-15.90873 39.899,-21.50998 11.69,-6.05622 24.373,-9.44495 36.695,-13.75173 2.257,1.8731 4.965,3.31291 7.222,5.46539 7.718,9.02655 13.54,18.94 15.887,30.58979 1.806,13.4078 0,26.89594 -0.902,40.28613 -1.806,17.76694 -3.16,35.5596 -4.785,53.33331 -3.159,20.54454 -9.027,40.33398 -17.106,59.41614 -8.756,23.39708 -20.717,45.44236 -32.768,67.26151 -14.894,26.90091 -31.098,52.93973 -47.256,79.07469 -17.558,29.30254 -33.49,59.50191 -50.326,89.21201 -13.179,24.77234 -29.383,47.69595 -45.315,70.69989 -11.329,16.75772 -25.682,31.09891 -37.462,47.42694 -9.343,12.4031 -21.439,22.51965 -30.241,35.26171 -6.635,7.89682 -14.985,14.09927 -16.339,24.77144 0.903,7.70905 5.552,13.95664 13.767,14.80969 109.452,11.36634 77.632,12.75785 123.399,10.22578 23.695,0.67703 47.301,-0.40621 70.997,-0.70411 25.682,0.51003 51.228,1.81443 76.865,-0.88013 22.838,-1.70159 45.676,-3.76426 68.56,-5.02488 20.085,-0.80791 40.125,0.40622 60.12,1.94081 2.708,0.22567 5.416,0.47843 8.124,0.7041 -99.252,-8.99359 -96.634,-8.64244 34.393,1.67451 7.447,-1.15545 4.062,-0.0117 10.652,-3.26326 l -94.784,-20.18752 c -24.598,-2.16648 -47.572,-4.38261 -65.4,-5.72989 -19.905,-1.13289 -39.9,-1.85505 -59.849,-0.45135 -22.794,1.65646 -45.632,3.30388 -68.425,5.28937 -19.363,1.10129 -38.726,0.40622 -58.089,0.18054 2.257,-2.36056 4.062,-4.64619 5.732,-7.22882 9.434,-12.0059 20.311,-22.86222 29.293,-35.26171 12.502,-15.92407 26.223,-30.93732 37.191,-48.04393 15.572,-23.41062 31.098,-46.86727 44.233,-71.75786 16.519,-29.71146 32.406,-59.73841 50.28,-88.68302 16.384,-26.30693 33.039,-52.44866 48.023,-79.60322 12.322,-22.19017 24.554,-44.50175 33.491,-68.31948 8.304,-20.14961 14.759,-41.14099 17.828,-62.76606 1.805,-17.77867 3.611,-35.54471 5.191,-53.33331 1.354,-14.30192 3.159,-28.73925 1.805,-43.10752 -2.257,-14.02164 -7.718,-25.53963 -16.113,-36.93667 -9.524,-11.52883 -21.033,-22.01955 -35.883,-25.82894 -48.159,-4.99916 -97.852,-12.67301 -146.869,-13.57571 z m 177.606,635.15126 c 63.776,5.61208 83.003,7.35384 -1.805,-0.36108 l 1.805,0.36108 z m -1.805,-0.36108 -12.232,-2.64491 c -6.229,0.5371 -3.159,0.36108 -9.884,0.61835 27.442,2.52304 6.048,0.56418 22.116,2.02656 z m -257.315,8.90332 c 5.371,0.51906 5.597,0.47843 11.464,1.05616 3.16,0.31595 -5.957,-0.88916 -8.981,-0.61835 -2.257,0.22568 -2.709,0.61384 -4.514,1.94081 0.451,-0.835 1.354,-1.57521 1.805,-2.37862 z" id="path4418" inkscape:connector-curvature="0"/></g></svg>