<?xml version="1.0" encoding="UTF-8" standalone="no"?>
<!-- Created with Inkscape (http://www.inkscape.org/) -->

<svg xmlns:dc="http://purl.org/dc/elements/1.1/" xmlns:cc="http://creativecommons.org/ns#" xmlns:rdf="http://www.w3.org/1999/02/22-rdf-syntax-ns#" xmlns:svg="http://www.w3.org/2000/svg" xmlns="http://www.w3.org/2000/svg" xmlns:xlink="http://www.w3.org/1999/xlink" xmlns:sodipodi="http://sodipodi.sourceforge.net/DTD/sodipodi-0.dtd" xmlns:inkscape="http://www.inkscape.org/namespaces/inkscape" version="1.1" width="501.02678244579874" height="1000" id="svg4626" inkscape:version="0.91 r13725" sodipodi:docname="font_bold_raw.svg">
<g transform="translate(-79769.046,0)"><path style="color:#000000;display:inline;overflow:visible;visibility:visible;fill:#000000;fill-opacity:1;fill-rule:nonzero;stroke:none;stroke-width:1px;marker:none;enable-background:accumulate" d="m 80162.533,143.86775 c -11.961,3.18202 -23.109,7.25093 -35.25,9.87328 -16.926,4.49996 -34.619,8.63658 -52.176,9.87328 -23.832,2.02656 -48.114,2.0085 -71.946,4.22914 -29.834,3.29937 -58.901,10.07639 -88.87,12.69422 -28.255,2.63588 -56.284,4.08923 -84.629,1.40821 -20.355,-1.29086 -40.711,-2.4734 -60.616,-7.05234 l 101.554,43.72452 c 19.995,2.01302 40.441,5.23565 60.616,5.64187 28.3,2.69456 56.554,-1.08324 84.628,-4.22915 30.015,-3.09175 58.766,-9.40613 88.871,-11.28375 8.801,-0.65897 17.964,-1.12386 26.81,-1.40821 -8.575,12.73258 -16.97,25.24445 -25.411,38.08265 -17.467,25.71701 -36.108,51.86325 -53.575,77.57575 -21.304,33.24012 -39.448,67.373 -56.419,102.96419 -7.582,16.65842 -14.262,33.83273 -21.168,50.77686 -31.549,0.7041 -62.918,0.88464 -94.513,1.40821 -28.028,1.38564 -56.554,4.61731 -84.628,2.82094 l 102.998,42.31405 c 19.724,-1.01554 39.493,-2.96989 59.217,-4.22915 -2.256,6.07201 -4.603,12.2722 -7.041,18.33609 -11.509,31.85853 -24.237,63.89128 -35.25,95.91184 -7.808,26.1309 -17.197,50.66538 -26.81,76.16529 -6.184,15.54359 -10.652,31.65813 -18.325,46.54545 -5.822,10.68706 -9.162,22.27999 -12.728,33.85124 -13.089,45.74521 -15.843,25.94946 56.419,36.67218 40.125,18.48413 41.388,25.40287 45.135,9.87328 l 1.354,0 c 1.354,-4.68366 1.354,-8.94034 4.062,-18.33609 3.611,-11.017 7.312,-22.19242 12.728,-32.44077 7.176,-15.46235 10.832,-32.04178 16.925,-47.95593 9.389,-25.65788 17.423,-51.44485 25.366,-77.57575 11.104,-31.82017 24.012,-62.73899 35.251,-94.50138 6.454,-16.55416 13.179,-32.88038 19.769,-49.36639 7.086,-0.1354 14.082,0.18054 21.168,0 24.599,-0.56419 48.204,-5.29524 71.9,-11.28375 l -76.143,-29.61983 c 2.709,-6.58835 5.507,-13.20966 8.441,-19.74656 16.88,-35.09019 35.07,-68.97799 56.418,-101.55371 17.919,-25.62539 36.063,-51.70078 53.621,-77.57576 13.947,-21.13175 28.976,-41.45468 43.736,-62.06061 38.861,-59.27442 6.725,-40.75328 -91.715,-70.52341 z m 93.113,40.90358 c 2.257,-0.36108 5.326,-0.56419 7.042,0 1.354,0.40621 1.805,2.01302 2.708,2.82094 -3.16,-0.91173 -6.59,-1.9047 -9.885,-2.82094 z" id="path4430" inkscape:connector-curvature="0"/></g></svg>