<?xml version="1.0" encoding="UTF-8" standalone="no"?>
<!-- Created with Inkscape (http://www.inkscape.org/) -->

<svg xmlns:dc="http://purl.org/dc/elements/1.1/" xmlns:cc="http://creativecommons.org/ns#" xmlns:rdf="http://www.w3.org/1999/02/22-rdf-syntax-ns#" xmlns:svg="http://www.w3.org/2000/svg" xmlns="http://www.w3.org/2000/svg" xmlns:xlink="http://www.w3.org/1999/xlink" xmlns:sodipodi="http://sodipodi.sourceforge.net/DTD/sodipodi-0.dtd" xmlns:inkscape="http://www.inkscape.org/namespaces/inkscape" version="1.1" width="678.8837703188037" height="1000" id="svg4626" inkscape:version="0.91 r13725" sodipodi:docname="font_bold_raw.svg">
<g transform="translate(-66844.10099999998,0)"><path style="color:#000000;display:inline;overflow:visible;visibility:visible;fill:#000000;fill-opacity:1;fill-rule:nonzero;stroke:none;stroke-width:1px;marker:none;enable-background:accumulate" d="m 67158.737,169.87317 c -20.807,0.31595 -41.434,1.98594 -61.338,4.93687 -38.59,9.71079 -72.081,28.19447 -102.095,49.01343 -33.31,26.80432 -62.693,55.60179 -86.298,87.5375 l 0,0.18054 c -25.682,30.00033 -40.577,63.63627 -51.138,98.55676 -7.222,26.43646 -10.517,53.58651 -13.767,80.83721 0,25.76801 4.063,51.10499 14.128,75.54829 l 0,0.0903 c 9.162,23.35781 21.935,45.7258 35.701,68.05544 l -0.451,-0.27081 c 17.558,23.11362 28.977,47.85256 45.135,70.34693 l 0,0.18054 c 11.419,18.40921 31.504,32.6511 51.905,47.07444 22.162,14.65759 50.777,19.88738 80.16,23.8895 l 0,-0.0903 c 78.084,7.8765 156.844,11.92692 235.514,16.92562 29.293,-0.48746 55.471,-9.23598 82.327,-18.33609 28.164,-11.71253 54.613,-26.67884 78.038,-43.37202 3.159,-2.30188 5.777,-5.09167 8.711,-7.58132 l -167.496,12.69422 c -16.835,9.90216 -34.348,19.23788 -54.026,25.91741 -13.225,4.40969 -26.675,8.2597 -38.004,10.84323 -11.329,2.58172 -20.04,4.09825 -25.998,3.26326 -8.214,-1.15546 -38.139,-4.13437 -63.279,-17.19012 l -0.451,-0.18054 c -20.311,-12.84451 -41.344,-26.9 -54.208,-45.92845 l -0.451,-0.27081 0,-0.0903 c -18.596,-22.55305 -28.164,-47.75643 -45.225,-69.20142 l -0.452,-0.36108 c -13.856,-21.99653 -26.629,-44.36453 -36.153,-67.96696 l 0,-0.36108 c -11.599,-24.07094 -14.488,-49.3831 -15.436,-74.22584 0,-0.22568 0,-0.40622 0,-0.61835 3.16,-27.02187 6.319,-54.32853 13.496,-81.36665 l 0,-0.18054 c 10.335,-34.69345 25.817,-68.14254 51.724,-98.37982 l 0,-0.0903 c 24.373,-31.40538 53.711,-60.01058 87.923,-85.5976 l 0.452,-0.18054 c 22.657,-14.6621 47.12,-29.05158 69.372,-31.29479 l 0,0 c 7.402,-0.74473 14.172,1.19607 21.259,2.46888 42.065,10.19735 79.889,24.59992 113.063,45.5087 18.505,11.64302 43.194,32.55452 57.502,53.86229 16.97,25.27108 23.515,42.72658 35.431,65.93951 0.04,0.1354 0,0.27081 0,0.45135 8.801,25.00252 16.609,50.38192 17.016,77.13478 2.708,25.40378 -0.452,50.29121 -4.063,75.10733 -2.256,18.6412 -5.235,37.49183 -9.704,56.2427 -5.055,9.90533 -10.832,19.48839 -18.595,28.29738 -19.453,23.17231 -40.351,22.88841 -64.272,14.63367 -5.642,-2.56367 -9.389,-4.14791 -12.954,-9.43231 -3.611,-5.28576 -2.708,-10.62929 -2.708,-16.66158 0,-22.22492 0.451,-44.44532 1.805,-66.64452 1.806,-32.86865 4.062,-65.71112 4.062,-98.64431 0.452,-25.82759 0.903,-51.81632 4.92,-77.39973 l -46.534,-0.79438 c -1.354,12.3539 -2.708,30.61867 -3.16,43.01951 -2.256,-3.46185 -4.062,-4.22915 -8.079,-8.02094 -10.607,-10.28491 -23.921,-18.90569 -34.573,-26.89774 l 0,0 c -19.228,-9.71576 -42.427,-14.43823 -64.995,-14.01667 -7.492,0.1354 -14.939,0.84402 -22.116,2.11683 -13.901,4.19304 -26.043,12.25686 -36.83,21.24504 -12.006,11.57125 -22.613,23.94321 -31.143,37.73014 l 0,0.0903 c -9.253,12.95103 -14.624,27.50345 -18.415,42.57854 -2.708,11.41328 -3.611,23.05675 -4.92,34.82119 0,11.12397 1.354,22.06424 5.1,32.6168 l 0,0.0903 c 3.16,10.04704 7.944,19.75016 12.864,29.35534 6.319,9.94865 10.426,20.55944 16.203,30.23683 l 0,0.0903 c 4.063,7.94737 11.42,14.13673 18.777,20.36355 8.034,6.32793 18.369,8.58648 28.931,10.31425 l 0,-0.0903 c 28.164,3.39866 56.599,5.15847 84.989,7.31638 10.562,-0.22568 19.995,-3.9132 29.699,-7.84536 6.545,-3.24972 12.187,-7.8386 18.099,-12.07722 -0.04,0.1354 0,0.22567 0,0.36108 0,10.90912 4.694,28.57315 4.92,29.09085 19.047,49.60741 107.873,47.71625 149.938,27.016 25.682,-12.64096 39.719,-36.22264 55.832,-64.11786 9.659,-16.69227 17.468,-35.69546 21.62,-56.1398 9.388,-46.38568 9.885,-71.24738 -2.257,-133.18702 -9.433,-30.07796 -8.259,-38.39724 -26.449,-68.02114 -17.467,-28.45354 -27.487,-44.35279 -55.651,-67.19155 -27.578,-22.33369 -58.495,-43.77777 -92.662,-61.17866 l -0.452,-0.0903 c -53.349,-22.50566 -117.802,-33.41659 -180.269,-32.44078 z m 38.275,191.11868 c 2.708,-0.31594 9.568,-0.0451 12.141,0.55516 13.315,3.19556 18.821,6.536 37.372,22.4181 4.062,3.52504 10.562,15.94845 15.797,20.66957 6.455,8.96426 12.367,18.80549 16.655,28.82681 l 0,0.18054 c 3.159,10.79403 6.048,21.77267 6.184,33.32226 0.902,10.9669 0,21.72753 -1.355,32.44077 -0.902,10.16711 -2.256,20.49941 -4.784,30.6778 l 0,0.0903 c -3.159,9.74735 -7.808,18.43854 -11.78,27.41634 l 0,0.0903 c -5.281,9.96129 -11.825,19.74836 -21.259,27.1514 -8.711,6.75355 -18.009,13.38027 -28.66,17.7191 -4.74,1.90469 -9.569,3.55663 -13.676,4.67192 -4.062,1.11483 -7.267,1.7738 -9.433,1.41272 -3.16,-0.50099 -13.676,-1.76929 -22.703,-7.40529 l 0,-0.0903 c -7.357,-5.54529 -14.94,-11.62001 -19.589,-19.83457 l 0,-0.18054 0,0 c -6.68,-9.73652 -10.155,-20.62624 -16.294,-29.88433 l 0,-0.0903 0,-0.0903 c -5.01,-9.49595 -9.613,-19.16612 -13.044,-29.35534 l 0,-0.0903 c -4.062,-10.39188 -5.235,-21.36329 -5.551,-32.08827 l 0,-0.27081 c 0.902,-11.66559 2.256,-23.50088 4.829,-35.17324 3.611,-14.9776 9.253,-29.43704 18.596,-42.49053 l 0,0 c 8.801,-13.5581 19.318,-25.89033 31.639,-36.93667 l 0,-0.0903 c 8.215,-6.32973 17.016,-12.60755 25.05,-13.5757 z" id="path5760" inkscape:connector-curvature="0" sodipodi:nodetypes="ccccccccccccccccccccccccccccccccccccccccccccssccccccczccccccccccccccccccccccccccccsssscsscccccsscccccccccccccccccccccccccccccccc"/></g></svg>