<?xml version="1.0" encoding="UTF-8" standalone="no"?>
<!-- Created with Inkscape (http://www.inkscape.org/) -->

<svg xmlns:dc="http://purl.org/dc/elements/1.1/" xmlns:cc="http://creativecommons.org/ns#" xmlns:rdf="http://www.w3.org/1999/02/22-rdf-syntax-ns#" xmlns:svg="http://www.w3.org/2000/svg" xmlns="http://www.w3.org/2000/svg" xmlns:xlink="http://www.w3.org/1999/xlink" xmlns:sodipodi="http://sodipodi.sourceforge.net/DTD/sodipodi-0.dtd" xmlns:inkscape="http://www.inkscape.org/namespaces/inkscape" version="1.1" width="547.08116" height="1000" id="svg4626" inkscape:version="0.91 r13725" sodipodi:docname="font_bold_raw.svg">
<g transform="translate(0,0)"><path inkscape:connector-curvature="0" style="color:#000000;display:inline;overflow:visible;visibility:visible;fill:#000000;fill-opacity:1;fill-rule:nonzero;stroke:none;stroke-width:1px;marker:none;enable-background:accumulate" d="m 346.95264,180.53992 -109.99396,2.82094 c 3.15944,22.15993 8.12429,43.41625 14.08211,64.88154 -18.82129,39.37125 -39.13203,78.32906 -59.2171,117.06887 C 152.05977,436.59341 121.09717,511.01694 84.628098,583.93386 58.540076,633.22533 35.792044,685.63427 12.682931,736.26444 7.1313277,747.02823 4.0621487,757.34518 0,768.70521 l 109.99396,4.22915 c 2.7081,-11.15512 6.13836,-22.07823 11.28375,-32.44078 21.57452,-50.88292 44.36769,-101.45667 69.14679,-150.9201 1.8054,-4.17048 3.6108,-8.51427 5.64188,-12.69422 l 40.8923,5.64187 c 45.45093,-0.18054 91.35321,0.007 136.80414,0 1.8054,0.003 3.6108,-0.003 5.64187,0 20.17534,53.70793 37.19123,108.2662 52.17604,163.61433 0,4.56405 6.27377,15.35673 4.06215,21.15702 l 111.43828,0 c 0,-8.75754 -3.6108,-15.97146 -7.04106,-23.97796 -19.09209,-61.3565 -36.06285,-123.86078 -60.66142,-183.36088 -29.92449,-78.56331 -64.90411,-155.43676 -94.51266,-234.13774 -8.93672,-24.47399 -18.36994,-48.15812 -25.36586,-73.34435 7.08619,-14.20714 14.48833,-27.86137 21.12317,-42.31405 l -29.60855,-1.40821 c -1.35405,-9.15969 -3.15945,-18.90885 -4.06214,-28.20937 z m -50.77686,194.64463 c 25.86234,62.86807 53.34955,125.4563 77.58704,189.00275 0.45135,1.38565 0.9027,2.84351 1.35405,4.22915 l -21.12318,-2.82093 c -29.02179,0.0451 -58.49494,-0.008 -87.4716,0 -21.66479,-0.0212 -43.23932,0.014 -64.85897,0 30.46611,-63.6128 60.07466,-128.76831 94.46752,-190.41323 z" id="path3872"/></g></svg>