<?xml version="1.0" encoding="UTF-8" standalone="no"?>
<!-- Created with Inkscape (http://www.inkscape.org/) -->

<svg xmlns:dc="http://purl.org/dc/elements/1.1/" xmlns:cc="http://creativecommons.org/ns#" xmlns:rdf="http://www.w3.org/1999/02/22-rdf-syntax-ns#" xmlns:svg="http://www.w3.org/2000/svg" xmlns="http://www.w3.org/2000/svg" xmlns:xlink="http://www.w3.org/1999/xlink" xmlns:sodipodi="http://sodipodi.sourceforge.net/DTD/sodipodi-0.dtd" xmlns:inkscape="http://www.inkscape.org/namespaces/inkscape" version="1.1" width="496.64863147167443" height="1000" id="svg4626" inkscape:version="0.91 r13725" sodipodi:docname="font_bold_raw.svg">
<g transform="translate(-2162.2366,0)"><path inkscape:connector-curvature="0" style="color:#000000;display:inline;overflow:visible;visibility:visible;fill:#000000;fill-opacity:1;fill-rule:nonzero;stroke:none;stroke-width:1px;marker:none;enable-background:accumulate" d="m 2162.2366,197.46554 105.7964,29.61984 c 16.8805,-0.18054 33.8964,0.57773 50.7769,1.40821 6.9056,2.14843 13.9918,4.5636 19.724,7.05234 21.7099,9.4269 42.2915,21.01259 62.0606,33.85124 45.8571,27.79954 78.8959,69.09535 108.6399,112.83747 27.5323,40.42515 38.4099,85.8833 40.8923,133.99448 1.8054,41.96787 -10.8775,80.93787 -31.0529,117.06887 -18.5505,32.5983 -45.7669,53.58336 -77.5419,71.93389 -31.1883,15.31069 -65.1749,21.99157 -98.7553,29.61983 -13.044,3.15945 -26.4491,6.02372 -39.4931,8.46281 2.2567,-46.38026 3.6108,-93.44522 8.4853,-139.63636 4.9649,-59.80025 7.673,-119.13018 4.0622,-179.12948 -1.3541,-53.49172 0,-107.44473 4.0621,-160.79338 l -108.5947,-14.10468 c -1.8054,54.11098 -4.0622,108.06082 -2.7081,162.20385 3.1594,59.59262 0.9027,119.74402 -4.0622,179.12947 -5.5516,51.8935 -6.4543,103.09147 -9.8394,155.15152 -0.9027,10.67217 0,12.60304 0,15.51515 0,4.2472 -1.3541,8.0909 -1.3541,22.56749 l 108.5948,12.69422 c 0,-10.8816 -0.045,-14.05368 0,-16.92562 12.9989,0.67251 26.4942,0.45586 39.4931,0 36.3788,-2.28835 71.7195,-8.72414 107.1956,-16.92562 34.3026,-7.71131 69.1468,-16.45261 100.1545,-33.85124 32.407,-19.99796 60.0296,-43.91815 78.9863,-77.57576 20.6267,-38.03841 32.452,-78.92529 31.0077,-122.71074 -2.2567,-49.90666 -13.1794,-97.22572 -40.8923,-139.63636 -29.4731,-44.79061 -64.0917,-88.00916 -110.0391,-117.06887 -77.1357,-52.13317 -122.5415,-64.50873 -225.6749,-70.52342 -39.7188,-3.33999 -79.9792,-4.97613 -119.8785,-4.22915 z" id="path3882"/></g></svg>