<?xml version="1.0" encoding="UTF-8" standalone="no"?>
<!-- Created with Inkscape (http://www.inkscape.org/) -->

<svg xmlns:dc="http://purl.org/dc/elements/1.1/" xmlns:cc="http://creativecommons.org/ns#" xmlns:rdf="http://www.w3.org/1999/02/22-rdf-syntax-ns#" xmlns:svg="http://www.w3.org/2000/svg" xmlns="http://www.w3.org/2000/svg" xmlns:xlink="http://www.w3.org/1999/xlink" xmlns:sodipodi="http://sodipodi.sourceforge.net/DTD/sodipodi-0.dtd" xmlns:inkscape="http://www.inkscape.org/namespaces/inkscape" version="1.1" width="530.8191620344951" height="1000" id="svg4626" inkscape:version="0.91 r13725" sodipodi:docname="font_bold_raw.svg">
<g transform="translate(-3639.0082,0)"><path inkscape:connector-curvature="0" style="color:#000000;display:inline;overflow:visible;visibility:visible;fill:#000000;fill-opacity:1;fill-rule:nonzero;stroke:none;stroke-width:1px;marker:none;enable-background:accumulate" d="m 3805.4209,190.4132 c -7.6278,0.92978 -14.398,2.50048 -22.5675,5.64188 -23.8312,14.38587 -41.3436,37.43811 -57.8179,60.65013 -14.1272,23.69136 -26.9004,48.17122 -40.8923,71.93389 -13.3148,23.25851 -18.3248,51.25077 -23.9667,77.57575 -4.0621,32.31575 -8.5756,63.8308 -14.1272,95.91185 -4.6941,27.00922 -6.2738,54.38811 -7.0411,81.80716 1.3541,25.85151 5.9578,51.14606 15.5265,74.75482 11.0129,24.58773 26.8553,44.99732 45.1349,63.47107 18.9116,19.92981 42.2013,29.7065 66.2582,39.49312 23.5153,7.45223 48.0236,15.48536 71.9452,21.15702 26.1783,5.46043 52.4017,6.47507 78.9862,7.05234 49.3325,-1.84602 101.7794,14.36918 148.0879,-7.05234 10.2456,-4.72834 16.068,-8.89114 25.411,-15.51515 28.2093,-26.4983 46.2182,-62.44741 62.0606,-98.73278 13.5856,-32.83931 21.1683,-67.18162 15.5264,-102.96419 -4.5135,-25.96751 -18.8213,-40.21301 -40.9374,-47.95592 -60.3004,-9.07078 -123.2185,-4.24269 -183.3383,-4.22915 -18.6859,0.13541 -9.9297,-0.1354 -28.2094,0 l 98.7102,16.92562 c -73.9311,-0.31594 -19.5886,-1.88213 14.1273,1.40821 20.3107,3.93577 35.2053,12.3363 39.4931,36.67218 6.6348,33.16293 -3.1595,64.08626 -15.5264,94.50137 -15.7522,34.55129 -32.768,70.20793 -62.0607,93.09091 -9.704,5.85491 -13.405,9.20664 -23.9666,12.69422 -1.3541,0.49648 -1.8054,0.96589 -4.0622,1.40821 -8.4854,-0.64543 -16.9707,-1.49397 -25.3658,-2.82094 -24.0119,-4.72157 -46.805,-12.33313 -70.546,-18.33609 -23.5154,-8.76205 -48.8361,-16.75049 -67.7025,-35.2617 -18.3699,-16.49188 -32.6777,-36.15493 -43.7358,-59.23967 -9.5686,-21.86294 -14.1724,-44.83033 -15.4813,-69.11295 0.9027,-26.84674 0.9027,-53.94127 5.6419,-80.39669 5.371,-31.91585 10.6518,-63.9134 15.4813,-95.91185 5.6418,-25.19525 9.2978,-51.35503 22.5675,-73.34435 13.6307,-23.574 26.3137,-47.66931 40.9374,-70.52341 15.8875,-21.65216 33.4902,-44.86689 57.8179,-55.00827 5.5065,-1.34953 10.2457,-2.22967 15.5264,-2.82093 0.9027,0 0.4514,0 1.3541,0 10.381,0.36108 20.6267,0.45135 31.0077,1.40821 30.1953,3.30388 61.3385,9.44449 90.27,19.74655 l 98.7554,-14.10468 c -29.3378,-10.57919 -59.7136,-17.00731 -90.27,-21.15702 -25.411,-3.0737 -50.6415,-2.60429 -76.1879,-2.82094 -47.7979,-0.13541 -16.9707,-0.0438 -122.6769,0 -8.5756,0.003 -16.3388,-0.92978 -24.0118,0 z" id="path3898"/></g></svg>