<?xml version="1.0" encoding="UTF-8" standalone="no"?>
<!-- Created with Inkscape (http://www.inkscape.org/) -->

<svg xmlns:dc="http://purl.org/dc/elements/1.1/" xmlns:cc="http://creativecommons.org/ns#" xmlns:rdf="http://www.w3.org/1999/02/22-rdf-syntax-ns#" xmlns:svg="http://www.w3.org/2000/svg" xmlns="http://www.w3.org/2000/svg" xmlns:xlink="http://www.w3.org/1999/xlink" xmlns:sodipodi="http://sodipodi.sourceforge.net/DTD/sodipodi-0.dtd" xmlns:inkscape="http://www.inkscape.org/namespaces/inkscape" version="1.1" width="462.8593000000001" height="1000" id="svg4626" inkscape:version="0.91 r13725" sodipodi:docname="font_bold_raw.svg">
<g transform="translate(-4246.6605,0)"><path inkscape:connector-curvature="0" style="color:#000000;display:inline;overflow:visible;visibility:visible;fill:#000000;fill-opacity:1;fill-rule:nonzero;stroke:none;stroke-width:1px;marker:none;enable-background:accumulate" d="m 4681.3556,174.89805 -110.0391,1.40821 c 11.0581,61.01619 17.061,122.945 21.1683,184.77135 4.5135,81.85094 5.5065,163.47486 5.6419,245.42149 0,52.83366 -0.9027,106.55286 -1.3541,159.38291 1.8054,18.62044 0,10.17885 2.7081,25.38843 l 110.0391,-2.82093 c -3.6108,-13.50755 -2.2567,-5.4812 -4.0621,-22.5675 0,-52.85397 -0.9027,-106.52804 -1.3541,-159.38291 -0.4513,-82.14568 0,-163.35525 -4.0621,-245.42149 -3.6108,-62.02585 -10.1554,-124.61092 -18.3248,-186.18182 z m -434.4243,22.56749 c 1.3541,63.76491 1.3541,128.0457 1.3541,191.82369 0.9027,79.04039 -1.8054,157.96298 1.354,236.95868 2.7081,49.23775 6.2738,98.8235 8.4403,148.09917 0,8.85774 0,16.93736 2.7081,25.38843 l 107.1956,-8.46281 c -0.9027,-4.18853 2.7081,-17.72992 0,-18.33609 -2.7081,-49.25671 -8.1695,-97.44688 -11.2838,-146.6887 -1.8054,-39.40736 -3.1594,-79.02279 -2.7081,-118.47934 l 63.505,9.87328 c 41.4339,-0.13541 82.6421,-0.0113 124.1212,0 28.9766,0.0239 14.6237,-0.0185 42.2915,0 l -107.1956,-16.92562 c -27.397,0.0284 -13.5857,-0.0185 -42.2915,0 -26.6297,0 -53.8009,0.0343 -80.4306,0 0,-37.10908 1.8054,-74.33416 1.3541,-111.427 0,-63.77799 0,-128.05878 1.354,-191.82369 l -110.0391,0 z m 121.2778,593.80716 c 0,1.39467 1.354,1.26829 2.7081,0 l -2.7081,0 z" id="path3900"/></g></svg>