<?xml version="1.0" encoding="UTF-8" standalone="no"?>
<!-- Created with Inkscape (http://www.inkscape.org/) -->

<svg xmlns:dc="http://purl.org/dc/elements/1.1/" xmlns:cc="http://creativecommons.org/ns#" xmlns:rdf="http://www.w3.org/1999/02/22-rdf-syntax-ns#" xmlns:svg="http://www.w3.org/2000/svg" xmlns="http://www.w3.org/2000/svg" xmlns:xlink="http://www.w3.org/1999/xlink" xmlns:sodipodi="http://sodipodi.sourceforge.net/DTD/sodipodi-0.dtd" xmlns:inkscape="http://www.inkscape.org/namespaces/inkscape" version="1.1" width="134.77309999999943" height="1000" id="svg4626" inkscape:version="0.91 r13725" sodipodi:docname="font_bold_raw.svg">
<g transform="translate(-4815.5419,0)"><path inkscape:connector-curvature="0" d="m 4950.315,169.92102 c -9.2978,60.55806 -10.1554,122.06621 -11.69,183.20065 0.4514,77.95805 -5.1454,155.69539 -9.1173,233.49908 -2.7081,52.54615 -3.6108,105.15549 -4.0621,157.76437 0,14.55604 0,29.10846 0,43.66223 0,0 -109.9037,-0.0266 -109.9037,-0.0266 l 0,0 c 0,-14.59078 0.4513,-29.18247 0.4513,-43.77552 1.3541,-52.76505 3.1595,-105.51566 5.9127,-158.21211 4.6038,-77.66558 10.2457,-155.2955 9.5235,-233.15425 1.3541,-61.62776 2.2568,-123.38506 8.2146,-184.77586 0,0 110.0842,1.81894 110.0842,1.81894 z" id="path3906" style="color:#000000;display:inline;overflow:visible;visibility:visible;fill:#000000;fill-opacity:1;fill-rule:nonzero;stroke:none;stroke-width:1px;marker:none;enable-background:accumulate"/></g></svg>