<?xml version="1.0" encoding="UTF-8" standalone="no"?>
<!-- Created with Inkscape (http://www.inkscape.org/) -->

<svg xmlns:dc="http://purl.org/dc/elements/1.1/" xmlns:cc="http://creativecommons.org/ns#" xmlns:rdf="http://www.w3.org/1999/02/22-rdf-syntax-ns#" xmlns:svg="http://www.w3.org/2000/svg" xmlns="http://www.w3.org/2000/svg" xmlns:xlink="http://www.w3.org/1999/xlink" xmlns:sodipodi="http://sodipodi.sourceforge.net/DTD/sodipodi-0.dtd" xmlns:inkscape="http://www.inkscape.org/namespaces/inkscape" version="1.1" width="279.34039999999914" height="1000" id="svg4626" inkscape:version="0.91 r13725" sodipodi:docname="font_bold_raw.svg">
<g transform="translate(-5218.642500000001,0)"><path inkscape:connector-curvature="0" style="color:#000000;display:inline;overflow:visible;visibility:visible;fill:#000000;fill-opacity:1;fill-rule:nonzero;stroke:none;stroke-width:1px;marker:none;enable-background:accumulate" d="m 5387.9889,35.26169 c -7.6278,28.415181 -18.1442,56.375402 -35.2504,80.39669 l 108.5948,7.05234 c 16.1583,-25.833456 27.7129,-54.105108 36.6496,-83.217626 l -109.994,-4.229148 z m -40.8923,146.6887 c 0,37.69765 0,75.29825 4.0622,112.83747 3.1594,42.21069 8.5305,84.96119 14.1272,126.94214 5.326,42.8155 6.3189,85.28482 7.0411,128.35262 -1.3541,39.01468 2.7081,78.33854 7.041,117.06887 3.6108,27.41409 7.3119,53.61901 -1.354,80.39669 -6.0481,11.88946 -14.2175,20.879 -23.9667,26.7989 -9.2978,-1.88213 -18.8213,-3.41672 -26.8102,-8.46281 l -108.5947,8.46281 c 8.8013,9.99469 16.9707,13.79551 31.0077,15.51515 61.4287,15.11345 130.1242,20.16135 191.8237,5.64188 22.5223,-8.77515 36.1982,-23.63133 45.135,-45.13499 7.9889,-28.30234 5.5064,-55.88027 1.354,-84.6281 -4.6038,-38.40852 -8.2597,-76.94793 -7.041,-115.6584 -0.9027,-43.41986 -1.8054,-86.57612 -7.0411,-129.76308 -5.4613,-41.91416 -11.0581,-83.37922 -14.1273,-125.53168 -4.0621,-37.18807 -4.5135,-75.47924 -2.7081,-112.83747 l -110.039,0 z" id="path3910"/></g></svg>