<?xml version="1.0" encoding="UTF-8" standalone="no"?>
<!-- Created with Inkscape (http://www.inkscape.org/) -->

<svg xmlns:dc="http://purl.org/dc/elements/1.1/" xmlns:cc="http://creativecommons.org/ns#" xmlns:rdf="http://www.w3.org/1999/02/22-rdf-syntax-ns#" xmlns:svg="http://www.w3.org/2000/svg" xmlns="http://www.w3.org/2000/svg" xmlns:xlink="http://www.w3.org/1999/xlink" xmlns:sodipodi="http://sodipodi.sourceforge.net/DTD/sodipodi-0.dtd" xmlns:inkscape="http://www.inkscape.org/namespaces/inkscape" version="1.1" width="478.92116249097035" height="1000" id="svg4626" inkscape:version="0.91 r13725" sodipodi:docname="font_bold_raw.svg">
<g transform="translate(-6151.6790375090295,0)"><path inkscape:connector-curvature="0" style="color:#000000;display:inline;overflow:visible;visibility:visible;fill:#000000;fill-opacity:1;fill-rule:nonzero;stroke:none;stroke-width:1px;marker:none;enable-background:accumulate" d="m 6165.1682,166.43524 c -3.6108,81.30617 -5.2808,162.59743 -7.0862,244.01102 0.045,81.56749 0,162.49227 -2.7081,244.01101 0.9027,34.87175 -7.6729,71.36203 -1.354,105.78513 1.354,3.43928 2.2567,6.87902 4.0621,9.87328 4.5135,6.43083 11.4643,11.75721 18.37,12.69421 63.5049,8.66411 93.6099,14.93833 146.6887,7.05234 56.7347,-8.83246 113.4693,-11.25034 170.6554,-9.87328 45.6766,0.46489 91.1275,9.80332 136.8041,7.05235 l -95.9118,-29.61984 c -44.9093,1.3721 -89.0514,-5.94157 -134.0058,-5.64187 -50.0998,-0.67703 -99.6581,0.96137 -149.4871,7.05234 -5.01,-29.89967 4.0622,-61.39532 1.3541,-91.68044 1.354,-81.64287 0,-163.7741 0,-245.42149 1.8054,-80.9857 3.6108,-162.07702 11.2837,-242.60054 l -98.7102,-12.69422 z" id="path3924"/></g></svg>