<?xml version="1.0" encoding="UTF-8" standalone="no"?>
<!-- Created with Inkscape (http://www.inkscape.org/) -->

<svg xmlns:dc="http://purl.org/dc/elements/1.1/" xmlns:cc="http://creativecommons.org/ns#" xmlns:rdf="http://www.w3.org/1999/02/22-rdf-syntax-ns#" xmlns:svg="http://www.w3.org/2000/svg" xmlns="http://www.w3.org/2000/svg" xmlns:xlink="http://www.w3.org/1999/xlink" xmlns:sodipodi="http://sodipodi.sourceforge.net/DTD/sodipodi-0.dtd" xmlns:inkscape="http://www.inkscape.org/namespaces/inkscape" version="1.1" width="523.3721511697831" height="1000" id="svg4626" inkscape:version="0.91 r13725" sodipodi:docname="font_bold_raw.svg">
<g transform="translate(-7308.811648830215,0)"><path inkscape:connector-curvature="0" style="color:#000000;display:inline;overflow:visible;visibility:visible;fill:#000000;fill-opacity:1;fill-rule:nonzero;stroke:none;stroke-width:1px;marker:none;enable-background:accumulate" d="m 7324.5506,142.45728 c 1.3541,25.35007 3.1595,50.78544 2.7081,76.16529 l -2.7081,0 c 0.9027,1.09227 2.2568,1.72867 2.7081,2.82094 0,48.37974 -3.6108,96.98786 -5.6419,145.27823 -1.8054,93.82029 -3.1594,186.92745 -7.0861,280.68319 -1.8054,50.0371 -8.8916,100.8785 -4.0622,150.92011 l 109.994,4.22915 c -8.8014,-49.03555 0,-98.72962 0,-148.09917 3.1594,-93.75214 4.7843,-186.9112 7.041,-280.68319 0,-4.20207 0,-8.4908 0,-12.69422 2.7081,3.75975 5.5968,7.52807 8.4854,11.28375 57.7276,74.32017 113.5596,150.17177 163.6143,229.90633 30.9175,49.47201 59.0366,101.37679 87.4265,152.33058 23.2896,48.93625 22.2515,46.26697 91.7143,35.26171 36.6947,9.04189 41.6596,7.99701 33.8512,-5.64188 1.3541,-0.18054 1.3541,0.18054 2.7081,0 1.3541,-0.18054 2.7081,-19.03116 4.0622,-31.0303 0,-65.13385 -2.7081,-130.95329 -4.0622,-196.05509 -0.9027,-78.00093 2.2568,-156.29885 7.0411,-234.13774 2.7081,-39.45746 5.5064,-77.64391 8.4854,-117.06887 0,-4.59204 0.9027,-9.5122 1.354,-14.10469 l -109.994,-8.46281 c 0,4.5952 0,9.50904 0,14.10469 -2.7081,39.52019 -5.3259,78.9131 -7.0862,118.47934 -3.6107,78.15619 -6.1383,157.29948 -5.6418,235.5482 0,20.40327 0.9027,40.25003 1.354,60.65014 -1.8054,-2.89315 -3.6108,-5.57733 -5.6418,-8.46281 -50.3707,-79.82754 -106.1575,-156.42522 -163.6144,-231.3168 -37.5974,-49.96985 -74.7435,-100.19696 -107.1956,-153.74105 l -1.354,0 c 0.4513,-23.43995 1.354,-47.07127 1.354,-70.52341 l -109.9939,-5.64188 z" id="path3934"/></g></svg>