<?xml version="1.0" encoding="UTF-8" standalone="no"?>
<!-- Created with Inkscape (http://www.inkscape.org/) -->

<svg xmlns:dc="http://purl.org/dc/elements/1.1/" xmlns:cc="http://creativecommons.org/ns#" xmlns:rdf="http://www.w3.org/1999/02/22-rdf-syntax-ns#" xmlns:svg="http://www.w3.org/2000/svg" xmlns="http://www.w3.org/2000/svg" xmlns:xlink="http://www.w3.org/1999/xlink" xmlns:sodipodi="http://sodipodi.sourceforge.net/DTD/sodipodi-0.dtd" xmlns:inkscape="http://www.inkscape.org/namespaces/inkscape" version="1.1" width="571.9434097364228" height="1000" id="svg4626" inkscape:version="0.91 r13725" sodipodi:docname="font_bold_raw.svg">
<g transform="translate(-9747.042590263576,0)"><path inkscape:connector-curvature="0" style="color:#000000;display:inline;overflow:visible;visibility:visible;fill:#000000;fill-opacity:1;fill-rule:nonzero;stroke:none;stroke-width:1px;marker:none;enable-background:accumulate" d="m 10070.744,166.43524 c -23.651,-0.27081 -47.212,0.91173 -70.546,4.22915 -18.28,1.77832 -35.4764,7.59802 -52.1763,15.51515 -20.401,8.53367 -39.0869,21.76635 -57.818,33.85124 -20.1753,12.54888 -38.3647,27.73861 -55.0195,45.13499 -16.4743,17.0872 -32.1812,36.21225 -45.135,56.41873 -16.1583,25.91606 -23.741,54.86834 -31.0077,84.6281 -6.9057,30.26526 -9.8846,60.65826 -11.2838,91.68044 -0.4513,25.37308 -1.354,50.81748 0,76.16528 2.7081,25.30268 12.1413,49.32442 22.5675,71.93389 11.1032,20.75848 24.9597,39.71202 39.4931,57.8292 13.2246,17.83464 31.5043,30.38848 49.3326,42.31405 17.1513,12.27355 34.7539,22.19919 53.6203,31.0303 15.7521,7.18368 32.7229,11.43495 49.3777,15.51515 18.4151,5.33315 36.0177,8.97735 54.9741,11.28375 5.101,0.51905 10.472,-0.27081 15.527,0 7.628,24.72269 17.467,47.85662 29.608,70.52341 13.586,24.76692 34.89,41.12159 57.863,55.00827 6.364,3.48442 13.09,6.96071 19.724,9.87328 l 94.513,-14.10469 c -7.402,-0.61835 -14.263,-2.79837 -21.168,-5.64187 -22.884,-11.83936 -43.736,-27.5197 -57.818,-50.77686 -11.194,-19.50192 -20.853,-39.29407 -28.21,-60.65014 27.578,0.46941 48.295,-2.47339 78.987,-15.51515 15.165,-6.31664 27.216,-17.08269 39.493,-28.20936 13.495,-12.55475 26.81,-26.34078 36.649,-42.31405 10.291,-16.1818 16.926,-33.66438 22.568,-52.18733 7.763,-22.24388 10.697,-45.64952 12.728,-69.11295 1.354,-20.5143 1.354,-41.50252 1.354,-62.0606 0,-19.04967 -0.05,-38.82647 -1.354,-57.8292 -1.805,-21.867 -5.055,-43.23074 -8.485,-64.88155 l 9.884,0 c -0.451,-15.9164 0,-32.02868 0,-47.95592 -0.903,-16.20571 -3.611,-31.09259 -8.485,-46.54545 -4.739,-14.99655 -11.329,-29.78277 -18.325,-43.72452 -7.538,-15.20146 -15.933,-29.8103 -25.366,-43.72452 -7.899,-11.4715 -18.325,-19.62559 -29.654,-26.79889 -14.488,-9.57404 -30.782,-15.75888 -46.534,-22.5675 -15.842,-7.71311 -32.181,-13.04175 -49.377,-15.51515 -23.471,-1.61132 -46.851,-2.55464 -70.501,-2.82093 z m -2.708,22.56749 c 9.749,1.86859 20.446,2.69456 29.653,7.05235 15.166,6.8885 30.827,13.58247 45.135,22.56749 10.517,6.68494 21.394,12.51548 29.609,22.56749 9.568,13.39832 18.189,27.2665 25.366,42.31405 6.364,12.97947 12.141,25.77072 16.925,39.49311 l -12.683,0 c 1.806,12.65811 4.514,25.2088 4.063,38.08265 1.354,17.59136 4.784,33.56102 8.44,50.77686 4.062,23.04502 6.68,47.1471 8.485,70.52341 1.354,18.75494 0.903,37.62769 1.354,56.41873 -0.05,20.26426 -0.05,40.4229 -1.354,60.65014 -1.805,22.74578 -4.829,44.9039 -12.728,66.29201 -5.867,17.53314 -13.811,35.50815 -23.967,50.77686 -10.29,14.81646 -21.755,27.92186 -35.25,39.49311 -9.569,8.03945 -20.04,15.74489 -31.053,21.15703 0,-1.46689 -0.903,-2.75324 -1.354,-4.22915 -6.319,-34.94531 -6.635,-70.32979 -4.062,-105.78512 1.354,-25.93953 3.611,-53.00202 4.062,-78.98623 l -95.912,0 c 1.354,25.75132 -1.805,51.86145 -2.708,77.57576 -1.805,34.36217 -0.903,69.01771 4.062,102.96418 -5.596,-1.70158 -11.374,-2.13037 -16.925,-4.22914 -19.0925,-7.90269 -37.9589,-17.30024 -54.9748,-29.61984 -17.2415,-11.4178 -34.7539,-21.24594 -47.9785,-38.08264 -14.5334,-17.2691 -28.0739,-35.17099 -39.4931,-55.00827 -10.1102,-21.34704 -19.9496,-43.66132 -22.5675,-67.70247 -1.8054,-24.96507 0,-49.75004 0,-74.75482 1.3541,-30.30634 2.7081,-60.7684 9.8846,-90.26998 7.1764,-28.7889 16.0229,-57.2799 32.452,-81.80716 13.1343,-19.43512 27.3067,-37.16595 43.6907,-53.59779 16.6097,-16.69273 35.2053,-31.67258 55.0196,-43.72452 18.821,-11.78655 37.236,-24.49882 57.818,-32.44077 8.44,-3.39415 18.099,-6.32612 26.81,-8.46281 z" id="path4472"/></g></svg>