<?xml version="1.0" encoding="UTF-8" standalone="no"?>
<!-- Created with Inkscape (http://www.inkscape.org/) -->

<svg xmlns:dc="http://purl.org/dc/elements/1.1/" xmlns:cc="http://creativecommons.org/ns#" xmlns:rdf="http://www.w3.org/1999/02/22-rdf-syntax-ns#" xmlns:svg="http://www.w3.org/2000/svg" xmlns="http://www.w3.org/2000/svg" xmlns:xlink="http://www.w3.org/1999/xlink" xmlns:sodipodi="http://sodipodi.sourceforge.net/DTD/sodipodi-0.dtd" xmlns:inkscape="http://www.inkscape.org/namespaces/inkscape" version="1.1" width="385.5484446902883" height="1000" id="svg4626" inkscape:version="0.91 r13725" sodipodi:docname="font_bold_raw.svg">
<g transform="translate(-12079.251,0)"><path inkscape:connector-curvature="0" style="color:#000000;display:inline;overflow:visible;visibility:visible;fill:#000000;fill-opacity:1;fill-rule:nonzero;stroke:none;stroke-width:1px;marker:none;enable-background:accumulate" d="m 12089.135,186.1818 -9.884,100.14325 c 21.213,0.70862 42.246,1.8054 63.459,2.82093 25.05,0.83951 49.694,0.99297 74.744,1.40822 0.903,43.96824 1.354,88.67399 1.354,132.58402 0,42.58124 0,84.36135 0,126.94214 0,28.65891 0,57.37921 0,86.03857 0,25.81089 0,51.76486 0,77.57576 0.903,25.55543 -1.805,52.16115 1.354,77.57575 l 109.994,-1.40821 c -3.611,-24.80799 -1.805,-51.14696 -2.708,-76.16529 0,-25.81089 0,-51.76531 0,-77.57575 -0.05,-28.65982 0,-57.37921 0,-86.03857 0,-42.58035 0,-84.36135 0,-126.94215 0,-44.37671 0,-89.57534 1.354,-133.99449 6.951,-0.27081 14.172,0.31595 21.168,0 23.831,-1.30891 46.85,-1.4714 70.501,1.40822 7.312,1.83699 16.655,1.62486 23.967,4.22914 l 0,1.40822 c 37.371,-4.30137 12.006,-0.18054 11.283,-67.70248 7.899,-31.36972 14.263,-38.89869 1.355,-33.85124 -9.389,0.55516 -18.867,-1.40821 -28.21,-1.40821 -24.508,-0.87562 -48.926,0.9027 -73.344,2.82093 -33.22,2.6404 -65.401,3.82294 -98.756,4.22915 -35.16,-0.0135 -70.771,-1.32245 -105.796,-4.22915 -20.536,-2.25675 -42.427,-3.90417 -62.061,-9.87328 z" id="path4154"/></g></svg>