<?xml version="1.0" encoding="UTF-8" standalone="no"?>
<!-- Created with Inkscape (http://www.inkscape.org/) -->

<svg xmlns:dc="http://purl.org/dc/elements/1.1/" xmlns:cc="http://creativecommons.org/ns#" xmlns:rdf="http://www.w3.org/1999/02/22-rdf-syntax-ns#" xmlns:svg="http://www.w3.org/2000/svg" xmlns="http://www.w3.org/2000/svg" xmlns:xlink="http://www.w3.org/1999/xlink" xmlns:sodipodi="http://sodipodi.sourceforge.net/DTD/sodipodi-0.dtd" xmlns:inkscape="http://www.inkscape.org/namespaces/inkscape" version="1.1" width="520.5869999999977" height="1000" id="svg4626" inkscape:version="0.91 r13725" sodipodi:docname="font_bold_raw.svg">
<g transform="translate(-13649.09,0)"><path inkscape:connector-curvature="0" style="color:#000000;display:inline;overflow:visible;visibility:visible;fill:#000000;fill-opacity:1;fill-rule:nonzero;stroke:none;stroke-width:1px;marker:none;enable-background:accumulate" d="m 13649.09,146.68869 c 6.951,27.8722 13.225,55.62661 21.169,83.21763 8.034,29.40589 13.179,60.50525 19.724,90.26997 4.965,26.62287 10.697,52.64228 16.925,78.98622 7.448,33.19227 20.808,63.65793 31.053,95.91185 10.472,33.58268 22.387,67.8284 32.452,101.55371 9.434,30.98878 19.273,60.98865 29.609,91.68044 5.822,19.20314 11.419,38.51865 16.926,57.8292 4.739,15.18387 9.884,30.27114 15.526,45.13499 l 108.595,8.46281 c -0.903,-2.25675 -1.806,-4.74775 -2.708,-7.05234 l 9.884,1.40821 c 6.093,-18.40379 16.881,-35.57314 23.967,-53.5978 14.578,-32.32116 27.081,-65.48454 39.493,-98.73278 17.693,-44.31759 34.844,-88.72455 53.62,-132.58402 21.936,-52.13091 45.587,-103.59698 62.061,-157.97245 13.902,-43.71097 28.074,-87.57586 42.291,-131.17355 l -108.594,-14.10243 c -11.284,44.11584 -26.043,86.30712 -39.493,129.76309 -16.204,54.13761 -40.171,106.17103 -62.061,157.97245 -18.776,43.99894 -36.92,88.28809 -55.02,132.58402 -3.61,9.39439 -6.183,18.8583 -9.839,28.20936 -5.416,-16.55145 -11.961,-32.65335 -16.926,-49.36639 -10.065,-33.78444 -20.356,-67.98231 -31.053,-101.55371 -9.704,-32.09685 -23.831,-62.98407 -31.007,-95.91185 -6.139,-26.35341 -11.961,-52.40172 -16.926,-78.98622 -7.131,-29.86312 -11.961,-60.56122 -19.769,-90.26997 -8.034,-27.06249 -15.662,-54.05186 -21.168,-81.80717 l -108.595,-9.87327 z" id="path4220"/></g></svg>