<?xml version="1.0" encoding="UTF-8" standalone="no"?>
<!-- Created with Inkscape (http://www.inkscape.org/) -->

<svg xmlns:dc="http://purl.org/dc/elements/1.1/" xmlns:cc="http://creativecommons.org/ns#" xmlns:rdf="http://www.w3.org/1999/02/22-rdf-syntax-ns#" xmlns:svg="http://www.w3.org/2000/svg" xmlns="http://www.w3.org/2000/svg" xmlns:xlink="http://www.w3.org/1999/xlink" xmlns:sodipodi="http://sodipodi.sourceforge.net/DTD/sodipodi-0.dtd" xmlns:inkscape="http://www.inkscape.org/namespaces/inkscape" version="1.1" width="462.49800000000323" height="1000" id="svg4626" inkscape:version="0.91 r13725" sodipodi:docname="font_bold_raw.svg">
<g transform="translate(-15048.275,0)"><path inkscape:connector-curvature="0" style="color:#000000;display:inline;overflow:visible;visibility:visible;fill:#000000;fill-opacity:1;fill-rule:nonzero;stroke:none;stroke-width:1px;marker:none;enable-background:accumulate" d="m 15412.198,163.61431 c -13.63,18.40559 -23.876,38.74116 -33.851,59.23966 -18.731,38.3846 -35.25,77.91292 -52.221,117.06887 -12.863,29.21091 -27.577,57.74209 -42.291,86.03857 -3.16,-5.49157 -5.326,-11.45029 -8.486,-16.92562 -18.144,-30.30814 -37.733,-60.29583 -56.419,-90.26997 -14.939,-24.67846 -30.15,-49.27522 -43.69,-74.75482 -8.621,-15.65643 -16.565,-31.05693 -25.411,-46.54546 l -101.554,-4.22914 c 11.284,14.41746 20.266,30.85969 29.609,46.54545 14.398,25.48321 29.698,49.9202 45.135,74.75482 18.956,29.97505 38.184,59.88284 56.418,90.26997 19.228,32.91018 37.959,66.80926 56.419,100.14325 0.903,1.8054 1.805,3.83196 2.708,5.64187 -15.526,28.46483 -31.053,57.56607 -46.534,86.03857 -15.436,28.21388 -30.331,56.85022 -46.579,84.6281 -8.26,13.90022 -17.377,26.3331 -26.765,39.49311 -5.371,8.38608 -8.757,17.76604 -12.728,26.7989 -2.709,7.64857 -6.139,15.37929 -9.84,22.56749 -1.805,4.29685 -4.513,8.74491 -7.086,12.69422 l 100.154,14.10468 c 1.806,-4.35553 5.056,-8.35223 7.042,-12.69421 3.61,-7.39673 6.995,-14.7763 9.884,-22.5675 3.611,-8.55308 6.319,-17.56789 11.284,-25.38843 8.44,-13.66597 16.339,-26.77994 23.967,-40.90358 14.894,-28.15385 29.157,-57.73261 43.735,-86.03856 1.806,-3.38513 4.062,-6.49854 5.642,-9.87328 11.329,19.89144 22.793,39.19432 33.851,59.23967 8.802,17.2041 17.784,34.43754 25.411,52.18732 4.965,12.54572 9.84,24.42074 15.482,36.67218 3.611,7.36513 7.221,15.38561 11.283,22.56749 2.709,5.10928 6.319,10.03757 8.486,15.51515 l 97.311,-2.82093 c -2.257,-2.7758 -4.875,-7.53348 -5.642,-8.46281 -4.513,-6.94492 -7.267,-15.42624 -11.284,-22.5675 -6.951,-11.55184 -12.502,-23.13438 -18.325,-35.2617 -7.808,-18.07476 -15.255,-35.94415 -23.966,-53.5978 -11.6,-21.44453 -25.592,-41.16356 -38.094,-62.0606 -16.926,-27.63841 -34.438,-55.22853 -50.777,-83.21763 5.597,-10.42483 11.419,-20.55899 16.926,-31.03031 23.334,-44.10049 45.857,-88.43117 66.303,-133.99449 17.512,-39.00384 34.754,-77.9445 54.974,-115.6584 10.697,-19.27715 20.853,-40.70859 38.094,-55.00826 l -98.71,-18.33609 z m 70.501,619.19558 c 0.903,1.336 1.806,1.84151 2.708,1.40821 0.903,-0.31594 0.903,-0.7357 1.354,-1.40821 l -4.062,0 z" id="path4512"/></g></svg>