<?xml version="1.0" encoding="UTF-8" standalone="no"?>
<!-- Created with Inkscape (http://www.inkscape.org/) -->

<svg xmlns:dc="http://purl.org/dc/elements/1.1/" xmlns:cc="http://creativecommons.org/ns#" xmlns:rdf="http://www.w3.org/1999/02/22-rdf-syntax-ns#" xmlns:svg="http://www.w3.org/2000/svg" xmlns="http://www.w3.org/2000/svg" xmlns:xlink="http://www.w3.org/1999/xlink" xmlns:sodipodi="http://sodipodi.sourceforge.net/DTD/sodipodi-0.dtd" xmlns:inkscape="http://www.inkscape.org/namespaces/inkscape" version="1.1" width="459.7450000000008" height="1000" id="svg4626" inkscape:version="0.91 r13725" sodipodi:docname="font_bold_raw.svg">
<g transform="translate(-15592.919000000002,0)"><path inkscape:connector-curvature="0" style="color:#000000;display:inline;overflow:visible;visibility:visible;fill:#000000;fill-opacity:1;fill-rule:nonzero;stroke:none;stroke-width:1px;marker:none;enable-background:accumulate" d="m 15943.934,145.27822 c -13.992,32.89573 -30.918,63.87142 -46.534,95.91184 -18.777,35.78528 -35.251,72.59827 -53.621,108.60606 -1.805,3.38061 -4.062,6.49177 -5.642,9.87328 -1.354,-2.32445 -2.708,-4.81726 -4.062,-7.05234 -21.213,-28.36824 -43.465,-56.61643 -63.46,-86.03857 -23.921,-31.43381 -46.082,-64.09709 -67.702,-97.32231 l -109.994,-4.22915 c 23.741,32.1659 46.624,65.253 70.501,97.32231 20.536,28.59166 39.764,57.77053 60.661,86.03857 13.45,17.78499 24.102,37.95446 36.65,56.41873 6.86,10.35306 13.856,21.04961 21.168,31.0303 l 16.926,0 c -3.611,7.01263 -6.545,14.10288 -9.885,21.15703 -15.752,31.28441 -28.57,63.56766 -42.291,95.91184 -9.388,25.41551 -21.801,50.69201 -31.053,76.16529 -8.621,22.70967 -19.724,43.54804 -31.008,64.88154 -9.975,16.76449 -15.256,36.23211 -23.967,53.5978 -5.912,14.53572 -12.321,27.82978 -18.37,42.31405 -0.902,1.62486 -1.805,4.01701 -2.708,5.64187 l 108.595,16.92562 c 0.903,-1.75124 2.257,-3.89063 2.708,-5.64187 6.229,-14.1945 12.096,-28.09427 18.325,-42.31405 7.763,-17.7218 14.669,-35.24997 23.967,-52.18733 11.193,-21.86474 20.897,-44.59923 29.608,-67.70248 9.524,-25.11536 21.936,-49.44989 31.053,-74.75482 13.405,-32.23224 26.901,-64.67753 42.292,-95.91184 17.331,-36.26686 35.34,-71.44733 53.62,-107.19559 18.325,-36.10844 34.799,-72.77385 53.575,-108.60606 15.797,-32.05351 33.4,-63.96711 49.378,-95.91185 l -108.595,-16.92562 z" id="path4228"/></g></svg>