<?xml version="1.0" encoding="UTF-8" standalone="no"?>
<!-- Created with Inkscape (http://www.inkscape.org/) -->

<svg xmlns:dc="http://purl.org/dc/elements/1.1/" xmlns:cc="http://creativecommons.org/ns#" xmlns:rdf="http://www.w3.org/1999/02/22-rdf-syntax-ns#" xmlns:svg="http://www.w3.org/2000/svg" xmlns="http://www.w3.org/2000/svg" xmlns:xlink="http://www.w3.org/1999/xlink" xmlns:sodipodi="http://sodipodi.sourceforge.net/DTD/sodipodi-0.dtd" xmlns:inkscape="http://www.inkscape.org/namespaces/inkscape" version="1.1" width="371.1802831804962" height="1000" id="svg4626" inkscape:version="0.91 r13725" sodipodi:docname="font_bold_raw.svg">
<g transform="translate(-70940.55766465151,0)"><path inkscape:connector-curvature="0" style="color:#000000;display:inline;overflow:visible;visibility:visible;fill:#000000;fill-opacity:1;fill-rule:nonzero;stroke:none;stroke-width:1px;marker:none;enable-background:accumulate" d="m 71244.04,428.10397 c 0.452,14.34931 -1.354,28.41383 -6.409,41.35583 -5.461,14.37459 -17.016,23.1046 -31.775,29.96015 -14.217,4.5302 -28.706,5.59855 -44.683,3.45283 -5.642,-1.21865 -10.291,-2.91572 -15.482,-5.12011 -1.354,-1.10581 -2.257,-2.83899 -3.611,-3.84099 -3.61,-2.81191 -7.582,-5.50015 -12.818,-9.34655 -5.236,-3.82745 -7.176,-4.87729 -46.85,-34.05796 -16.023,-9.80332 -32.091,-18.63579 -50.957,-20.86997 -16.971,-1.19156 -33.626,-0.18054 -48.295,5.6315 -15.707,7.76863 -27.397,18.26973 -33.671,33.54567 -6.86,16.65255 -10.471,34.38654 -8.304,53.13426 2.256,11.86147 5.19,20.99364 8.575,29.06467 l 58.495,0 c 0,-12.9569 1.806,-25.64389 6.455,-37.38666 5.416,-14.37549 17.015,-23.1046 31.729,-29.9606 14.218,-4.52975 28.751,-5.59809 44.684,-3.45283 5.642,1.21865 10.291,2.91572 15.526,5.12011 1.355,1.10581 2.257,2.83899 3.611,3.84099 3.611,2.81191 7.538,5.4997 12.773,9.34655 5.236,3.82745 7.177,4.89715 46.851,34.05751 16.023,9.80377 32.091,18.63669 50.957,20.86997 16.971,1.19156 33.626,0.18054 48.294,-5.63104 15.707,-7.76864 27.397,-18.26794 33.671,-33.54568 6.861,-16.6512 10.471,-34.38699 8.305,-53.13471 -2.708,-13.97289 -6.409,-24.08538 -10.742,-33.03339 l -56.329,0 z" id="path4754-6"/></g></svg>