<?xml version="1.0" encoding="UTF-8" standalone="no"?>
<!-- Created with Inkscape (http://www.inkscape.org/) -->

<svg xmlns:dc="http://purl.org/dc/elements/1.1/" xmlns:cc="http://creativecommons.org/ns#" xmlns:rdf="http://www.w3.org/1999/02/22-rdf-syntax-ns#" xmlns:svg="http://www.w3.org/2000/svg" xmlns="http://www.w3.org/2000/svg" xmlns:xlink="http://www.w3.org/1999/xlink" xmlns:sodipodi="http://sodipodi.sourceforge.net/DTD/sodipodi-0.dtd" xmlns:inkscape="http://www.inkscape.org/namespaces/inkscape" version="1.1" width="260.38300000000163" height="1000" id="svg4626" inkscape:version="0.91 r13725" sodipodi:docname="font_bold_raw.svg">
<g transform="translate(-69859.164,0)"><path inkscape:connector-curvature="0" id="path4394" d="m 70038.124,313.6764 -108.956,1.76478 c 4.513,24.39049 5.371,49.24317 7.853,73.87333 -0.902,0.0903 -1.354,0.0903 -2.256,0.18054 -25.14,2.22967 -50.326,3.54761 -75.466,5.28892 l 0,0.0903 1.805,108.87055 c 24.644,-4.33296 49.784,-5.41078 74.654,-7.93383 1.805,-0.18054 3.61,-0.0903 5.642,-0.27081 -0.452,12.12145 -1.806,24.15624 -3.611,36.23121 -1.806,13.8596 -2.257,27.82752 -2.708,41.78506 l 108.504,0.27081 c 0.452,-13.60865 0.903,-27.27732 2.257,-40.81556 1.354,-13.6899 2.708,-27.34503 2.708,-41.07961 9.569,0.83048 19.047,2.16196 28.57,3.34901 13.857,1.78284 27.849,2.32897 41.795,2.64492 l 0.452,-108.51805 c -13.631,-0.27081 -27.262,-0.79889 -40.802,-2.29286 -11.826,-1.25024 -23.561,-2.26577 -35.386,-2.82094 -1.805,-23.51532 -3.16,-47.06586 -5.01,-70.61142 z m -18.867,273.63085 c -28.254,0.82597 -56.463,2.64942 -84.628,5.28937 -25.14,2.22967 -50.325,3.54761 -75.465,5.28892 l 1.805,108.95901 c 24.644,-4.33296 49.784,-5.41078 74.653,-7.93383 27.894,-2.88864 55.923,-3.88161 83.951,-4.49544 19.408,-1.28635 38.546,1.48494 57.728,3.87709 13.856,1.78284 27.848,2.41924 41.795,2.73518 l 0.451,-108.51804 c -13.63,-0.27081 -27.306,-0.79889 -40.847,-2.29286 -19.679,-2.08975 -39.358,-4.63311 -59.217,-2.91121 z" style="color:#000000;display:inline;overflow:visible;visibility:visible;fill:#000000;fill-opacity:1;fill-rule:nonzero;stroke:none;stroke-width:1px;marker:none;enable-background:accumulate"/></g></svg>