<?xml version="1.0" encoding="UTF-8" standalone="no"?>
<!-- Created with Inkscape (http://www.inkscape.org/) -->

<svg xmlns:dc="http://purl.org/dc/elements/1.1/" xmlns:cc="http://creativecommons.org/ns#" xmlns:rdf="http://www.w3.org/1999/02/22-rdf-syntax-ns#" xmlns:svg="http://www.w3.org/2000/svg" xmlns="http://www.w3.org/2000/svg" xmlns:xlink="http://www.w3.org/1999/xlink" xmlns:sodipodi="http://sodipodi.sourceforge.net/DTD/sodipodi-0.dtd" xmlns:inkscape="http://www.inkscape.org/namespaces/inkscape" version="1.1" width="547.0819999999985" height="1000" id="svg4626" inkscape:version="0.91 r13725" sodipodi:docname="font_bold_raw.svg">
<g transform="translate(-19782.709,0)"><path style="color:#000000;display:inline;overflow:visible;visibility:visible;fill:#000000;fill-opacity:1;fill-rule:nonzero;stroke:none;stroke-width:1px;marker:none;enable-background:accumulate" d="m 20183.373,19.746538 -92.121,2.378614 c -1.354,2.870585 -3.159,5.730338 -4.784,8.551274 -6.003,9.957681 -12.367,19.601222 -19.814,28.914375 -10.607,13.21417 -21.891,25.71972 -28.21,37.642127 -6.138,8.991792 -11.645,17.784082 -22.567,26.181902 l 75.375,-1.41272 c 10.065,-8.51291 17.106,-17.32597 24.463,-26.445947 8.079,-11.986047 21.439,-24.612559 34.574,-37.906618 9.162,-9.411096 17.738,-19.184174 26.088,-29.266879 2.256,-2.852531 4.558,-5.723567 6.996,-8.639287 z m -53.711,160.793382 -109.994,2.82094 c 3.16,22.15993 8.124,43.41625 14.082,64.88154 -18.821,39.37125 -39.132,78.32906 -59.217,117.06887 -39.764,71.28214 -70.726,145.70567 -107.196,218.62259 -26.088,49.29147 -48.836,101.70041 -71.945,152.33058 -5.551,10.76379 -8.666,21.08074 -12.683,32.44077 l 109.994,4.22915 c 2.708,-11.15512 6.139,-22.07823 11.284,-32.44078 21.575,-50.88292 44.323,-101.45667 69.102,-150.9201 2.256,-4.17048 3.611,-8.51427 5.642,-12.69422 l 40.937,5.64187 c 45.406,-0.18054 91.353,0.007 136.804,0 1.806,0.003 3.611,-0.003 5.642,0 20.175,53.70793 37.191,108.2662 52.176,163.61433 0,4.56405 6.274,15.35673 4.062,21.15702 l 111.439,0 c 0,-8.75754 -3.611,-15.97146 -7.087,-23.97796 -19.092,-61.3565 -36.017,-123.86078 -60.616,-183.36088 -29.97,-78.56331 -64.904,-155.43676 -94.513,-234.13774 -8.981,-24.47399 -18.415,-48.15812 -25.411,-73.34435 7.132,-14.20714 14.534,-27.86137 21.169,-42.31405 l -29.609,-1.40821 c -1.354,-9.15969 -3.159,-18.90885 -4.062,-28.20937 z m -50.777,194.64463 c 25.863,62.86807 53.35,125.4563 77.587,189.00275 0.452,1.38565 0.903,2.84351 1.354,4.22915 l -21.168,-2.82093 c -28.977,0.0451 -58.45,-0.008 -87.427,0 -21.664,-0.0212 -43.239,0.014 -64.904,0 30.512,-63.6128 60.075,-128.76831 94.513,-190.41323 z" id="path4651" inkscape:connector-curvature="0"/></g></svg>