<?xml version="1.0" encoding="UTF-8" standalone="no"?>
<!-- Created with Inkscape (http://www.inkscape.org/) -->

<svg xmlns:dc="http://purl.org/dc/elements/1.1/" xmlns:cc="http://creativecommons.org/ns#" xmlns:rdf="http://www.w3.org/1999/02/22-rdf-syntax-ns#" xmlns:svg="http://www.w3.org/2000/svg" xmlns="http://www.w3.org/2000/svg" xmlns:xlink="http://www.w3.org/1999/xlink" xmlns:sodipodi="http://sodipodi.sourceforge.net/DTD/sodipodi-0.dtd" xmlns:inkscape="http://www.inkscape.org/namespaces/inkscape" version="1.1" width="547.0809999999983" height="1000" id="svg4626" inkscape:version="0.91 r13725" sodipodi:docname="font_bold_raw.svg">
<g transform="translate(-26719.912,0)"><path style="color:#000000;display:inline;overflow:visible;visibility:visible;fill:#000000;fill-opacity:1;fill-rule:nonzero;stroke:none;stroke-width:1px;marker:none;enable-background:accumulate" d="m 27025.521,20.804502 -51.274,1.322455 c -1.354,2.870585 -3.159,5.730338 -4.784,8.551275 -6.003,9.95768 -12.367,19.601221 -19.814,28.914374 -10.607,13.21417 -21.891,25.719721 -28.21,37.642127 -6.138,8.976447 -11.599,17.797177 -22.477,26.181907 l 75.375,-1.41273 c 10.066,-8.51201 17.107,-17.32597 24.464,-26.445942 6.454,-9.544244 16.384,-19.592646 26.72,-29.97279 10.335,10.363896 20.31,20.441635 26.719,29.97279 7.403,9.119972 14.399,17.934382 24.509,26.445942 l 75.285,1.41273 c -10.923,-8.38428 -16.339,-17.20546 -22.477,-26.181907 -6.364,-11.922406 -17.648,-24.427957 -28.21,-37.642127 -7.447,-9.313153 -13.856,-18.956694 -19.814,-28.914374 -1.805,-2.820937 -3.159,-5.681592 -4.784,-8.551275 l -51.228,-1.322455 z m 41.343,159.735418 -109.994,2.82094 c 3.16,22.15993 8.125,43.41625 14.082,64.88154 -18.821,39.37125 -39.132,78.32906 -59.217,117.06887 -39.764,71.28214 -70.726,145.70567 -107.195,218.62259 -26.088,49.29147 -48.836,101.70041 -71.946,152.33058 -5.551,10.76379 -8.62,21.08074 -12.682,32.44077 l 109.994,4.22915 c 2.708,-11.15512 6.138,-22.07823 11.283,-32.44078 21.575,-50.88292 44.368,-101.45667 69.147,-150.9201 1.805,-4.17048 3.611,-8.51427 5.642,-12.69422 l 40.892,5.64187 c 45.451,-0.18054 91.353,0.007 136.804,0 1.806,0.003 3.611,-0.003 5.642,0 20.176,53.70793 37.191,108.2662 52.176,163.61433 0,4.56405 6.274,15.35673 4.062,21.15702 l 111.439,0 c 0,-8.75754 -3.611,-15.97146 -7.086,-23.97796 -19.047,-61.3565 -36.018,-123.86078 -60.617,-183.36088 -29.924,-78.56331 -64.904,-155.43676 -94.512,-234.13774 -8.982,-24.47399 -18.37,-48.15812 -25.411,-73.34435 7.131,-14.20714 14.533,-27.86137 21.168,-42.31405 l -29.609,-1.40821 c -1.354,-9.15969 -3.159,-18.90885 -4.062,-28.20937 z m -50.777,194.64463 c 25.863,62.86807 53.35,125.4563 77.587,189.00275 0.452,1.38565 0.903,2.84351 1.354,4.22915 l -21.168,-2.82093 c -28.977,0.0451 -58.45,-0.008 -87.426,0 -21.665,-0.0212 -43.24,0.014 -64.904,0 30.511,-63.6128 60.119,-128.76831 94.512,-190.41323 z" id="path5419" inkscape:connector-curvature="0"/></g></svg>