<?xml version="1.0" encoding="UTF-8" standalone="no"?>
<!-- Created with Inkscape (http://www.inkscape.org/) -->

<svg xmlns:dc="http://purl.org/dc/elements/1.1/" xmlns:cc="http://creativecommons.org/ns#" xmlns:rdf="http://www.w3.org/1999/02/22-rdf-syntax-ns#" xmlns:svg="http://www.w3.org/2000/svg" xmlns="http://www.w3.org/2000/svg" xmlns:xlink="http://www.w3.org/1999/xlink" xmlns:sodipodi="http://sodipodi.sourceforge.net/DTD/sodipodi-0.dtd" xmlns:inkscape="http://www.inkscape.org/namespaces/inkscape" version="1.1" width="547.080999999991" height="1000" id="svg4626" inkscape:version="0.91 r13725" sodipodi:docname="font_bold_raw.svg">
<g transform="translate(-43600.396,0)"><path style="color:#000000;display:inline;overflow:visible;visibility:visible;fill:#000000;fill-opacity:1;fill-rule:nonzero;stroke:none;stroke-width:1px;marker:none;enable-background:accumulate" d="m 43975.558,23.977943 c -7.628,28.415182 -19.543,56.375403 -36.649,80.396697 l 109.994,7.05234 c 16.158,-25.833462 27.758,-54.105115 36.694,-83.217632 L 43975.558,23.9802 Z m -235.514,4.229148 c -7.673,28.415182 -19.589,56.375403 -36.695,80.396689 l 110.039,5.64188 c 16.159,-25.833463 27.713,-54.105115 36.65,-83.217632 l -109.994,-2.820937 z m 207.305,152.330579 -109.994,2.82093 c 3.159,22.15993 8.124,43.41625 14.082,64.88155 -18.821,39.37124 -39.132,78.32906 -59.217,117.06887 -39.764,71.28213 -70.727,145.70566 -107.196,218.62258 -26.088,49.29147 -48.836,101.70041 -71.945,152.33058 -5.551,10.76379 -8.621,21.08075 -12.683,32.44077 l 109.994,4.22915 c 2.708,-11.15511 6.139,-22.07823 11.284,-32.44077 21.574,-50.88293 44.368,-101.45668 69.147,-150.92011 1.805,-4.17047 3.611,-8.51426 5.642,-12.69422 l 40.892,5.64188 c 45.451,-0.18054 91.353,0.007 136.804,0 1.805,0.003 3.611,-0.003 5.642,0 20.175,53.70792 37.191,108.26619 52.176,163.61432 0.451,4.56405 6.274,15.35673 4.062,21.15703 l 111.438,0 c -0.451,-8.75755 -3.61,-15.97147 -7.041,-23.97797 -19.092,-61.35649 -36.063,-123.86078 -60.661,-183.36087 -29.925,-78.56332 -64.904,-155.43677 -94.513,-234.13774 -8.936,-24.474 -18.37,-48.15813 -25.366,-73.34436 7.087,-14.20713 14.534,-27.86137 21.124,-42.31404 l -29.609,-1.40822 c -1.354,-9.15969 -3.159,-18.90885 -4.062,-28.20936 z m -50.777,194.64462 c 25.862,62.86807 53.35,125.45631 77.587,189.00276 0.451,1.38564 0.903,2.8435 1.354,4.22914 l -21.168,-2.82093 c -28.977,0.0451 -58.45,-0.008 -87.427,0 -21.664,-0.0212 -43.239,0.014 -64.904,0 30.511,-63.6128 60.075,-128.76831 94.513,-190.41322 z" id="path5094" inkscape:connector-curvature="0"/></g></svg>