<?xml version="1.0" encoding="UTF-8" standalone="no"?>
<!-- Created with Inkscape (http://www.inkscape.org/) -->

<svg xmlns:dc="http://purl.org/dc/elements/1.1/" xmlns:cc="http://creativecommons.org/ns#" xmlns:rdf="http://www.w3.org/1999/02/22-rdf-syntax-ns#" xmlns:svg="http://www.w3.org/2000/svg" xmlns="http://www.w3.org/2000/svg" xmlns:xlink="http://www.w3.org/1999/xlink" xmlns:sodipodi="http://sodipodi.sourceforge.net/DTD/sodipodi-0.dtd" xmlns:inkscape="http://www.inkscape.org/namespaces/inkscape" version="1.1" width="948.872999999985" height="1000" id="svg4626" inkscape:version="0.91 r13725" sodipodi:docname="font_bold_raw.svg">
<g transform="translate(-48682.820999999996,0)"><path style="color:#000000;display:inline;overflow:visible;visibility:visible;fill:#000000;fill-opacity:1;fill-rule:nonzero;stroke:none;stroke-width:1px;marker:none;enable-background:accumulate" d="m 49274.721,180.53992 -55.561,1.40822 -74.202,0 c 0,2.81642 0,5.64864 0,8.46281 -9.884,-0.0253 -19.769,0.0415 -29.653,0 l 29.653,4.22914 c 0.452,19.72986 0,39.53915 0.452,59.32769 -33.671,37.40562 -68.244,74.49574 -102.727,111.33898 -69.418,71.28213 -131.434,145.70566 -198.233,218.62259 -46.625,49.29146 -91.128,101.7004 -135.36,152.33057 -10.02,10.76379 -17.467,21.08075 -26.269,32.44077 l 108.279,4.22915 c 7.538,-11.15511 15.391,-22.07823 24.869,-32.44077 42.743,-50.88292 86.479,-101.45668 131.885,-150.92011 3.611,-4.17047 7.131,-8.51426 10.923,-12.69421 l 38.59,5.64187 c 45.541,-0.18054 91.398,0.007 136.804,0 1.806,0.003 3.611,-0.003 5.642,0 -2.257,53.70793 -7.853,108.26619 -15.933,163.61432 -1.354,4.56405 0,15.35673 -4.603,21.15703 l 30.511,0 c 18.009,9.3303 42.021,8.88933 62.873,9.87328 89.141,1.44883 178.825,0.49197 267.966,0 l -107.195,-16.92562 c 2.708,0.0451 -26.224,0.0903 -50.777,0 -0.903,0.005 -1.354,-0.005 -2.708,0 -26.359,-0.72216 -63.505,4.42323 -81.785,-18.33609 -6.048,-43.56835 13.225,-87.3529 11.284,-131.17355 3.611,-57.01677 3.159,-113.59438 2.708,-170.66667 24.508,-0.0217 48.836,0.005 73.344,0 37.914,-0.008 76.278,-0.019 114.237,0 16.429,0.18054 32.858,1.65646 47.933,-5.64187 l -109.994,-14.10468 c -15.12,2.94731 -31.233,2.64039 -46.534,2.82093 -26.449,0.0131 -52.582,-0.006 -78.986,0 0,-14.62373 0,-29.09491 0,-43.72451 0,-25.13071 0.903,-50.33951 1.354,-75.5483 0.903,-16.90892 1.805,-33.79978 4.062,-51.39385 12.999,-14.20714 26.043,-27.86138 38.681,-42.31405 l -28.977,-1.40821 c 0,-0.45587 0,-0.95235 0.452,-1.40821 38.093,-0.0903 76.187,0.005 114.326,0 42.608,-0.0325 85.757,-0.0275 128.364,0 0.903,0.71764 5.326,1.64742 14.082,2.82093 l 19.77,-2.82093 c 5.145,0.004 10.336,-0.004 15.481,0 7.492,0.002 15.12,-0.008 22.567,0 39.764,0.0447 11.826,-2.28383 -19.724,-2.82094 l 69.102,-9.87102 c -59.307,-10.14003 -119.201,-3.04661 -179.141,-4.22915 -58.72,0.0379 -117.576,0.0108 -176.297,0 -1.354,-9e-4 -2.708,0 -4.062,0 0.903,-3.32194 1.354,-6.61634 2.708,-9.87328 z m -131.794,194.64463 c 0,15.99629 0,31.97543 0,47.95592 -13.495,-0.002 -26.9,0.0415 -40.395,0 l 40.395,6.52336 c 0,44.6543 0.452,89.34561 -1.354,134.52347 0,1.38565 -0.451,2.84351 -0.451,4.22915 l -19.95,-2.82093 c -29.022,0.0451 -58.45,-0.008 -87.426,0 -21.665,-0.0212 -43.24,0.014 -64.904,0 57.005,-63.6128 113.65,-128.76831 173.769,-190.41323 z" id="path5192" inkscape:connector-curvature="0"/></g></svg>