<?xml version="1.0" encoding="UTF-8" standalone="no"?>
<!-- Created with Inkscape (http://www.inkscape.org/) -->

<svg xmlns:dc="http://purl.org/dc/elements/1.1/" xmlns:cc="http://creativecommons.org/ns#" xmlns:rdf="http://www.w3.org/1999/02/22-rdf-syntax-ns#" xmlns:svg="http://www.w3.org/2000/svg" xmlns="http://www.w3.org/2000/svg" xmlns:xlink="http://www.w3.org/1999/xlink" xmlns:sodipodi="http://sodipodi.sourceforge.net/DTD/sodipodi-0.dtd" xmlns:inkscape="http://www.inkscape.org/namespaces/inkscape" version="1.1" width="528.9820000000036" height="1000" id="svg4626" inkscape:version="0.91 r13725" sodipodi:docname="font_bold_raw.svg">
<g transform="translate(-17598.357,0)"><path style="color:#000000;display:inline;overflow:visible;visibility:visible;fill:#000000;fill-opacity:1;fill-rule:nonzero;stroke:none;stroke-width:1px;marker:none;enable-background:accumulate" d="m 17763.596,19.746538 c 2.257,2.91572 4.604,5.787208 6.905,8.639288 8.305,10.082704 17.016,19.855783 26.179,29.266879 13.134,13.294058 26.404,25.920571 34.438,37.906617 7.402,9.119978 14.443,17.933028 24.508,26.445938 l 75.375,1.41273 c -10.922,-8.38428 -16.338,-17.20546 -22.477,-26.181903 -6.319,-11.922406 -17.602,-24.427957 -28.209,-37.642127 -7.447,-9.313153 -13.857,-18.956694 -19.814,-28.914374 -1.806,-2.820937 -3.16,-5.681592 -4.785,-8.551275 l -92.12,-2.378613 z m -122.858,162.203852 c 0,2.81643 0,5.64865 0,8.46281 -9.884,-0.0253 -19.769,0.0415 -29.653,0 l 29.653,4.22915 c 1.354,61.44767 1.354,123.30923 1.354,184.77135 0,14.58763 -0.05,29.14276 0,43.72452 -14.623,-0.0117 -29.112,0.0451 -43.735,0 l 43.735,7.05234 c 0,60.20556 0,120.43458 -4.062,180.53994 0,44.65385 -17.963,88.01367 -14.082,132.58402 13.676,34.63659 52.989,32.35727 84.628,33.85124 89.142,1.44883 178.78,0.49197 267.967,0 l -107.196,-16.92562 c 2.708,0.0451 -26.223,0.0903 -50.777,0 -0.902,0.005 -1.354,-0.005 -2.708,0 -26.404,-0.72216 -63.55,4.42323 -81.83,-18.33609 -6.048,-43.56835 13.225,-87.35289 11.284,-131.17355 3.611,-57.01677 3.16,-113.59438 2.708,-170.66666 24.509,-0.0217 48.791,0.005 73.345,0 37.913,-0.008 76.278,-0.019 114.236,0 16.384,0.18054 32.858,1.65645 47.934,-5.64188 l -109.994,-14.10468 c -15.121,2.94731 -31.234,2.6404 -46.535,2.82094 -26.449,0.0131 -52.582,-0.006 -78.986,0 0,-14.62374 0,-29.09492 0,-43.72452 0,-57.24109 1.806,-114.84597 2.708,-172.07713 42.337,-0.13541 84.583,0.005 126.965,0 42.562,-0.0325 85.711,-0.0275 128.319,0 0.902,0.71764 5.371,1.64742 14.127,2.82093 l 19.724,-2.82093 c 5.145,0.004 10.381,-0.004 15.526,0 7.493,0.002 15.076,-0.008 22.568,0 39.764,0.0447 11.825,-2.28383 -19.724,-2.82094 l 69.102,-9.87328 c -59.308,-10.14002 -119.202,-3.04661 -179.141,-4.22915 -58.721,0.0379 -117.577,0.0108 -176.297,0 -7.041,-0.006 -14.128,0.004 -21.169,0 0,-2.81191 0,-5.64909 0,-8.46281 l -109.994,0 z" id="path5266" inkscape:connector-curvature="0"/></g></svg>