<?xml version="1.0" encoding="UTF-8" standalone="no"?>
<!-- Created with Inkscape (http://www.inkscape.org/) -->

<svg xmlns:dc="http://purl.org/dc/elements/1.1/" xmlns:cc="http://creativecommons.org/ns#" xmlns:rdf="http://www.w3.org/1999/02/22-rdf-syntax-ns#" xmlns:svg="http://www.w3.org/2000/svg" xmlns="http://www.w3.org/2000/svg" xmlns:xlink="http://www.w3.org/1999/xlink" xmlns:sodipodi="http://sodipodi.sourceforge.net/DTD/sodipodi-0.dtd" xmlns:inkscape="http://www.inkscape.org/namespaces/inkscape" version="1.1" width="528.9819999999891" height="1000" id="svg4626" inkscape:version="0.91 r13725" sodipodi:docname="font_bold_raw.svg">
<g transform="translate(-44227.998,0)"><path style="color:#000000;display:inline;overflow:visible;visibility:visible;fill:#000000;fill-opacity:1;fill-rule:nonzero;stroke:none;stroke-width:1px;marker:none;enable-background:accumulate" d="m 44589.394,23.977943 c -7.628,28.415182 -19.543,56.375403 -36.695,80.396697 l 110.039,7.05234 c 16.159,-25.833462 27.758,-54.105115 36.65,-83.217632 L 44589.394,23.9802 Z m -235.559,4.229148 c -7.628,28.415182 -19.544,56.375403 -36.65,80.396689 l 109.994,5.64188 c 16.158,-25.833463 27.758,-54.105115 36.695,-83.217632 l -110.039,-2.820937 z m -83.455,153.741049 c 0,2.81642 0,5.64864 0,8.46281 -9.885,-0.0253 -19.769,0.0415 -29.654,0 l 29.654,4.22914 c 1.354,61.44768 1.354,123.30924 1.354,184.77135 0,14.58763 -0.04,29.14276 0,43.72452 -14.624,-0.0117 -29.112,0.0451 -43.736,0 l 43.736,7.05234 c 0,60.20556 0,120.43459 -4.062,180.53994 0.451,44.65385 -18.009,88.01368 -14.127,132.58402 13.675,34.63659 52.988,32.35728 84.628,33.85124 89.186,1.44884 178.825,0.49198 268.011,0 l -107.195,-16.92562 c 2.708,0.0451 -26.224,0.0903 -50.777,0 -0.903,0.005 -1.354,-0.005 -2.708,0 -26.404,-0.72216 -63.55,4.42323 -81.83,-18.33608 -6.048,-43.56835 13.225,-87.3529 11.284,-131.17356 3.61,-57.01677 3.159,-113.59437 2.708,-170.66666 24.508,-0.0217 48.836,0.005 73.344,0 37.959,-0.008 76.323,-0.019 114.237,0 16.429,0.18054 32.858,1.65645 47.978,-5.64187 l -110.039,-14.10469 c -15.12,2.94732 -31.188,2.6404 -46.534,2.82094 -26.404,0.0131 -52.582,-0.006 -78.986,0 -0.04,-14.62374 0,-29.09491 0,-43.72452 0,-57.24109 1.805,-114.84597 2.708,-172.07713 42.337,-0.13541 84.583,0.005 126.965,0 42.562,-0.0325 85.711,-0.0275 128.318,0 0.903,0.71765 5.371,1.64743 14.128,2.82094 l 19.724,-2.82094 c 5.145,0.004 10.381,-0.004 15.526,0 7.492,0.002 15.075,-0.008 22.568,0 39.763,0.0447 11.825,-2.28383 -19.724,-2.82094 l 69.101,-9.87328 c -59.307,-10.14002 -119.201,-3.04661 -179.141,-4.22914 -58.72,0.0379 -117.576,0.0108 -176.297,0 -7.041,-0.006 -14.127,0.004 -21.168,0 0,-2.81191 0,-5.6491 0,-8.46281 l -109.994,0 z" id="path5567" inkscape:connector-curvature="0"/></g></svg>