<?xml version="1.0" encoding="UTF-8" standalone="no"?>
<!-- Created with Inkscape (http://www.inkscape.org/) -->

<svg xmlns:dc="http://purl.org/dc/elements/1.1/" xmlns:cc="http://creativecommons.org/ns#" xmlns:rdf="http://www.w3.org/1999/02/22-rdf-syntax-ns#" xmlns:svg="http://www.w3.org/2000/svg" xmlns="http://www.w3.org/2000/svg" xmlns:xlink="http://www.w3.org/1999/xlink" xmlns:sodipodi="http://sodipodi.sourceforge.net/DTD/sodipodi-0.dtd" xmlns:inkscape="http://www.inkscape.org/namespaces/inkscape" version="1.1" width="188.30400000000373" height="1000" id="svg4626" inkscape:version="0.91 r13725" sodipodi:docname="font_bold_raw.svg">
<g transform="translate(-21425.803,0)"><path style="color:#000000;display:inline;overflow:visible;visibility:visible;fill:#000000;fill-opacity:1;fill-rule:nonzero;stroke:none;stroke-width:1px;marker:none;enable-background:accumulate" d="m 21614.107,19.746538 -92.121,2.378614 c -1.354,2.870585 -3.159,5.730338 -4.784,8.551274 -5.958,9.957681 -12.367,19.601222 -19.815,28.914375 -10.606,13.21417 -21.89,25.71972 -28.209,37.642127 -6.138,8.976442 -11.554,17.797632 -22.477,26.181902 l 75.285,-1.41272 c 10.065,-8.51291 17.106,-17.32597 24.508,-26.445947 8.034,-11.986047 21.394,-24.612559 34.529,-37.906618 9.162,-9.411096 17.873,-19.184174 26.178,-29.266879 2.257,-2.852531 4.513,-5.723567 6.906,-8.639287 z M 21449.86,168.1102 c -5.957,61.3908 -6.905,123.14359 -8.214,184.77135 0.902,77.85875 -4.92,155.50266 -9.524,233.16824 -2.708,52.69645 -4.784,105.47143 -5.867,158.23649 0,14.59304 0,29.13373 -0.452,43.72452 l 109.859,0 c 0,-14.55378 0,-29.08002 0,-43.63606 0,-52.60889 1.354,-105.25027 4.062,-157.79642 4.062,-77.80369 9.659,-155.47423 9.208,-233.43228 1.354,-61.13444 2.256,-122.62634 11.599,-183.18485 l -110.084,-1.85054 z" id="path5290" inkscape:connector-curvature="0"/></g></svg>