<?xml version="1.0" encoding="UTF-8" standalone="no"?>
<!-- Created with Inkscape (http://www.inkscape.org/) -->

<svg xmlns:dc="http://purl.org/dc/elements/1.1/" xmlns:cc="http://creativecommons.org/ns#" xmlns:rdf="http://www.w3.org/1999/02/22-rdf-syntax-ns#" xmlns:svg="http://www.w3.org/2000/svg" xmlns="http://www.w3.org/2000/svg" xmlns:xlink="http://www.w3.org/1999/xlink" xmlns:sodipodi="http://sodipodi.sourceforge.net/DTD/sodipodi-0.dtd" xmlns:inkscape="http://www.inkscape.org/namespaces/inkscape" version="1.1" width="253.11700000000565" height="1000" id="svg4626" inkscape:version="0.91 r13725" sodipodi:docname="font_bold_raw.svg">
<g transform="translate(-29507.764,0)"><path style="color:#000000;display:inline;overflow:visible;visibility:visible;fill:#000000;fill-opacity:1;fill-rule:nonzero;stroke:none;stroke-width:1px;marker:none;enable-background:accumulate" d="m 29634.368,20.804502 -51.319,1.322455 c -1.354,2.870585 -3.159,5.730338 -4.739,8.551275 -6.003,9.95768 -12.367,19.601221 -19.859,28.914374 -10.562,13.21417 -21.846,25.719721 -28.21,37.642127 -6.093,8.976447 -11.554,17.797177 -22.477,26.181907 l 75.376,-1.41273 c 10.11,-8.51201 17.106,-17.32597 24.508,-26.445942 6.409,-9.544244 16.384,-19.592646 26.72,-29.97279 10.336,10.363896 20.311,20.441635 26.72,29.97279 7.402,9.119972 14.398,17.934382 24.508,26.445942 l 75.285,1.41273 c -10.922,-8.38428 -16.384,-17.20546 -22.477,-26.181907 -6.364,-11.922406 -17.648,-24.427957 -28.209,-37.642127 -7.448,-9.313153 -13.857,-18.956694 -19.86,-28.914374 -1.805,-2.820937 -3.159,-5.681592 -4.739,-8.551275 l -51.228,-1.322455 z m -60.21,147.305698 c -5.958,61.3908 -6.906,123.14359 -8.215,184.77135 0.903,77.85875 -4.92,155.50266 -9.523,233.16824 -2.708,52.69645 -4.785,105.47143 -5.868,158.23649 0,14.59304 0,29.13373 -0.451,43.72452 l 109.858,0 c 0,-14.55378 0,-29.08002 0,-43.63606 0,-52.60889 1.354,-105.25027 4.063,-157.79642 4.062,-77.80369 9.658,-155.47423 9.207,-233.43228 1.354,-61.13444 2.257,-122.62634 11.6,-183.18485 l -110.084,-1.85054 z" id="path5429" inkscape:connector-curvature="0"/></g></svg>