<?xml version="1.0" encoding="UTF-8" standalone="no"?>
<!-- Created with Inkscape (http://www.inkscape.org/) -->

<svg xmlns:dc="http://purl.org/dc/elements/1.1/" xmlns:cc="http://creativecommons.org/ns#" xmlns:rdf="http://www.w3.org/1999/02/22-rdf-syntax-ns#" xmlns:svg="http://www.w3.org/2000/svg" xmlns="http://www.w3.org/2000/svg" xmlns:xlink="http://www.w3.org/1999/xlink" xmlns:sodipodi="http://sodipodi.sourceforge.net/DTD/sodipodi-0.dtd" xmlns:inkscape="http://www.inkscape.org/namespaces/inkscape" version="1.1" width="559.3415798173373" height="1000" id="svg4626" inkscape:version="0.91 r13725" sodipodi:docname="font_bold_raw.svg">
<g transform="translate(-55087.65600000001,0)"><path style="color:#000000;display:inline;overflow:visible;visibility:visible;fill:#000000;fill-opacity:1;fill-rule:nonzero;stroke:none;stroke-width:1px;marker:none;enable-background:accumulate" d="m 55150.71,197.46554 105.796,29.61984 c 16.881,-0.18054 33.942,0.57773 50.777,1.40821 6.906,2.14843 13.992,4.5636 19.724,7.05234 21.71,9.4269 42.292,21.01259 62.061,33.85124 45.857,27.79954 78.896,69.09535 108.64,112.83747 27.532,40.42515 38.41,85.8833 40.892,133.99448 1.805,41.96787 -10.878,80.93787 -31.053,117.06887 -18.55,32.5983 -45.722,53.58336 -77.542,71.93389 -31.188,15.31069 -65.175,21.99157 -98.755,29.61983 -13.044,3.15945 -26.449,6.02372 -39.493,8.46281 2.256,-46.38026 3.61,-93.44522 8.485,-139.63636 2.708,-31.19369 4.514,-62.25559 5.191,-93.3554 1.805,9e-4 3.159,-9e-4 4.829,0 0.903,0.71765 5.371,1.64743 14.127,2.82094 l 19.724,-2.82094 c 5.146,0.004 10.381,-0.004 15.527,0 7.492,0.002 15.075,-0.008 22.567,0 39.719,0.0447 11.78,-2.28383 -19.769,-2.82094 l 69.147,-9.87327 c -29.654,-5.07002 -59.443,-5.82377 -89.322,-5.4654 -12.322,0.13541 -24.644,0.31594 -37.011,0.52808 0.451,-22.6713 0.451,-45.34125 -0.903,-68.14345 -1.354,-53.49173 0,-107.44473 4.063,-160.79338 l -108.595,-14.10469 c -1.806,54.11098 -4.062,108.06083 -2.708,162.20386 1.354,26.16339 1.354,52.45497 0.902,78.72173 -1.354,-0.22567 -0.902,-0.36108 -3.159,-0.61835 l -19.769,2.82094 c -5.146,-0.004 -10.381,0.004 -15.527,0 -7.447,-0.002 -15.075,0.008 -22.567,0 -39.719,-0.0447 -11.78,2.28383 19.769,2.82094 l -69.102,9.87327 c 29.654,5.07002 59.398,5.82377 89.277,5.4654 6.771,-0.0903 13.586,-0.18054 20.356,-0.27081 -0.903,26.83952 -2.257,53.65828 -4.649,80.30868 -5.596,51.8935 -6.499,103.09147 -9.884,155.15151 -0.903,10.67217 0,12.60304 0,15.51515 -0.452,4.24721 -1.354,8.0909 -1.354,22.5675 l 108.594,12.69421 c -0.451,-10.88159 0,-14.05368 0,-16.92562 12.999,0.67251 26.54,0.45586 39.494,0 36.378,-2.28834 71.764,-8.72414 107.195,-16.92562 34.303,-7.71131 69.192,-16.4526 100.155,-33.85124 32.452,-19.99796 60.074,-43.91814 78.986,-77.57575 20.672,-38.03842 32.497,-78.9253 31.053,-122.71075 -2.257,-49.90665 -13.18,-97.22572 -40.938,-139.63636 -29.428,-44.7906 -64.091,-88.00916 -109.994,-117.06887 -77.135,-52.13316 -122.541,-64.50872 -225.675,-70.52341 -39.763,-3.33999 -79.979,-4.97839 -119.878,-4.22915 z" id="path5240" inkscape:connector-curvature="0"/></g></svg>