<?xml version="1.0" encoding="UTF-8" standalone="no"?>
<!-- Created with Inkscape (http://www.inkscape.org/) -->

<svg xmlns:dc="http://purl.org/dc/elements/1.1/" xmlns:cc="http://creativecommons.org/ns#" xmlns:rdf="http://www.w3.org/1999/02/22-rdf-syntax-ns#" xmlns:svg="http://www.w3.org/2000/svg" xmlns="http://www.w3.org/2000/svg" xmlns:xlink="http://www.w3.org/1999/xlink" xmlns:sodipodi="http://sodipodi.sourceforge.net/DTD/sodipodi-0.dtd" xmlns:inkscape="http://www.inkscape.org/namespaces/inkscape" version="1.1" width="523.3915596434963" height="1000" id="svg4626" inkscape:version="0.91 r13725" sodipodi:docname="font_bold_raw.svg">
<g transform="translate(-39896.2974403565,0)"><path style="color:#000000;display:inline;overflow:visible;visibility:visible;fill:#000000;fill-opacity:1;fill-rule:nonzero;stroke:none;stroke-width:1px;marker:none;enable-background:accumulate" d="m 40272.729,42.931026 c 0.451,9.879597 -0.903,19.563309 -4.513,28.473857 -3.611,9.8972 -11.69,15.907826 -21.846,20.628043 -9.794,3.118827 -19.769,3.854528 -30.782,2.378614 -4.062,-0.839511 -7.086,-2.008507 -10.652,-3.525043 -0.902,-0.762781 -1.805,-1.954345 -2.708,-2.64491 -2.708,-1.936291 -5.235,-3.786825 -8.801,-6.435346 -3.611,-2.635883 -4.965,-3.358043 -32.272,-23.448979 -11.058,-6.749937 -22.071,-12.830974 -35.115,-14.369174 -11.69,-0.821457 -23.109,-0.135405 -33.219,3.877095 -10.832,5.348947 -18.866,12.57912 -23.199,23.096475 -4.739,11.46564 -7.177,23.675557 -5.732,36.583712 1.354,8.16672 3.61,14.45403 5.912,20.01105 l 40.306,0 c 0,-8.92093 1.354,-17.65591 4.513,-25.74094 3.611,-9.897648 11.69,-15.907823 21.846,-20.62804 9.794,-3.118827 19.769,-3.854528 30.782,-2.378614 4.062,0.839511 7.086,2.008507 10.652,3.525043 0.902,0.762781 1.805,1.954345 2.708,2.64491 2.708,1.936291 5.235,3.786825 8.846,6.435346 3.611,2.635883 4.92,3.371584 32.226,23.448975 11.059,6.74994 22.071,12.83143 35.115,14.36918 11.69,0.82146 23.11,0.1354 33.22,-3.8771 10.832,-5.34894 18.866,-12.57776 23.199,-23.09647 4.739,-11.464288 7.177,-23.67601 5.732,-36.583713 -1.805,-9.620522 -4.513,-16.583045 -7.402,-22.743971 l -38.816,0 z m -360.719,99.526254 c 1.354,25.35007 3.16,50.78544 2.708,76.16529 l -2.708,0 c 0.903,1.09227 2.257,1.72867 2.708,2.82094 -0.451,48.37974 -3.159,96.98786 -5.641,145.27823 -1.806,93.82029 -3.16,186.92745 -7.042,280.68319 -1.805,50.0371 -8.936,100.8785 -4.062,150.92011 l 109.994,4.22915 c -8.801,-49.03555 0.452,-98.72962 0,-148.09917 3.16,-93.75214 4.785,-186.9112 7.086,-280.68319 0,-4.20207 0,-8.4908 0,-12.69422 2.709,3.75975 5.597,7.52807 8.441,11.28375 57.773,74.32017 113.559,150.17177 163.614,229.90633 30.963,49.47201 59.082,101.37679 87.472,152.33058 23.244,48.93625 22.206,46.26697 91.669,35.26171 36.695,9.04189 41.659,7.99701 33.851,-5.64188 1.354,-0.18054 1.805,0.18054 2.708,0 1.354,-0.18054 2.708,-19.03116 4.062,-31.0303 0.452,-65.13385 -2.708,-130.95329 -4.062,-196.05509 -0.903,-78.00093 2.257,-156.29885 7.041,-234.13774 2.708,-39.45746 5.507,-77.64391 8.486,-117.06887 0.451,-4.59204 0.902,-9.5122 1.354,-14.10469 l -110.039,-8.46281 c -0.452,4.5952 0.451,9.50904 0,14.10469 -2.709,39.52019 -5.326,78.9131 -7.042,118.47934 -3.61,78.15619 -6.183,157.29948 -5.641,235.5482 0,20.40327 0.902,40.25003 1.354,60.65014 -1.806,-2.89315 -3.611,-5.57733 -5.642,-8.46281 -50.371,-79.82754 -106.203,-156.42522 -163.615,-231.3168 -37.642,-49.96985 -74.788,-100.19696 -107.195,-153.74105 l -1.354,0 c 0.451,-23.43995 1.805,-47.07127 1.354,-70.52341 l -110.039,-5.64188 z" id="path5528" inkscape:connector-curvature="0"/></g></svg>