<?xml version="1.0" encoding="UTF-8" standalone="no"?>
<!-- Created with Inkscape (http://www.inkscape.org/) -->

<svg xmlns:dc="http://purl.org/dc/elements/1.1/" xmlns:cc="http://creativecommons.org/ns#" xmlns:rdf="http://www.w3.org/1999/02/22-rdf-syntax-ns#" xmlns:svg="http://www.w3.org/2000/svg" xmlns="http://www.w3.org/2000/svg" xmlns:xlink="http://www.w3.org/1999/xlink" xmlns:sodipodi="http://sodipodi.sourceforge.net/DTD/sodipodi-0.dtd" xmlns:inkscape="http://www.inkscape.org/namespaces/inkscape" version="1.1" width="385.35041794926656" height="1000" id="svg4626" inkscape:version="0.91 r13725" sodipodi:docname="font_bold_raw.svg">
<g transform="translate(-65084.424,0)"><path id="path5756" d="m 65108.977,168.1102 c -6.003,61.3908 -6.951,123.14359 -8.214,184.77135 0.902,77.85875 -4.92,155.50266 -9.524,233.16824 -2.708,52.69645 -4.784,105.47143 -5.913,158.23649 0,14.59304 -0.451,29.13373 -0.902,43.72452 l 109.949,0 c -0.452,-14.55378 -0.452,-29.08002 -0.452,-43.63606 0,-32.09413 1.354,-64.18466 2.257,-96.26435 18.821,3.96737 42.562,11.40336 74.653,26.35793 0.452,0.22568 0.903,0.0451 1.354,0 0.903,-0.0903 1.806,0.0903 2.708,0 3.16,-0.22567 6.771,0.0451 9.885,0 19.002,0.501 40.08,-0.55064 56.238,-6.34733 16.204,-5.79714 29.925,-14.40483 40.712,-20.80407 9.93,-5.86439 18.821,-13.60504 28.57,-20.80452 21.62,-17.55931 38.185,-34.23805 49.378,-63.47107 7.222,-22.67988 9.885,-46.36672 9.885,-70.52342 0.451,-18.87635 0.451,-38.05917 -2.709,-56.41873 -2.256,-13.10359 -4.603,-26.36967 -9.884,-38.08265 -2.257,-1.99948 -4.784,-3.70106 -7.041,-5.64187 -6.77,-5.73981 -13.676,-10.04253 -21.168,-14.10468 -8.26,-4.12083 -16.655,-8.69751 -25.366,-11.28375 -47.843,-14.20488 -94.964,-32.57572 -143.891,-39.49311 -10.606,-1.19156 -21.8,-1.30892 -32.452,-1.40821 -6.364,-0.0451 -12.863,0.54613 -19.363,0.88013 1.354,-52.48973 2.708,-105.07515 10.833,-157.00295 l -110.13,-1.85053 z m 196.247,210.15978 c 8.711,-0.79438 18.099,-0.22568 26.765,0 1.354,1.00651 3.16,1.71964 4.062,2.82094 8.079,5.17788 10.291,18.19255 12.728,28.20936 4.063,17.13234 5.326,34.35495 5.642,52.18733 0,14.72123 -0.05,30.6128 -2.708,45.13498 -1.805,8.4759 -4.513,11.60647 -7.086,19.74656 -5.913,14.70949 -13.766,28.68599 -23.967,39.49311 -6.996,7.39402 -11.87,11.0003 -19.724,16.92562 -24.689,16.20256 -53.304,22.70471 -80.43,28.20937 -7.809,1.19608 -15.256,1.67451 -23.019,2.55464 0.451,-8.98638 0,-17.99216 0.903,-26.97538 3.159,-62.09626 6.634,-124.11218 7.943,-186.26983 2.708,-1.17802 4.875,-2.7442 7.312,-3.70106 11.78,-3.78232 23.335,-5.73666 35.296,-8.46281 18.686,-3.8094 37.507,-8.73588 56.418,-9.87328 z" style="color:#000000;display:inline;overflow:visible;visibility:visible;fill:#000000;stroke:none;stroke-width:1.06299996;marker:none;enable-background:accumulate" inkscape:connector-curvature="0"/></g></svg>