<?xml version="1.0" encoding="UTF-8" standalone="no"?>
<!-- Created with Inkscape (http://www.inkscape.org/) -->

<svg xmlns:dc="http://purl.org/dc/elements/1.1/" xmlns:cc="http://creativecommons.org/ns#" xmlns:rdf="http://www.w3.org/1999/02/22-rdf-syntax-ns#" xmlns:svg="http://www.w3.org/2000/svg" xmlns="http://www.w3.org/2000/svg" xmlns:xlink="http://www.w3.org/1999/xlink" xmlns:sodipodi="http://sodipodi.sourceforge.net/DTD/sodipodi-0.dtd" xmlns:inkscape="http://www.inkscape.org/namespaces/inkscape" version="1.1" width="547.0809999999838" height="1000" id="svg4626" inkscape:version="0.91 r13725" sodipodi:docname="font_bold_raw.svg">
<g transform="translate(-59939.216,0)"><path style="color:#000000;display:inline;overflow:visible;visibility:visible;fill:#000000;fill-opacity:1;fill-rule:nonzero;stroke:none;stroke-width:1px;marker:none;enable-background:accumulate" d="m 60277.909,34.457384 c -36.379,0.64543 -72.713,2.071696 -108.956,4.143392 -32.362,1.74221 -64.769,2.775801 -97.131,4.143391 l 0,0 2.257,85.509583 c 31.73,-3.39866 64.002,-4.28331 96.093,-6.25887 35.882,-2.27029 71.9,-3.03307 107.963,-3.52504 25.004,-1.01102 49.693,1.20962 74.427,3.08723 17.828,1.4037 35.792,1.89116 53.756,2.11683 l 0.451,-85.157075 c -17.512,-0.225675 -35.025,-0.591269 -52.447,-1.764778 -25.411,-1.633887 -50.776,-3.642394 -76.368,-2.292857 z m 8.305,146.071706 -110.039,2.82094 c 3.159,22.15992 8.169,43.41624 14.127,64.88154 -18.867,39.37125 -39.132,78.32906 -59.262,117.06887 -39.719,71.28213 -70.727,145.70566 -107.196,218.62259 -26.088,49.29146 -48.791,101.7004 -71.945,152.33057 -5.552,10.7638 -8.621,21.08075 -12.683,32.44078 l 110.039,4.22914 c 2.708,-11.15511 6.093,-22.07823 11.284,-32.44077 21.574,-50.88292 44.322,-101.45668 69.101,-150.92011 2.257,-4.17047 3.611,-8.51426 5.642,-12.69421 l 40.893,5.64187 c 45.451,-0.18054 91.398,0.007 136.804,0 1.805,0.003 3.611,-0.003 5.642,0 20.22,53.70793 37.236,108.2662 52.221,163.61433 0.451,4.56405 6.274,15.35672 4.062,21.15702 l 111.393,0 c -0.451,-8.75754 -3.611,-15.97147 -7.041,-23.97796 -19.092,-61.3565 -36.063,-123.86078 -60.661,-183.36088 -29.925,-78.56331 -64.859,-155.43677 -94.468,-234.13774 -8.982,-24.47399 -18.415,-48.15813 -25.411,-73.34435 7.131,-14.20714 14.534,-27.86138 21.168,-42.31405 l -29.608,-1.40821 c -1.354,-9.1597 -3.16,-18.90885 -4.062,-28.20937 z m -50.777,194.64463 c 25.817,62.86807 53.304,125.4563 77.542,189.00275 0.451,1.38565 0.902,2.84802 1.354,4.22915 l -21.123,-2.82094 c -29.022,0.0451 -58.45,-0.008 -87.472,0 -21.62,-0.0212 -43.239,0.014 -64.859,0 30.466,-63.61279 60.075,-128.76831 94.468,-190.41322 z" id="path4392" inkscape:connector-curvature="0"/></g></svg>