<?xml version="1.0" encoding="UTF-8" standalone="no"?>
<!-- Created with Inkscape (http://www.inkscape.org/) -->

<svg xmlns:dc="http://purl.org/dc/elements/1.1/" xmlns:cc="http://creativecommons.org/ns#" xmlns:rdf="http://www.w3.org/1999/02/22-rdf-syntax-ns#" xmlns:svg="http://www.w3.org/2000/svg" xmlns="http://www.w3.org/2000/svg" xmlns:xlink="http://www.w3.org/1999/xlink" xmlns:sodipodi="http://sodipodi.sourceforge.net/DTD/sodipodi-0.dtd" xmlns:inkscape="http://www.inkscape.org/namespaces/inkscape" version="1.1" width="547.0819999999949" height="1000" id="svg4626" inkscape:version="0.91 r13725" sodipodi:docname="font_bold_raw.svg">
<g transform="translate(-58512.994999999995,0)"><path style="color:#000000;display:inline;overflow:visible;visibility:visible;fill:#000000;fill-opacity:1;fill-rule:nonzero;stroke:none;stroke-width:0.5;stroke-miterlimit:4;stroke-dasharray:none;stroke-opacity:1;marker:none;enable-background:accumulate" d="m 58925.484,15.074164 -13.315,3.17299 c 0,0 -2.708,0.64543 -5.822,1.408212 -1.354,0.361079 -3.16,0.74924 -4.514,1.146428 -0.451,0.18054 -1.354,0.45135 -1.805,0.704106 -0.451,0.135405 -0.903,0.27081 -1.354,0.528079 -0.451,0.135405 -0.451,0.225675 -0.903,0.52808 -0.451,0.135405 -0.902,0.604808 -0.902,0.618349 0,0.01038 -1.355,1.227672 -1.355,1.232185 l -0.451,0.618349 -0.451,0.61835 c 0,0.03746 -1.354,1.796372 -1.354,2.378613 -0.452,0.586755 -0.452,1.042619 -0.452,1.408212 0,0.731187 -0.451,1.232185 -0.451,1.674508 0,0.889159 -0.451,1.557157 -0.451,2.202587 0,1.087753 -0.452,1.778319 -0.452,1.850535 l 0,0.09027 c -2.256,6.902042 -5.145,13.491298 -8.53,19.041096 l 0,0.18054 0,0.18054 c -4.062,7.09883 -6.861,12.656753 -10.336,15.867656 l 0,0.09027 0,0.18054 c -5.236,5.219862 -10.517,9.761344 -16.023,13.575701 -6.499,3.601772 -12.367,6.451144 -17.377,7.140355 -6.996,0.52808 -14.533,0.18054 -22.748,0 l -0.451,0 c -9.704,-0.45135 -18.641,-1.164482 -26.72,-3.439286 -8.847,-2.622342 -16.565,-5.62066 -22.748,-10.490273 l 0,0 c -5.868,-4.693587 -11.103,-9.620974 -15.933,-15.338674 l 0,-0.09027 c -4.92,-5.769154 -9.388,-12.287097 -12.863,-19.129561 l 0,-0.09027 c -3.16,-5.547541 -5.733,-10.858123 -7.944,-16.132146 l -3.16,-6.875864 -7.402,0 c -2.708,4.51e-4 -6.996,-0.406215 -10.065,-0.970402 l -5.1,-0.880132 -8.485,6.964328 0.451,5.729886 c 0,3.917717 0.451,7.96452 0.903,12.165233 l 0,0.09027 c 0.902,8.162211 2.708,15.643786 5.641,22.567493 3.16,9.298258 8.034,17.089008 11.826,24.066426 4.513,8.545407 9.975,16.294178 16.113,23.272498 6.003,6.83886 12.728,13.44887 20.13,19.04155 l 0,0 0,0.0903 c 10.336,7.64677 21.349,10.89694 31.188,13.75218 l 0,0 0,0 c 10.968,2.95183 21.665,4.1795 32.272,4.76039 l 0,0 0,0 c 8.169,0.22567 16.88,0.6364 25.998,0 l 0.451,0 0.451,-0.0903 c 10.697,-1.3044 19.815,-5.71048 27.578,-9.96129 l 0.451,-0.18054 0.452,-0.18054 c 7.627,-4.82087 14.307,-10.63471 20.401,-16.39664 7.627,-6.71022 12.096,-14.76546 16.023,-21.68601 l 0,-0.0903 c 4.513,-7.22927 7.943,-14.66571 11.012,-22.391465 l 0,-0.09027 c 2.709,-7.11869 4.063,-14.078956 5.552,-20.452016 l 0,-0.09027 c 1.805,-7.556048 3.16,-14.940583 4.062,-22.743971 l 0,-0.09027 0,-0.09027 c 0.452,-3.904176 0,-7.316832 0,-7.316832 l -0.451,-13.664166 z m -65.491,165.465756 -110.039,2.82094 c 3.16,22.15993 8.17,43.41625 14.127,64.88154 -18.866,39.37125 -39.132,78.32906 -59.262,117.06887 -39.719,71.28214 -70.726,145.70567 -107.195,218.62259 -26.088,49.29147 -48.791,101.70041 -71.946,152.33058 -5.551,10.76379 -8.62,21.08074 -12.683,32.44077 l 110.04,4.22915 c 2.708,-11.15512 6.093,-22.07823 11.283,-32.44078 21.575,-50.88292 44.323,-101.45667 69.102,-150.9201 1.805,-4.17048 3.611,-8.51427 5.642,-12.69422 l 40.892,5.64187 c 45.451,-0.18054 91.399,0.007 136.804,0 1.806,0.003 3.611,-0.003 5.642,0 20.221,53.70793 37.237,108.2662 52.221,163.61433 0.452,4.56405 6.274,15.35673 4.063,21.15702 l 111.393,0 c -0.452,-8.75754 -3.611,-15.97146 -7.041,-23.97796 -19.093,-61.3565 -36.018,-123.86078 -60.662,-183.36088 -29.924,-78.56331 -64.859,-155.43676 -94.467,-234.13774 -8.982,-24.47399 -18.415,-48.15812 -25.411,-73.34435 7.131,-14.20714 14.533,-27.86137 21.168,-42.31405 l -29.609,-1.40821 c -1.354,-9.15969 -3.159,-18.90885 -4.062,-28.20937 z m -50.777,194.64463 c 25.818,62.86807 53.305,125.4563 77.542,189.00275 0.452,1.38565 0.903,2.84351 1.354,4.22915 l -21.123,-2.82093 c -29.022,0.0451 -58.45,-0.008 -87.471,0 -21.62,-0.0212 -43.24,0.014 -64.859,0 30.466,-63.6128 60.074,-128.76831 94.467,-190.41323 z" id="path5165" inkscape:connector-curvature="0"/></g></svg>