<?xml version="1.0" encoding="UTF-8" standalone="no"?>
<!-- Created with Inkscape (http://www.inkscape.org/) -->

<svg xmlns:dc="http://purl.org/dc/elements/1.1/" xmlns:cc="http://creativecommons.org/ns#" xmlns:rdf="http://www.w3.org/1999/02/22-rdf-syntax-ns#" xmlns:svg="http://www.w3.org/2000/svg" xmlns="http://www.w3.org/2000/svg" xmlns:xlink="http://www.w3.org/1999/xlink" xmlns:sodipodi="http://sodipodi.sourceforge.net/DTD/sodipodi-0.dtd" xmlns:inkscape="http://www.inkscape.org/namespaces/inkscape" version="1.1" width="547.1720000000059" height="1000" id="svg4626" inkscape:version="0.91 r13725" sodipodi:docname="font_bold_raw.svg">
<g transform="translate(-46218.225000000006,0)"><path style="color:#000000;display:inline;overflow:visible;visibility:visible;fill:#000000;fill-opacity:1;fill-rule:nonzero;stroke:none;stroke-width:1px;marker:none;enable-background:accumulate" d="m 46565.178,180.53992 -109.994,2.82094 c 3.16,22.15993 8.124,43.41625 14.082,64.88154 -18.821,39.37125 -39.132,78.32906 -59.217,117.06887 -39.764,71.28214 -70.726,145.70567 -107.196,218.62259 -26.088,49.29147 -48.836,101.70041 -71.945,152.33058 -5.551,10.76379 -8.62,21.08074 -12.683,32.44077 l 109.994,4.22915 c 2.708,-11.15512 6.139,-22.07823 11.284,-32.44078 21.575,-50.88292 44.368,-101.45667 69.147,-150.9201 1.805,-4.17048 3.611,-8.51427 5.642,-12.69422 l 40.892,5.64187 c 45.451,-0.18054 91.353,0.007 136.804,0 1.806,0.003 3.611,-0.003 5.642,0 20.175,53.70793 37.191,108.2662 52.176,163.61433 0.451,4.56405 6.274,15.35673 4.062,21.15702 l 23.741,0 c -4.062,6.09413 -6.499,10.91545 -40.486,63.11857 -8.937,17.15536 -16.79,34.35856 -15.752,53.06882 1.805,16.68053 6.635,32.65787 16.835,45.92845 12.774,13.96928 28.12,23.51127 48.295,27.06339 14.172,2.52756 28.706,3.45283 43.284,2.55464 l 13.586,-72.19837 c -4.83,-0.40622 -9.749,-0.31595 -14.488,-0.9704 -18.867,-2.9428 -32.091,-12.74883 -43.556,-25.91741 -8.44,-13.0562 -12.592,-26.99479 -13.134,-42.84258 0.451,-5.67573 1.354,-10.35036 3.16,-15.77965 1.354,-1.46237 3.159,-2.62685 4.062,-4.14339 6.589,-9.92293 12.818,-19.89731 19.137,-29.88432 l 66.845,0 c -0.452,-8.75755 -3.611,-15.97147 -7.041,-23.97797 -19.092,-61.35649 -36.063,-123.86078 -60.662,-183.36087 -29.924,-78.56332 -64.904,-155.43677 -94.512,-234.13774 -8.982,-24.474 -18.37,-48.15813 -25.366,-73.34436 7.086,-14.20713 14.488,-27.86137 21.123,-42.31404 l -29.609,-1.40822 c -1.354,-9.15969 -3.159,-18.90885 -4.062,-28.20936 z m -50.777,194.64463 c 25.863,62.86807 53.35,125.4563 77.587,189.00275 0.452,1.38565 0.903,2.84351 1.354,4.22915 l -21.168,-2.82093 c -28.977,0.0451 -58.45,-0.008 -87.427,0 -21.664,-0.0212 -43.239,0.014 -64.904,0 30.512,-63.6128 60.075,-128.76831 94.513,-190.41323 z" id="path5598" inkscape:connector-curvature="0"/></g></svg>