<?xml version="1.0" encoding="UTF-8" standalone="no"?>
<!-- Created with Inkscape (http://www.inkscape.org/) -->

<svg xmlns:dc="http://purl.org/dc/elements/1.1/" xmlns:cc="http://creativecommons.org/ns#" xmlns:rdf="http://www.w3.org/1999/02/22-rdf-syntax-ns#" xmlns:svg="http://www.w3.org/2000/svg" xmlns="http://www.w3.org/2000/svg" xmlns:xlink="http://www.w3.org/1999/xlink" xmlns:sodipodi="http://sodipodi.sourceforge.net/DTD/sodipodi-0.dtd" xmlns:inkscape="http://www.inkscape.org/namespaces/inkscape" version="1.1" width="465.50022222222833" height="1000" id="svg4626" inkscape:version="0.91 r13725" sodipodi:docname="font_bold_raw.svg">
<g transform="translate(-20368.53877777778,0)"><path style="color:#000000;display:inline;overflow:visible;visibility:visible;fill:#000000;fill-opacity:1;fill-rule:nonzero;stroke:none;stroke-width:1px;marker:none;enable-background:accumulate" d="m 20747.56,19.746538 -92.121,2.378614 c -1.354,2.870585 -3.159,5.730338 -4.874,8.551274 -6.003,9.957681 -12.277,19.601222 -19.724,28.914375 -10.607,13.21417 -21.891,25.71972 -28.209,37.642127 -6.139,8.991792 -11.645,17.784082 -22.568,26.181902 l 75.375,-1.41272 c 10.066,-8.51291 17.107,-17.32597 24.464,-26.445947 8.079,-11.986047 21.439,-24.612559 34.573,-37.906618 9.162,-9.411096 17.738,-19.184174 26.088,-29.266879 2.257,-2.852531 4.604,-5.723567 6.996,-8.639287 z m -174.492,167.845732 c -32.948,-0.13541 -64.408,3.30388 -93.068,19.74655 -21.8,17.75701 -37.282,44.00481 -47.979,70.52342 -12.006,27.68851 -21.574,55.82475 -31.007,84.6281 -9.795,33.3209 -19.228,65.81719 -25.411,100.14325 -5.101,30.62815 -6.455,62.06105 -7.042,93.0909 0,27.86273 -0.05,55.354 0,83.21763 1.355,28.40435 17.468,49.84392 35.251,69.11295 16.023,18.94361 36.018,33.6215 56.419,46.54545 23.109,13.92054 49.377,16.25311 74.788,22.5675 59.533,13.89841 123.219,18.87725 183.339,7.05234 20.13,-3.75523 38.364,-14.24641 56.418,-23.97796 12.683,-10.20006 24.509,-21.3308 35.251,-33.85124 l -109.994,-8.46281 c -11.013,10.84458 -22.116,21.80516 -35.251,29.61983 -8.801,4.76671 -17.512,9.12855 -26.81,12.69422 -23.199,-5.44554 -47.121,-8.44115 -69.101,-18.33609 -20.356,-11.4846 -39.494,-25.39926 -55.02,-43.72452 -16.88,-15.78731 -33.219,-34.21277 -35.25,-59.23967 0,-27.78148 0,-55.43704 0,-83.21763 0.451,-30.34921 0.451,-60.30711 5.641,-90.26997 6.139,-33.74111 15.617,-66.01353 25.366,-98.73278 9.659,-28.42105 20.492,-57.21401 32.452,-84.6281 10.517,-24.11291 24.328,-47.14304 46.535,-60.65013 9.884,-4.20207 22.612,-6.52968 33.851,-8.46281 8.35,1.57521 15.842,2.59526 23.966,5.64187 29.88,13.14466 57.186,33.61563 78.987,59.23967 l 108.64,-8.46281 c -22.297,-26.80025 -48.972,-47.72619 -78.987,-63.47108 -26.9,-12.67164 -55.741,-14.39445 -84.628,-15.51515 -30.692,2.14391 -64.407,-2.68102 -97.356,-2.82093 z" id="path5286" inkscape:connector-curvature="0"/></g></svg>