<?xml version="1.0" encoding="UTF-8" standalone="no"?>
<!-- Created with Inkscape (http://www.inkscape.org/) -->

<svg xmlns:dc="http://purl.org/dc/elements/1.1/" xmlns:cc="http://creativecommons.org/ns#" xmlns:rdf="http://www.w3.org/1999/02/22-rdf-syntax-ns#" xmlns:svg="http://www.w3.org/2000/svg" xmlns="http://www.w3.org/2000/svg" xmlns:xlink="http://www.w3.org/1999/xlink" xmlns:sodipodi="http://sodipodi.sourceforge.net/DTD/sodipodi-0.dtd" xmlns:inkscape="http://www.inkscape.org/namespaces/inkscape" version="1.1" width="465.4947777777779" height="1000" id="svg4626" inkscape:version="0.91 r13725" sodipodi:docname="font_bold_raw.svg">
<g transform="translate(-34089.579222222215,0)"><path style="color:#000000;display:inline;overflow:visible;visibility:visible;fill:#000000;fill-opacity:1;fill-rule:nonzero;stroke:none;stroke-width:1px;marker:none;enable-background:accumulate" d="m 34233.397,20.804502 c 10.878,8.384275 16.339,17.205457 22.477,26.181903 6.319,11.922406 17.603,24.427505 28.21,37.641675 7.447,9.313153 13.811,18.95669 19.814,28.91437 1.805,2.82094 3.16,5.68069 4.784,8.55128 l 51.274,1.32245 51.228,-1.32245 c 1.354,-2.87059 3.159,-5.73034 4.784,-8.55128 5.958,-9.95722 12.367,-19.601217 19.814,-28.91437 10.562,-13.21417 21.846,-25.719269 28.21,-37.641675 6.138,-8.976446 11.554,-17.797628 22.477,-26.181903 l -75.285,1.408212 c -10.11,8.512007 -17.106,17.326418 -24.508,26.445942 -6.41,9.531606 -16.384,19.608895 -26.72,29.97279 -10.336,-10.379693 -20.266,-20.428546 -26.72,-29.97279 -7.357,-9.119524 -14.398,-17.933484 -24.463,-26.445942 l -75.376,-1.408212 z m 60.707,166.787768 c -32.949,-0.13541 -64.408,3.30388 -93.069,19.74655 -21.8,17.75701 -37.281,44.00481 -47.978,70.52342 -12.006,27.68851 -21.575,55.82475 -31.008,84.6281 -9.794,33.3209 -19.227,65.81719 -25.411,100.14325 -5.1,30.62815 -6.454,62.06105 -7.041,93.0909 0,27.86273 -0.04,55.354 0,83.21763 1.354,28.40435 17.467,49.84392 35.251,69.11295 16.022,18.94361 36.017,33.6215 56.418,46.54545 23.109,13.92054 49.378,16.25311 74.789,22.5675 59.533,13.89841 123.218,18.87725 183.338,7.05234 20.13,-3.75523 38.365,-14.24641 56.419,-23.97796 12.683,-10.20006 24.508,-21.3308 35.25,-33.85124 l -109.994,-8.46281 c -11.012,10.84458 -22.116,21.80516 -35.25,29.61983 -8.801,4.76671 -17.512,9.12855 -26.81,12.69422 -23.199,-5.44554 -47.121,-8.44115 -69.102,-18.33609 -20.356,-11.4846 -39.493,-25.39926 -55.019,-43.72452 -16.881,-15.78731 -33.22,-34.21277 -35.251,-59.23967 0,-27.78148 0,-55.43704 0,-83.21763 0.452,-30.34921 0.452,-60.30711 5.642,-90.26997 6.138,-33.74111 15.617,-66.01353 25.366,-98.73278 9.659,-28.42105 20.491,-57.21401 32.452,-84.6281 10.516,-24.11291 24.328,-47.14304 46.534,-60.65013 9.885,-4.20207 22.613,-6.52968 33.851,-8.46281 8.35,1.57521 15.843,2.59526 23.967,5.64187 29.879,13.14466 57.186,33.61563 78.986,59.23967 l 108.64,-8.46281 c -22.296,-26.80025 -48.971,-47.72619 -78.986,-63.47108 -26.9,-12.67164 -55.742,-14.39445 -84.628,-15.51515 -30.692,2.14391 -64.408,-2.68102 -97.356,-2.82093 z" id="path5367" inkscape:connector-curvature="0"/></g></svg>