<?xml version="1.0" encoding="UTF-8" standalone="no"?>
<!-- Created with Inkscape (http://www.inkscape.org/) -->

<svg xmlns:dc="http://purl.org/dc/elements/1.1/" xmlns:cc="http://creativecommons.org/ns#" xmlns:rdf="http://www.w3.org/1999/02/22-rdf-syntax-ns#" xmlns:svg="http://www.w3.org/2000/svg" xmlns="http://www.w3.org/2000/svg" xmlns:xlink="http://www.w3.org/1999/xlink" xmlns:sodipodi="http://sodipodi.sourceforge.net/DTD/sodipodi-0.dtd" xmlns:inkscape="http://www.inkscape.org/namespaces/inkscape" version="1.1" width="528.9820000000109" height="1000" id="svg4626" inkscape:version="0.91 r13725" sodipodi:docname="font_bold_raw.svg">
<g transform="translate(-60566.81800000001,0)"><path style="color:#000000;display:inline;overflow:visible;visibility:visible;fill:#000000;fill-opacity:1;fill-rule:nonzero;stroke:none;stroke-width:1px;marker:none;enable-background:accumulate" d="m 60864.754,34.457384 c -36.379,0.64543 -72.803,2.071696 -109.046,4.143392 -32.362,1.74221 -64.679,2.775801 -97.04,4.143391 l 0,0 2.256,85.509583 c 31.73,-3.39866 64.002,-4.28331 96.093,-6.25887 35.882,-2.27029 71.99,-3.03307 108.053,-3.52504 25.005,-1.01102 49.603,1.20962 74.337,3.08723 17.829,1.4037 35.883,1.89116 53.846,2.11683 l 0.452,-85.157075 c -17.513,-0.225675 -35.115,-0.591269 -52.538,-1.764778 -25.411,-1.633887 -50.686,-3.642394 -76.278,-2.292857 z m -255.554,147.482176 0,8.46281 c -9.885,-0.0253 -19.769,0.0415 -29.609,0 l 29.609,4.22915 c 1.354,61.44767 1.354,123.30923 1.354,184.77135 0.05,14.58762 0,29.14275 0,43.72451 -14.624,-0.0117 -29.112,0.0451 -43.736,0 l 43.736,7.05235 c 0,60.20555 0.05,120.43458 -4.062,180.53994 0.451,44.65385 -17.964,88.01367 -14.128,132.58402 13.721,34.63659 53.034,32.35727 84.628,33.85124 89.187,1.44883 178.825,0.49197 268.012,0 l -107.196,-16.92562 c 2.708,0.0451 -26.223,0.0903 -50.777,0 -0.902,0.005 -1.805,-0.005 -2.708,0 -26.358,-0.72216 -63.505,4.42323 -81.829,-18.33609 -6.003,-43.56835 13.269,-87.3529 11.283,-131.17355 3.611,-57.01677 3.16,-113.59438 2.708,-170.66667 24.554,-0.0217 48.837,0.005 73.345,0 37.958,-0.008 76.323,-0.019 114.282,0 16.384,0.18054 32.858,1.65646 47.933,-5.64187 l -109.994,-14.10468 c -15.12,2.94731 -31.233,2.64039 -46.579,2.82093 -26.404,0.0131 -52.537,-0.006 -78.987,0 0,-14.62373 0,-29.09491 0,-43.72451 0,-57.2411 1.806,-114.84597 2.709,-172.07714 42.381,-0.1354 84.628,0.005 126.964,0 42.608,-0.0325 85.757,-0.0275 128.364,0 0.903,0.71765 5.326,1.64743 14.082,2.82094 l 19.769,-2.82094 c 5.146,0.004 10.336,-0.004 15.482,0 7.492,0.002 15.12,-0.008 22.567,0 39.764,0.0447 11.826,-2.28383 -19.724,-2.82093 l 69.102,-9.87328 c -59.307,-10.14003 -119.202,-3.05113 -179.141,-4.22915 -58.72,0.0379 -117.576,0.0108 -176.297,0 -7.041,-0.006 -14.082,0.004 -21.168,0 l 0,-8.46281 -109.994,0 z" id="path4415" inkscape:connector-curvature="0"/></g></svg>