<?xml version="1.0" encoding="UTF-8" standalone="no"?>
<!-- Created with Inkscape (http://www.inkscape.org/) -->

<svg xmlns:dc="http://purl.org/dc/elements/1.1/" xmlns:cc="http://creativecommons.org/ns#" xmlns:rdf="http://www.w3.org/1999/02/22-rdf-syntax-ns#" xmlns:svg="http://www.w3.org/2000/svg" xmlns="http://www.w3.org/2000/svg" xmlns:xlink="http://www.w3.org/1999/xlink" xmlns:sodipodi="http://sodipodi.sourceforge.net/DTD/sodipodi-0.dtd" xmlns:inkscape="http://www.inkscape.org/namespaces/inkscape" version="1.1" width="530.8192834868278" height="1000" id="svg4626" inkscape:version="0.91 r13725" sodipodi:docname="font_bold_raw.svg">
<g transform="translate(-28372.98,0)"><path style="color:#000000;display:inline;overflow:visible;visibility:visible;fill:#000000;fill-opacity:1;fill-rule:nonzero;stroke:none;stroke-width:1px;marker:none;enable-background:accumulate" d="m 28668.479,20.804502 -51.318,1.322455 c -1.354,2.870585 -3.16,5.730338 -4.785,8.551275 -5.957,9.95768 -12.367,19.601221 -19.814,28.914374 -10.561,13.21417 -21.845,25.719721 -28.209,37.642127 -6.139,8.976447 -11.555,17.797177 -22.477,26.181907 l 75.375,-1.41273 c 10.11,-8.51201 17.106,-17.32597 24.508,-26.445942 6.409,-9.544244 16.339,-19.592646 26.72,-29.97279 10.336,10.363896 20.311,20.441635 26.675,29.97279 7.402,9.119972 14.443,17.934382 24.508,26.445942 l 75.285,1.41273 c -10.877,-8.38428 -16.338,-17.20546 -22.477,-26.181907 -6.319,-11.922406 -17.602,-24.427957 -28.209,-37.642127 -7.447,-9.313153 -13.812,-18.956694 -19.814,-28.914374 -1.806,-2.820937 -3.16,-5.681592 -4.785,-8.551275 l -51.183,-1.322455 z M 28539.393,190.4132 c -7.628,0.92978 -14.398,2.50048 -22.567,5.64188 -23.832,14.38587 -41.344,37.43811 -57.818,60.65013 -14.128,23.69136 -26.901,48.17122 -40.893,71.93389 -13.314,23.25851 -18.324,51.25077 -23.966,77.57575 -4.062,32.31575 -8.576,63.8308 -14.128,95.91185 -4.694,27.00922 -6.273,54.38811 -7.041,81.80716 1.354,25.85151 5.958,51.14606 15.527,74.75482 11.013,24.58773 26.855,44.99732 45.135,63.47107 18.911,19.92981 42.201,29.7065 66.258,39.49312 23.515,7.45223 48.024,15.48536 71.945,21.15702 26.224,5.46043 52.402,6.47507 78.986,7.05234 49.333,-1.84602 101.78,14.36918 148.088,-7.05234 10.246,-4.72834 16.068,-8.89114 25.411,-15.51515 28.21,-26.4983 46.218,-62.44741 62.061,-98.73278 13.585,-32.83931 21.168,-67.18162 15.526,-102.96419 -4.513,-25.96751 -18.821,-40.21301 -40.937,-47.95592 -60.3,-9.07078 -123.219,-4.2472 -183.338,-4.22915 -18.641,0.13541 -9.93,-0.1354 -28.21,0 l 98.71,16.92562 c -73.931,-0.31594 -19.588,-1.88213 14.128,1.40821 20.31,3.93577 35.205,12.3363 39.493,36.67218 6.635,33.16293 -3.16,64.08626 -15.527,94.50137 -15.752,34.55129 -32.723,70.20793 -62.06,93.09091 -9.704,5.85491 -13.405,9.20664 -23.967,12.69422 -1.354,0.49648 -1.805,0.96589 -4.062,1.40821 -8.485,-0.64543 -16.971,-1.49397 -25.366,-2.82094 -24.012,-4.72157 -46.805,-12.33313 -70.546,-18.33609 -23.515,-8.76205 -48.836,-16.75049 -67.702,-35.2617 -18.37,-16.49188 -32.678,-36.15493 -43.736,-59.23967 -9.569,-21.86294 -14.173,-44.83033 -15.482,-69.11295 0.903,-26.84674 0.903,-53.94127 5.642,-80.39669 5.371,-31.91585 10.652,-63.9134 15.482,-95.91185 5.642,-25.19525 9.297,-51.35503 22.567,-73.34435 13.631,-23.574 26.314,-47.66931 40.938,-70.52341 15.887,-21.65216 33.49,-44.86689 57.817,-55.00827 5.507,-1.34953 10.246,-2.22967 15.527,-2.82093 l 1.354,0 c 10.381,0.36108 20.627,0.45135 31.008,1.40821 30.195,3.30388 61.338,9.44449 90.27,19.74655 l 98.755,-14.10468 c -29.338,-10.57919 -59.714,-17.00731 -90.27,-21.15702 -25.411,-3.0737 -50.641,-2.60429 -76.188,-2.82094 -47.798,-0.13541 -16.971,-0.0438 -122.677,0 -8.575,0.003 -16.339,-0.92978 -24.012,0 z" id="path5425" inkscape:connector-curvature="0"/></g></svg>