<?xml version="1.0" encoding="UTF-8" standalone="no"?>
<!-- Created with Inkscape (http://www.inkscape.org/) -->

<svg xmlns:dc="http://purl.org/dc/elements/1.1/" xmlns:cc="http://creativecommons.org/ns#" xmlns:rdf="http://www.w3.org/1999/02/22-rdf-syntax-ns#" xmlns:svg="http://www.w3.org/2000/svg" xmlns="http://www.w3.org/2000/svg" xmlns:xlink="http://www.w3.org/1999/xlink" xmlns:sodipodi="http://sodipodi.sourceforge.net/DTD/sodipodi-0.dtd" xmlns:inkscape="http://www.inkscape.org/namespaces/inkscape" version="1.1" width="530.8192834868241" height="1000" id="svg4626" inkscape:version="0.91 r13725" sodipodi:docname="font_bold_raw.svg">
<g transform="translate(-51391.823000000004,0)"><path style="color:#000000;display:inline;overflow:visible;visibility:visible;fill:#000000;fill-opacity:1;fill-rule:nonzero;stroke:none;stroke-width:1px;marker:none;enable-background:accumulate" d="m 51558.236,190.4132 c -7.628,0.92978 -14.398,2.50048 -22.568,5.64188 -23.831,14.38587 -41.343,37.43811 -57.818,60.65013 -14.127,23.69136 -26.9,48.17122 -40.892,71.93389 -13.315,23.25851 -18.325,51.25077 -23.967,77.57575 -4.062,32.31575 -8.575,63.8308 -14.127,95.91185 -4.694,27.00922 -6.274,54.38811 -7.041,81.80716 1.354,25.85151 5.958,51.14606 15.527,74.75482 11.012,24.58773 26.855,44.99732 45.135,63.47107 18.911,19.92981 42.201,29.7065 66.258,39.49312 23.515,7.45223 48.023,15.48536 71.945,21.15702 26.223,5.46043 52.402,6.47507 78.986,7.05234 49.333,-1.84602 101.779,14.36918 148.088,-7.05234 10.246,-4.72834 16.068,-8.89114 25.411,-15.51515 28.209,-26.4983 46.218,-62.44741 62.061,-98.73278 13.585,-32.83931 21.168,-67.18162 15.526,-102.96419 -4.513,-25.96751 -18.821,-40.21301 -40.937,-47.95592 -60.301,-9.07078 -123.219,-4.2472 -183.339,-4.22915 -18.64,0.13541 -9.929,-0.1354 -28.209,0 l 98.71,16.92562 c -73.931,-0.31594 -19.588,-1.88213 14.127,1.40821 20.311,3.93577 35.206,12.3363 39.493,36.67218 6.635,33.16293 -3.159,64.08626 -15.526,94.50137 -15.752,34.55129 -32.723,70.20793 -62.061,93.09091 -9.704,5.85491 -13.405,9.20664 -23.966,12.69422 -1.354,0.49648 -1.806,0.96589 -4.062,1.40821 -8.486,-0.64543 -16.971,-1.49397 -25.411,-2.82094 -23.967,-4.72157 -46.805,-12.33313 -70.501,-18.33609 -23.516,-8.76205 -48.836,-16.75049 -67.703,-35.2617 -18.37,-16.49188 -32.677,-36.15493 -43.736,-59.23967 -9.613,-21.86294 -14.172,-44.83033 -15.526,-69.11295 0.903,-26.84674 1.354,-53.94127 5.642,-80.39669 5.416,-31.91585 10.697,-63.9134 15.526,-95.91185 5.642,-25.19525 9.298,-51.35503 22.568,-73.34435 13.631,-23.574 26.268,-47.66931 40.892,-70.52341 15.888,-21.65216 33.535,-44.86689 57.863,-55.00827 5.507,-1.34953 10.246,-2.22967 15.482,-2.82093 l 1.354,0 c 10.426,0.36108 20.671,0.45135 31.052,1.40821 30.196,3.30388 61.294,9.44449 90.27,19.74655 l 98.711,-14.10468 c -29.293,-10.57919 -59.714,-17.00731 -90.27,-21.15702 -25.366,-3.0737 -50.642,-2.60429 -76.143,-2.82094 -47.798,-0.13541 -17.016,-0.0438 -122.722,0 -8.576,0.003 -16.339,-0.92978 -23.967,0 z m 74.608,641.14609 c 0.903,15.96921 0.451,31.97543 0.451,47.95592 -1.354,11.61142 -4.062,23.03193 -7.176,34.29176 -1.806,10.36886 -7.583,19.08578 -13.45,27.59237 -6.545,7.43328 -14.128,13.17941 -22.658,18.07159 -10.517,4.79244 -21.484,8.13468 -32.362,11.98921 -11.961,4.35553 -23.741,8.19877 -36.424,9.87328 -40.351,3.51601 -8.305,0.53259 96.544,-0.18054 l -107.647,16.57311 c 114.417,-0.31594 75.42,6.09771 118.57,-1.32245 12.547,-2.87961 24.508,-7.44773 36.694,-11.63625 11.239,-4.20658 22.974,-7.64452 32.949,-14.63367 8.621,-6.50982 16.971,-13.1582 22.928,-22.39101 6.094,-9.60653 11.194,-19.66125 13.405,-30.94229 3.16,-12.1711 5.913,-24.57059 6.771,-37.20116 0,-15.98049 -0.452,-31.98671 0.451,-47.95592 l 0,-0.0903 -109.046,0 z" id="path5623" inkscape:connector-curvature="0"/></g></svg>