<?xml version="1.0" encoding="UTF-8" standalone="no"?>
<!-- Created with Inkscape (http://www.inkscape.org/) -->

<svg xmlns:dc="http://purl.org/dc/elements/1.1/" xmlns:cc="http://creativecommons.org/ns#" xmlns:rdf="http://www.w3.org/1999/02/22-rdf-syntax-ns#" xmlns:svg="http://www.w3.org/2000/svg" xmlns="http://www.w3.org/2000/svg" xmlns:xlink="http://www.w3.org/1999/xlink" xmlns:sodipodi="http://sodipodi.sourceforge.net/DTD/sodipodi-0.dtd" xmlns:inkscape="http://www.inkscape.org/namespaces/inkscape" version="1.1" width="462.859000000004" height="1000" id="svg4626" inkscape:version="0.91 r13725" sodipodi:docname="font_bold_raw.svg">
<g transform="translate(-28980.632999999998,0)"><path style="color:#000000;display:inline;overflow:visible;visibility:visible;fill:#000000;fill-opacity:1;fill-rule:nonzero;stroke:none;stroke-width:1px;marker:none;enable-background:accumulate" d="m 29201.072,20.804502 -51.273,1.322455 c -1.354,2.870585 -3.16,5.730338 -4.785,8.551275 -5.957,9.95768 -12.367,19.601221 -19.814,28.914374 -10.607,13.21417 -21.89,25.719721 -28.209,37.642127 -6.139,8.976447 -11.555,17.797177 -22.478,26.181907 l 75.376,-1.41273 c 10.065,-8.51201 17.106,-17.32597 24.508,-26.445942 6.409,-9.544244 16.339,-19.592646 26.675,-29.97279 10.336,10.363896 20.311,20.441635 26.72,29.97279 7.402,9.119972 14.443,17.934382 24.508,26.445942 l 75.285,1.41273 c -10.922,-8.38428 -16.339,-17.20546 -22.477,-26.181907 -6.319,-11.922406 -17.603,-24.427957 -28.209,-37.642127 -7.448,-9.313153 -13.857,-18.956694 -19.814,-28.914374 -1.806,-2.820937 -3.16,-5.681592 -4.785,-8.551275 l -51.228,-1.322455 z m 214.256,154.093548 -110.039,1.40821 c 11.058,61.01619 17.061,122.945 21.168,184.77135 4.513,81.85094 5.506,163.47486 5.642,245.42149 0,52.83366 -0.903,106.55286 -1.354,159.38291 1.805,18.62044 0,10.17885 2.708,25.38843 l 110.039,-2.82093 c -3.611,-13.50755 -2.257,-5.4812 -4.062,-22.5675 0,-52.85397 -0.903,-106.52804 -1.354,-159.38291 -0.452,-82.14568 0,-163.35525 -4.062,-245.42149 -3.611,-62.02585 -10.156,-124.61092 -18.325,-186.18182 z m -434.424,22.56749 c 1.354,63.76491 1.354,128.0457 1.354,191.82369 0.902,79.04039 -1.806,157.96298 1.354,236.95868 2.708,49.23775 6.273,98.8235 8.44,148.09917 0,8.85774 0,16.93736 2.708,25.38843 l 107.196,-8.46281 c -0.903,-4.18853 2.708,-17.72992 0,-18.33609 -2.709,-49.25671 -8.17,-97.44688 -11.284,-146.6887 -1.806,-39.40736 -3.16,-79.02279 -2.708,-118.47934 l 63.505,9.87328 c 41.434,-0.13541 82.642,-0.0113 124.121,0 28.977,0.0239 14.624,-0.0185 42.291,0 l -107.195,-16.92562 c -27.397,0.0284 -13.586,-0.0185 -42.292,0 -26.629,0 -53.801,0.0343 -80.43,0 0,-37.10908 1.805,-74.33416 1.354,-111.427 0,-63.77799 0,-128.05878 1.354,-191.82369 l -110.039,0 z" id="path5427" inkscape:connector-curvature="0"/></g></svg>