<?xml version="1.0" encoding="UTF-8" standalone="no"?>
<!-- Created with Inkscape (http://www.inkscape.org/) -->

<svg xmlns:dc="http://purl.org/dc/elements/1.1/" xmlns:cc="http://creativecommons.org/ns#" xmlns:rdf="http://www.w3.org/1999/02/22-rdf-syntax-ns#" xmlns:svg="http://www.w3.org/2000/svg" xmlns="http://www.w3.org/2000/svg" xmlns:xlink="http://www.w3.org/1999/xlink" xmlns:sodipodi="http://sodipodi.sourceforge.net/DTD/sodipodi-0.dtd" xmlns:inkscape="http://www.inkscape.org/namespaces/inkscape" version="1.1" width="134.90899999999965" height="1000" id="svg4626" inkscape:version="0.91 r13725" sodipodi:docname="font_bold_raw.svg">
<g transform="translate(-47422.878000000004,0)"><path style="color:#000000;display:inline;overflow:visible;visibility:visible;fill:#000000;fill-opacity:1;fill-rule:nonzero;stroke:none;stroke-width:1px;marker:none;enable-background:accumulate" d="m 47447.432,168.09937 c -6.003,61.3908 -6.951,123.14359 -8.215,184.77135 0.903,77.85875 -4.965,155.50221 -9.523,233.16778 -2.709,52.69645 -4.83,105.47189 -5.913,158.23695 0,14.59304 -0.451,29.13373 -0.903,43.72451 l 52.447,0 c -4.784,7.71718 -4.513,7.37777 -27.126,42.40252 -8.937,17.15535 -16.745,34.27009 -15.707,52.98035 1.805,16.68053 6.59,32.65787 16.745,45.92845 12.773,13.96928 28.164,23.51127 48.294,27.06339 14.218,2.52756 28.706,3.45283 43.285,2.55464 l 13.585,-72.10991 c -4.784,-0.40621 -9.749,-0.40621 -14.443,-1.05616 -18.911,-2.9428 -32.091,-12.66081 -43.555,-25.82939 -8.44,-13.0562 -12.638,-26.99524 -13.134,-42.84304 0.451,-5.67572 1.354,-10.35035 3.159,-15.77964 0.903,-1.46237 3.16,-2.62685 4.062,-4.14339 1.806,-3.0105 4.063,-6.05711 5.823,-9.0798 l 36.604,0 c 0,-14.55378 0,-29.16849 0,-43.72452 0.452,-52.60889 1.354,-105.16226 4.062,-157.70796 4.063,-77.80369 9.659,-155.56269 9.163,-233.52074 1.354,-61.13444 2.257,-122.6268 11.645,-183.18486 l 0,0 -110.13,-1.85053 z" id="path4618" inkscape:connector-curvature="0"/></g></svg>