<?xml version="1.0" encoding="UTF-8" standalone="no"?>
<!-- Created with Inkscape (http://www.inkscape.org/) -->

<svg xmlns:dc="http://purl.org/dc/elements/1.1/" xmlns:cc="http://creativecommons.org/ns#" xmlns:rdf="http://www.w3.org/1999/02/22-rdf-syntax-ns#" xmlns:svg="http://www.w3.org/2000/svg" xmlns="http://www.w3.org/2000/svg" xmlns:xlink="http://www.w3.org/1999/xlink" xmlns:sodipodi="http://sodipodi.sourceforge.net/DTD/sodipodi-0.dtd" xmlns:inkscape="http://www.inkscape.org/namespaces/inkscape" version="1.1" width="527.9278681484211" height="1000" id="svg4626" inkscape:version="0.91 r13725" sodipodi:docname="font_bold_raw.svg">
<g transform="translate(-51993.903873878626,0)"><path style="color:#000000;display:inline;overflow:visible;visibility:visible;fill:#000000;fill-opacity:1;fill-rule:nonzero;stroke:none;stroke-width:1px;marker:none;enable-background:accumulate" d="m 52023.713,200.28648 c -5.507,57.30248 -6.815,114.60134 -8.485,172.07713 -2.257,38.135 -2.709,76.10797 -4.063,114.24794 -0.902,0.45135 -1.805,1.04261 -2.708,1.40821 l 2.708,0 c -1.354,36.25964 -3.61,72.31256 -4.062,108.60606 -0.902,48.86674 -3.159,97.94562 -7.041,146.6887 -0.451,5.11289 -0.903,10.40362 -1.354,15.51515 -0.903,9.75819 -1.805,14.69234 -2.708,23.97796 0,1.9047 -3.611,5.46134 -1.354,5.64188 0.451,0.0451 0.903,-0.0451 1.354,0 -0.451,14.21797 8.034,10.15492 53.62,8.46281 45,8.82073 52.808,14.16651 54.975,0 2.257,0.1354 1.354,-3.71913 1.354,-5.64188 0.451,-10.78229 0.451,-12.2388 1.354,-23.97796 0.451,-5.14087 0.903,-10.37292 1.354,-15.51515 3.159,-48.97281 3.611,-97.64187 4.062,-146.6887 0.451,-32.77522 1.806,-65.98825 2.708,-98.73278 l 1.354,0 c 9.072,-5.88741 16.926,-13.06794 25.411,-19.74656 20.762,29.17164 42.743,57.23026 66.258,84.6281 48.205,51.52655 96.815,102.5178 139.648,157.97245 21.891,26.6513 33.084,57.93391 52.176,86.03856 23.515,31.77278 3.16,4.93642 110.039,0 l -105.796,-7.05234 c 49.062,2.70359 78.851,-0.88013 97.311,-2.82093 -3.16,-5.25688 -6.545,-11.38982 -9.84,-16.92562 -11.78,-19.82555 -22.793,-39.17672 -36.694,-57.8292 -43.24,-55.48895 -90.812,-108.00035 -139.648,-159.38292 -37.688,-43.53134 -73.48,-88.72229 -101.554,-138.2259 35.115,-26.16204 69.598,-53.73545 102.998,-81.80716 43.556,-38.48028 85.441,-77.86056 129.763,-115.6584 l -108.639,-15.51515 c -42.427,38.7872 -83.545,77.75494 -126.92,115.6584 -29.473,24.47309 -60.887,47.62238 -91.669,70.52342 0.451,-8.88483 0.902,-17.91408 1.354,-26.7989 2.257,-57.24831 2.708,-113.8187 11.284,-170.66667 l -108.64,-8.46281 z m 478.16,605.0909 c 2.257,3.60178 5.281,6.7206 8.44,9.87328 0.452,0.48295 0.903,0.94332 1.354,1.40821 0.903,-0.79889 0.452,-0.70862 1.354,-1.40821 l 1.354,0 c 13.044,-10.94568 9.072,-12.15485 -12.683,-9.87328 z m -318.337,26.18191 c 0.903,15.96921 0.451,31.97543 0.451,47.95592 -1.354,11.61142 -4.062,23.03193 -7.131,34.29176 -1.805,10.36886 -7.628,19.08578 -13.495,27.59237 -6.545,7.43328 -14.083,13.17941 -22.658,18.07159 -10.517,4.79244 -21.394,8.13468 -32.272,11.98921 -11.96,4.35553 -23.786,8.19877 -36.514,9.87328 -40.305,3.51601 -8.214,0.53259 96.634,-0.18054 l -107.737,16.57311 c 114.462,-0.31594 75.511,6.09771 118.66,-1.32245 12.547,-2.87961 24.553,-7.44773 36.695,-11.63625 11.238,-4.20658 22.883,-7.64452 32.858,-14.63367 8.666,-6.50982 16.971,-13.1582 22.928,-22.39101 6.094,-9.60653 11.284,-19.66125 13.496,-30.94229 3.159,-12.1711 5.822,-24.57059 6.68,-37.20116 0,-15.98049 0,-31.98671 0.451,-47.95592 l 0,-0.0903 -108.956,0 z" id="path5625" inkscape:connector-curvature="0"/></g></svg>