<?xml version="1.0" encoding="UTF-8" standalone="no"?>
<!-- Created with Inkscape (http://www.inkscape.org/) -->

<svg xmlns:dc="http://purl.org/dc/elements/1.1/" xmlns:cc="http://creativecommons.org/ns#" xmlns:rdf="http://www.w3.org/1999/02/22-rdf-syntax-ns#" xmlns:svg="http://www.w3.org/2000/svg" xmlns="http://www.w3.org/2000/svg" xmlns:xlink="http://www.w3.org/1999/xlink" xmlns:sodipodi="http://sodipodi.sourceforge.net/DTD/sodipodi-0.dtd" xmlns:inkscape="http://www.inkscape.org/namespaces/inkscape" version="1.1" width="478.9208569684015" height="1000" id="svg4626" inkscape:version="0.91 r13725" sodipodi:docname="font_bold_raw.svg">
<g transform="translate(-21678.1141430316,0)"><path style="color:#000000;display:inline;overflow:visible;visibility:visible;fill:#000000;fill-opacity:1;fill-rule:nonzero;stroke:none;stroke-width:1px;marker:none;enable-background:accumulate" d="m 21857.835,19.746538 -92.12,2.378614 c -1.354,2.870585 -3.159,5.730338 -4.739,8.551274 -6.003,9.957681 -12.412,19.601222 -19.86,28.914375 -10.561,13.21417 -21.845,25.71972 -28.209,37.642127 -6.093,8.976442 -11.555,17.797632 -22.477,26.181902 l 75.285,-1.41272 c 10.11,-8.51291 17.106,-17.32597 24.508,-26.445947 8.079,-11.986047 21.439,-24.612559 34.574,-37.906618 9.162,-9.411096 17.828,-19.184174 26.178,-29.266879 2.257,-2.852531 4.513,-5.723567 6.86,-8.639287 z m -166.232,146.688702 c -3.61,81.30617 -5.28,162.59743 -7.086,244.01102 0.05,81.56749 0,162.49227 -2.708,244.01101 0.903,34.87175 -7.673,71.36203 -1.354,105.78513 1.354,3.43928 2.257,6.87902 4.062,9.87328 4.514,6.43083 11.464,11.75721 18.37,12.69421 63.505,8.66411 93.61,14.93833 146.689,7.05234 56.734,-8.83246 113.469,-11.25034 170.655,-9.87328 45.677,0.46489 91.128,9.80332 136.804,7.05235 l -95.912,-29.61984 c -44.909,1.3721 -89.051,-5.94157 -134.005,-5.64187 -50.1,-0.67703 -99.658,0.96137 -149.487,7.05234 -5.01,-29.89967 4.062,-61.39532 1.354,-91.68044 1.354,-81.64287 0,-163.7741 0,-245.42149 1.805,-80.9857 3.61,-162.07702 11.283,-242.60054 l -98.71,-12.69422 z" id="path5292" inkscape:connector-curvature="0"/></g></svg>