<?xml version="1.0" encoding="UTF-8" standalone="no"?>
<!-- Created with Inkscape (http://www.inkscape.org/) -->

<svg xmlns:dc="http://purl.org/dc/elements/1.1/" xmlns:cc="http://creativecommons.org/ns#" xmlns:rdf="http://www.w3.org/1999/02/22-rdf-syntax-ns#" xmlns:svg="http://www.w3.org/2000/svg" xmlns="http://www.w3.org/2000/svg" xmlns:xlink="http://www.w3.org/1999/xlink" xmlns:sodipodi="http://sodipodi.sourceforge.net/DTD/sodipodi-0.dtd" xmlns:inkscape="http://www.inkscape.org/namespaces/inkscape" version="1.1" width="478.92085696839786" height="1000" id="svg4626" inkscape:version="0.91 r13725" sodipodi:docname="font_bold_raw.svg">
<g transform="translate(-65549.3201430316,0)"><path style="color:#000000;font-style:normal;font-variant:normal;font-weight:normal;font-stretch:normal;font-size:medium;line-height:normal;font-family:sans-serif;text-indent:0;text-align:start;text-decoration:none;text-decoration-line:none;text-decoration-style:solid;text-decoration-color:#000000;letter-spacing:normal;word-spacing:normal;text-transform:none;direction:ltr;block-progression:tb;writing-mode:lr-tb;baseline-shift:baseline;text-anchor:start;white-space:normal;clip-rule:nonzero;display:inline;overflow:visible;visibility:visible;opacity:1;isolation:auto;mix-blend-mode:normal;color-interpolation:sRGB;color-interpolation-filters:linearRGB;solid-color:#000000;solid-opacity:1;fill:#000000;fill-opacity:1;fill-rule:nonzero;stroke:none;stroke-width:1.32024801;stroke-linecap:butt;stroke-linejoin:miter;stroke-miterlimit:4;stroke-dasharray:none;stroke-dashoffset:0;stroke-opacity:1;marker:none;color-rendering:auto;image-rendering:auto;shape-rendering:auto;text-rendering:auto;enable-background:accumulate" d="m 65562.809,166.43524 c -3.61,81.30617 -5.28,162.59743 -7.086,244.01102 0,81.56749 0,162.49227 -2.708,244.01101 0.903,34.87175 -7.673,71.36203 -1.354,105.78513 1.354,3.43928 2.257,6.87902 4.062,9.87328 4.514,6.43083 11.465,11.75721 18.37,12.69421 63.505,8.66411 93.61,14.93833 146.689,7.05234 56.735,-8.83246 113.469,-11.25034 170.655,-9.87328 45.677,0.46489 91.128,9.80332 136.804,7.05235 l -95.911,-29.61984 c -44.91,1.3721 -89.052,-5.94157 -134.006,-5.64187 -50.1,-0.67703 -99.658,0.96137 -149.487,7.05234 -5.01,-29.89967 4.062,-61.39532 1.354,-91.68044 1.354,-81.64287 0,-163.7741 0,-245.42149 1.805,-80.9857 3.611,-162.07702 11.284,-242.60054 l -98.756,-12.69422 z m 235.334,0.45135 0.452,30.41286 c 0.451,14.00087 0,28.30911 0,42.93149 l 0,0.27081 c -0.452,9.59164 -1.354,19.14672 -2.257,28.47386 l 0,0.45135 0,0.52808 c -0.451,6.34101 -1.806,11.95265 -3.611,18.95308 -0.903,3.32194 -2.257,5.44193 -3.159,7.31684 -1.354,1.69707 -3.16,3.33547 -6.951,7.05234 l 0,0.27081 0,0.18054 c -2.708,2.73518 -2.708,2.55915 -0.903,1.76477 -0.451,0.0903 -0.903,0.18054 -1.354,0.27081 -0.451,0.18054 -1.354,0.36108 -2.257,0.61835 -0.451,0.13541 -0.902,0.22568 -1.805,0.52808 -0.903,0.31595 -4.694,2.08975 -4.739,2.11683 0,0.0122 -7.041,5.45592 -7.086,5.46585 0,0.005 -6.139,9.33978 -6.139,9.3443 0,0.002 -2.257,8.63658 -2.257,8.63883 l 0.903,10.40226 c 0,0.002 4.062,8.81351 4.062,8.81577 0,0.002 4.83,5.72808 4.83,5.72989 0,0.004 7.582,4.9337 7.582,4.93641 0,0.003 4.514,1.58424 4.514,1.58875 0,0.003 1.805,0.48746 2.708,0.61835 4.062,0.70862 3.611,0.36108 4.514,0.27081 l 2.708,13.75218 c 17.422,-0.13541 18.144,0.45135 23.199,1.32245 2.708,0.45135 11.735,0.85305 17.512,-0.88013 5.823,-1.73318 7.628,-2.92926 11.149,-4.58391 l 1.354,-0.79437 1.805,-0.97041 c 8.937,-5.68069 13.405,-11.17361 16.655,-14.28116 l 0.451,-0.36108 0.452,-0.45135 c 2.256,-2.13488 10.065,-8.98682 15.932,-20.364 l 0,-0.52808 0,-0.36108 c 3.16,-6.37847 7.132,-15.29309 9.795,-26.62242 l 0,-0.0903 c 2.256,-9.42464 4.062,-20.1284 5.01,-32.00025 0,-0.27081 0,-0.59578 0,-0.88013 0.902,-11.48776 1.805,-23.27296 2.256,-35.34973 l 0,-0.45135 0,-0.36107 0,-43.37202 0.452,-18.95308 -17.016,-8.28678 -6.139,-3.08724 -73.254,0 z" id="path5733" inkscape:connector-curvature="0"/></g></svg>