<?xml version="1.0" encoding="UTF-8" standalone="no"?>
<!-- Created with Inkscape (http://www.inkscape.org/) -->

<svg xmlns:dc="http://purl.org/dc/elements/1.1/" xmlns:cc="http://creativecommons.org/ns#" xmlns:rdf="http://www.w3.org/1999/02/22-rdf-syntax-ns#" xmlns:svg="http://www.w3.org/2000/svg" xmlns="http://www.w3.org/2000/svg" xmlns:xlink="http://www.w3.org/1999/xlink" xmlns:sodipodi="http://sodipodi.sourceforge.net/DTD/sodipodi-0.dtd" xmlns:inkscape="http://www.inkscape.org/namespaces/inkscape" version="1.1" width="635.3199999999997" height="1000" id="svg4626" inkscape:version="0.91 r13725" sodipodi:docname="font_bold_raw.svg">
<g transform="translate(-55706.276000000005,0)"><path style="color:#000000;display:inline;overflow:visible;visibility:visible;fill:#000000;fill-opacity:1;fill-rule:nonzero;stroke:none;stroke-width:1px;marker:none;enable-background:accumulate" d="m 55875.939,166.42396 c -3.611,81.30616 -5.236,162.59743 -7.041,244.01101 0,13.96793 0,27.84874 0,41.78507 -10.742,7.49963 -21.394,15.03266 -32.543,22.47948 -13.811,9.69951 -26.313,19.52946 -39.041,29.35534 -11.104,7.84898 -21.394,15.8654 -32.498,23.71347 -7.221,5.09529 -15.165,10.05473 -22.928,15.07419 -7.131,4.27879 -15.211,8.41316 -22.748,12.6062 -3.611,2.36959 -7.854,4.68005 -12.864,6.78785 l 96.589,1.9408 c 4.514,-2.35153 8.621,-4.71209 12.548,-7.14035 7.808,-4.25623 15.842,-8.46552 22.883,-12.87069 7.809,-5.06009 15.482,-10.1644 22.432,-15.33868 2.708,-1.98594 5.281,-4.00798 7.899,-5.99483 -0.451,43.81795 -0.903,87.64492 -2.257,131.61453 0.903,34.87174 -7.673,71.36202 -1.354,105.78512 1.354,3.43928 2.257,6.87902 4.062,9.87328 4.514,6.43083 11.465,11.75721 18.37,12.69421 63.505,8.66411 93.61,14.93833 146.689,7.05234 56.735,-8.83246 113.469,-11.25034 170.655,-9.87328 45.677,0.46489 91.128,9.80332 136.804,7.05235 l -95.911,-29.61984 c -44.91,1.37211 -89.052,-5.94157 -134.006,-5.64187 -50.1,-0.67703 -99.658,0.96137 -149.487,7.05234 -5.01,-29.89967 4.062,-61.39532 1.354,-91.68044 0.903,-71.23203 0,-142.79671 0,-214.12669 5.19,-3.66948 10.2,-7.38454 15.662,-11.01926 18.37,-12.80073 37.01,-25.57528 56.779,-38.17065 17.964,-12.66262 36.47,-25.21827 54.93,-37.81816 12.412,-8.50343 24.824,-17.02446 36.92,-25.5649 l -96.95,-1.14643 c -9.975,8.68216 -22.342,17.10209 -34.302,25.56445 -10.742,7.48293 -21.349,14.99114 -32.091,22.47948 1.805,-69.53947 3.61,-139.09158 10.336,-208.22032 l -98.756,-12.69422 z" id="path3924-4" inkscape:connector-curvature="0"/></g></svg>