<?xml version="1.0" encoding="UTF-8" standalone="no"?>
<!-- Created with Inkscape (http://www.inkscape.org/) -->

<svg xmlns:dc="http://purl.org/dc/elements/1.1/" xmlns:cc="http://creativecommons.org/ns#" xmlns:rdf="http://www.w3.org/1999/02/22-rdf-syntax-ns#" xmlns:svg="http://www.w3.org/2000/svg" xmlns="http://www.w3.org/2000/svg" xmlns:xlink="http://www.w3.org/1999/xlink" xmlns:sodipodi="http://sodipodi.sourceforge.net/DTD/sodipodi-0.dtd" xmlns:inkscape="http://www.inkscape.org/namespaces/inkscape" version="1.1" width="523.3461177275167" height="1000" id="svg4626" inkscape:version="0.91 r13725" sodipodi:docname="font_bold_raw.svg">
<g transform="translate(-53044.073882272496,0)"><path inkscape:connector-curvature="0" id="path4635" style="color:#000000;display:inline;overflow:visible;visibility:visible;fill:#000000;fill-opacity:1;fill-rule:nonzero;stroke:none;stroke-width:1px;marker:none;enable-background:accumulate" d="m 53257.749,831.55929 c 0.902,15.96921 0.451,31.97543 0.451,47.95592 -1.354,11.61142 -4.062,23.03193 -7.131,34.29176 -1.806,10.36886 -7.628,19.08578 -13.496,27.59237 -6.499,7.43328 -14.082,13.17941 -22.658,18.07159 -10.516,4.79244 -21.348,8.13468 -32.271,11.98921 -11.961,4.35553 -23.786,8.19877 -36.469,9.87328 -40.351,3.51601 -8.26,0.53259 96.589,-0.18054 l -107.692,16.57311 c 114.417,-0.31594 75.465,6.09771 118.66,-1.32245 12.547,-2.87961 24.508,-7.44773 36.649,-11.63625 11.239,-4.20658 22.929,-7.64452 32.904,-14.63367 8.62,-6.50982 16.925,-13.1582 22.883,-22.39101 6.093,-9.60653 11.284,-19.66125 13.495,-30.94229 3.611,-12.1711 5.868,-24.57059 6.725,-37.20116 0,-15.98049 0,-31.98671 0.452,-47.95592 l 0,-0.0903 -108.956,0 z m -197.962,-689.11284 c 1.354,25.35006 3.159,50.78543 2.708,76.16529 l -2.708,0 c 0.902,1.09226 2.256,1.72867 2.708,2.82093 -0.452,48.37974 -3.16,96.98787 -5.642,145.27824 -1.806,93.82029 -3.16,186.92744 -7.041,280.68319 -1.806,50.0371 -8.937,100.8785 -4.062,150.92011 l 109.993,4.22915 c -8.801,-49.03555 0.452,-98.72962 0,-148.09917 3.16,-93.75214 4.785,-186.9112 7.042,-280.6832 l 0,-12.69421 c 2.708,3.75974 5.596,7.52806 8.485,11.28375 57.728,74.32017 113.56,150.17177 163.614,229.90633 30.918,49.47201 59.037,101.37679 87.427,152.33058 23.289,48.93625 22.251,46.26697 91.714,35.2617 36.695,9.04189 41.66,7.99702 33.851,-5.64187 1.354,-0.18054 1.806,0.18054 2.708,0 1.354,-0.18054 2.708,-19.03117 4.063,-31.0303 0.451,-65.13385 -2.709,-130.9533 -4.063,-196.0551 -0.902,-78.00093 2.257,-156.29884 7.041,-234.13774 2.709,-39.45745 5.507,-77.64391 8.441,-117.06886 0.451,-4.59204 0.902,-9.5122 1.354,-14.10469 l -109.994,-8.46281 c -0.452,4.5952 0.451,9.50904 0,14.10469 -2.708,39.52019 -5.326,78.9131 -7.041,118.47933 -3.611,78.1562 -6.184,157.29949 -5.642,235.54821 0,20.40327 0.903,40.25003 1.354,60.65014 -1.806,-2.89316 -3.611,-5.57733 -5.642,-8.46281 -50.416,-79.82754 -106.203,-156.42523 -163.614,-231.3168 -37.643,-49.96985 -74.789,-100.19697 -107.196,-153.74105 l -1.354,0 c 0.451,-23.43995 1.354,-47.07128 1.354,-70.52342 l -109.949,-5.64187 z"/></g></svg>