<?xml version="1.0" encoding="UTF-8" standalone="no"?>
<!-- Created with Inkscape (http://www.inkscape.org/) -->

<svg xmlns:dc="http://purl.org/dc/elements/1.1/" xmlns:cc="http://creativecommons.org/ns#" xmlns:rdf="http://www.w3.org/1999/02/22-rdf-syntax-ns#" xmlns:svg="http://www.w3.org/2000/svg" xmlns="http://www.w3.org/2000/svg" xmlns:xlink="http://www.w3.org/1999/xlink" xmlns:sodipodi="http://sodipodi.sourceforge.net/DTD/sodipodi-0.dtd" xmlns:inkscape="http://www.inkscape.org/namespaces/inkscape" version="1.1" width="523.3911177275149" height="1000" id="svg4626" inkscape:version="0.91 r13725" sodipodi:docname="font_bold_raw.svg">
<g transform="translate(-35834.148882272486,0)"><path style="color:#000000;display:inline;overflow:visible;visibility:visible;fill:#000000;fill-opacity:1;fill-rule:nonzero;stroke:none;stroke-width:1px;marker:none;enable-background:accumulate" d="m 35993.662,20.804502 c 10.922,8.384275 16.339,17.205457 22.477,26.181903 6.319,11.922406 17.603,24.427505 28.209,37.641675 7.448,9.313153 13.812,18.95669 19.815,28.91437 1.805,2.82094 3.159,5.68069 4.784,8.55128 l 51.273,1.32245 51.228,-1.32245 c 1.354,-2.87059 3.16,-5.73034 4.785,-8.55128 5.957,-9.95722 12.367,-19.601217 19.814,-28.91437 10.562,-13.21417 21.845,-25.719269 28.209,-37.641675 6.139,-8.976446 11.555,-17.797628 22.478,-26.181903 l -75.286,1.408212 c -10.11,8.512007 -17.106,17.326418 -24.508,26.445942 -6.409,9.531606 -16.384,19.608895 -26.72,29.97279 -10.336,-10.379693 -20.265,-20.428546 -26.72,-29.97279 -7.357,-9.119524 -14.398,-17.933484 -24.463,-26.445942 l -75.375,-1.408212 z m -143.8,121.652778 c 1.354,25.35007 3.159,50.78544 2.708,76.16529 l -2.708,0 c 0.902,1.09227 2.256,1.72867 2.708,2.82094 -0.452,48.37974 -3.16,96.98786 -5.642,145.27823 -1.806,93.82029 -3.16,186.92745 -7.041,280.68319 -1.806,50.0371 -8.937,100.8785 -4.062,150.92011 l 109.994,4.22915 c -8.802,-49.03555 0.451,-98.72962 0,-148.09917 3.159,-93.75214 4.784,-186.9112 7.086,-280.68319 0,-4.20207 0,-8.4908 0,-12.69422 2.708,3.75975 5.597,7.52807 8.44,11.28375 57.773,74.32017 113.56,150.17177 163.614,229.90633 30.963,49.47201 59.082,101.37679 87.472,152.33058 23.244,48.93625 22.206,46.26697 91.669,35.26171 36.695,9.04189 41.66,7.99701 33.851,-5.64188 1.354,-0.18054 1.806,0.18054 2.708,0 1.354,-0.18054 2.709,-19.03116 4.063,-31.0303 0.451,-65.13385 -2.709,-130.95329 -4.063,-196.05509 -0.902,-78.00093 2.257,-156.29885 7.041,-234.13774 2.709,-39.45746 5.507,-77.64391 8.486,-117.06887 0.451,-4.59204 0.903,-9.5122 1.354,-14.10469 l -110.039,-8.46281 c -0.452,4.5952 0.451,9.50904 0,14.10469 -2.708,39.52019 -5.326,78.9131 -7.041,118.47934 -3.611,78.15619 -6.184,157.29948 -5.642,235.5482 0,20.40327 0.903,40.25003 1.354,60.65014 -1.805,-2.89315 -3.611,-5.57733 -5.642,-8.46281 -50.371,-79.82754 -106.203,-156.42522 -163.614,-231.3168 -37.643,-49.96985 -74.789,-100.19696 -107.196,-153.74105 l -1.354,0 c 0.451,-23.43995 1.806,-47.07127 1.354,-70.52341 l -110.039,-5.64188 z" id="path5481" inkscape:connector-curvature="0"/></g></svg>