<?xml version="1.0" encoding="UTF-8" standalone="no"?>
<!-- Created with Inkscape (http://www.inkscape.org/) -->

<svg xmlns:dc="http://purl.org/dc/elements/1.1/" xmlns:cc="http://creativecommons.org/ns#" xmlns:rdf="http://www.w3.org/1999/02/22-rdf-syntax-ns#" xmlns:svg="http://www.w3.org/2000/svg" xmlns="http://www.w3.org/2000/svg" xmlns:xlink="http://www.w3.org/1999/xlink" xmlns:sodipodi="http://sodipodi.sourceforge.net/DTD/sodipodi-0.dtd" xmlns:inkscape="http://www.inkscape.org/namespaces/inkscape" version="1.1" width="837.6314680046125" height="1000" id="svg4626" inkscape:version="0.91 r13725" sodipodi:docname="font_bold_raw.svg">
<g transform="translate(-49606.22153199537,0)"><path style="color:#000000;display:inline;overflow:visible;visibility:visible;fill:#000000;fill-opacity:1;fill-rule:nonzero;stroke:none;stroke-width:1px;marker:none;enable-background:accumulate" d="m 49957.388,181.95039 c 0,2.81643 0,5.64865 0,8.46281 -9.884,-0.0253 -19.769,0.0415 -29.654,0 l 16.159,2.29286 c -66.665,4.63762 -109.904,18.46472 -173.319,56.8597 -47.301,26.733 -84.086,68.1615 -115.771,111.427 -29.789,40.97444 -43.013,87.7045 -47.843,137.43242 -3.611,43.65817 6.229,85.09976 24.96,124.12121 17.196,34.55986 43.6,59.86253 75.014,81.45466 30.06,18.92194 64.408,29.3743 98.259,38.78765 35.025,9.96039 70.004,18.11673 106.248,22.21499 12.953,1.1058 26.404,1.96337 39.403,1.9408 4.062,0.0903 7.402,-0.18054 10.471,-0.18054 18.099,9.83627 42.562,9.40162 63.776,10.40226 89.141,1.44884 178.779,0.49197 267.966,0 l -107.196,-16.92562 c 2.709,0.0451 -26.223,0.0903 -50.776,0 -0.903,0.005 -1.354,-0.005 -2.709,0 -26.358,-0.72216 -63.504,4.42323 -81.784,-18.33609 -6.048,-43.56835 13.224,-87.35289 11.284,-131.17355 3.61,-57.01677 3.159,-113.59438 2.708,-170.66666 24.508,-0.0217 48.791,0.005 73.344,0 37.913,-0.008 76.278,-0.019 114.237,0 16.384,0.18054 32.858,1.65645 47.933,-5.64188 l -109.994,-14.10468 c -15.12,2.94732 -31.233,2.6404 -46.534,2.82094 -26.449,0.0131 -52.582,-0.006 -78.986,0 0,-14.62374 0,-29.09492 0,-43.72452 0,-57.24109 1.805,-114.84597 2.708,-172.07713 42.336,-0.13541 84.583,0.005 126.919,0 42.608,-0.0325 85.757,-0.0275 128.364,0 0.903,0.71764 5.326,1.64742 14.082,2.82093 l 19.77,-2.82093 c 5.145,0.004 10.335,-0.004 15.526,0 7.447,0.002 15.075,-0.008 22.567,0 39.719,0.0447 11.781,-2.28383 -19.769,-2.82094 l 69.102,-9.87328 c -59.307,-10.14002 -119.201,-3.04661 -179.096,-4.22915 -58.765,0.0379 -117.621,0.0108 -176.342,0 -7.041,-0.006 -14.082,0.004 -21.123,0 0,-2.81191 0,-5.64909 0,-8.46281 l -110.039,0 z m 0,34.5567 c 0.903,54.25316 1.354,108.7189 1.354,162.90887 0.04,14.58762 0,29.14275 0,43.72451 -14.624,-0.0117 -29.112,0.0451 -43.736,0 l 43.736,7.05234 c 0,60.20556 0,120.43459 -4.062,180.53995 0,38.52406 -12.547,76.13008 -13.766,114.33594 -11.329,-1.8731 -22.884,-3.51601 -28.571,-5.2009 -33.174,-9.2942 -66.709,-17.62205 -97.04,-34.46824 -30.872,-19.91491 -57.05,-42.24138 -73.976,-75.72477 -18.325,-37.09193 -29.022,-76.65274 -25.14,-118.47933 4.919,-47.92704 18.009,-92.79031 47.527,-131.79055 31.865,-42.20437 66.98,-81.80581 114.146,-107.28361 20.401,-11.83574 41.524,-22.43389 63.686,-30.76581 4.694,-1.76478 10.471,-3.32645 16.113,-4.8484 z" id="path5199" inkscape:connector-curvature="0"/></g></svg>