<?xml version="1.0" encoding="UTF-8" standalone="no"?>
<!-- Created with Inkscape (http://www.inkscape.org/) -->

<svg xmlns:dc="http://purl.org/dc/elements/1.1/" xmlns:cc="http://creativecommons.org/ns#" xmlns:rdf="http://www.w3.org/1999/02/22-rdf-syntax-ns#" xmlns:svg="http://www.w3.org/2000/svg" xmlns="http://www.w3.org/2000/svg" xmlns:xlink="http://www.w3.org/1999/xlink" xmlns:sodipodi="http://sodipodi.sourceforge.net/DTD/sodipodi-0.dtd" xmlns:inkscape="http://www.inkscape.org/namespaces/inkscape" version="1.1" width="619.1169999999838" height="1000" id="svg4626" inkscape:version="0.91 r13725" sodipodi:docname="font_bold_raw.svg">
<g transform="translate(-36416.892,0)"><path style="color:#000000;display:inline;overflow:visible;visibility:visible;fill:#000000;fill-opacity:1;fill-rule:nonzero;stroke:none;stroke-width:1px;marker:none;enable-background:accumulate" d="m 36643.605,20.804502 c 10.923,8.384275 16.339,17.205457 22.478,26.181903 6.364,11.922406 17.647,24.427505 28.209,37.641675 7.447,9.313153 13.856,18.95669 19.814,28.91437 1.806,2.82094 3.16,5.68069 4.785,8.55128 l 51.318,1.32245 51.183,-1.32245 c 1.354,-2.87059 3.16,-5.73034 4.784,-8.55128 6.003,-9.95722 12.367,-19.601217 19.815,-28.91437 10.606,-13.21417 21.89,-25.719269 28.209,-37.641675 6.138,-8.976446 11.6,-17.797628 22.477,-26.181903 l -75.285,1.408212 c -10.065,8.512007 -17.106,17.326418 -24.508,26.445942 -6.364,9.531606 -16.339,19.608895 -26.675,29.97279 -10.381,-10.379693 -20.311,-20.428546 -26.72,-29.97279 -7.402,-9.119524 -14.398,-17.933484 -24.508,-26.445942 l -75.376,-1.408212 z m 100.516,142.809808 c -16.655,-0.0903 -41.118,1.96337 -111.438,2.82093 -39.719,0.48746 -79.257,6.19704 -117.08,18.33609 -41.525,18.6412 -71.494,43.89784 -98.711,80.39669 l 109.994,7.05234 c 15.482,-22.25064 32.182,-38.84858 52.176,-52.18732 0.903,59.62512 1.354,119.49623 1.354,179.12947 0,84.12349 -4.558,168.69833 -11.283,252.47383 -8.576,55.56748 -4.062,113.51313 -18.325,167.84573 l 109.994,4.22914 c 10.607,-55.93669 8.124,-114.15901 15.526,-170.66666 3.611,-43.94342 5.236,-88.46141 7.041,-132.58402 l 31.053,4.22915 c 2.257,-0.27081 4.649,-1.10581 7.041,-1.40821 35.025,49.0193 72.126,96.27021 107.196,145.27823 33.219,47.2798 64.453,95.48983 90.27,146.6887 5.326,9.03738 10.11,19.21081 15.526,28.20937 l 101.554,-5.64187 c -7.222,-7.61924 -11.013,-18.27741 -16.926,-26.7989 -26.81,-51.62991 -58.179,-100.08683 -91.669,-148.09917 -36.333,-51.19797 -77,-100.00153 -111.438,-152.33058 25.23,-4.06666 49.603,-10.61033 73.344,-21.15702 48.656,-23.13529 90.045,-53.16405 114.237,-102.96419 18.912,-51.99234 10.516,-82.69271 -23.967,-125.53168 -48.43,-46.78963 -104.081,-75.84663 -170.655,-88.8595 -39.222,-5.85762 -48.249,-8.38067 -64.904,-8.46281 z m -46.579,22.56749 c 2.708,0.27081 3.159,-0.27081 5.642,0 64.182,10.42437 120.51,39.2706 167.857,83.21763 31.955,36.65818 42.517,68.68461 23.966,114.24793 -25.907,48.59774 -63.64,71.80976 -112.837,93.09091 -31.279,13.13608 -64.137,17.38961 -97.311,21.15702 1.354,-32.86097 2.708,-65.89166 2.708,-98.73278 0,-67.61491 0,-135.50741 1.354,-203.10743 l -59.217,0 c 22.116,-5.89283 44.909,-7.99251 67.702,-9.87328 z" id="path5483" inkscape:connector-curvature="0"/></g></svg>