<?xml version="1.0" encoding="UTF-8" standalone="no"?>
<!-- Created with Inkscape (http://www.inkscape.org/) -->

<svg xmlns:dc="http://purl.org/dc/elements/1.1/" xmlns:cc="http://creativecommons.org/ns#" xmlns:rdf="http://www.w3.org/1999/02/22-rdf-syntax-ns#" xmlns:svg="http://www.w3.org/2000/svg" xmlns="http://www.w3.org/2000/svg" xmlns:xlink="http://www.w3.org/1999/xlink" xmlns:sodipodi="http://sodipodi.sourceforge.net/DTD/sodipodi-0.dtd" xmlns:inkscape="http://www.inkscape.org/namespaces/inkscape" version="1.1" width="547.5099999999984" height="1000" id="svg4626" inkscape:version="0.91 r13725" sodipodi:docname="font_bold_raw.svg">
<g transform="translate(-30779.262000000006,0)"><path style="color:#000000;display:inline;overflow:visible;visibility:visible;fill:#000000;fill-opacity:1;fill-rule:nonzero;stroke:none;stroke-width:1px;marker:none;enable-background:accumulate" d="m 31078.687,20.804502 -51.318,1.322455 c -1.354,2.870585 -3.16,5.730338 -4.739,8.551275 -6.003,9.95768 -12.367,19.601221 -19.86,28.914374 -10.561,13.21417 -21.845,25.719721 -28.209,37.642127 -6.093,8.976447 -11.555,17.797177 -22.477,26.181907 l 75.375,-1.41273 c 10.11,-8.51201 17.106,-17.32597 24.508,-26.445942 6.41,-9.544244 16.384,-19.592646 26.72,-29.97279 10.336,10.363896 20.311,20.441635 26.72,29.97279 7.402,9.119972 14.398,17.934382 24.509,26.445942 l 75.285,1.41273 c -10.923,-8.38428 -16.384,-17.20546 -22.477,-26.181907 -6.365,-11.922406 -17.648,-24.427957 -28.21,-37.642127 -7.447,-9.313153 -13.856,-18.956694 -19.859,-28.914374 -1.806,-2.820937 -3.16,-5.681592 -4.739,-8.551275 l -51.229,-1.322455 z m -35.701,172.429638 c -52.086,-1.32246 -75.421,3.66045 -119.879,43.72452 -18.957,19.65267 -31.324,42.95812 -39.493,67.70248 -7.583,22.64828 -5.642,44.37807 2.708,66.29201 9.162,18.84791 24.554,33.81648 42.337,46.54545 20.581,13.11939 44.548,16.27206 69.101,18.33609 87.743,-0.64543 95.145,0.8711 105.797,0 9.027,3.56566 17.241,8.42535 25.366,14.10468 19.904,15.63295 38.59,32.62718 53.62,52.18733 11.058,16.19217 18.686,32.9517 25.366,50.77686 8.305,19.81742 10.923,41.10939 12.728,62.0606 1.354,20.79008 1.805,41.60859 -2.708,62.06061 -7.357,21.97667 -25.276,37.53425 -42.292,53.59779 -15.842,14.60388 -33.084,25.10544 -53.62,33.85124 -19.814,7.153 -42.337,8.98367 -63.46,9.87328 -17.151,-1.53459 -33.716,-5.00321 -50.777,-7.05234 -22.928,-2.56818 -42.878,-11.62993 -62.06,-22.56749 -19.183,-12.37602 -38.004,-25.82308 -50.777,-43.72452 -4.965,-9.59796 -10.201,-20.27644 -9.885,-31.0303 l -105.796,0 c 0,12.41212 5.913,25.28823 11.284,36.67217 12.412,19.64862 30.782,33.01895 50.777,46.54546 18.956,12.53127 38.906,23.52525 62.06,28.20936 24.869,2.48694 49.829,7.87019 74.789,8.46281 59.172,0.18054 118.524,0.45135 177.696,-1.40821 24.012,-1.50751 47.347,-4.1795 69.102,-14.10468 20.356,-10.08812 39.177,-21.37909 55.019,-36.67218 18.37,-17.20726 36.785,-35.55915 43.736,-59.23967 4.514,-21.3001 3.16,-41.89023 1.354,-63.47107 -1.805,-21.70316 -4.513,-44.26839 -12.683,-64.88154 -7.131,-18.51437 -14.037,-36.64781 -25.411,-53.5978 -14.533,-20.75622 -33.941,-38.0506 -53.575,-55.00826 -17.287,-13.65695 -35.566,-24.85133 -59.262,-26.7989 -38.184,0.0903 -76.053,-0.51905 -114.237,0 -2.257,0.0307 -4.739,1.20059 -7.041,1.40821 -7.131,-1.82797 -13.134,-3.71912 -19.769,-7.05234 -17.648,-10.74845 -30.963,-23.92651 -40.892,-40.90358 -8.305,-20.07153 -11.78,-39.69622 -4.062,-60.65014 8.124,-23.24813 20.762,-45.56196 39.493,-63.47107 10.561,-9.01526 20.897,-17.67576 33.851,-23.97796 1.805,-0.83049 3.611,-2.11232 5.642,-2.82094 16.158,3.70107 32.542,9.90984 47.978,15.51515 l 104.352,-11.28374 c -35.566,-14.08257 -74.111,-22.18295 -112.837,-25.38843 -25.637,-0.56419 -46.083,-2.37862 -63.46,-2.82094 z" id="path5435" inkscape:connector-curvature="0"/></g></svg>