<?xml version="1.0" encoding="UTF-8" standalone="no"?>
<!-- Created with Inkscape (http://www.inkscape.org/) -->

<svg xmlns:dc="http://purl.org/dc/elements/1.1/" xmlns:cc="http://creativecommons.org/ns#" xmlns:rdf="http://www.w3.org/1999/02/22-rdf-syntax-ns#" xmlns:svg="http://www.w3.org/2000/svg" xmlns="http://www.w3.org/2000/svg" xmlns:xlink="http://www.w3.org/1999/xlink" xmlns:sodipodi="http://sodipodi.sourceforge.net/DTD/sodipodi-0.dtd" xmlns:inkscape="http://www.inkscape.org/namespaces/inkscape" version="1.1" width="546.8996500105113" height="1000" id="svg4626" inkscape:version="0.91 r13725" sodipodi:docname="font_bold_raw.svg">
<g transform="translate(-11529.235999999999,0)"><path inkscape:connector-curvature="0" style="color:#000000;display:inline;overflow:visible;visibility:visible;fill:#000000;fill-opacity:1;fill-rule:nonzero;stroke:none;stroke-width:1px;marker:none;enable-background:accumulate" d="m 11791.515,193.23414 c -52.086,-1.32246 -75.421,3.66045 -119.879,43.72452 -18.956,19.65267 -31.323,42.95812 -39.493,67.70248 -7.627,22.64828 -5.687,44.37807 2.708,66.29201 9.163,18.84791 24.554,33.81648 42.337,46.54545 20.582,13.11984 44.503,16.27342 69.102,18.33609 86.162,-0.63641 95.551,0.7357 105.796,0 9.027,3.56566 17.242,8.42535 25.366,14.10468 19.905,15.63295 39.99,32.62673 55.02,52.18733 11.058,16.19172 17.286,32.95125 23.966,50.77686 8.305,19.81742 10.878,41.10939 12.683,62.0606 1.354,20.79008 3.16,41.60904 -1.354,62.06061 -7.357,21.97667 -26.675,37.5338 -43.736,53.59779 -15.842,14.60433 -33.038,25.10544 -53.575,33.85124 -2.708,0.97492 -5.732,0.62738 -8.485,1.40821 -0.452,-1.35405 -0.903,-2.87961 -1.354,-4.22914 l -104.352,5.64187 c -0.452,-0.0451 -0.903,0.0451 -1.354,0 -22.342,-2.78032 -41.841,-11.85155 -60.617,-22.56749 -19.182,-12.37602 -38.003,-25.82308 -50.777,-43.72452 -4.964,-9.59796 -10.2,-20.27644 -9.884,-31.0303 l -104.397,0 c 0,12.41257 4.513,25.28777 9.884,36.67217 12.412,19.64862 30.782,33.01895 50.777,46.54546 18.957,12.53173 38.906,23.52525 62.061,28.20936 24.869,2.48694 49.784,7.87154 74.743,8.46281 11.284,0.0361 22.613,-0.0451 33.851,0 8.757,20.94218 15.166,41.97915 12.728,64.88154 -6.544,18.31398 -21.935,27.58109 -38.093,36.67218 -2.709,1.1374 -5.507,1.68353 -8.486,2.82094 l 108.64,12.69421 c 3.16,-1.58424 6.861,-2.64491 9.84,-4.22915 17.873,-12.07812 33.309,-24.25464 38.093,-46.54545 1.806,-23.41107 -3.61,-46.08102 -11.283,-67.70248 10.832,-0.18054 21.664,0.36108 32.452,0 24.012,-1.50751 48.746,-4.1795 70.501,-14.10468 20.355,-10.08812 37.732,-21.37909 53.62,-36.67218 18.37,-17.20726 36.785,-35.55915 43.736,-59.23967 4.513,-21.3001 4.513,-41.89068 2.708,-63.47107 -1.806,-21.70361 -5.823,-44.26839 -14.082,-64.88154 -7.132,-18.51347 -12.638,-36.64781 -24.012,-53.5978 -14.534,-20.75622 -35.386,-38.05105 -54.974,-55.00826 -17.287,-13.6574 -35.567,-24.84907 -59.263,-26.7989 -38.184,0.0451 -76.052,-0.51905 -114.236,0 -2.257,0.0321 -4.649,1.18254 -7.041,1.40821 -7.132,-1.82797 -13.135,-3.71912 -19.77,-7.05234 -17.647,-10.74799 -30.962,-23.92651 -40.892,-40.90358 -8.305,-20.07153 -11.78,-39.69577 -4.062,-60.65014 8.124,-23.24813 20.762,-45.56151 39.493,-63.47107 10.562,-9.01526 20.852,-17.67892 33.851,-23.97796 1.806,-0.83049 3.611,-2.11232 5.642,-2.82094 16.159,3.70107 32.543,9.90984 47.979,15.51515 l 104.352,-11.28374 c -35.567,-14.08302 -74.112,-22.18385 -112.838,-25.38843 -25.636,-0.56419 -46.082,-2.37862 -63.459,-2.82094 z" id="path3966"/></g></svg>