<?xml version="1.0" encoding="UTF-8" standalone="no"?>
<!-- Created with Inkscape (http://www.inkscape.org/) -->

<svg xmlns:dc="http://purl.org/dc/elements/1.1/" xmlns:cc="http://creativecommons.org/ns#" xmlns:rdf="http://www.w3.org/1999/02/22-rdf-syntax-ns#" xmlns:svg="http://www.w3.org/2000/svg" xmlns="http://www.w3.org/2000/svg" xmlns:xlink="http://www.w3.org/1999/xlink" xmlns:sodipodi="http://sodipodi.sourceforge.net/DTD/sodipodi-0.dtd" xmlns:inkscape="http://www.inkscape.org/namespaces/inkscape" version="1.1" width="547.5099999999948" height="1000" id="svg4626" inkscape:version="0.91 r13725" sodipodi:docname="font_bold_raw.svg">
<g transform="translate(-37007.84499999999,0)"><path style="color:#000000;display:inline;overflow:visible;visibility:visible;fill:#000000;fill-opacity:1;fill-rule:nonzero;stroke:none;stroke-width:1px;marker:none;enable-background:accumulate" d="m 37180.712,20.804502 c 10.922,8.384275 16.384,17.205457 22.477,26.181903 6.364,11.922406 17.648,24.427505 28.209,37.641675 7.493,9.313153 13.857,18.95669 19.86,28.91437 1.805,2.82094 3.159,5.68069 4.739,8.55128 l 51.318,1.32245 51.229,-1.32245 c 1.354,-2.87059 3.159,-5.73034 4.739,-8.55128 6.003,-9.95722 12.412,-19.601217 19.859,-28.91437 10.562,-13.21417 21.846,-25.719269 28.21,-37.641675 6.093,-8.976446 11.554,-17.797628 22.477,-26.181903 l -75.285,1.408212 c -10.111,8.512007 -17.107,17.326418 -24.509,26.445942 -6.409,9.531606 -16.384,19.608895 -26.72,29.97279 -10.335,-10.379693 -20.31,-20.428546 -26.719,-29.97279 -7.403,-9.119524 -14.399,-17.933484 -24.509,-26.445942 l -75.375,-1.408212 z m 90.902,172.429638 c -52.086,-1.32246 -75.421,3.66045 -119.879,43.72452 -18.957,19.65267 -31.324,42.95812 -39.493,67.70248 -7.583,22.64828 -5.642,44.37807 2.708,66.29201 9.163,18.84791 24.554,33.81648 42.292,46.54545 20.626,13.11939 44.548,16.27206 69.146,18.33609 87.698,-0.64543 95.1,0.8711 105.752,0 9.027,3.56566 17.286,8.42535 25.411,14.10468 19.904,15.63295 38.59,32.62718 53.575,52.18733 11.058,16.19217 18.686,32.9517 25.411,50.77686 8.26,19.81742 10.877,41.10939 12.683,62.0606 1.805,20.79008 1.805,41.60859 -2.708,62.06061 -7.357,21.97667 -25.276,37.53425 -42.292,53.59779 -15.842,14.60388 -33.084,25.10544 -53.62,33.85124 -19.814,7.153 -42.337,8.98367 -63.46,9.87328 -17.151,-1.53459 -33.716,-5.00321 -50.777,-7.05234 -22.928,-2.56818 -42.878,-11.62993 -62.06,-22.56749 -19.183,-12.37602 -38.004,-25.82308 -50.777,-43.72452 -4.965,-9.59796 -10.201,-20.27644 -9.885,-31.0303 l -105.796,0 c 0.451,12.41212 5.912,25.28823 11.284,36.67217 12.412,19.64862 30.782,33.01895 50.776,46.54546 18.957,12.53127 38.907,23.52525 62.061,28.20936 24.869,2.48694 49.829,7.87019 74.789,8.46281 59.172,0.18054 118.524,0.45135 177.696,-1.40821 24.012,-1.50751 47.347,-4.1795 69.102,-14.10468 20.356,-10.08812 39.177,-21.37909 55.019,-36.67218 18.37,-17.20726 36.785,-35.55915 43.736,-59.23967 4.514,-21.3001 3.16,-41.89023 1.354,-63.47107 -1.805,-21.70316 -4.513,-44.26839 -12.728,-64.88154 -7.086,-18.51437 -13.992,-36.64781 -25.366,-53.5978 -14.533,-20.75622 -33.986,-38.0506 -53.62,-55.00826 -17.287,-13.65695 -35.521,-24.85133 -59.217,-26.7989 -38.184,0.0903 -76.053,-0.51905 -114.237,0 -2.257,0.0307 -4.739,1.20059 -7.086,1.40821 -7.086,-1.82797 -13.089,-3.71912 -19.724,-7.05234 -17.648,-10.74845 -31.008,-23.92651 -40.892,-40.90358 -8.35,-20.07153 -11.781,-39.69622 -4.062,-60.65014 8.124,-23.24813 20.716,-45.56196 39.493,-63.47107 10.561,-9.01526 20.852,-17.67576 33.851,-23.97796 1.805,-0.83049 3.611,-2.11232 5.642,-2.82094 16.158,3.70107 32.497,9.90984 47.933,15.51515 l 104.397,-11.28374 c -35.611,-14.08257 -74.156,-22.18295 -112.837,-25.38843 -25.637,-0.56419 -46.128,-2.37862 -63.46,-2.82094 z" id="path5381" inkscape:connector-curvature="0"/></g></svg>