<?xml version="1.0" encoding="UTF-8" standalone="no"?>
<!-- Created with Inkscape (http://www.inkscape.org/) -->

<svg xmlns:dc="http://purl.org/dc/elements/1.1/" xmlns:cc="http://creativecommons.org/ns#" xmlns:rdf="http://www.w3.org/1999/02/22-rdf-syntax-ns#" xmlns:svg="http://www.w3.org/2000/svg" xmlns="http://www.w3.org/2000/svg" xmlns:xlink="http://www.w3.org/1999/xlink" xmlns:sodipodi="http://sodipodi.sourceforge.net/DTD/sodipodi-0.dtd" xmlns:inkscape="http://www.inkscape.org/namespaces/inkscape" version="1.1" width="385.76106668020657" height="1000" id="svg4626" inkscape:version="0.91 r13725" sodipodi:docname="font_bold_raw.svg">
<g transform="translate(-50534.257999999994,0)"><path style="color:#000000;display:inline;overflow:visible;visibility:visible;fill:#000000;fill-opacity:1;fill-rule:nonzero;stroke:none;stroke-width:1px;marker:none;enable-background:accumulate" d="m 50544.143,186.1818 -9.885,100.14325 c 21.214,0.70862 42.247,1.8054 63.46,2.82093 25.05,0.83951 49.694,0.99749 74.744,1.40822 0.902,43.96824 1.354,88.67399 1.354,132.58402 0,42.58124 0,84.36135 0,126.94214 0,28.65891 0,57.37921 0,86.03857 0,25.81089 0,51.76486 0,77.57576 0.902,25.55543 -1.806,52.16115 1.354,77.57575 l 30.331,-0.36108 c 3.61,19.85849 6.364,40.9758 5.19,62.41311 -3.159,18.31398 -10.832,27.58109 -18.866,36.67218 -1.354,1.13289 -2.708,1.68353 -4.063,2.82094 l 53.892,12.70504 c 1.354,-1.58423 3.61,-2.64491 4.919,-4.22915 8.847,-12.07857 16.565,-25.6651 18.957,-47.95592 0.903,-22.2186 -1.805,-42.57944 -5.371,-63.11857 l 25.185,-0.36108 c -3.61,-24.80799 -1.805,-51.14696 -2.708,-76.16529 0,-25.81089 0.04,-51.76531 0,-77.57575 0,-28.65982 0,-57.37921 0,-86.03857 0,-42.58034 0,-84.36135 0,-126.94215 0.04,-44.37671 0.452,-89.57534 1.354,-133.99448 6.996,-0.27081 14.218,0.31594 21.169,0 23.831,-1.30892 46.85,-1.47141 70.546,1.40821 7.266,1.83699 16.654,1.62937 23.966,4.22915 l 0,1.40821 c 37.372,-4.30137 11.961,-0.18054 11.284,-67.70248 7.853,-31.36972 14.218,-38.89869 1.354,-33.85124 -9.388,0.55516 -18.866,-1.40821 -28.209,-1.40821 -24.509,-0.87562 -48.927,0.9027 -73.345,2.82093 -33.219,2.6404 -65.4,3.82294 -98.755,4.22915 -35.115,-0.0135 -70.772,-1.32697 -105.751,-4.22915 -20.537,-2.25675 -42.472,-3.90417 -62.061,-9.87327 z" id="path5609" inkscape:connector-curvature="0"/></g></svg>