<?xml version="1.0" encoding="UTF-8" standalone="no"?>
<!-- Created with Inkscape (http://www.inkscape.org/) -->

<svg xmlns:dc="http://purl.org/dc/elements/1.1/" xmlns:cc="http://creativecommons.org/ns#" xmlns:rdf="http://www.w3.org/1999/02/22-rdf-syntax-ns#" xmlns:svg="http://www.w3.org/2000/svg" xmlns="http://www.w3.org/2000/svg" xmlns:xlink="http://www.w3.org/1999/xlink" xmlns:sodipodi="http://sodipodi.sourceforge.net/DTD/sodipodi-0.dtd" xmlns:inkscape="http://www.inkscape.org/namespaces/inkscape" version="1.1" width="468.44578048322" height="1000" id="svg4626" inkscape:version="0.91 r13725" sodipodi:docname="font_bold_raw.svg">
<g transform="translate(-61569.266,0)"><path style="color:#000000;display:inline;overflow:visible;visibility:visible;fill:#000000;fill-opacity:1;fill-rule:nonzero;stroke:none;stroke-width:1px;marker:none;enable-background:accumulate" d="m 61835.156,34.457384 c -36.379,0.64543 -72.803,2.071696 -109.046,4.143392 -32.362,1.74221 -64.678,2.775801 -97.04,4.143391 l 0,0 2.257,85.509583 c 31.729,-3.39866 64.001,-4.28331 96.092,-6.25887 35.882,-2.27029 71.99,-3.03307 108.053,-3.52504 25.005,-1.01102 49.603,1.20962 74.337,3.08723 17.829,1.4037 35.883,1.89116 53.846,2.11683 l 0.452,-85.157075 c -17.513,-0.225675 -35.115,-0.591269 -52.537,-1.764778 -25.411,-1.633887 -50.687,-3.642394 -76.278,-2.292857 z m 46.263,167.228736 c -0.902,8.80403 0.452,17.97094 0,26.79889 -0.451,9.28156 -1.805,18.94316 -2.708,28.20937 0,13.26562 3.16,25.12665 5.642,38.08265 3.16,16.64939 4.514,33.89366 5.642,50.77685 1.354,16.46434 1.806,32.88084 2.708,49.36639 0.903,17.98855 2.708,35.79205 5.642,53.5978 1.354,18.06753 2.708,36.864 2.708,55.00826 0.903,19.22435 3.16,37.35056 5.642,56.41874 1.805,17.15896 4.514,35.13623 7.086,52.18732 3.16,14.91531 5.732,29.96738 7.041,45.13499 2.708,18.01247 5.597,35.46301 7.041,53.59779 0.452,5.11606 3.611,23.78885 -1.354,26.7989 -7.312,1.02457 -15.165,-0.75827 -22.567,0 -8.576,0.18054 -18.28,-0.0429 -26.81,1.40821 -7.764,1.46689 -14.534,3.25875 -22.568,2.82094 -8.891,0.68154 -18.099,1.93178 -26.765,4.22915 -1.354,0.27081 -2.708,-0.22568 -4.062,0 -8.982,-0.77181 -17.873,-0.36108 -26.81,-1.40821 -20.04,-1.35857 -40.667,-3.86356 -60.662,-5.64188 -14.804,-2.69455 -29.608,-7.292 -42.291,-15.51515 -5.868,-4.00798 -13.495,-7.72395 -14.127,-15.51515 -0.903,-10.69428 3.159,-20.31164 2.708,-31.0303 l 0,-40.90358 0,-29.61984 0,-36.67217 c 0,-16.46389 1.805,-33.05822 4.062,-49.36639 3.611,-23.20886 6.68,-46.98236 7.041,-70.52342 0.903,-30.6128 0.451,-61.05545 1.354,-91.68044 0.451,-30.53562 0.451,-61.21342 2.708,-91.68044 1.354,-20.59103 1.805,-41.45919 2.708,-62.0606 l -109.994,0 c 1.806,20.36806 2.257,41.66952 1.354,62.0606 -1.805,30.63944 -2.708,61.0058 -2.708,91.68044 -0.451,30.53833 0,61.16468 -1.354,91.68044 -0.903,23.1714 -6.093,46.32565 -9.884,69.11295 -3.16,16.69498 -3.611,33.85214 -4.514,50.77686 -0.451,12.22571 0,24.4442 0,36.67217 l 0,29.61984 0,40.90358 c -0.903,10.82472 -4.062,21.55872 -4.062,32.44077 0,11.54011 7.131,17.20455 15.526,23.97796 12.909,9.5641 28.345,16.78931 43.736,21.15703 20.221,4.14339 41.434,4.11631 62.061,5.64187 24.914,2.19356 49.739,4.12534 74.743,5.64187 48.656,1.15997 99.297,11.20386 146.689,0 5.1,-1.8731 10.291,-1.77832 15.526,-2.82093 2.709,-0.56871 5.642,-0.69508 8.441,-1.40822 8.575,-1.88213 18.054,-2.64491 26.81,-2.82093 1.354,-0.0145 2.708,0.22567 4.062,0 2.708,-0.40622 5.777,-2.17551 8.44,-2.82094 3.611,-0.90721 7.448,-1.07421 11.284,-1.40821 8.44,-0.53711 16.926,0.007 25.411,0 10.426,0.18054 15.888,2.24772 22.567,-7.05234 4.785,-11.48325 3.16,-26.05869 1.355,-38.08265 -2.709,-18.04226 -4.785,-35.52665 -7.042,-53.59779 -0.902,-15.45242 -4.062,-31.42343 -7.086,-46.54546 -2.708,-16.69317 -5.145,-32.52968 -7.041,-49.36639 -3.159,-18.82445 -6.048,-38.79126 -7.041,-57.8292 0,-18.2571 -1.354,-35.41652 -2.708,-53.59779 -2.708,-17.74031 -4.513,-35.69275 -5.642,-53.5978 -1.354,-16.52933 -0.451,-32.84879 -1.354,-49.36639 -1.805,-17.20997 -2.708,-35.1421 -5.642,-52.18733 -1.805,-12.23519 -6.228,-24.22846 -5.642,-36.67217 1.354,-9.07755 2.257,-17.66403 2.708,-26.7989 0.903,-8.51472 0,-18.38529 1.355,-26.7989 l -109.949,-1.40821 z" id="path4417" inkscape:connector-curvature="0"/></g></svg>