<?xml version="1.0" encoding="UTF-8" standalone="no"?>
<!-- Created with Inkscape (http://www.inkscape.org/) -->

<svg xmlns:dc="http://purl.org/dc/elements/1.1/" xmlns:cc="http://creativecommons.org/ns#" xmlns:rdf="http://www.w3.org/1999/02/22-rdf-syntax-ns#" xmlns:svg="http://www.w3.org/2000/svg" xmlns="http://www.w3.org/2000/svg" xmlns:xlink="http://www.w3.org/1999/xlink" xmlns:sodipodi="http://sodipodi.sourceforge.net/DTD/sodipodi-0.dtd" xmlns:inkscape="http://www.inkscape.org/namespaces/inkscape" version="1.1" width="468.4459132628981" height="1000" id="svg4626" inkscape:version="0.91 r13725" sodipodi:docname="font_bold_raw.svg">
<g transform="translate(-42703.337999999996,0)"><path style="color:#000000;display:inline;overflow:visible;visibility:visible;fill:#000000;fill-opacity:1;fill-rule:nonzero;stroke:none;stroke-width:1px;marker:none;enable-background:accumulate" d="m 42924.319,37.20114 c -9.478,-1.146429 -19.182,-0.970402 -28.39,0.528079 l -0.451,0.09027 -0.451,0.18054 c -9.885,2.730667 -18.054,7.861612 -24.825,13.046719 l -0.451,0.18054 -0.451,0.27081 c -7.222,6.359519 -13.766,13.470988 -19.228,21.50998 -6.409,8.290394 -9.975,17.325516 -12.367,25.917412 l 0,0.09027 0,0.18054 c -1.805,6.99728 -2.257,13.61813 -3.159,19.74656 l 0,0.61835 0,0.7041 c 0.04,6.80591 0.902,13.9088 3.611,20.89253 2.256,6.25842 5.145,11.83124 8.034,17.01409 l 0.451,0.45135 0.451,0.52808 c 2.708,3.64239 4.785,8.91416 8.576,14.81014 4.062,7.04422 9.523,10.91815 13.631,14.10468 l 0,0.0903 0,0.0903 c 7.402,5.3828 15.3,6.63801 21.619,7.58133 l 0.452,0 c 16.203,1.79637 32.316,2.68553 48.114,3.79134 l 0.451,0.0903 0.451,0 c 8.486,-0.13541 15.256,-2.88864 20.717,-4.93687 l 0.452,-0.0903 0.451,-0.18054 c 6.635,-3.02404 12.728,-6.86729 18.189,-11.10727 l 0,-0.0903 c 6.816,-5.34443 11.284,-11.93369 14.624,-17.98358 l 0,-0.36108 0,-0.18054 c 2.257,-4.34199 5.236,-9.39981 7.312,-16.04413 l 0,-0.27081 0,-0.18054 c 1.805,-6.34192 2.257,-12.23926 3.159,-17.54307 l 0,-0.18054 c 0.903,-5.79804 1.354,-12.15305 0.903,-19.04155 0,-7.32992 -1.805,-13.970179 -3.611,-19.922581 l 0,-0.27081 0,-0.36108 c -2.708,-6.88805 -6.499,-12.176967 -9.884,-16.925619 -4.514,-7.792104 -11.149,-11.850642 -16.565,-14.986169 l -0.902,3.087233 c -1.355,-1.54813 -3.611,-2.396668 -5.01,-3.791339 l 0,-0.794376 -0.903,0 c -5.281,-4.414202 -10.471,-9.11817 -16.249,-12.34171 l -0.451,-0.18054 -0.451,-0.18054 c -8.486,-3.953825 -17.739,-6.492217 -27.217,-7.669337 l 0,0 z m -5.642,31.999802 0.452,0 c 3.611,2.18002 7.041,4.432256 9.794,6.964328 l 0,5.641874 12.006,0.18054 c 0.903,0.722159 3.611,2.202587 3.611,2.378613 l 0.451,0.880133 0.903,0.704105 c 3.159,3.850015 5.642,8.077357 7.582,12.07722 1.355,4.822675 2.709,9.082965 2.709,12.693765 l 0,0.45135 0,0.52808 c 0.451,4.09825 0,8.65057 -0.903,13.9282 l 0,0.0903 0,0.0903 c -0.451,5.19504 -1.354,9.76044 -2.257,13.66372 -0.903,3.14591 -3.159,7.07987 -5.642,11.9892 -2.257,4.14339 -4.965,7.4378 -8.214,9.78527 -4.604,3.29034 -8.892,6.03996 -13.225,7.66933 -3.159,1.21865 -6.093,1.41724 -8.891,1.67451 -2.257,-0.45135 -5.101,-0.79437 -6.274,-1.40821 -3.611,-2.51853 -6.274,-4.89173 -7.041,-6.17085 l -0.452,-0.52808 -0.451,-0.45135 c -2.257,-2.8751 -4.513,-8.14867 -8.485,-14.1927 l 0,-0.0903 c -2.708,-4.60061 -4.785,-9.00308 -6.319,-13.2232 l 0,-0.36108 0,-0.36108 c -1.354,-2.99245 -1.806,-6.82531 -1.806,-11.54823 0.452,-5.44373 1.354,-10.52323 2.257,-15.07419 l 0,-0.0903 c 1.805,-6.60731 4.062,-12.424755 8.17,-17.542611 l 0,-0.18054 0,-0.27081 c 4.062,-5.927126 9.342,-11.2851 15.255,-16.220611 2.708,-1.846021 5.01,-2.428262 7.493,-3.701069 z m 96.364,132.496008 c -0.903,8.80403 0.451,17.97095 0,26.7989 -0.452,9.28156 -1.806,18.94315 -2.709,28.20936 0,13.26563 3.16,25.12665 5.642,38.08265 3.16,16.64939 4.514,33.89366 5.642,50.77686 1.354,16.46434 1.806,32.88083 2.708,49.36639 1.354,17.98855 2.708,35.79204 5.642,53.59779 1.354,18.06754 2.708,36.864 2.708,55.00827 0.903,19.22434 3.16,37.35055 5.642,56.41873 1.806,17.15897 4.514,35.13623 7.041,52.18733 3.16,14.9153 5.778,29.96737 7.086,45.13498 2.709,18.01247 5.552,35.46301 7.041,53.5978 0.452,5.11605 3.611,23.78884 -1.354,26.79889 -7.311,1.02457 -15.21,-0.75826 -22.567,0 -8.621,0.18054 -18.325,-0.0429 -26.81,1.40822 -7.763,1.46688 -14.579,3.25874 -22.568,2.82093 -8.891,0.68154 -18.144,1.93629 -26.81,4.22915 -1.354,0.27081 -2.708,-0.22567 -4.062,0 -8.982,-0.77181 -17.828,-0.36108 -26.765,-1.40821 -20.085,-1.35856 -40.667,-3.86356 -60.662,-5.64187 -14.804,-2.69456 -29.608,-7.29201 -42.336,-15.51515 -5.823,-4.00799 -13.45,-7.72395 -14.082,-15.51516 -0.903,-10.69428 3.159,-20.31164 2.708,-31.0303 0,-13.45203 0,-27.45245 0,-40.90358 0,-10.08947 0,-19.52991 0,-29.61983 0,-12.11514 0,-24.55614 0,-36.67218 0,-16.46389 1.805,-33.05822 4.062,-49.36639 3.611,-23.20886 6.68,-46.98236 7.041,-70.52342 0.903,-30.6128 0.451,-61.05545 1.354,-91.68044 0.451,-30.53562 0.451,-61.21342 2.708,-91.68044 1.354,-20.59103 1.806,-41.45919 2.708,-62.0606 l -109.994,0 c 1.806,20.36806 2.257,41.66952 1.354,62.0606 -1.805,30.63944 -2.708,61.00581 -2.708,91.68044 -0.451,30.53834 0,61.16468 -1.354,91.68044 -0.902,23.1714 -6.093,46.32565 -9.884,69.11295 -3.16,16.69498 -3.611,33.85214 -4.062,50.77686 -0.452,12.22571 0,24.44421 0,36.67218 0,10.08405 0,19.53667 0,29.61983 0,13.44842 0,27.45426 0,40.90358 -0.903,10.82472 -4.063,21.55873 -4.063,32.44077 0,11.54012 7.087,17.20456 15.527,23.97796 12.908,9.56411 28.345,16.78932 43.69,21.15703 20.266,4.14339 41.48,4.11631 62.061,5.64187 24.96,2.19356 49.784,4.12534 74.789,5.64187 48.655,1.15997 99.297,11.20386 146.688,0 5.101,-1.8731 10.291,-1.77831 15.482,-2.82093 2.708,-0.5687 5.687,-0.69508 8.485,-1.40821 8.576,-1.88213 18.054,-2.64491 26.81,-2.82094 1.354,-0.0144 2.708,0.22567 4.062,0 2.709,-0.40622 5.778,-2.17551 8.441,-2.82094 3.61,-0.90721 7.447,-1.0697 11.283,-1.40821 8.441,-0.53711 16.926,0.007 25.411,0 10.427,0.18054 15.888,2.24772 22.568,-7.05234 4.784,-11.48324 3.159,-26.05868 1.354,-38.08264 -2.708,-18.04226 -4.784,-35.52665 -7.086,-53.5978 -0.903,-15.45241 -4.062,-31.42343 -7.041,-46.54545 -2.708,-16.69318 -5.146,-32.52969 -7.041,-49.36639 -3.16,-18.82445 -6.094,-38.79127 -7.041,-57.82921 0,-18.2571 -1.354,-35.41652 -2.708,-53.59779 -2.709,-17.74031 -4.559,-35.69275 -5.642,-53.5978 -1.354,-16.52933 -0.452,-32.84879 -1.354,-49.36639 -1.806,-17.20997 -2.709,-35.1421 -5.642,-52.18732 -1.806,-12.2352 -6.229,-24.22846 -5.642,-36.67218 1.354,-9.07755 2.257,-17.66403 2.708,-26.7989 0.903,-8.51471 -0.451,-18.38528 1.354,-26.7989 l -110.039,-1.40821 z" id="path5551" inkscape:connector-curvature="0"/></g></svg>