<?xml version="1.0" encoding="UTF-8" standalone="no"?>
<!-- Created with Inkscape (http://www.inkscape.org/) -->

<svg xmlns:dc="http://purl.org/dc/elements/1.1/" xmlns:cc="http://creativecommons.org/ns#" xmlns:rdf="http://www.w3.org/1999/02/22-rdf-syntax-ns#" xmlns:svg="http://www.w3.org/2000/svg" xmlns="http://www.w3.org/2000/svg" xmlns:xlink="http://www.w3.org/1999/xlink" xmlns:sodipodi="http://sodipodi.sourceforge.net/DTD/sodipodi-0.dtd" xmlns:inkscape="http://www.inkscape.org/namespaces/inkscape" version="1.1" width="468.50815057267755" height="1000" id="svg4626" inkscape:version="0.91 r13725" sodipodi:docname="font_bold_raw.svg">
<g transform="translate(-47668.187,0)"><path style="color:#000000;display:inline;overflow:visible;visibility:visible;fill:#000000;fill-opacity:1;fill-rule:nonzero;stroke:none;stroke-width:1px;marker:none;enable-background:accumulate" d="m 47979.889,201.69695 c -0.903,8.80403 0.451,17.97095 0,26.7989 -0.451,9.28156 -1.805,18.94315 -2.708,28.20936 0,13.26563 3.159,25.12665 5.642,38.08265 3.159,16.64939 4.513,33.89366 5.642,50.77686 1.354,16.46434 1.805,32.88083 2.708,49.36639 1.354,17.98855 2.708,35.79204 5.642,53.59779 1.354,18.06754 2.708,36.864 2.708,55.00827 0.902,19.22434 3.159,37.35055 5.642,56.41873 1.805,17.15897 4.513,35.13623 7.041,52.18733 3.159,14.9153 5.777,29.96737 7.086,45.13498 2.708,18.01247 5.551,35.46301 7.041,53.5978 0.451,5.11605 3.611,23.78884 -1.354,26.79889 -7.312,1.02457 -15.211,-0.75826 -22.568,0 -8.62,0.18054 -18.324,-0.0429 -26.81,1.40822 -7.763,1.46688 -14.578,3.25874 -22.567,2.82093 -8.892,0.68154 -18.145,1.93629 -26.81,4.22915 -1.355,0.27081 -2.709,-0.22567 -4.063,0 -8.981,-0.77181 -17.828,-0.36108 -26.765,-1.40821 -20.04,-1.35856 -40.666,-3.86356 -60.661,-5.64187 -14.804,-2.69456 -29.609,-7.29201 -42.337,-15.51515 -5.822,-4.00799 -13.45,-7.72395 -14.082,-15.51516 -0.903,-10.69428 3.16,-20.31164 2.708,-31.0303 0,-13.45203 0,-27.45245 0,-40.90358 0,-10.08947 0,-19.52991 0,-29.61983 0,-12.11514 0,-24.55614 0,-36.67218 0,-16.46389 1.806,-33.05822 4.062,-49.36639 3.611,-23.20886 6.68,-46.98236 7.041,-70.52342 0.903,-30.6128 0.452,-61.05545 1.355,-91.68044 0.451,-30.53562 0.451,-61.21342 2.708,-91.68044 1.354,-20.59103 1.805,-41.45919 2.708,-62.0606 l -109.994,0 c 1.805,20.36806 2.257,41.66952 1.354,62.0606 -1.806,30.63944 -2.708,61.00581 -2.708,91.68044 -0.452,30.53834 0,61.16468 -1.354,91.68044 -0.903,23.1714 -6.094,46.32565 -9.885,69.11295 -3.159,16.69498 -3.611,33.85214 -4.062,50.77686 -0.451,12.22571 0,24.44421 0,36.67218 0,10.08405 0,19.53667 0,29.61983 0,13.44842 0,27.45426 0,40.90358 -0.903,10.82472 -4.062,21.55873 -4.062,32.44077 0,11.54012 7.086,17.20456 15.526,23.97796 12.909,9.56411 28.345,16.78932 43.691,21.15703 20.266,4.14339 41.479,4.11631 62.061,5.64187 24.959,2.19356 49.783,4.12534 74.788,5.64187 14.308,0.36108 28.932,1.62035 43.42,2.73518 -4.062,6.02327 -6.319,10.78411 -39.583,61.88413 -8.892,17.15536 -16.791,34.27055 -15.752,52.9808 1.805,16.68054 6.634,32.65787 16.835,45.92846 12.773,13.96928 28.119,23.51127 48.294,27.06339 14.173,2.52756 28.706,3.45283 43.285,2.55464 l 13.585,-72.19837 c -4.784,-0.40622 -9.749,-0.31595 -14.443,-0.97041 -18.911,-2.9428 -32.091,-12.74882 -43.555,-25.91741 -8.485,-13.0562 -12.638,-26.99478 -13.134,-42.84258 0.451,-5.67572 1.354,-10.35035 3.159,-15.77964 1.354,-1.46237 3.16,-2.62686 4.062,-4.14339 5.958,-9.04776 11.69,-18.13118 17.468,-27.23987 28.119,1.837 56.102,2.32897 83.093,-4.05312 5.1,-1.8731 10.336,-1.77832 15.526,-2.82094 2.709,-0.5687 5.642,-0.69508 8.486,-1.40821 8.53,-1.88213 18.054,-2.64491 26.765,-2.82094 1.354,-0.0144 2.708,0.22568 4.062,0 2.708,-0.40621 5.822,-2.1755 8.485,-2.82093 3.611,-0.90721 7.448,-1.0697 11.284,-1.40821 8.44,-0.53711 16.926,0.007 25.366,0 10.471,0.18054 15.888,2.24772 22.568,-7.05234 4.829,-11.48325 3.159,-26.05869 1.354,-38.08265 -2.709,-18.04226 -4.74,-35.52665 -7.042,-53.59779 -0.902,-15.45242 -4.062,-31.42343 -7.041,-46.54546 -2.708,-16.69317 -5.19,-32.52969 -7.041,-49.36639 -3.159,-18.82445 -6.093,-38.79126 -7.086,-57.8292 0,-18.2571 -1.354,-35.41652 -2.708,-53.5978 -2.708,-17.7403 -4.513,-35.69274 -5.642,-53.59779 -1.354,-16.52934 -0.451,-32.84879 -1.354,-49.36639 -1.805,-17.20997 -2.708,-35.1421 -5.642,-52.18733 -1.805,-12.23519 -6.183,-24.22846 -5.642,-36.67217 1.354,-9.07755 2.257,-17.66403 2.709,-26.7989 0.902,-8.51472 0,-18.38529 1.354,-26.7989 l -109.994,-1.40821 z" id="path5586" inkscape:connector-curvature="0"/></g></svg>