<?xml version="1.0" encoding="UTF-8" standalone="no"?>
<!-- Created with Inkscape (http://www.inkscape.org/) -->

<svg xmlns:dc="http://purl.org/dc/elements/1.1/" xmlns:cc="http://creativecommons.org/ns#" xmlns:rdf="http://www.w3.org/1999/02/22-rdf-syntax-ns#" xmlns:svg="http://www.w3.org/2000/svg" xmlns="http://www.w3.org/2000/svg" xmlns:xlink="http://www.w3.org/1999/xlink" xmlns:sodipodi="http://sodipodi.sourceforge.net/DTD/sodipodi-0.dtd" xmlns:inkscape="http://www.inkscape.org/namespaces/inkscape" version="1.1" width="568.2949999999983" height="1000" id="svg4626" inkscape:version="0.91 r13725" sodipodi:docname="font_bold_raw.svg">
<g transform="translate(-63159.597,0)"><path style="color:#000000;display:inline;overflow:visible;visibility:visible;fill:#000000;fill-opacity:1;fill-rule:nonzero;stroke:none;stroke-width:1px;marker:none;enable-background:accumulate" d="m 63392.674,23.977943 c -7.628,28.415182 -19.543,56.375403 -36.649,80.396697 l 109.994,7.05234 c 16.203,-25.833462 27.758,-54.105115 36.694,-83.217632 L 63392.674,23.9802 Z m 275.865,139.636367 c -10.787,4.51349 -4.558,2.03107 -18.325,4.22914 -14.533,1.9724 -29.202,2.35154 -43.735,2.82094 -16.7,-0.97943 -36.379,-1.75575 -63.46,-5.64187 -3.611,4.06215 -6.454,8.55263 -9.885,12.69421 -17.241,1.65646 -33.445,5.05422 -50.777,5.64187 -38.951,2.19808 -78.083,3.02405 -117.08,0 -46.534,-1.73318 -93.203,-6.3708 -139.647,-9.87327 l -64.859,97.32231 c 47.03,-0.0451 94.061,3.2768 141.046,5.64187 38.726,2.5727 76.865,4.26977 115.636,2.82094 14.624,-0.18054 29.248,-2.45083 43.736,-4.22915 -0.903,1.38565 -1.805,2.84802 -2.708,4.22915 -44.142,69.29394 -85.17,139.79569 -129.763,208.74931 -37.282,59.28796 -73.976,120.34206 -109.994,180.53994 -20.04,32.40647 -38.094,65.2169 -56.419,98.73278 -0.902,2.5727 -1.805,5.89012 -2.708,8.46281 l 4.062,0 -4.062,5.64188 c 35.115,4.45031 70.546,8.08548 105.751,11.28374 l 2.709,0 c 34.302,3.08724 68.605,6.25707 102.998,8.46281 72.938,4.74369 146.959,8.14235 220.033,4.22915 25.004,-1.5707 48.61,-5.4681 73.344,-9.87328 l 63.46,-97.32231 c -24.689,5.87973 -49.604,10.16665 -74.744,12.69421 -73.118,6.1176 -146.914,4.65071 -220.033,0 -38.951,-2.49145 -78.264,-5.3846 -117.08,-9.87327 2.708,-4.70442 5.732,-9.39756 8.44,-14.10469 35.025,-60.40911 70.05,-120.25043 107.196,-179.12947 44.187,-69.29259 85.621,-140.51514 131.207,-208.74931 8.079,-11.42276 17.061,-22.30661 25.366,-33.85124 7.944,-1.02005 6.68,-0.83951 16.926,-2.82094 l 22.567,-35.2617 8.486,1.40821 c 12.908,-25.34149 20.13,-37.76851 19.724,-45.13499 l 12.683,-19.74656 z" id="path5724" inkscape:connector-curvature="0"/></g></svg>