<?xml version="1.0" encoding="UTF-8" standalone="no"?>
<!-- Created with Inkscape (http://www.inkscape.org/) -->

<svg xmlns:dc="http://purl.org/dc/elements/1.1/" xmlns:cc="http://creativecommons.org/ns#" xmlns:rdf="http://www.w3.org/1999/02/22-rdf-syntax-ns#" xmlns:svg="http://www.w3.org/2000/svg" xmlns="http://www.w3.org/2000/svg" xmlns:xlink="http://www.w3.org/1999/xlink" xmlns:sodipodi="http://sodipodi.sourceforge.net/DTD/sodipodi-0.dtd" xmlns:inkscape="http://www.inkscape.org/namespaces/inkscape" version="1.1" width="547.3437172437334" height="1000" id="svg4626" inkscape:version="0.91 r13725" sodipodi:docname="font_bold_raw.svg">
<g transform="translate(-53576.89799999998,0)"><path style="color:#000000;display:inline;overflow:visible;visibility:visible;fill:#000000;fill-opacity:1;fill-rule:nonzero;stroke:none;stroke-width:1px;marker:none;enable-background:accumulate" d="m 53840.667,193.23414 c -52.041,-1.32246 -75.421,3.66045 -119.879,43.72452 -18.956,19.65267 -31.278,42.95812 -39.493,67.70248 -7.582,22.64828 -5.642,44.37807 2.708,66.29201 9.163,18.84791 24.554,33.81648 42.292,46.54545 20.627,13.11939 44.548,16.27206 69.147,18.33609 87.697,-0.64543 95.144,0.8711 105.751,0 9.027,3.56566 17.287,8.42535 25.411,14.10468 19.904,15.63295 38.59,32.62718 53.575,52.18733 11.058,16.19217 18.686,32.9517 25.411,50.77686 8.305,19.81742 10.878,41.10939 12.683,62.0606 1.354,20.79008 1.805,41.60859 -2.708,62.06061 -7.357,21.97667 -25.23,37.53425 -42.292,53.59779 -15.842,14.60388 -33.083,25.10544 -53.62,33.85124 -19.814,7.153 -42.291,8.98367 -63.46,9.87328 -17.151,-1.53459 -33.715,-5.00321 -50.777,-7.05234 -22.928,-2.56818 -42.878,-11.62993 -62.06,-22.56749 -19.182,-12.37602 -38.004,-25.82308 -50.777,-43.72452 -4.965,-9.59796 -10.2,-20.27644 -9.885,-31.0303 l -105.796,0 c 0.451,12.41212 5.913,25.28823 11.284,36.67217 12.457,19.64862 30.782,33.01895 50.777,46.54546 18.956,12.53127 38.906,23.52525 62.06,28.20936 24.87,2.48694 49.829,7.87019 74.789,8.46281 59.217,0.18054 118.524,0.45135 177.696,-1.40821 24.012,-1.50751 47.347,-4.1795 69.102,-14.10468 20.356,-10.08812 39.177,-21.37909 55.02,-36.67218 18.37,-17.20726 36.785,-35.55915 43.735,-59.23967 4.514,-21.3001 2.708,-41.89023 1.354,-63.47107 -1.805,-21.70316 -4.513,-44.26839 -12.682,-64.88154 -7.132,-18.51437 -14.037,-36.64781 -25.411,-53.5978 -14.534,-20.75622 -33.987,-38.0506 -53.576,-55.00826 -17.286,-13.65695 -35.566,-24.85133 -59.262,-26.7989 -38.184,0.0903 -76.052,-0.51905 -114.237,0 -2.256,0.0307 -4.739,1.20059 -7.041,1.40821 -7.131,-1.82797 -13.134,-3.71912 -19.769,-7.05234 -17.648,-10.74845 -30.962,-23.92651 -40.892,-40.90358 -8.305,-20.07153 -11.78,-39.69622 -4.062,-60.65014 8.124,-23.24813 20.762,-45.56196 39.493,-63.47107 10.561,-9.01526 20.852,-17.67576 33.851,-23.97796 1.806,-0.83049 3.611,-2.11232 5.642,-2.82094 16.158,3.70107 32.497,9.90984 47.933,15.51515 l 104.398,-11.28374 c -35.612,-14.08257 -74.112,-22.18295 -112.838,-25.38843 -25.637,-0.56419 -46.128,-2.37862 -63.46,-2.82094 z m -27.758,638.32515 c 0.903,15.96921 0.451,31.97543 0.451,47.95592 -1.354,11.61142 -4.062,23.03193 -7.131,34.29176 -1.805,10.36886 -7.628,19.08578 -13.495,27.59237 -6.5,7.43328 -14.083,13.17941 -22.658,18.07159 -10.517,4.79244 -21.349,8.13468 -32.272,11.98921 -11.96,4.35553 -23.786,8.19877 -36.469,9.87328 -40.35,3.51601 -8.259,0.53259 96.589,-0.18054 l -107.692,16.57311 c 114.417,-0.31594 75.466,6.09771 118.615,-1.32245 12.547,-2.87961 24.553,-7.44773 36.694,-11.63625 11.239,-4.20658 22.929,-7.64452 32.859,-14.63367 8.666,-6.50982 16.971,-13.1582 22.928,-22.39101 6.094,-9.60653 11.284,-19.66125 13.496,-30.94229 3.159,-12.1711 5.867,-24.57059 6.725,-37.20116 0,-15.98049 0,-31.98671 0.451,-47.95592 l 0,-0.0903 -109.001,0 z" id="path5629" inkscape:connector-curvature="0"/></g></svg>