<?xml version="1.0" encoding="UTF-8" standalone="no"?>
<!-- Created with Inkscape (http://www.inkscape.org/) -->

<svg xmlns:dc="http://purl.org/dc/elements/1.1/" xmlns:cc="http://creativecommons.org/ns#" xmlns:rdf="http://www.w3.org/1999/02/22-rdf-syntax-ns#" xmlns:svg="http://www.w3.org/2000/svg" xmlns="http://www.w3.org/2000/svg" xmlns:xlink="http://www.w3.org/1999/xlink" xmlns:sodipodi="http://sodipodi.sourceforge.net/DTD/sodipodi-0.dtd" xmlns:inkscape="http://www.inkscape.org/namespaces/inkscape" version="1.1" width="385.59394276722014" height="1000" id="svg4626" inkscape:version="0.91 r13725" sodipodi:docname="font_bold_raw.svg">
<g transform="translate(-54104.436,0)"><path style="color:#000000;display:inline;overflow:visible;visibility:visible;fill:#000000;fill-opacity:1;fill-rule:nonzero;stroke:none;stroke-width:1px;marker:none;enable-background:accumulate" d="m 54114.32,186.1818 -9.884,100.14325 c 21.213,0.70862 42.246,1.8054 63.46,2.82093 25.049,0.83951 49.693,0.99749 74.743,1.40822 0.903,43.96824 1.354,88.67399 1.354,132.58402 0,42.58124 0,84.36135 0,126.94214 0,28.65891 0.04,57.37921 0,86.03857 0,25.81089 0,51.76486 0,77.57576 0.903,25.55543 -1.805,52.16115 1.354,77.57575 l 110.039,-1.40821 c -3.611,-24.80799 -1.805,-51.14696 -2.708,-76.16529 0,-25.81089 0,-51.76531 0,-77.57575 0,-28.65982 0,-57.37921 0,-86.03857 0,-42.58035 0,-84.36135 0,-126.94215 0,-44.37671 0.452,-89.57534 1.354,-133.99449 6.951,-0.27081 14.173,0.31595 21.169,0 23.831,-1.30891 46.85,-1.4714 70.5,1.40822 7.312,1.83699 16.655,1.62937 23.967,4.22914 l 0,1.40822 c 37.372,-4.30137 12.006,-0.18054 11.284,-67.70248 7.898,-31.36972 14.262,-38.89869 1.354,-33.85124 -9.343,0.55516 -18.821,-1.40821 -28.21,-1.40821 -24.463,-0.87562 -48.881,0.9027 -73.344,2.82093 -33.174,2.6404 -65.355,3.82294 -98.71,4.22915 -35.16,-0.0135 -70.772,-1.32697 -105.796,-4.22915 -20.537,-2.25675 -42.427,-3.90417 -62.061,-9.87328 z m 127.371,645.37749 c 0.903,15.96921 0.452,31.97543 0.452,47.95592 -1.354,11.61142 -4.063,23.03193 -7.132,34.29176 -1.805,10.36886 -7.628,19.08578 -13.495,27.59237 -6.5,7.43328 -14.082,13.17941 -22.658,18.07159 -10.516,4.79244 -21.349,8.13468 -32.271,11.98921 -11.961,4.35553 -23.786,8.19877 -36.469,9.87328 -40.351,3.51601 -8.26,0.53259 96.588,-0.18054 l -107.692,16.57311 c 114.418,-0.31594 75.466,6.09771 118.615,-1.32245 12.548,-2.87961 24.554,-7.44773 36.695,-11.63625 11.238,-4.20658 22.928,-7.64452 32.858,-14.63367 8.666,-6.50982 16.971,-13.1582 22.929,-22.39101 6.093,-9.60653 11.283,-19.66125 13.495,-30.94229 3.16,-12.1711 5.868,-24.57059 6.725,-37.20116 0,-15.98049 0,-31.98671 0.452,-47.95592 l 0,-0.0903 -109.001,0 z" id="path5631" inkscape:connector-curvature="0"/></g></svg>