<?xml version="1.0" encoding="UTF-8" standalone="no"?>
<!-- Created with Inkscape (http://www.inkscape.org/) -->

<svg xmlns:dc="http://purl.org/dc/elements/1.1/" xmlns:cc="http://creativecommons.org/ns#" xmlns:rdf="http://www.w3.org/1999/02/22-rdf-syntax-ns#" xmlns:svg="http://www.w3.org/2000/svg" xmlns="http://www.w3.org/2000/svg" xmlns:xlink="http://www.w3.org/1999/xlink" xmlns:sodipodi="http://sodipodi.sourceforge.net/DTD/sodipodi-0.dtd" xmlns:inkscape="http://www.inkscape.org/namespaces/inkscape" version="1.1" width="169.21100000001024" height="1000" id="svg4626" inkscape:version="0.91 r13725" sodipodi:docname="font_bold_raw.svg">
<g transform="translate(-73808.42999999998,0)"><path inkscape:connector-curvature="0" d="m 73867.647,805.37738 c -7.673,-38.52451 -19.589,-76.43203 -36.695,-108.99873 l 110.039,-7.65128 c 16.159,35.02475 27.713,73.35428 36.65,112.82437 l -109.994,3.82294 z m -35.296,-184.48654 c -5.958,-45.06142 -5.777,-90.38868 -7.041,-135.62386 0.903,-57.14902 -5.281,-113.8169 -9.884,-170.82419 -3.16,-38.67978 -4.514,-78.2591 -5.642,-116.98853 0,-10.71189 -0.903,-21.3845 -1.354,-32.09458 l 110.039,0 c -0.452,10.68254 0,21.41023 0,32.09458 0.451,38.61524 1.354,77.38348 4.062,115.95313 4.062,57.1084 8.937,114.63745 8.44,171.85959 1.354,44.87275 2.257,90.13772 11.284,134.58846 l -109.994,1.03359 z" style="color:#000000;display:inline;overflow:visible;visibility:visible;fill:#000000;fill-opacity:1;fill-rule:nonzero;stroke:none;stroke-width:1px;marker:none;enable-background:accumulate" id="path4761"/></g></svg>