<?xml version="1.0" encoding="UTF-8" standalone="no"?>
<!-- Created with Inkscape (http://www.inkscape.org/) -->

<svg xmlns:dc="http://purl.org/dc/elements/1.1/" xmlns:cc="http://creativecommons.org/ns#" xmlns:rdf="http://www.w3.org/1999/02/22-rdf-syntax-ns#" xmlns:svg="http://www.w3.org/2000/svg" xmlns="http://www.w3.org/2000/svg" xmlns:xlink="http://www.w3.org/1999/xlink" xmlns:sodipodi="http://sodipodi.sourceforge.net/DTD/sodipodi-0.dtd" xmlns:inkscape="http://www.inkscape.org/namespaces/inkscape" version="1.1" width="329.2149999999965" height="1000" id="svg4626" inkscape:version="0.91 r13725" sodipodi:docname="font_bold_raw.svg">
<g transform="translate(-74541.557,0)"><path style="color:#000000;display:inline;overflow:visible;visibility:visible;fill:#000000;fill-opacity:1;fill-rule:nonzero;stroke:none;stroke-width:1px;marker:none;enable-background:accumulate" id="path4396" d="m 74870.772,164.12614 c -8.124,25.39565 -16.565,50.68658 -25.005,75.97346 -12.547,37.46926 -25.14,74.92001 -37.146,112.57613 -14.037,37.45347 -26.81,75.33481 -39.132,113.3985 -11.735,33.29607 -21.259,67.30213 -32.407,100.79274 -9.298,28.55419 -16.564,57.68386 -24.192,86.69889 -7.177,23.46162 -13.631,47.11822 -20.356,70.70034 -4.514,15.38471 -9.84,30.49546 -15.301,45.54436 -5.055,13.09276 -11.284,25.68046 -17.287,38.33405 -2.708,7.21844 -6.228,14.16832 -9.523,21.16244 0,0 -108.866,-5.59177 -108.866,-5.59177 l 0,0 c 4.062,-6.2503 7.448,-13.26924 10.065,-20.32654 5.733,-12.46629 12.097,-24.641 17.287,-37.3632 5.461,-14.92749 11.239,-29.75794 16.068,-44.90795 7.402,-23.3393 13.766,-47.00448 21.214,-70.34468 7.943,-29.22085 15.526,-58.53918 24.779,-87.38495 11.599,-33.36107 21.078,-67.41181 33.174,-100.60678 12.277,-38.09528 25.095,-75.95948 39.493,-113.31996 11.825,-37.66244 24.102,-75.15878 36.334,-112.68852 7.989,-25.16772 16.293,-50.33363 21.935,-76.15084 0,0 108.866,3.50247 108.866,3.50247 z" inkscape:connector-curvature="0"/></g></svg>