<?xml version="1.0" encoding="UTF-8" standalone="no"?>
<!-- Created with Inkscape (http://www.inkscape.org/) -->

<svg xmlns:dc="http://purl.org/dc/elements/1.1/" xmlns:cc="http://creativecommons.org/ns#" xmlns:rdf="http://www.w3.org/1999/02/22-rdf-syntax-ns#" xmlns:svg="http://www.w3.org/2000/svg" xmlns="http://www.w3.org/2000/svg" xmlns:xlink="http://www.w3.org/1999/xlink" xmlns:sodipodi="http://sodipodi.sourceforge.net/DTD/sodipodi-0.dtd" xmlns:inkscape="http://www.inkscape.org/namespaces/inkscape" version="1.1" width="285.4270255497686" height="1000" id="svg4626" inkscape:version="0.91 r13725" sodipodi:docname="font_bold_raw.svg">
<g transform="translate(-71401.43297445023,0)"><path sodipodi:nodetypes="cccccccccccccccccccccccccccccc" inkscape:connector-curvature="0" id="path4862" d="m 71684.558,167.7577 c -9.975,0.69056 -20.04,1.49396 -29.97,2.9112 -18.279,1.77832 -35.476,7.59803 -52.176,15.51515 -20.401,8.53368 -39.087,21.76635 -57.818,33.85124 -20.175,12.54888 -38.364,27.73861 -55.019,45.13499 -16.475,17.0872 -32.182,36.21225 -45.135,56.41873 -16.159,25.91606 -23.741,54.86835 -31.008,84.6281 -6.906,30.26526 -9.885,60.65826 -11.284,91.68044 -0.451,25.37308 -1.354,50.81748 0,76.16529 2.708,25.30267 12.142,49.32441 22.568,71.93388 11.103,20.75848 24.959,39.71202 39.493,57.8292 13.224,17.83464 31.504,30.38849 49.332,42.31405 17.152,12.27356 34.754,22.19919 53.621,31.0303 15.752,7.18369 32.723,11.43495 49.377,15.51516 18.415,5.33315 36.018,8.97734 54.975,11.28374 5.01,0.51454 15.346,0 15.346,0 0,0 -6.725,-33.44186 -8.26,-35.26035 -1.805,-1.37211 -11.419,-2.13489 -16.926,-4.22915 -19.137,-7.90268 -38.003,-17.30024 -55.019,-29.61983 -17.242,-11.4178 -34.754,-21.24594 -47.979,-38.08265 -14.533,-17.2691 -28.074,-35.17098 -39.493,-55.00826 -10.11,-21.34705 -19.949,-43.66133 -22.567,-67.70248 -1.806,-24.96506 -0.452,-49.75004 0,-74.75482 1.354,-30.30634 2.708,-60.76839 9.884,-90.26997 7.177,-28.7889 16.023,-57.27991 32.452,-81.80716 13.135,-19.43513 27.307,-37.16596 43.736,-53.5978 16.565,-16.69272 35.16,-31.67257 54.975,-43.72452 14.443,-9.03647 28.886,-18.00705 44.006,-25.5649 0,-10.748 1.354,-25.08648 2.708,-36.58372 z" style="color:#000000;display:inline;overflow:visible;visibility:visible;fill:#000000;fill-opacity:1;fill-rule:nonzero;stroke:none;stroke-width:1px;marker:none;enable-background:accumulate"/></g></svg>