<?xml version="1.0" encoding="UTF-8" standalone="no"?>
<!-- Created with Inkscape (http://www.inkscape.org/) -->

<svg xmlns:dc="http://purl.org/dc/elements/1.1/" xmlns:cc="http://creativecommons.org/ns#" xmlns:rdf="http://www.w3.org/1999/02/22-rdf-syntax-ns#" xmlns:svg="http://www.w3.org/2000/svg" xmlns="http://www.w3.org/2000/svg" xmlns:xlink="http://www.w3.org/1999/xlink" xmlns:sodipodi="http://sodipodi.sourceforge.net/DTD/sodipodi-0.dtd" xmlns:inkscape="http://www.inkscape.org/namespaces/inkscape" version="1.1" width="285.4713062178198" height="1000" id="svg4626" inkscape:version="0.91 r13725" sodipodi:docname="font_bold_raw.svg">
<g transform="translate(-71762.416,0)"><path style="color:#000000;display:inline;overflow:visible;visibility:visible;fill:#000000;fill-opacity:1;fill-rule:nonzero;stroke:none;stroke-width:1px;marker:none;enable-background:accumulate" d="m 71764.718,167.7577 c 10.02,0.69056 20.04,1.49396 29.969,2.9112 18.28,1.77832 35.521,7.59803 52.176,15.51515 20.401,8.53368 39.132,21.76635 57.818,33.85124 20.221,12.54888 38.41,27.73861 55.02,45.13499 16.474,17.0872 32.181,36.21225 45.135,56.41873 16.203,25.91606 23.741,54.86835 31.053,84.6281 6.86,30.26526 9.839,60.65826 11.283,91.68044 0.452,25.37308 1.354,50.81748 0,76.16529 -2.708,25.30267 -12.141,49.32441 -22.567,71.93388 -11.103,20.75848 -24.96,39.71202 -39.493,57.8292 -13.27,17.83464 -31.55,30.38849 -49.378,42.31405 -17.151,12.27356 -34.754,22.19919 -53.62,31.0303 -15.707,7.18369 -32.723,11.43495 -49.333,15.51516 -18.415,5.33315 -36.063,8.97734 -55.019,11.28374 -5.01,0.51454 -15.346,0 -15.346,0 0,0 6.77,-33.44186 8.305,-35.26035 1.805,-1.37211 11.419,-2.13489 16.925,-4.22915 19.092,-7.90268 38.004,-17.30024 55.02,-29.61983 17.196,-11.4178 34.708,-21.24594 47.933,-38.08265 14.579,-17.2691 28.074,-35.17098 39.493,-55.00826 10.11,-21.34705 19.95,-43.66133 22.568,-67.70248 1.805,-24.96506 0.451,-49.75004 0,-74.75482 -1.354,-30.30634 -2.708,-60.76839 -9.885,-90.26997 -7.176,-28.7889 -15.978,-57.27991 -32.407,-81.80716 -13.179,-19.43513 -27.352,-37.16596 -43.736,-53.5978 -16.564,-16.69272 -35.205,-31.67257 -55.019,-43.72452 -14.398,-9.03647 -28.887,-18.00705 -44.007,-25.5649 0,-10.748 -1.354,-25.08648 -2.708,-36.58372 z" id="path4864" inkscape:connector-curvature="0" sodipodi:nodetypes="cccccccccccccccccccccccccccccc"/></g></svg>