<?xml version="1.0" encoding="UTF-8" standalone="no"?>
<!-- Created with Inkscape (http://www.inkscape.org/) -->

<svg xmlns:dc="http://purl.org/dc/elements/1.1/" xmlns:cc="http://creativecommons.org/ns#" xmlns:rdf="http://www.w3.org/1999/02/22-rdf-syntax-ns#" xmlns:svg="http://www.w3.org/2000/svg" xmlns="http://www.w3.org/2000/svg" xmlns:xlink="http://www.w3.org/1999/xlink" xmlns:sodipodi="http://sodipodi.sourceforge.net/DTD/sodipodi-0.dtd" xmlns:inkscape="http://www.inkscape.org/namespaces/inkscape" version="1.1" width="334.13499999999476" height="1000" id="svg4626" inkscape:version="0.91 r13725" sodipodi:docname="font_bold_raw.svg">
<g transform="translate(-69349.45400000001,0)"><path style="color:#000000;display:inline;overflow:visible;visibility:visible;fill:#000000;fill-opacity:1;fill-rule:nonzero;stroke:none;stroke-width:1px;marker:none;enable-background:accumulate" d="m 69493.345,311.1845 c -3.16,32.25481 -3.611,64.76373 -4.514,97.14628 -22.387,-23.50133 -45.045,-46.88758 -64.272,-73.08031 l -42.608,41.16807 c 19.679,23.8904 41.118,46.19385 62.512,68.49595 -23.831,-1.17351 -47.662,-2.14842 -71.493,-2.64491 -7.854,-0.1354 -15.662,-0.18054 -23.516,-0.36108 l 0,59.15121 c 7.809,-0.18054 15.707,-0.22568 23.516,-0.18054 24.056,0.1354 48.068,0.74924 72.125,1.76478 -18.731,16.89041 -37.191,33.94782 -55.38,51.39385 -5.642,5.45862 -11.239,10.97096 -16.926,16.39664 l 41.795,41.87353 c 5.416,-5.65226 10.923,-11.24132 16.474,-16.74959 17.061,-16.9017 34.619,-33.37733 52.267,-49.63089 -1.354,25.11176 -2.257,50.23389 -2.709,75.37182 0,7.85529 0,15.77197 -0.451,23.62546 l 59.172,0 c 0,-7.83408 0,-15.70201 0,-23.537 0,-24.02445 0.903,-48.01866 1.806,-72.02189 16.88,18.67776 33.986,37.19935 51.408,55.36077 5.462,5.64999 10.968,11.15601 16.384,16.83715 l 41.886,-41.78507 c -5.687,-5.42703 -11.239,-10.91228 -16.746,-16.48465 -17.963,-18.12531 -35.521,-36.60853 -52.717,-55.44923 0.902,-0.003 1.805,0.0903 2.708,0.0903 32.903,0.82146 66.032,1.26829 98.62,6.25887 l 0.903,-59.23967 c -32.272,-3.14591 -64.724,-3.66045 -97.131,-4.31942 23.47,-22.36845 46.986,-45.02801 73.164,-64.26455 l -41.254,-42.57854 c -25.004,20.57524 -48.339,43.07909 -71.674,65.49854 0.903,-32.41233 1.354,-64.95646 6.184,-97.05782 l -59.263,-1.05616 z" id="path4887" inkscape:connector-curvature="0"/></g></svg>