<?xml version="1.0" encoding="UTF-8" standalone="no"?>
<!-- Created with Inkscape (http://www.inkscape.org/) -->

<svg xmlns:dc="http://purl.org/dc/elements/1.1/" xmlns:cc="http://creativecommons.org/ns#" xmlns:rdf="http://www.w3.org/1999/02/22-rdf-syntax-ns#" xmlns:svg="http://www.w3.org/2000/svg" xmlns="http://www.w3.org/2000/svg" xmlns:xlink="http://www.w3.org/1999/xlink" xmlns:sodipodi="http://sodipodi.sourceforge.net/DTD/sodipodi-0.dtd" xmlns:inkscape="http://www.inkscape.org/namespaces/inkscape" version="1.1" width="334.99199999999837" height="1000" id="svg4626" inkscape:version="0.91 r13725" sodipodi:docname="font_bold_raw.svg">
<g transform="translate(-70527.071,0)"><path inkscape:connector-curvature="0" d="m 70527.161,444.42884 c 32.407,-1.74221 64.769,-3.09626 97.131,-5.32457 36.243,-2.6404 72.577,-4.40518 109.001,-5.2307 25.546,-1.72415 50.912,0.78986 76.323,2.87961 17.422,1.49397 34.935,1.99497 52.447,2.24773 0,0 -0.451,108.53565 -0.451,108.53565 l 0,0 c -17.964,-0.31595 -35.928,-0.91173 -53.756,-2.69456 -24.734,-2.39216 -49.423,-5.15171 -74.383,-3.86356 -36.062,0.61384 -72.125,1.57973 -108.053,4.46837 -32.046,2.52304 -64.362,3.60628 -96.092,7.93879 0,0 -2.257,-108.9527 -2.257,-108.9527 z" id="path4871" style="color:#000000;display:inline;overflow:visible;visibility:visible;fill:#000000;fill-opacity:1;fill-rule:nonzero;stroke:none;stroke-width:1px;marker:none;enable-background:accumulate"/></g></svg>