<?xml version="1.0" encoding="UTF-8" standalone="no"?>
<!-- Created with Inkscape (http://www.inkscape.org/) -->

<svg xmlns:dc="http://purl.org/dc/elements/1.1/" xmlns:cc="http://creativecommons.org/ns#" xmlns:rdf="http://www.w3.org/1999/02/22-rdf-syntax-ns#" xmlns:svg="http://www.w3.org/2000/svg" xmlns="http://www.w3.org/2000/svg" xmlns:xlink="http://www.w3.org/1999/xlink" xmlns:sodipodi="http://sodipodi.sourceforge.net/DTD/sodipodi-0.dtd" xmlns:inkscape="http://www.inkscape.org/namespaces/inkscape" version="1.1" width="484.0091603322653" height="1000" id="svg4626" inkscape:version="0.91 r13725" sodipodi:docname="font_bold_raw.svg">
<g transform="translate(-77708.40800000004,0)"><path style="color:#000000;display:inline;overflow:visible;visibility:visible;fill:#000000;fill-opacity:1;fill-rule:nonzero;stroke:none;stroke-width:1px;marker:none;enable-background:accumulate" d="m 78025.798,189.88422 c -18.461,-1.10129 -33.806,-0.45135 -59.624,0.36108 -22.793,0.74021 -45.405,3.23618 -67.702,8.28678 -25.817,5.06641 -51.77,9.78076 -78.174,9.9613 -21.529,-0.0271 -42.923,-1.76027 -64.362,-3.70107 l 108.233,25.8294 c 20.943,2.14842 41.705,2.69907 62.693,2.29285 15.391,-0.82145 30.646,-2.96085 45.767,-5.64187 -11.69,11.98921 -24.328,23.18088 -37.643,33.32226 -23.741,18.46427 -47.843,36.25738 -70.952,55.44878 -19.724,17.03304 -38.771,34.96427 -57.953,52.62829 -10.697,9.18633 -21.169,18.32571 -30.06,29.35535 -6.319,6.81448 -13.857,12.34848 -20.176,19.12956 -7.266,5.32683 -14.894,10.60988 -16.655,19.92258 0.452,2.36959 0,4.8317 0.903,7.05234 0.452,1.336 1.806,3.03759 3.16,3.17299 147.862,14.07986 74.924,8.9101 134.592,5.99438 16.158,-3.6108 32.633,-4.36455 49.107,-4.31942 0.451,0.005 0.451,0.0903 0.903,0.0903 15.21,2.09426 30.06,6.05982 44.097,12.25325 16.7,8.33417 33.535,16.37407 49.693,25.74138 13.18,7.27621 23.38,18.1718 32.633,29.79586 7.944,9.81551 14.398,20.68085 18.957,32.44077 5.19,11.84162 7.627,24.29481 8.395,37.11315 0.451,13.94851 -0.452,27.88891 -1.806,41.78507 0,17.43384 -4.739,33.7226 -11.193,49.71889 -7.673,16.84212 -18.054,31.94519 -28.39,47.16245 -9.84,14.10694 -21.484,26.65988 -32.994,39.4051 -9.343,11.80325 -22.251,17.57421 -35.521,23.44898 -14.172,4.16144 -28.616,7.39807 -43.375,8.81531 -7.267,-0.1354 -14.443,0.88465 -21.574,1.76478 -8.35,-1.7377 -16.61,-3.9132 -24.283,-7.66979 -9.975,-4.45482 -19.453,-9.80648 -28.616,-15.77919 -10.787,-7.18865 -19.182,-17.03575 -26.99,-27.23987 -3.611,-4.56495 -5.778,-9.80106 -7.673,-15.25066 l -110.807,-4.40968 c 1.806,6.64477 3.611,13.23718 7.673,19.04154 7.854,11.15241 16.43,21.88009 26.901,30.76582 8.756,6.8718 18.054,13.22725 28.48,17.36613 9.93,5.35707 20.085,10.83646 31.549,12.2537 7.538,1.36308 18.912,5.24288 25.637,5.90636 85.079,8.36397 78.896,7.90179 122.361,10.57829 14.579,0.74021 29.157,1.31794 43.736,0.18054 13.901,-1.39016 27.758,-2.98794 41.705,-4.14339 14.984,-2.56818 30.195,-5.82151 44.142,-12.07722 13.991,-6.69713 26.133,-15.91866 36.062,-27.94488 11.555,-13.16 23.155,-26.3006 32.859,-40.90358 10.697,-15.86043 20.942,-31.98445 28.48,-49.63088 6.59,-17.11067 12.096,-34.38879 12.096,-52.89233 0.903,-14.3764 2.708,-28.85615 2.257,-43.284 -0.903,-13.80634 -2.708,-27.39513 -8.215,-40.19812 -4.513,-13.10224 -10.742,-25.21105 -18.957,-36.31968 -10.29,-11.98379 -19.408,-25.2309 -33.129,-33.76322 -16.384,-9.18226 -32.632,-18.46743 -49.738,-26.35793 -16.159,-9.19129 -33.806,-14.65262 -52.086,-17.98359 -52.357,-4.03055 -104.713,-8.18116 -157.07,-12.07721 4.514,-4.31942 8.982,-8.58558 13.134,-13.22275 9.073,-10.01275 18.822,-19.1923 28.797,-28.29783 18.595,-17.57331 36.469,-35.93738 56.328,-52.09886 23.515,-19.00319 47.798,-36.89966 71.945,-55.00827 14.488,-11.40471 29.248,-23.02516 40.757,-37.55411 7.989,-10.29394 18.009,-20.42358 20.536,-33.58675 0,-2.32896 1.806,-6.6028 -0.451,-6.96388 -38.094,-6.09593 -59.668,-8.94981 -78.129,-10.04975 z m 69.959,23.18449 c 1.354,-0.0451 5.913,0.75375 4.513,0.61835 -2.708,-0.22568 -4.513,-0.0903 -6.68,-0.27081 0.903,-0.0903 1.354,-0.31595 2.257,-0.36108 z" id="path4420" inkscape:connector-curvature="0"/></g></svg>