<?xml version="1.0" encoding="UTF-8" standalone="no"?>
<!-- Created with Inkscape (http://www.inkscape.org/) -->

<svg xmlns:dc="http://purl.org/dc/elements/1.1/" xmlns:cc="http://creativecommons.org/ns#" xmlns:rdf="http://www.w3.org/1999/02/22-rdf-syntax-ns#" xmlns:svg="http://www.w3.org/2000/svg" xmlns="http://www.w3.org/2000/svg" xmlns:xlink="http://www.w3.org/1999/xlink" xmlns:sodipodi="http://sodipodi.sourceforge.net/DTD/sodipodi-0.dtd" xmlns:inkscape="http://www.inkscape.org/namespaces/inkscape" version="1.1" width="563.9965316342132" height="1000" id="svg4626" inkscape:version="0.91 r13725" sodipodi:docname="font_bold_raw.svg">
<g transform="translate(-78152.54646836578,0)"><path style="color:#000000;display:inline;overflow:visible;visibility:visible;fill:#000000;fill-opacity:1;fill-rule:nonzero;stroke:none;stroke-width:1px;marker:none;enable-background:accumulate" d="m 78531.084,151.62555 c -7.763,1.41273 -11.239,9.49324 -19.137,29.79586 -3.611,10.91184 -9.614,20.32429 -16.745,29.70785 -10.111,17.08765 -20.311,34.21503 -29.022,51.92283 -16.7,31.7809 -33.852,63.33342 -53.485,93.79637 -18.686,28.86879 -39.99,56.17004 -60.21,84.18713 -21.665,29.25244 -43.872,58.14876 -65.852,87.18455 -20.898,28.38584 -43.149,56.01026 -65.672,83.3941 -2.708,3.25875 -9.568,11.34468 -11.915,15.51516 0,0.18054 -0.452,0.48745 -0.452,0.7041 -4.558,0.58676 -9.027,1.14192 -14.443,1.23219 2.708,0.22567 9.794,1.06067 12.683,1.32245 -1.354,1.75124 -2.257,3.3445 -0.451,3.70107 129.447,28.20891 84.447,29.94932 132.651,16.74914 11.284,-1.72867 22.117,-5.64368 33.716,-5.55341 18.912,-0.5371 37.733,2.67651 56.645,3.08724 11.509,0.60932 23.064,1.1058 34.573,1.58875 16.113,2.52304 32.768,5.41439 43.736,8.37479 3.611,0.77181 7.492,1.22316 11.193,1.94081 0,5.79037 0.452,11.57441 0.452,17.36614 0.451,25.74003 -1.354,51.42635 0.451,77.13524 2.257,16.2003 3.611,32.43445 3.611,48.74894 -0.451,12.75605 -1.806,25.4787 -3.16,38.17111 -0.902,5.77367 -0.451,11.57216 0,17.36613 l 124.799,8.0223 c -1.806,-4.82854 -1.806,-9.43998 -0.903,-14.45764 1.354,-13.02731 2.708,-26.04424 3.159,-39.14016 0,-16.72116 -1.805,-33.36829 -4.558,-49.89537 -3.16,-25.49675 -0.452,-50.94386 -1.354,-76.51779 -0.452,-6.40601 -0.452,-12.81428 -0.903,-19.21758 l 76.052,-3.96736 c -25.726,-1.56167 -51.228,-4.74053 -76.594,-8.90333 -0.902,-18.91607 -1.805,-37.83666 -2.256,-56.77124 0,-35.3786 -1.806,-70.76172 -2.257,-106.13808 -0.451,-40.97128 -0.04,-81.9403 1.805,-122.88676 1.354,-39.21508 4.514,-78.40805 6.545,-117.59786 2.708,-25.53195 6.364,-51.31531 3.611,-76.95876 -1.354,-0.1354 -1.806,-0.31594 -3.16,-0.45135 3.611,-10.37743 -6.183,-8.47048 -38.184,-5.73033 -46.895,-8.75935 -64.994,-18.71974 -75.375,-16.83716 z m -337.023,477.4433 c -72.938,-6.32883 -34.528,0.60029 0,0 z m 322.309,-233.16824 c -0.452,28.9225 -1.354,57.81791 -1.354,86.74402 -0.452,35.29737 1.805,70.57848 1.354,105.87314 0,15.68034 0.903,31.31917 1.354,46.98642 -37.914,-4.07117 -76.188,-6.8709 -114.598,-10.31425 -18.866,-0.65445 -37.688,-1.6745 -56.509,-2.55464 19.544,-26.34077 40.125,-52.00633 59.217,-78.63372 22.207,-29.02224 44.91,-57.80934 66.845,-87.00806 14.714,-20.32338 29.383,-40.50008 43.51,-61.09111 z" id="path4422" inkscape:connector-curvature="0"/></g></svg>