<?xml version="1.0" encoding="UTF-8" standalone="no"?>
<!-- Created with Inkscape (http://www.inkscape.org/) -->

<svg xmlns:dc="http://purl.org/dc/elements/1.1/" xmlns:cc="http://creativecommons.org/ns#" xmlns:rdf="http://www.w3.org/1999/02/22-rdf-syntax-ns#" xmlns:svg="http://www.w3.org/2000/svg" xmlns="http://www.w3.org/2000/svg" xmlns:xlink="http://www.w3.org/1999/xlink" xmlns:sodipodi="http://sodipodi.sourceforge.net/DTD/sodipodi-0.dtd" xmlns:inkscape="http://www.inkscape.org/namespaces/inkscape" version="1.1" width="408.88399590998597" height="1000" id="svg4626" inkscape:version="0.91 r13725" sodipodi:docname="font_bold_raw.svg">
<g transform="translate(-78793.94400409001,0)"><path style="color:#000000;display:inline;overflow:visible;visibility:visible;fill:#000000;fill-opacity:1;fill-rule:nonzero;stroke:none;stroke-width:1px;marker:none;enable-background:accumulate" d="m 79108.857,180.53992 c -22.162,6.43535 -45.09,9.07123 -67.793,12.25325 -24.328,1.54362 -48.475,5.89644 -72.758,8.02229 -22.702,2.8074 -45.496,3.99896 -68.289,2.37862 -17.557,-0.36108 -34.483,-6.83163 -51.95,-7.40485 -1.354,-0.0316 -11.6,-0.31594 -12.864,-0.52808 -8.936,-1.61583 -10.471,-4.91971 -16.293,5.02488 -0.452,2.18453 -1.354,4.27428 -1.806,6.52336 -0.902,4.24269 -0.902,12.59447 -0.902,16.66113 -0.452,14.0275 -0.903,28.03424 -1.806,42.04956 -0.903,39.66913 -5.01,79.07333 -10.607,118.21484 -2.708,27.96248 -7.492,55.66047 -9.613,83.6586 -2.708,62.25108 17.512,34.65374 101.914,54.39127 8.712,-10.62117 20.356,-17.1522 31.324,-24.41893 12.683,-7.87199 26.359,-12.46854 40.531,-15.51515 8.125,-3.11883 16.475,-3.70107 24.87,-3.52504 7.718,4.06666 15.165,8.98186 22.116,14.72167 13.36,11.68139 25.501,24.76422 37.101,38.52317 10.832,11.8222 20.22,25.00388 29.112,38.61162 7.899,12.72762 13.811,26.52628 18.144,41.16807 3.611,12.26769 3.611,24.92309 2.708,37.64213 -1.354,12.58002 -4.062,25.05082 -6.319,37.4652 -2.256,14.89725 -8.485,28.45174 -15.255,41.34455 -8.395,14.48336 -19.905,25.25212 -32.362,35.08523 -11.464,10.90912 -23.335,20.74765 -36.514,28.91482 -12.503,8.82796 -27.307,11.29458 -41.073,16.66113 -12.999,4.77709 -26.269,8.19336 -39.764,10.66675 -1.805,0.27081 -3.611,0.003 -5.732,0.0903 -8.215,-6.48319 -14.985,-14.9487 -21.484,-23.44898 -4.514,-5.68655 -6.771,-12.47937 -8.982,-19.48206 l -98.575,-16.4851 c 2.708,7.59667 4.062,15.95837 8.53,22.65595 6.455,10.69609 14.985,19.61432 23.019,28.82637 3.16,2.49145 5.687,5.42838 8.892,7.58132 6.77,4.52433 15.075,4.3465 22.477,6.69984 43.375,10.26685 86.614,21.55376 130.305,29.61983 11.961,1.59327 23.966,2.16197 35.792,-0.88013 13.495,-3.28131 26.81,-7.03474 39.854,-12.16523 14.443,-4.94499 29.112,-9.34295 41.795,-18.86507 12.954,-8.85549 24.644,-19.60754 36.559,-30.06036 13.135,-11.07477 24.96,-23.66246 33.581,-39.49311 7.131,-14.06406 13.676,-28.5727 16.339,-44.606 2.256,-12.76959 4.965,-25.58793 6.589,-38.52361 1.354,-14.19225 1.806,-28.46935 -1.805,-42.31405 -4.514,-15.68486 -9.975,-30.59972 -18.054,-44.51799 -8.846,-14.09792 -17.964,-28.17913 -28.932,-40.3746 -12.276,-13.56081 -23.605,-28.04779 -37.281,-40.0221 -11.69,-10.76198 -23.425,-20.9327 -38.004,-26.35793 -43.329,-10.1477 -86.614,-20.70387 -130.079,-30.32529 -11.374,-2.53659 -22.883,-5.11379 -34.483,-5.64187 -5.371,-0.0361 -10.652,0.47843 -15.887,1.23218 1.354,-12.39361 3.159,-24.80438 3.61,-37.20116 5.236,-39.46693 9.524,-79.05122 11.374,-118.9203 0.903,-13.97695 2.257,-27.90787 3.16,-41.87308 0.451,-4.32845 0.04,-8.82209 0.903,-13.04672 0,-0.52357 0.451,-0.78535 0.902,-1.2367 6.229,6.15641 18.415,1.26829 25.772,3.79134 16.926,2.78031 33.852,5.95917 51.003,6.52336 23.019,0.64994 45.992,-1.12838 68.876,-3.79134 24.102,-2.82997 48.204,-6.18124 72.351,-8.55082 23.38,-3.29486 46.67,-6.95079 69.734,-12.34172 l -94.423,-35.08523 z m -215.926,327.66962 c 1.354,0.31595 2.257,0.55516 3.611,0.88013 0.903,0.22568 -1.806,1.81443 -2.708,1.49848 -0.903,-0.27081 -0.903,-1.44432 -1.354,-2.37861 z" id="path4426" inkscape:connector-curvature="0"/></g></svg>