<?xml version="1.0" encoding="UTF-8" standalone="no"?>
<!-- Created with Inkscape (http://www.inkscape.org/) -->

<svg xmlns:dc="http://purl.org/dc/elements/1.1/" xmlns:cc="http://creativecommons.org/ns#" xmlns:rdf="http://www.w3.org/1999/02/22-rdf-syntax-ns#" xmlns:svg="http://www.w3.org/2000/svg" xmlns="http://www.w3.org/2000/svg" xmlns:xlink="http://www.w3.org/1999/xlink" xmlns:sodipodi="http://sodipodi.sourceforge.net/DTD/sodipodi-0.dtd" xmlns:inkscape="http://www.inkscape.org/namespaces/inkscape" version="1.1" width="455.504360778039" height="1000" id="svg4626" inkscape:version="0.91 r13725" sodipodi:docname="font_bold_raw.svg">
<g transform="translate(-79268.36527522099,0)"><path style="color:#000000;display:inline;overflow:visible;visibility:visible;fill:#000000;fill-opacity:1;fill-rule:nonzero;stroke:none;stroke-width:1px;marker:none;enable-background:accumulate" d="m 79527.664,153.03557 c -18.234,5.95827 -36.063,12.67164 -53.169,21.42151 -18.46,9.11366 -32.542,23.77982 -46.444,38.52362 -10.967,13.3428 -22.251,26.44819 -33.219,39.7576 -11.284,13.1081 -21.033,27.65601 -29.293,42.84303 -9.974,17.43655 -19.408,35.16061 -29.157,52.71631 -7.537,16.10913 -16.068,31.73215 -23.741,47.77944 -6.725,14.1101 -11.103,29.09537 -14.714,44.2535 -5.19,13.19341 -9.298,26.6635 -12.863,40.3746 -3.611,15.20553 -6.545,30.64711 -9.433,46.01647 -2.709,14.13222 -5.642,28.16514 -6.771,42.49053 -1.354,14.7632 0.452,29.41808 0.903,44.16504 0.903,13.9291 2.257,27.79502 4.92,41.52102 4.739,15.77649 10.968,31.18106 17.377,46.36898 6.228,13.93904 14.172,26.73029 24.598,37.90617 11.103,12.38188 23.109,23.74822 35.251,35.08568 11.148,10.99939 23.019,20.97061 36.469,28.91437 11.283,7.46849 23.696,12.40671 36.604,16.22061 41.57,10.65863 85.125,16.29825 126.92,22.47903 3.611,0.51905 17.467,-3.67399 21.258,-4.58391 16.339,-4.87909 31.64,-12.27987 47.528,-18.33609 13.134,-5.28485 24.733,-13.06477 36.739,-20.27553 10.833,-7.96678 19.86,-17.86263 27.172,-29.09086 8.485,-12.76823 16.203,-26.08034 22.477,-40.1101 5.416,-12.9226 8.53,-26.60121 11.284,-40.28659 3.159,-15.56931 5.912,-31.06054 5.461,-46.98597 -0.451,-18.03098 -4.062,-35.644 -7.312,-53.33331 -2.708,-15.82342 -8.079,-30.7306 -16.113,-44.60645 -10.11,-16.31224 -19.182,-33.27216 -31.143,-48.30843 -9.298,-12.01087 -21.981,-19.58813 -34.89,-26.97537 -12.547,-6.07562 -24.643,-12.70911 -36.604,-19.83457 -13.089,-7.70545 -26.043,-15.65643 -39.042,-23.53699 -14.037,-7.58855 -27.938,-15.39916 -42.652,-21.50998 -12.367,-4.83125 -25.411,-7.56914 -38.365,-10.13732 -14.488,-2.71713 -31.82,-5.23837 -41.524,-6.96433 2.708,-5.24017 5.145,-10.47087 7.763,-15.69163 9.569,-17.60851 19.047,-35.33437 29.157,-52.62784 8.576,-14.39265 18.099,-28.22201 29.202,-40.81557 10.923,-13.00294 21.394,-26.38321 32.633,-39.14061 13.405,-13.90609 27.713,-26.74067 45.541,-34.73273 17.287,-8.06697 35.206,-14.33622 53.621,-19.30558 l 0,-0.0903 -106.519,-31.55929 z m -103.494,258.38019 14.985,3.34901 c 3.159,1.62938 6.273,3.18653 9.433,4.84886 13.269,7.17285 25.817,15.62889 38.59,23.625 12.412,6.40195 23.651,14.86656 36.695,20.01105 12.638,6.43489 25.817,12.41934 35.521,23.09647 13.36,13.30535 21.891,30.17364 31.279,46.36898 8.124,12.50871 13.585,25.75854 16.519,40.46306 3.16,17.20411 7.899,34.22947 7.899,51.83483 0.451,15.09313 -2.708,29.61125 -5.732,44.34151 -2.708,12.86934 -5.281,25.78607 -10.472,37.90616 -6.138,13.43218 -13.856,26.12549 -22.387,38.17066 -7.176,9.71847 -15.797,18.2544 -26.088,24.68342 -11.283,7.37416 -23.47,12.97135 -35.792,18.4241 -10.11,4.28783 -20.401,8.2421 -30.872,11.63671 -7.808,-4.90076 -15.436,-10.14545 -21.845,-17.19011 -11.69,-11.5004 -24.554,-21.83225 -34.935,-34.64472 -10.2,-10.19103 -19.137,-20.75758 -25.456,-33.9397 -6.409,-14.43011 -11.464,-29.3919 -17.196,-44.07702 -3.16,-13.03905 -3.611,-26.30648 -5.191,-39.58113 -0.451,-14.3958 -2.708,-28.69411 -1.354,-43.10752 0.903,-13.91828 4.649,-27.54904 6.68,-41.3441 2.708,-15.12879 5.371,-30.22645 9.162,-45.13498 3.611,-13.8077 8.486,-27.15998 13.135,-40.63955 3.159,-14.36375 7.312,-28.66929 13.856,-41.96109 1.354,-2.37861 2.257,-4.75948 3.611,-7.1408 z" id="path4428" inkscape:connector-curvature="0"/></g></svg>