<?xml version="1.0" encoding="UTF-8" standalone="no"?>
<!-- Created with Inkscape (http://www.inkscape.org/) -->

<svg xmlns:dc="http://purl.org/dc/elements/1.1/" xmlns:cc="http://creativecommons.org/ns#" xmlns:rdf="http://www.w3.org/1999/02/22-rdf-syntax-ns#" xmlns:svg="http://www.w3.org/2000/svg" xmlns="http://www.w3.org/2000/svg" xmlns:xlink="http://www.w3.org/1999/xlink" xmlns:sodipodi="http://sodipodi.sourceforge.net/DTD/sodipodi-0.dtd" xmlns:inkscape="http://www.inkscape.org/namespaces/inkscape" version="1.1" width="400.5950000000448" height="1000" id="svg4626" inkscape:version="0.91 r13725" sodipodi:docname="font_bold_raw.svg">
<g transform="translate(-68766.08499999998,0)"><path style="color:#000000;display:inline;overflow:visible;visibility:visible;fill:#000000;fill-opacity:1;fill-rule:nonzero;stroke:none;stroke-width:0.80000001;stroke-miterlimit:4;stroke-dasharray:none;stroke-opacity:1;marker:none;enable-background:accumulate" d="m 68916.158,176.66102 c -18.911,0.45135 -35.927,4.2111 -51.092,5.73034 l -0.903,0.0903 -0.903,0.18054 c -18.821,3.80488 -34.302,12.54301 -47.708,21.42107 l 0,0 0,0.0903 c -13.63,9.22604 -28.389,19.5773 -38.951,36.31922 l -0.451,0.88013 -0.452,0.9704 c -3.611,8.02816 -8.756,18.38032 -9.162,31.55929 l -0.451,18.68859 107.601,0 -0.451,-18.60058 c 0,-0.84403 1.354,-5.30878 4.062,-10.3138 6.093,-8.16446 15.978,-15.85998 27.713,-23.44898 11.645,-6.60099 22.342,-11.22281 33.942,-12.51818 l 0,-0.0903 0,0 c 11.915,-1.43078 22.251,-3.44832 32,-4.40969 12.909,0.59127 25.592,1.90018 35.251,5.28937 11.87,5.11966 21.123,10.74619 29.879,18.77705 11.509,10.85858 20.04,19.30333 23.109,27.85641 2.257,10.52819 2.257,21.98571 1.354,34.64472 -1.354,13.43488 -2.708,25.56987 -7.086,35.70267 l 0,0.27081 0,0.36108 c -4.062,10.86715 -8.485,20.27825 -14.533,29.26733 -8.531,11.05085 -19.544,21.24549 -31.821,30.94184 -3.61,2.6088 -7.221,4.42774 -10.652,5.99483 -8.214,-0.45135 -12.457,0.36108 -65.851,0 l -0.903,0 -0.903,0 c -16.925,1.42175 -36.288,3.55212 -54.207,14.98617 l -0.451,0.27081 -0.452,0.27081 c -13.269,9.50362 -25.952,21.51901 -33.851,37.81815 l -0.451,0.70411 -0.452,0.7041 c -6.77,17.46634 -8.666,37.08291 -2.256,56.33027 6.093,18.36949 15.571,36.45914 30.375,51.83482 l 0.452,0.45135 0.451,0.52808 c 31.414,28.27075 56.464,34.67586 92.392,33.76323 l 29.608,-0.79438 -0.451,-0.52808 c 4.513,-0.22567 7.808,-0.40621 12.818,-0.52808 l 0.451,-0.0903 0.452,0 c 27.261,-2.25674 54.568,-7.93111 80.205,-18.07159 l -4.649,-34.73273 -73.615,-8.02184 -4.063,1.40821 c -8.35,3.01953 -16.158,5.59674 -23.741,7.75735 -5.19,-2.86607 -10.11,-6.59332 -16.023,-11.63625 -9.839,-9.49956 -16.88,-21.57046 -21.529,-34.82074 l 0,-0.18054 0,-0.0903 c -3.159,-8.53096 -1.805,-15.79679 2.708,-26.1819 4.875,-7.91758 10.833,-14.01441 19.679,-19.48206 1.805,-0.79438 3.611,-1.35405 5.642,-1.94081 0.903,0.27081 -0.451,0.48295 2.708,0.52808 25.727,0.31595 51.003,-0.0406 76.233,0 l 0.903,0 0.902,-0.0903 c 20.672,-1.69707 36.515,-11.65114 49.107,-21.59754 l 0.452,-0.36108 0.451,-0.27081 c 13.179,-11.4011 27.397,-23.78794 38.726,-39.93408 l 0,-0.18054 0,-0.0903 c 8.937,-13.32881 13.992,-26.8147 18.686,-39.05215 l 0,-0.18054 c 6.635,-16.68053 8.44,-33.43148 9.659,-48.22041 l 0,-0.0903 0,-0.0903 c 0.902,-14.29786 2.256,-29.93533 -1.354,-47.25091 l 0,-0.70411 -0.452,-0.7041 c -6.319,-21.50412 -21.349,-35.64355 -33.851,-47.33893 l 0,-0.0903 c -12.457,-11.99417 -26.72,-20.39109 -41.073,-27.50436 l -0.451,-0.0903 -0.452,-0.18054 c -17.783,-8.11346 -35.792,-9.88682 -52.356,-10.93079 l -0.452,0 -0.451,0 c -39.854,-1.26829 -79.528,-1.06067 -118.931,-0.9704 l 0,0 0,0 z m 109.227,470.92039 -109.994,3.8771 c 8.937,39.47009 20.491,77.7247 36.65,112.74945 l 110.039,-7.58133 c -17.152,-32.56669 -29.067,-70.52206 -36.695,-109.04657 z" id="path5022" inkscape:connector-curvature="0"/></g></svg>