<?xml version="1.0" encoding="UTF-8" standalone="no"?>
<!-- Created with Inkscape (http://www.inkscape.org/) -->

<svg xmlns:dc="http://purl.org/dc/elements/1.1/" xmlns:cc="http://creativecommons.org/ns#" xmlns:rdf="http://www.w3.org/1999/02/22-rdf-syntax-ns#" xmlns:svg="http://www.w3.org/2000/svg" xmlns="http://www.w3.org/2000/svg" xmlns:xlink="http://www.w3.org/1999/xlink" xmlns:sodipodi="http://sodipodi.sourceforge.net/DTD/sodipodi-0.dtd" xmlns:inkscape="http://www.inkscape.org/namespaces/inkscape" version="1.1" width="451.3678808572363" height="1000" id="svg4626" inkscape:version="0.91 r13725" sodipodi:docname="font_bold_raw.svg">
<g transform="translate(-606.3434,0)"><path inkscape:connector-curvature="0" style="color:#000000;display:inline;overflow:visible;visibility:visible;fill:#000000;stroke:none;stroke-width:1.06299996;marker:none;enable-background:accumulate" d="m 788.46307,186.1818 c -10.697,-0.0903 -21.8002,0.22567 -32.45206,1.40821 -19.63372,2.21161 -38.36474,5.93751 -57.81792,9.87328 -5.00998,1.11032 -10.56158,1.59326 -15.52643,2.82093 l -43.7358,-9.87102 c 1.35405,8.74491 2.25675,17.88474 2.7081,26.7989 -2.25675,1.29989 -4.69404,3.13688 -7.0862,4.22915 l 7.0862,2.82094 c 1.35405,19.75197 2.25675,39.47866 2.7081,59.23966 1.35405,47.94645 2.7081,95.84595 2.7081,143.86777 0,46.07695 -3.15945,92.27848 -7.0862,138.2259 -2.25675,28.52305 -7.04106,56.41376 -11.28374,84.62809 -2.25675,12.6536 -3.6108,25.23858 -4.06215,38.08265 0,3.60628 -0.9027,7.71808 -1.35405,11.28374 l 25.41099,7.05235 L 606.3434,699.59 c 17.64778,19.11287 37.46204,34.93177 59.26223,46.54546 54.97442,27.1013 16.74508,9.64534 141.04683,46.54545 22.20642,6.6204 46.1731,8.21683 69.10167,7.05234 28.97666,-2.83899 56.68954,-8.73271 84.6281,-19.74655 21.75506,-9.24906 43.69067,-20.21235 59.26227,-42.31405 11.058,-18.23273 19.7691,-37.6647 25.3658,-59.23967 6.5446,-21.60341 13.0892,-44.59382 12.683,-67.70248 -2.7081,-25.74861 -8.3049,-36.19871 -23.9667,-53.59779 -27.0359,-29.83107 -58.94631,-44.06123 -93.06836,-53.5978 10.60672,-4.45031 21.21344,-9.72614 31.00773,-16.92562 21.61966,-17.55931 38.13903,-34.23805 49.37763,-63.47107 7.2216,-22.67988 9.8395,-46.36672 9.8846,-70.52342 0.4514,-18.87635 0.4514,-38.05917 -2.7081,-56.41873 -2.2567,-13.10359 -4.6038,-26.36967 -9.8846,-38.08265 -2.2567,-1.99948 -4.7391,-3.70106 -7.041,-5.64187 -6.7251,-5.73981 -13.67591,-10.04253 -21.16832,-14.10468 -8.2597,-4.12083 -16.65481,-8.69751 -25.36586,-11.28375 -47.84309,-14.20488 -94.96401,-32.57572 -143.89033,-39.49311 -10.60673,-1.19156 -21.75507,-1.30891 -32.40692,-1.40821 z m 77.5419,52.18733 c 8.75619,-0.79438 18.14427,-0.22568 26.81018,0 1.35405,1.00651 3.15945,1.71964 4.06215,2.82093 8.07916,5.17789 10.24564,18.19256 12.68293,28.20937 4.06215,17.13234 5.32593,34.35494 5.64188,52.18733 0,14.72122 -0.0451,30.6128 -2.7081,45.13498 -1.8054,8.4759 -4.5135,11.60646 -7.0862,19.74656 -5.91268,14.70949 -13.76617,28.68599 -23.96667,39.49311 -6.99593,7.39401 -11.87051,11.0003 -19.72399,16.92562 -24.68884,16.20256 -53.30442,22.7047 -80.43055,28.20937 -8.62078,1.31794 -16.74508,1.73769 -25.36586,2.82093 0,-6.53193 0,-13.21597 0,-19.74655 0,-47.77809 0.45135,-96.10548 0,-143.86777 0,-15.16039 0.9027,-29.96828 1.35405,-45.13499 5.23566,-3.48442 11.28375,-6.25029 16.92562,-8.46281 11.78023,-3.78231 23.28965,-5.73665 35.25042,-8.46281 18.73102,-3.80939 37.55231,-8.73587 56.41874,-9.87327 z M 756.01101,478.14874 c 3.15945,0.4694 5.23566,2.21161 8.44024,2.82093 -2.7081,0.0451 -5.64187,0.0226 -8.44024,0 0,-0.93429 0,-1.88664 0,-2.82093 z m 0,29.61983 c 19.00183,3.88612 43.28445,11.49498 76.14272,26.7989 0.45135,0.22567 0.9027,0.0451 1.35405,0 0.9027,-0.0903 1.8054,0.0903 2.7081,0 3.15945,-0.22568 6.72511,0.0451 9.88456,0 19.00183,0.501 37.41691,-2.14843 56.41873,-4.22915 0.9027,-0.0903 1.8054,0.0451 2.7081,0 3.15945,2.58624 6.54458,4.03507 11.28375,8.46281 12.41212,12.62561 19.2275,24.10028 22.56749,43.72452 1.8054,20.65106 -4.06215,41.28723 -9.83942,60.65014 -5.4162,20.08913 -13.08915,38.52045 -24.01182,55.00826 -14.84941,18.60238 -34.12205,25.78291 -53.57522,33.85124 -27.081,10.03035 -55.29036,14.75914 -83.22892,16.92562 -2.25675,0 -4.6489,-0.009 -7.04106,0 -9.2978,-5.90185 -17.19643,-13.19792 -25.41099,-21.15703 l 8.48537,2.82094 c -0.0451,-0.1354 -0.0451,-1.22767 0,-1.40821 -0.45135,-3.59275 0,-7.62781 0,-11.28375 0,-12.51187 0,-24.1594 1.35405,-36.67217 1.8054,-29.00961 4.87458,-58.35277 5.64188,-87.44904 1.35405,-28.91663 3.6108,-57.10749 4.06215,-86.03857 z" id="path4094"/></g></svg>