<?xml version="1.0" encoding="UTF-8" standalone="no"?>
<!-- Created with Inkscape (http://www.inkscape.org/) -->

<svg xmlns:dc="http://purl.org/dc/elements/1.1/" xmlns:cc="http://creativecommons.org/ns#" xmlns:rdf="http://www.w3.org/1999/02/22-rdf-syntax-ns#" xmlns:svg="http://www.w3.org/2000/svg" xmlns="http://www.w3.org/2000/svg" xmlns:xlink="http://www.w3.org/1999/xlink" xmlns:sodipodi="http://sodipodi.sourceforge.net/DTD/sodipodi-0.dtd" xmlns:inkscape="http://www.inkscape.org/namespaces/inkscape" version="1.1" width="465.4971000000005" height="1000" id="svg4626" inkscape:version="0.91 r13725" sodipodi:docname="font_bold_raw.svg">
<g transform="translate(-1141.0376,0)"><path inkscape:connector-curvature="0" style="color:#000000;display:inline;overflow:visible;visibility:visible;fill:#000000;fill-opacity:1;fill-rule:nonzero;stroke:none;stroke-width:1px;marker:none;enable-background:accumulate" d="m 1345.5642,187.59227 c -32.9485,-0.13541 -64.4076,3.30388 -93.0683,19.74655 -21.8002,17.75701 -37.2815,44.00481 -47.9785,70.52342 -12.0059,27.68851 -21.5746,55.82475 -31.0078,84.6281 -9.7943,33.3209 -19.2275,65.81719 -25.411,100.14325 -5.1002,30.62815 -6.4543,62.06105 -7.041,93.0909 0,27.86273 -0.045,55.354 0,83.21763 1.354,28.40435 17.4672,49.84392 35.2504,69.11295 16.0229,18.94361 36.0177,33.6215 56.4187,46.54545 23.1091,13.92054 49.3777,16.25311 74.7887,22.5675 59.533,13.89841 123.2185,18.87725 183.3383,7.05234 20.1302,-3.75523 38.3648,-14.24641 56.4187,-23.97796 12.683,-10.20006 24.5083,-21.3308 35.2505,-33.85124 l -109.994,-8.46281 c -11.0129,10.84458 -22.1161,21.80516 -35.2504,29.61983 -8.8013,4.76671 -17.5124,9.12855 -26.8102,12.69422 -23.1994,-5.44554 -47.1209,-8.44115 -69.1017,-18.33609 -20.3558,-11.4846 -39.4931,-25.39926 -55.0195,-43.72452 -16.8805,-15.78731 -33.2194,-34.21277 -35.2504,-59.23967 0,-27.78148 0,-55.43704 0,-83.21763 0.4513,-30.34921 0.4513,-60.30711 5.6418,-90.26997 6.1384,-33.74111 15.6167,-66.01353 25.3659,-98.73278 9.6589,-28.42105 20.4913,-57.21401 32.4521,-84.6281 10.5164,-24.11291 24.3277,-47.14304 46.5341,-60.65013 9.8846,-4.20207 22.6127,-6.52968 33.8513,-8.46281 8.3499,1.57521 15.8423,2.59526 23.9666,5.64187 29.8794,13.14466 57.1861,33.61563 78.9863,59.23967 l 108.6399,-8.46281 c -22.2967,-26.80025 -48.9715,-47.72619 -78.9862,-63.47108 -26.9005,-12.67164 -55.7418,-14.39445 -84.6281,-15.51515 -30.6918,2.14391 -64.4077,-2.68102 -97.3562,-2.82093 z" id="path3878"/></g></svg>