<?xml version="1.0" encoding="UTF-8" standalone="no"?>
<!-- Created with Inkscape (http://www.inkscape.org/) -->

<svg xmlns:dc="http://purl.org/dc/elements/1.1/" xmlns:cc="http://creativecommons.org/ns#" xmlns:rdf="http://www.w3.org/1999/02/22-rdf-syntax-ns#" xmlns:svg="http://www.w3.org/2000/svg" xmlns="http://www.w3.org/2000/svg" xmlns:xlink="http://www.w3.org/1999/xlink" xmlns:sodipodi="http://sodipodi.sourceforge.net/DTD/sodipodi-0.dtd" xmlns:inkscape="http://www.inkscape.org/namespaces/inkscape" version="1.1" width="434.5145000000007" height="1000" id="svg4626" inkscape:version="0.91 r13725" sodipodi:docname="font_bold_raw.svg">
<g transform="translate(-3262.3567999999996,0)"><path inkscape:connector-curvature="0" style="color:#000000;display:inline;overflow:visible;visibility:visible;fill:#000000;fill-opacity:1;fill-rule:nonzero;stroke:none;stroke-width:1px;marker:none;enable-background:accumulate" d="m 3276.5292,181.95039 c 0,10.7656 0,21.67382 0,32.44077 0.4513,44.94452 1.354,90.45683 1.354,135.40496 0,37.26841 -0.045,74.15859 0,111.427 -5.1905,-0.0108 -10.3359,0.0149 -15.5264,0 l 15.5264,2.82093 c 0,45.288 0,90.11697 0,135.40496 -0.045,60.40144 -0.9027,121.55258 -1.354,181.95041 0,12.87792 0.4513,25.21827 0,38.08265 l 109.9939,0 c -0.4513,-12.86438 -1.354,-25.20473 -1.354,-38.08265 -0.4514,-60.39783 -1.3541,-121.54897 -1.3541,-181.95041 0,-40.56913 0,-80.73114 0,-121.30027 l 5.6419,1.40821 c 46.7147,-0.13541 92.8878,-1.42175 139.6025,-1.40821 33.3999,0.006 66.7998,1.39467 100.1545,1.40821 l -126.9195,-18.33609 c -33.1291,0.005 -65.6263,-0.0172 -98.7554,0 -6.1384,0 -12.1864,-9e-4 -18.3248,0 0,-37.26705 0,-74.15994 0,-111.427 0,-40.26627 0.9027,-81.03535 1.354,-121.30027 l 18.3249,2.82094 c 52.5822,-5.38461 105.4353,-8.50253 157.9724,-14.10469 26.5845,-2.70358 52.3115,-5.33721 78.9862,-7.05234 7.4473,-0.47843 30.0148,-1.3721 22.5675,-1.40821 -48.6555,-0.27081 -65.7617,0.13541 -84.6281,0 l 117.0802,-14.10468 c -85.26,-13.15234 -175.4397,-0.45135 -260.9254,7.05234 -16.4742,1.68353 -32.8582,2.96085 -49.3777,4.22915 0,-7.95775 0,-16.02067 0,-23.97796 l -109.9939,0 z" id="path3892"/></g></svg>