<?xml version="1.0" encoding="UTF-8" standalone="no"?>
<!-- Created with Inkscape (http://www.inkscape.org/) -->

<svg xmlns:dc="http://purl.org/dc/elements/1.1/" xmlns:cc="http://creativecommons.org/ns#" xmlns:rdf="http://www.w3.org/1999/02/22-rdf-syntax-ns#" xmlns:svg="http://www.w3.org/2000/svg" xmlns="http://www.w3.org/2000/svg" xmlns:xlink="http://www.w3.org/1999/xlink" xmlns:sodipodi="http://sodipodi.sourceforge.net/DTD/sodipodi-0.dtd" xmlns:inkscape="http://www.inkscape.org/namespaces/inkscape" version="1.1" width="169.21100000000024" height="1000" id="svg4626" inkscape:version="0.91 r13725" sodipodi:docname="font_bold_raw.svg">
<g transform="translate(-5022.711499999999,0)"><path inkscape:connector-curvature="0" style="color:#000000;display:inline;overflow:visible;visibility:visible;fill:#000000;fill-opacity:1;fill-rule:nonzero;stroke:none;stroke-width:1px;marker:none;enable-background:accumulate" d="m 5081.9286,19.746538 c -7.673,28.415633 -19.5886,56.375403 -36.6948,80.396692 l 110.0391,5.64187 c 16.1584,-25.833907 27.7129,-54.105108 36.6496,-83.217625 L 5081.9286,19.746538 Z M 5046.633,167.84571 c -5.9578,61.3908 -5.7773,123.14359 -7.041,184.77135 0.9027,77.85875 -5.2808,155.06169 -9.8846,232.72727 -2.7081,52.69645 -4.5135,106.61831 -5.6419,159.38292 0,14.59349 -0.9027,29.13373 -1.354,43.72451 l 110.0391,0 c 0,-14.55377 0,-29.16848 0,-43.72451 0,-52.60889 1.354,-105.4263 4.0621,-157.97245 4.0622,-77.80369 8.9819,-156.17924 8.4854,-234.13774 1.3541,-61.13399 1.8054,-122.80237 11.2837,-183.36088 l -110.039,-1.40821 z" id="path4057"/></g></svg>