<?xml version="1.0" encoding="UTF-8" standalone="no"?>
<!-- Created with Inkscape (http://www.inkscape.org/) -->

<svg xmlns:dc="http://purl.org/dc/elements/1.1/" xmlns:cc="http://creativecommons.org/ns#" xmlns:rdf="http://www.w3.org/1999/02/22-rdf-syntax-ns#" xmlns:svg="http://www.w3.org/2000/svg" xmlns="http://www.w3.org/2000/svg" xmlns:xlink="http://www.w3.org/1999/xlink" xmlns:sodipodi="http://sodipodi.sourceforge.net/DTD/sodipodi-0.dtd" xmlns:inkscape="http://www.inkscape.org/namespaces/inkscape" version="1.1" width="527.9256708827697" height="1000" id="svg4626" inkscape:version="0.91 r13725" sodipodi:docname="font_bold_raw.svg">
<g transform="translate(-5595.138656807946,0)"><path inkscape:connector-curvature="0" style="color:#000000;display:inline;overflow:visible;visibility:visible;fill:#000000;fill-opacity:1;fill-rule:nonzero;stroke:none;stroke-width:1px;marker:none;enable-background:accumulate" d="m 5624.9476,200.28648 c -5.5065,57.30248 -6.8154,114.60134 -8.4854,172.07713 -2.2567,38.135 -2.7081,76.10797 -4.0621,114.24794 -0.9027,0.45135 -1.8054,1.04261 -2.7081,1.40821 l 2.7081,0 c -1.3541,36.25964 -3.6108,72.31256 -4.0622,108.60606 -0.9027,48.86674 -3.1594,97.94562 -7.041,146.6887 -0.4514,5.11289 -0.9027,10.40362 -1.3541,15.51515 -0.9027,9.75819 -1.8054,14.69234 -2.7081,23.97796 0,1.9047 -3.6108,5.46134 -1.354,5.64188 0.4513,0.0451 0.9027,-0.0451 1.354,0 0,14.21797 8.034,10.15492 53.5752,8.46281 45.0448,8.82073 52.8531,14.16651 55.0196,0 2.2567,0.1354 1.354,-3.71913 1.354,-5.64188 0.4514,-10.78229 0.4514,-12.2388 1.3541,-23.97796 0,-5.14087 0.9027,-10.37292 1.354,-15.51515 3.1595,-48.97281 3.6108,-97.64187 4.0622,-146.6887 0.4513,-32.77522 1.8054,-65.98825 2.7081,-98.73278 l 1.354,0 c 9.0722,-5.88741 16.9257,-13.06794 25.411,-19.74656 20.7621,29.17164 42.7429,57.23026 66.2582,84.6281 48.2042,51.52655 96.8145,102.5178 139.6476,157.97245 21.8905,26.6513 33.084,57.93391 52.1761,86.03856 23.5153,31.77278 3.1594,4.93642 110.0391,0 l -105.7964,-7.05234 c 49.0617,2.70359 78.8057,-0.88013 97.311,-2.82093 -3.1594,-5.25688 -6.5446,-11.38982 -9.8394,-16.92562 -11.7803,-19.82555 -22.7932,-39.17672 -36.6948,-57.8292 -43.2393,-55.48895 -90.8116,-108.00035 -139.6476,-159.38292 -37.6877,-43.53134 -73.4798,-88.72229 -101.5537,-138.2259 35.115,-26.16204 69.5981,-53.73545 102.998,-81.80716 43.5553,-38.48028 85.4405,-77.86056 129.7631,-115.6584 l -108.6399,-15.51515 c -42.4269,38.7872 -83.5449,77.75494 -126.9196,115.6584 -29.4731,24.47309 -60.8871,47.62238 -91.6692,70.52342 0.4514,-8.88483 0.9027,-17.91408 1.3541,-26.7989 2.2567,-57.24831 2.7081,-113.8187 11.2837,-170.66667 l -108.5947,-8.46281 z m 478.16,605.0909 c 2.2568,3.60178 5.2808,6.7206 8.4403,9.87328 0.4513,0.48295 0.9027,0.94332 1.354,1.40821 0.9027,-0.79889 0.4514,-0.7041 1.3541,-1.40821 l 1.354,0 c 13.044,-10.94568 9.0722,-12.15485 -12.728,-9.87328 z" id="path3918"/></g></svg>