<?xml version="1.0" encoding="UTF-8" standalone="no"?>
<!-- Created with Inkscape (http://www.inkscape.org/) -->

<svg xmlns:dc="http://purl.org/dc/elements/1.1/" xmlns:cc="http://creativecommons.org/ns#" xmlns:rdf="http://www.w3.org/1999/02/22-rdf-syntax-ns#" xmlns:svg="http://www.w3.org/2000/svg" xmlns="http://www.w3.org/2000/svg" xmlns:xlink="http://www.w3.org/1999/xlink" xmlns:sodipodi="http://sodipodi.sourceforge.net/DTD/sodipodi-0.dtd" xmlns:inkscape="http://www.inkscape.org/namespaces/inkscape" version="1.1" width="691.3417861575654" height="1000" id="svg4626" inkscape:version="0.91 r13725" sodipodi:docname="font_bold_raw.svg">
<g transform="translate(-6581.042,0)"><path inkscape:connector-curvature="0" style="color:#000000;display:inline;overflow:visible;visibility:visible;fill:#000000;fill-opacity:1;fill-rule:nonzero;stroke:none;stroke-width:1px;marker:none;enable-background:accumulate" d="m 7039.6586,153.74103 c 0.4513,6.54186 0.9027,13.20514 1.354,19.74655 l -21.1683,-2.82093 c -20.7169,56.09782 -41.1179,112.26064 -63.4598,167.84572 -20.1302,49.4842 -41.3887,98.33786 -60.6614,148.09918 -13.9467,-41.40458 -26.7199,-83.03935 -36.6947,-125.53168 -12.683,-46.50303 -24.9145,-94.03829 -35.2504,-141.04683 1.354,-7.54883 3.1594,-15.01235 4.0621,-22.5675 l -8.4854,-1.40821 c 0,-1.00651 -1.354,-1.81442 -1.354,-2.82093 l -98.7102,-8.46281 -9.8846,-1.41273 c 2.2567,8.53728 4.8746,16.85837 7.0411,25.38843 -6.4092,55.13916 -16.4292,108.98655 -26.7651,163.61432 -16.8353,80.84895 -37.6426,161.37879 -59.2622,241.19008 -13.2246,40.08348 -26.6748,79.69665 -39.4931,119.88981 -3.1595,8.92951 -7.2216,14.42018 -9.8846,16.92562 5.5516,-1.39016 19.9948,-3.54761 45.135,-4.22915 65.8068,19.63372 63.5952,37.59067 73.3443,1.40821 10.8776,-40.66391 24.9145,-79.45698 36.6948,-119.8898 15.4361,-59.87021 29.5183,-120.41383 43.7358,-180.53995 13.3148,42.28201 28.0739,83.46904 42.2915,125.53168 7.9889,18.95625 13.0891,41.21953 23.9666,59.23967 -0.9027,1.79637 -1.8054,3.89966 -2.7081,5.64188 l 8.4403,1.40821 c 1.354,1.85504 2.7081,3.90417 4.0621,5.64187 l 29.6086,0 66.3033,9.87328 c 1.8054,-3.59275 2.7081,-7.61382 4.0621,-11.28375 0,-0.22567 0,-1.16899 0,-1.40821 10.1103,-26.95958 14.2175,-56.08067 23.9667,-83.21763 23.1091,-69.58235 52.1309,-136.63263 80.3854,-204.5179 0.4514,4.2472 0.9027,8.44927 1.3541,12.69421 13.044,93.58604 31.3688,186.11773 55.0195,277.86226 18.1894,55.77646 30.0599,113.40255 40.8923,170.66666 11.3289,43.36976 2.7081,13.87675 107.1956,16.92562 0,-0.18054 0,-1.15094 0,-1.40821 l -101.5537,-15.51515 c 34.2574,3.7462 68.876,6.57978 102.998,11.28374 0,-0.58224 0,-0.70861 0,-1.40821 -15.2105,-56.80915 -23.9215,-114.88162 -43.7358,-170.66666 -24.1021,-91.30221 -43.8712,-184.54297 -56.4187,-277.86226 -9.343,-70.56403 -16.0681,-140.48986 -18.3248,-211.57024 L 7039.117,153.74554 Z m 227.0741,672.79338 c -0.4513,1.85956 -1.354,3.40769 -1.354,4.22915 l 2.7081,1.40821 c 2.2567,-1.24121 5.1453,-4.09826 4.0621,-4.22915 -1.8054,-0.27081 -3.6108,-1.14643 -5.6419,-1.40821 z M 6957.8289,643.17353 c 1.354,1.002 3.1594,2.53207 4.0621,2.82094 1.8054,0.40621 2.7081,-1.92276 4.0622,-2.82094 l -8.4403,0 z" id="path3926"/></g></svg>