<?xml version="1.0" encoding="UTF-8" standalone="no"?>
<!-- Created with Inkscape (http://www.inkscape.org/) -->

<svg xmlns:dc="http://purl.org/dc/elements/1.1/" xmlns:cc="http://creativecommons.org/ns#" xmlns:rdf="http://www.w3.org/1999/02/22-rdf-syntax-ns#" xmlns:svg="http://www.w3.org/2000/svg" xmlns="http://www.w3.org/2000/svg" xmlns:xlink="http://www.w3.org/1999/xlink" xmlns:sodipodi="http://sodipodi.sourceforge.net/DTD/sodipodi-0.dtd" xmlns:inkscape="http://www.inkscape.org/namespaces/inkscape" version="1.1" width="531.6183164386202" height="1000" id="svg4626" inkscape:version="0.91 r13725" sodipodi:docname="font_bold_raw.svg">
<g transform="translate(-7893.522200000001,0)"><path style="color:#000000;display:inline;overflow:visible;visibility:visible;fill:#000000;fill-opacity:1;fill-rule:nonzero;stroke:none;stroke-width:1px;marker:none;enable-background:accumulate" d="m 8123.1239,197.64202 c -15.1202,0.31595 -30.105,1.92727 -44.5933,4.76039 -28.3448,9.36009 -52.8982,27.28139 -74.7436,47.25046 -24.1923,25.63397 -45.6315,53.19113 -62.873,83.92264 -18.8213,29.02044 -29.7891,61.39757 -37.4621,94.85433 -5.3259,25.69354 -7.6278,51.83347 -9.9297,77.92826 0,24.86306 3.1595,49.49819 10.3811,73.25634 6.7251,22.53094 16.0681,44.05446 25.9977,65.32206 12.367,21.47974 20.5365,44.89848 32.3618,66.64452 8.6659,18.48322 23.5605,32.16635 38.2745,45.84044 16.6999,14.60568 37.8231,19.54255 59.0366,23.36097 56.3284,7.48654 113.1082,11.3036 169.7075,16.04413 21.8453,-0.40621 41.0728,-9.01571 60.5712,-17.71909 20.4912,-11.23952 39.7187,-25.59831 56.7798,-41.60904 18.5053,-17.22983 31.5042,-39.51884 41.9304,-62.3251 8.4853,-20.47052 17.9637,-40.00314 23.6507,-61.53162 5.1003,-22.51604 7.2216,-45.55249 9.4332,-68.49595 2.7081,-24.12736 4.6489,-47.96992 2.7081,-72.19793 -0.4513,-25.16004 -5.5516,-49.50044 -11.9608,-73.6973 -7.4924,-23.39979 -20.2204,-44.90029 -32.7228,-65.93906 -9.5686,-20.27283 -26.088,-33.47301 -44.0066,-45.92846 l -13.9016,0.27081 c -19.3629,-22.87892 -42.7428,-42.15201 -67.5219,-58.79915 -38.9515,-21.70271 -85.7565,-32.14198 -131.2074,-31.20633 z m 31.8202,33.93925 c 27.8934,17.01454 53.846,37.95853 73.9762,63.82358 l 15.0751,0.27081 c 13.9467,9.52168 27.6226,19.16657 34.9345,35.26171 12.9086,19.64952 24.418,41.07329 32.9485,62.94209 6.3189,23.61372 11.8254,47.23106 12.0962,71.84587 1.8054,23.64712 0,46.96386 -2.7081,70.52342 -2.2567,22.38469 -4.0621,44.88674 -9.3429,66.82099 -5.7322,20.80813 -15.2557,39.81177 -23.2897,59.76865 -10.381,21.6165 -23.064,42.42779 -41.4339,58.26972 -17.2867,14.78757 -35.431,29.16758 -56.3285,38.52361 -13.9918,6.16725 -28.4801,11.01565 -43.5101,12.51774 -16.068,-2.59075 -31.9556,-5.92487 -45.5863,-15.25066 -14.6689,-12.22572 -29.6086,-25.41596 -38.3648,-42.66656 -13.0891,-20.83611 -19.9496,-44.76848 -32.6777,-65.85149 -9.9748,-20.85688 -19.1824,-41.96245 -25.9526,-64.08807 -8.1243,-22.12336 -10.0651,-45.66803 -10.7421,-69.11294 2.2567,-25.64209 4.5135,-51.33699 9.5234,-76.60581 7.357,-32.56489 18.3248,-63.75362 36.6948,-91.94493 17.3318,-29.52641 38.3196,-56.47741 62.7376,-80.57317 15.8424,-13.50168 32.9486,-26.30106 52.0858,-34.46824 z" id="path3938" inkscape:connector-curvature="0" sodipodi:nodetypes="ccccccccccccccccccccccccccccccccccccccccccccc"/></g></svg>