<?xml version="1.0" encoding="UTF-8" standalone="no"?>
<!-- Created with Inkscape (http://www.inkscape.org/) -->

<svg xmlns:dc="http://purl.org/dc/elements/1.1/" xmlns:cc="http://creativecommons.org/ns#" xmlns:rdf="http://www.w3.org/1999/02/22-rdf-syntax-ns#" xmlns:svg="http://www.w3.org/2000/svg" xmlns="http://www.w3.org/2000/svg" xmlns:xlink="http://www.w3.org/1999/xlink" xmlns:sodipodi="http://sodipodi.sourceforge.net/DTD/sodipodi-0.dtd" xmlns:inkscape="http://www.inkscape.org/namespaces/inkscape" version="1.1" width="596.5839960177818" height="1000" id="svg4626" inkscape:version="0.91 r13725" sodipodi:docname="font_bold_raw.svg">
<g transform="translate(-9131.349199999999,0)"><path inkscape:connector-curvature="0" style="color:#000000;display:inline;overflow:visible;visibility:visible;fill:#000000;fill-opacity:1;fill-rule:nonzero;stroke:none;stroke-width:1px;marker:none;enable-background:accumulate" d="m 9293.5644,170.66665 c 0,11.26208 0,22.5878 0,33.85124 -21.6648,3.03307 -42.788,6.05169 -63.4598,12.69421 -41.5242,18.6412 -71.4938,43.89784 -98.7554,80.39669 l 110.0391,8.46281 c 15.4362,-22.18926 32.2715,-40.2771 52.1761,-53.59779 0,43.18425 1.354,86.57883 1.354,129.76308 0,87.59798 -4.5586,175.11201 -11.2837,262.34711 -8.5757,57.8626 -4.0622,118.32136 -18.3248,174.89807 l 109.9939,4.22914 c 10.6068,-58.24669 8.1243,-118.87742 15.5265,-177.719 2.2567,-31.23883 4.0621,-63.15964 5.6418,-94.50138 l 32.4521,5.64188 c 13.4051,-1.41273 26.2234,-3.22716 39.4931,-5.64188 45.9474,-6.24307 92.3913,-9.08522 135.405,-28.20936 48.6555,-23.13575 90.0443,-53.1645 114.2366,-102.96419 18.9116,-51.9928 10.5165,-84.10273 -23.9667,-126.94215 -48.4298,-46.78918 -104.0812,-75.84708 -170.6553,-88.8595 -58.5853,-8.74942 -69.7336,-8.5269 -119.9237,-7.05234 0,-8.91687 0,-17.88293 0,-26.7989 l -109.994,0 z m 110.0391,47.95592 c 0.9027,-0.0903 1.8054,0.0903 2.7081,0 5.0551,0.55065 6.2737,0.83951 11.2837,1.40821 64.182,10.42438 120.5104,39.27105 167.857,83.21763 31.9556,36.65864 42.5172,67.27415 23.9667,112.83746 -25.9075,48.5982 -63.6403,73.22024 -112.8375,94.50138 -32.1812,13.51071 -66.0324,17.25917 -100.1545,21.15703 2.2568,-50.06463 5.2808,-99.44502 5.6419,-149.50964 0,-54.44905 0.9027,-109.16935 1.354,-163.61433 z" id="path4140"/></g></svg>