<?xml version="1.0" encoding="UTF-8" standalone="no"?>
<!-- Created with Inkscape (http://www.inkscape.org/) -->

<svg xmlns:dc="http://purl.org/dc/elements/1.1/" xmlns:cc="http://creativecommons.org/ns#" xmlns:rdf="http://www.w3.org/1999/02/22-rdf-syntax-ns#" xmlns:svg="http://www.w3.org/2000/svg" xmlns="http://www.w3.org/2000/svg" xmlns:xlink="http://www.w3.org/1999/xlink" xmlns:sodipodi="http://sodipodi.sourceforge.net/DTD/sodipodi-0.dtd" xmlns:inkscape="http://www.inkscape.org/namespaces/inkscape" version="1.1" width="619.1159999999982" height="1000" id="svg4626" inkscape:version="0.91 r13725" sodipodi:docname="font_bold_raw.svg">
<g transform="translate(-10328.871000000001,0)"><path inkscape:connector-curvature="0" style="color:#000000;display:inline;overflow:visible;visibility:visible;fill:#000000;fill-opacity:1;fill-rule:nonzero;stroke:none;stroke-width:1px;marker:none;enable-background:accumulate" d="m 10656.099,163.61431 c -16.654,-0.0903 -41.118,1.96337 -111.438,2.82093 -39.719,0.48746 -79.257,6.19704 -117.08,18.33609 -41.524,18.6412 -71.494,43.89784 -98.71,80.39669 l 109.994,7.05234 c 15.481,-22.25064 32.181,-38.84858 52.176,-52.18732 0.902,59.62512 1.354,119.49623 1.354,179.12947 0,84.12349 -4.514,168.69833 -11.284,252.47383 -8.576,55.56748 -4.062,113.51313 -18.325,167.84573 l 110.039,4.22914 c 10.562,-55.93669 8.079,-114.15901 15.482,-170.66666 3.61,-43.94342 5.28,-88.46141 7.086,-132.58402 l 31.007,4.22915 c 2.257,-0.27081 4.695,-1.1013 7.042,-1.40821 35.069,49.0193 72.17,96.27021 107.195,145.27823 33.219,47.2798 64.453,95.48983 90.27,146.6887 5.371,9.03738 10.155,19.21081 15.527,28.20937 l 101.553,-5.64187 c -7.221,-7.61924 -11.013,-18.27741 -16.925,-26.7989 -26.811,-51.62991 -58.179,-100.08683 -91.67,-148.09917 -36.333,-51.19797 -76.955,-100.00153 -111.438,-152.33058 25.231,-4.06666 49.604,-10.61033 73.345,-21.15702 48.655,-23.13529 90.044,-53.16405 114.236,-102.96419 18.912,-51.99234 10.517,-82.69271 -23.966,-125.53168 -48.43,-46.78963 -104.082,-75.84663 -170.656,-88.8595 -39.222,-5.85762 -48.249,-8.38067 -64.904,-8.46281 z m -46.579,22.56749 c 2.708,0.27081 3.159,-0.27081 5.642,0 64.182,10.42437 120.51,39.2706 167.857,83.21763 31.955,36.65818 42.517,68.68461 23.967,114.24793 -25.908,48.59774 -63.641,71.80976 -112.838,93.09091 -31.278,13.13608 -64.137,17.38961 -97.311,21.15702 1.354,-32.86097 2.708,-65.89166 2.708,-98.73278 0,-67.61491 0,-135.50741 1.354,-203.10743 l -59.262,0 c 22.116,-5.89283 44.909,-7.99251 67.702,-9.87328 z" id="path3944"/></g></svg>