<?xml version="1.0" encoding="UTF-8" standalone="no"?>
<!-- Created with Inkscape (http://www.inkscape.org/) -->

<svg xmlns:dc="http://purl.org/dc/elements/1.1/" xmlns:cc="http://creativecommons.org/ns#" xmlns:rdf="http://www.w3.org/1999/02/22-rdf-syntax-ns#" xmlns:svg="http://www.w3.org/2000/svg" xmlns="http://www.w3.org/2000/svg" xmlns:xlink="http://www.w3.org/1999/xlink" xmlns:sodipodi="http://sodipodi.sourceforge.net/DTD/sodipodi-0.dtd" xmlns:inkscape="http://www.inkscape.org/namespaces/inkscape" version="1.1" width="169.21100000001024" height="1000" id="svg4626" inkscape:version="0.91 r13725" sodipodi:docname="font_bold_raw.svg">
<g transform="translate(-73447.305,0)"><path id="path4773" style="color:#000000;display:inline;overflow:visible;visibility:visible;fill:#000000;fill-opacity:1;fill-rule:nonzero;stroke:none;stroke-width:1px;marker:none;enable-background:accumulate" d="m 73557.344,165.35968 c 7.628,38.52451 19.543,76.43203 36.649,108.99873 l -109.994,7.65128 c -16.203,-35.02475 -27.758,-73.35428 -36.694,-112.82437 l 110.039,-3.82294 z m 35.25,184.48654 c 5.958,45.06142 5.778,90.38868 7.041,135.62386 -0.902,57.14902 5.326,113.8169 9.885,170.82419 3.159,38.67978 4.513,78.2591 5.642,116.98853 0,10.71188 0.902,21.3845 1.354,32.09458 l -110.039,0 c 0.451,-10.68254 0,-21.41023 0,-32.09458 -0.452,-38.61524 -1.354,-77.38348 -4.062,-115.95313 -4.063,-57.1084 -8.937,-114.63745 -8.441,-171.85959 -1.354,-44.87275 -2.256,-90.13772 -11.283,-134.58846 l 109.993,-1.03359 z" inkscape:connector-curvature="0"/></g></svg>