<?xml version="1.0" encoding="UTF-8" standalone="no"?>
<!-- Created with Inkscape (http://www.inkscape.org/) -->

<svg xmlns:dc="http://purl.org/dc/elements/1.1/" xmlns:cc="http://creativecommons.org/ns#" xmlns:rdf="http://www.w3.org/1999/02/22-rdf-syntax-ns#" xmlns:svg="http://www.w3.org/2000/svg" xmlns="http://www.w3.org/2000/svg" xmlns:xlink="http://www.w3.org/1999/xlink" xmlns:sodipodi="http://sodipodi.sourceforge.net/DTD/sodipodi-0.dtd" xmlns:inkscape="http://www.inkscape.org/namespaces/inkscape" version="1.1" width="171.82536028571485" height="1000" id="svg4626" inkscape:version="0.91 r13725" sodipodi:docname="font_bold_raw.svg">
<g transform="translate(-67559.53599999998,0)"><path id="path5076" d="m 67649.49,177.10199 c -9.523,-1.16899 -19.273,-0.97943 -28.57,0.52808 l -0.452,0.0903 -0.451,0.18054 c -9.93,2.73067 -18.054,7.86161 -24.869,13.04672 l -0.452,0.18054 -0.451,0.27081 c -7.177,6.35952 -13.721,13.47099 -19.182,21.50998 -6.41,8.2904 -9.975,17.32552 -12.367,25.91741 l 0,0.0903 0,0.18054 c -1.806,6.99728 -2.257,13.61813 -3.16,19.74656 l 0,0.61835 0,0.7041 c 0.05,6.80591 0.903,13.9088 3.611,20.89254 2.257,6.25841 5.145,11.83123 8.034,17.01408 l 0.451,0.45135 0.452,0.52808 c 2.708,3.64239 4.784,8.91371 8.53,14.80969 4.062,7.04422 9.569,10.91816 13.676,14.10469 l 0,0.0903 0,0.0903 c 7.402,5.38279 15.301,6.638 21.62,7.58132 l 0,0 0.451,0 c 16.203,1.79637 32.317,2.68553 48.114,3.79134 l 0.451,0.0903 0.452,0 c 8.485,-0.13541 15.21,-2.88864 20.717,-4.93687 l 0.451,-0.0903 0.451,-0.18054 c 6.59,-3.02404 12.728,-6.86728 18.145,-11.10727 l 0,-0.0903 c 6.86,-5.34443 11.328,-11.93369 14.668,-17.98358 l 0,-0.36108 0,-0.18054 c 2.257,-4.34198 5.191,-9.39981 7.312,-16.04413 l 0,-0.27081 0,-0.18054 c 1.806,-6.34192 2.257,-12.23926 3.16,-17.54307 l 0,-0.18054 c 0.902,-5.79804 1.354,-12.15304 0.902,-19.04155 0,-7.32992 -1.805,-13.97018 -3.61,-19.92258 l 0,-0.27081 0,-0.36108 c -2.708,-6.8885 -6.5,-12.17697 -9.885,-16.92562 -4.513,-7.79255 -11.148,-11.85064 -16.564,-14.98617 l -0.903,3.08724 c -1.354,-1.54813 -3.611,-2.39667 -5.055,-3.79134 l 0,-0.79438 -0.903,0 c -5.281,-4.4142 -10.426,-9.11817 -16.203,-12.34171 l -0.452,-0.18054 -0.451,-0.18054 c -8.531,-3.97639 -17.874,-6.50124 -27.397,-7.66934 z m -5.551,31.99981 c 3.61,2.18001 6.995,4.43225 9.794,6.96432 l 0,5.64188 11.961,0.18054 c 0.902,0.72216 3.61,2.20258 3.61,2.37861 l 0.452,0.88013 0.451,0.70411 c 3.16,3.85001 5.687,8.0769 7.583,12.07677 1.354,4.82312 2.708,9.08341 2.708,12.69421 l 0,0.45135 0,0.52808 c 0.451,4.09826 0,8.65057 -0.903,13.92821 l 0,0.0903 0,0.0903 c -0.451,5.19503 -1.354,9.76044 -2.257,13.66371 -0.902,3.14591 -3.159,7.07987 -5.641,11.98921 -2.257,4.14339 -4.965,7.43779 -8.17,9.78526 -4.649,3.29034 -8.891,6.03996 -13.224,7.66934 -3.16,1.21864 -6.094,1.41724 -8.937,1.67451 -2.257,-0.45135 -5.055,-0.78987 -6.229,-1.40822 -3.611,-2.51853 -6.274,-4.89173 -7.041,-6.17085 l -0.451,-0.52808 -0.452,-0.45135 c -2.256,-2.8751 -4.513,-8.14867 -8.485,-14.1927 l 0,-0.0903 c -2.708,-4.60061 -4.784,-9.00307 -6.364,-13.22319 l 0,-0.36108 0,-0.36108 c -1.354,-2.99245 -1.805,-6.82532 -1.805,-11.54824 0.451,-5.44373 0.902,-10.52322 2.256,-15.07418 0,0 0,-0.0903 0,-0.0903 1.806,-6.60731 4.063,-12.42521 8.215,-17.54307 l 0,-0.18054 0,-0.27081 c 4.062,-5.92713 9.343,-11.2851 15.256,-16.22061 2.708,-1.84602 5.01,-2.42826 7.492,-3.70107 z" style="color:#000000;display:inline;overflow:visible;visibility:visible;fill:#000000;fill-opacity:1;fill-rule:nonzero;stroke:none;stroke-width:0.5;stroke-miterlimit:4;stroke-dasharray:none;stroke-opacity:1;marker:none;enable-background:accumulate" inkscape:connector-curvature="0"/></g></svg>