<?xml version="1.0" encoding="UTF-8" standalone="no"?>
<!-- Created with Inkscape (http://www.inkscape.org/) -->

<svg xmlns:dc="http://purl.org/dc/elements/1.1/" xmlns:cc="http://creativecommons.org/ns#" xmlns:rdf="http://www.w3.org/1999/02/22-rdf-syntax-ns#" xmlns:svg="http://www.w3.org/2000/svg" xmlns="http://www.w3.org/2000/svg" xmlns:xlink="http://www.w3.org/1999/xlink" xmlns:sodipodi="http://sodipodi.sourceforge.net/DTD/sodipodi-0.dtd" xmlns:inkscape="http://www.inkscape.org/namespaces/inkscape" version="1.1" width="400.6407500000205" height="1000" id="svg4626" inkscape:version="0.91 r13725" sodipodi:docname="font_bold_raw.svg">
<g transform="translate(-68314.21525,0)"><path id="path5055" d="m 68564.737,854.39533 c 18.912,-0.45135 35.973,-4.21109 51.138,-5.73034 l 0.903,-0.0903 0.903,-0.18054 c 18.821,-3.80487 34.257,-12.54301 47.662,-21.42106 l 0,0 0,-0.0903 c 13.676,-9.22604 28.39,-19.5773 38.997,-36.31922 l 0.451,-0.88013 0.452,-0.9704 c 3.61,-8.02816 8.711,-18.38032 9.162,-31.55929 l 0.451,-18.68859 -107.647,0 0.452,18.60058 c 0.05,0.84402 -1.806,5.30877 -4.062,10.31379 -6.094,8.16447 -15.978,15.85999 -27.668,23.44898 -11.645,6.60099 -22.342,11.22282 -33.942,12.51819 l 0,0.0903 0,0 c -11.915,1.43078 -22.296,3.44831 -32,4.40969 -12.954,-0.59127 -25.637,-1.90018 -35.251,-5.28937 -11.915,-5.11966 -21.168,-10.74619 -29.879,-18.77706 -11.555,-10.85857 -20.085,-19.30333 -23.109,-27.85641 -2.257,-10.52818 -2.257,-21.9857 -1.354,-34.64471 1.354,-13.43488 2.708,-25.56987 7.041,-35.70268 l 0,-0.27081 0,-0.36108 c 4.062,-10.86715 8.53,-20.27824 14.533,-29.26733 8.531,-11.05085 19.544,-21.24549 31.82,-30.94183 3.611,-2.60881 7.222,-4.42775 10.697,-5.99483 8.215,0.45135 12.458,-0.36108 65.852,0 l 0.903,0 0.903,0 c 16.88,-1.42176 36.243,-3.55213 54.207,-14.98617 l 0.451,-0.27081 0.452,-0.27081 c 13.269,-9.50363 25.907,-21.51901 33.851,-37.81816 l 0.451,-0.7041 0.451,-0.70411 c 6.726,-17.46633 8.666,-37.0829 2.257,-56.33026 -6.093,-18.36949 -15.571,-36.45914 -30.421,-51.83483 l -0.451,-0.45135 -0.451,-0.52808 c -31.369,-28.27075 -56.419,-34.67585 -92.392,-33.76322 l -29.608,0.79437 0.451,0.52808 c -4.513,0.22568 -7.808,0.40622 -12.773,0.52808 l -0.452,0.0903 -0.451,0 c -27.307,2.25675 -54.613,7.93112 -80.25,18.0716 l 4.694,34.73272 73.615,8.02184 4.062,-1.40821 c 8.305,-3.01953 16.114,-5.59673 23.696,-7.75735 5.236,2.86607 10.111,6.59332 16.068,11.63625 9.84,9.49956 16.836,21.57047 21.485,34.82074 l 0,0.18054 0,0.0903 c 3.159,8.53097 1.805,15.7968 -2.708,26.18191 -4.875,7.91757 -10.788,14.01441 -19.634,19.48206 -1.806,0.79438 -3.611,1.35405 -5.642,1.9408 -0.903,-0.27081 0.451,-0.48294 -2.708,-0.52807 -25.727,-0.31595 -51.048,0.0406 -76.278,0 l -0.903,0 -0.903,0.0903 c -20.626,1.69707 -36.514,11.65114 -49.107,21.59754 l -0.451,0.36108 -0.451,0.27081 c -13.18,11.40109 -27.397,23.78794 -38.681,39.93408 l 0,0.18054 0,0.0903 c -8.937,13.32881 -13.992,26.81469 -18.686,39.05214 l 0,0.18054 c -6.68,16.68054 -8.485,33.43149 -9.704,48.22042 l 0,0.0903 0,0.0903 c -0.903,14.29786 -2.257,29.93532 1.354,47.25091 l 0,0.70411 0.452,0.7041 c 6.318,21.50411 21.348,35.64355 33.851,47.33893 l 0,0.0903 c 12.457,11.99417 26.72,20.39108 41.073,27.50436 l 0.451,0.0903 0.451,0.18054 c 17.829,8.11346 35.792,9.88681 52.357,10.93079 l 0.451,0 0.452,0 c 39.854,1.26829 79.573,1.06067 118.93,0.9704 l 0,0 0,0 z m -109.226,-470.92039 110.039,-3.87709 c -8.937,-39.47009 -20.537,-77.7247 -36.695,-112.74945 l -109.994,7.58132 c 17.106,32.5667 29.022,70.52206 36.65,109.04658 z" style="color:#000000;display:inline;overflow:visible;visibility:visible;fill:#000000;fill-opacity:1;fill-rule:nonzero;stroke:none;stroke-width:0.80000001;stroke-miterlimit:4;stroke-dasharray:none;stroke-opacity:1;marker:none;enable-background:accumulate" inkscape:connector-curvature="0"/></g></svg>