<?xml version="1.0" encoding="UTF-8" standalone="no"?>
<!-- Created with Inkscape (http://www.inkscape.org/) -->

<svg xmlns:dc="http://purl.org/dc/elements/1.1/" xmlns:cc="http://creativecommons.org/ns#" xmlns:rdf="http://www.w3.org/1999/02/22-rdf-syntax-ns#" xmlns:svg="http://www.w3.org/2000/svg" xmlns="http://www.w3.org/2000/svg" xmlns:xlink="http://www.w3.org/1999/xlink" xmlns:sodipodi="http://sodipodi.sourceforge.net/DTD/sodipodi-0.dtd" xmlns:inkscape="http://www.inkscape.org/namespaces/inkscape" version="1.1" width="547.080999999991" height="1000" id="svg4626" inkscape:version="0.91 r13725" sodipodi:docname="font_bold_raw.svg">
<g transform="translate(-39267.43800000001,0)"><path inkscape:connector-curvature="0" id="path3495" d="m 39640.839,42.931026 c 0.452,9.879597 -0.902,19.563309 -4.513,28.473857 -3.611,9.8972 -11.735,15.907826 -21.891,20.628043 -9.794,3.118827 -19.769,3.854528 -30.737,2.378614 -4.062,-0.839511 -7.086,-2.008507 -10.697,-3.525043 -0.902,-0.762781 -1.354,-1.954345 -2.708,-2.64491 -2.708,-1.936291 -5.235,-3.786825 -8.846,-6.435346 -3.611,-2.635883 -4.92,-3.358043 -32.272,-23.448979 -11.013,-6.749937 -22.071,-12.830974 -35.07,-14.369174 -11.689,-0.821457 -23.154,-0.135405 -33.219,3.877095 -10.832,5.348947 -18.911,12.57912 -23.199,23.096475 -4.739,11.46564 -7.222,23.675557 -5.732,36.583712 1.805,8.16672 3.61,14.45403 5.912,20.01105 l 40.306,0 c 0,-8.92093 1.354,-17.65591 4.513,-25.74094 3.611,-9.897648 11.735,-15.907823 21.891,-20.62804 9.794,-3.118827 19.769,-3.854528 30.737,-2.378614 4.062,0.839511 7.086,2.008507 10.697,3.525043 0.902,0.762781 1.354,1.954345 2.708,2.64491 2.708,1.936291 5.235,3.786825 8.846,6.435346 3.611,2.635883 4.92,3.371584 32.227,23.448975 11.058,6.74994 22.116,12.83143 35.115,14.36918 11.69,0.82146 23.109,0.1354 33.219,-3.8771 10.832,-5.34894 18.866,-12.57776 23.199,-23.09647 4.74,-11.464288 7.177,-23.67601 5.733,-36.583713 -1.806,-9.620522 -4.514,-16.583045 -7.403,-22.743971 l -38.816,0 z m -26.449,137.608894 -109.994,2.82094 c 3.16,22.15993 8.125,43.41625 14.082,64.88154 -18.821,39.37125 -39.132,78.32906 -59.217,117.06887 -39.764,71.28214 -70.726,145.70567 -107.195,218.62259 -26.088,49.29147 -48.836,101.70041 -71.945,152.33058 -5.552,10.76379 -8.621,21.08074 -12.683,32.44077 l 109.994,4.22915 c 2.708,-11.15512 6.138,-22.07823 11.283,-32.44078 21.575,-50.88292 44.368,-101.45667 69.147,-150.9201 1.805,-4.17048 3.611,-8.51427 5.642,-12.69422 l 40.892,5.64187 c 45.451,-0.18054 91.353,0.007 136.804,0 1.806,0.003 3.611,-0.003 5.642,0 20.176,53.70793 37.191,108.2662 52.176,163.61433 0,4.56405 6.274,15.35673 4.062,21.15702 l 111.439,0 c 0,-8.75754 -3.611,-15.97146 -7.086,-23.97796 -19.047,-61.3565 -36.018,-123.86078 -60.617,-183.36088 -29.924,-78.56331 -64.904,-155.43676 -94.512,-234.13774 -8.982,-24.47399 -18.37,-48.15812 -25.411,-73.34435 7.131,-14.20714 14.533,-27.86137 21.168,-42.31405 l -29.609,-1.40821 c -1.354,-9.15969 -3.159,-18.90885 -4.062,-28.20937 z m -50.777,194.64463 c 25.863,62.86807 53.35,125.4563 77.587,189.00275 0.452,1.38565 0.903,2.84351 1.354,4.22915 l -21.168,-2.82093 c -28.977,0.0451 -58.45,-0.008 -87.426,0 -21.665,-0.0212 -43.24,0.014 -64.904,0 30.511,-63.6128 60.119,-128.76831 94.512,-190.41323 z" style="color:#000000;display:inline;overflow:visible;visibility:visible;fill:#000000;fill-opacity:1;fill-rule:nonzero;stroke:none;stroke-width:1px;marker:none;enable-background:accumulate"/></g></svg>