<?xml version="1.0" encoding="UTF-8" standalone="no"?>
<!-- Created with Inkscape (http://www.inkscape.org/) -->

<svg xmlns:dc="http://purl.org/dc/elements/1.1/" xmlns:cc="http://creativecommons.org/ns#" xmlns:rdf="http://www.w3.org/1999/02/22-rdf-syntax-ns#" xmlns:svg="http://www.w3.org/2000/svg" xmlns="http://www.w3.org/2000/svg" xmlns:xlink="http://www.w3.org/1999/xlink" xmlns:sodipodi="http://sodipodi.sourceforge.net/DTD/sodipodi-0.dtd" xmlns:inkscape="http://www.inkscape.org/namespaces/inkscape" version="1.1" width="547.0819999999876" height="1000" id="svg4626" inkscape:version="0.91 r13725" sodipodi:docname="font_bold_raw.svg">
<g transform="translate(-42124.211,0)"><path inkscape:connector-curvature="0" id="path3490" d="m 42416.731,46.986405 c -6.003,0.09027 -11.915,0.609322 -17.693,1.498481 l -0.451,0 0,-0.09027 -0.451,0.09027 c -11.781,3.046612 -21.755,8.856839 -30.421,15.074183 l 0,0.09027 0,0.27081 c -9.479,7.899074 -18.009,16.468853 -24.96,26.181451 -7.673,9.375439 -12.141,19.72444 -15.165,30.0608 l 0,0.0903 0,0.0903 c -2.257,8.20554 -3.16,16.32984 -4.063,24.15399 l 0,0.36108 0,0.36108 c 0.05,7.98844 1.355,16.09875 4.514,23.97796 2.708,7.22837 6.499,13.91467 10.336,20.36355 l 0,0.18054 0,0.27081 c 4.062,5.81249 7.447,12.76237 12.322,19.83502 4.062,6.71474 10.381,11.05492 15.887,15.07419 l 0,0.0903 0,0 c 0.903,0.68605 2.257,0.84402 3.16,1.40821 1.805,7.29065 3.61,14.57138 5.551,21.86248 -18.866,39.37125 -39.132,78.32906 -59.262,117.06887 -39.719,71.28214 -70.726,145.70567 -107.196,218.62259 -26.088,49.29147 -48.79,101.70041 -71.945,152.33058 -5.551,10.76379 -8.62,21.08074 -12.683,32.44077 l 110.039,4.22914 c 2.709,-11.15511 6.094,-22.07823 11.284,-32.44077 21.575,-50.88292 44.323,-101.45667 69.102,-150.9201 1.805,-4.17048 3.611,-8.51427 5.642,-12.69422 l 40.892,5.64187 c 45.451,-0.18054 91.398,0.007 136.804,0 1.806,0.003 3.611,-0.003 5.642,0 20.221,53.70793 37.236,108.2662 52.221,163.61433 0.452,4.56405 6.274,15.35672 4.062,21.15702 l 111.394,0 c -0.452,-8.75754 -3.16,-15.97146 -7.042,-23.97796 -19.092,-61.3565 -36.017,-123.86078 -60.661,-183.36088 -29.924,-78.56331 -64.859,-155.43677 -94.467,-234.13774 -8.982,-24.47399 -18.416,-48.15812 -25.411,-73.34435 5.01,-9.94504 9.929,-19.75333 14.804,-29.61983 l -0.452,0 c 2.257,-1.42176 4.83,-2.45083 6.906,-3.96737 7.899,-5.78676 13.315,-13.16181 17.512,-20.36355 l 0,-0.0903 0,-0.0903 c 3.16,-5.89869 6.906,-12.02441 9.343,-19.30559 l 0,-0.0903 0,-0.0903 c 2.257,-7.30329 2.709,-14.50367 3.611,-21.3335 l 0,-0.0903 c 0.903,-7.20941 1.806,-14.69144 0.903,-22.47948 l 0,-0.0903 c 0,-8.39105 -2.257,-16.18089 -4.83,-23.62546 l 0,-0.18054 0,-0.18054 c -3.159,-7.75644 -8.214,-14.364657 -12.863,-20.540026 -4.604,-7.615175 -11.961,-11.947682 -18.957,-15.779642 l -0.902,3.877095 c -0.452,-0.500999 -1.354,-0.658971 -1.806,-1.146429 l 0,-3.439286 -4.694,0.09027 c -7.312,-6.312128 -14.985,-12.340808 -23.696,-16.925619 l 0,-0.18054 0,0 c -15.752,-6.900237 -34.393,-10.17478 -52.447,-9.873278 z m 12.864,23.00801 c 8.846,4.557731 17.332,9.593441 23.56,15.867656 l 9.975,10.137769 0,-6.611373 c 3.159,1.904697 7.131,3.764258 8.35,5.906364 l 0.451,0.52808 0.452,0.36108 c 4.649,5.515499 8.756,11.575319 11.735,17.542619 2.256,6.76392 4.062,13.10223 4.062,19.30603 l 0,0.27081 0,0.27081 c 0.451,6.31665 -0.04,12.8224 -0.903,19.74656 l 0,0.0903 c -0.903,6.72602 -1.805,13.09095 -3.611,19.0411 -1.805,5.30291 -5.235,10.70015 -8.395,16.8376 0,0.0451 0,0.0903 0,0.18054 -3.611,5.95511 -7.943,11.28962 -13.901,15.33868 -6.5,4.35101 -12.954,8.38653 -20.221,10.93124 l 0,-0.0903 c -5.235,1.81443 -10.426,2.3741 -15.662,2.73067 -4.829,-0.73119 -9.929,-1.15546 -13.495,-2.99697 -5.461,-3.5792 -10.426,-7.22611 -12.863,-11.01925 l 0,-0.18054 0,-0.27081 c -4.063,-5.20632 -6.861,-12.16117 -12.097,-19.12956 -3.61,-6.12211 -7.041,-12.1025 -9.433,-18.24808 l 0,-0.27081 0,-0.0903 c -2.708,-5.44102 -3.159,-11.62722 -3.611,-18.24807 0.903,-7.43419 1.806,-14.66617 3.16,-21.50953 2.708,-9.24365 6.499,-17.75385 12.863,-25.47644 l 0,-0.0903 0,-0.18054 c 6.319,-8.423547 13.992,-16.082051 22.929,-23.008466 5.281,-3.511502 11.284,-5.403109 17.106,-7.581324 l 0,-0.09027 z m -8.892,305.190135 c 25.862,62.86807 53.35,125.4563 77.587,189.00275 0.451,1.38565 0.903,2.84351 1.354,4.22915 l -21.168,-2.82093 c -28.977,0.0451 -58.45,-0.008 -87.427,0 -21.664,-0.0212 -43.239,0.014 -64.904,0 30.512,-63.6128 60.075,-128.76831 94.513,-190.41323 z" style="color:#000000;display:inline;overflow:visible;visibility:visible;fill:#000000;fill-opacity:1;fill-rule:nonzero;stroke:none;stroke-width:1px;marker:none;enable-background:accumulate"/></g></svg>