<?xml version="1.0" encoding="UTF-8" standalone="no"?>
<!-- Created with Inkscape (http://www.inkscape.org/) -->

<svg xmlns:dc="http://purl.org/dc/elements/1.1/" xmlns:cc="http://creativecommons.org/ns#" xmlns:rdf="http://www.w3.org/1999/02/22-rdf-syntax-ns#" xmlns:svg="http://www.w3.org/2000/svg" xmlns="http://www.w3.org/2000/svg" xmlns:xlink="http://www.w3.org/1999/xlink" xmlns:sodipodi="http://sodipodi.sourceforge.net/DTD/sodipodi-0.dtd" xmlns:inkscape="http://www.inkscape.org/namespaces/inkscape" version="1.1" width="465.43200000000047" height="1000" id="svg4626" inkscape:version="0.91 r13725" sodipodi:docname="font_bold_raw.svg">
<g transform="translate(-1646.0278,0)"><path inkscape:connector-curvature="0" style="color:#000000;display:inline;overflow:visible;visibility:visible;fill:#000000;fill-opacity:1;fill-rule:nonzero;stroke:none;stroke-width:1px;marker:none;enable-background:accumulate" d="m 1850.5344,187.59227 c -32.9485,-0.13541 -65.8519,3.30388 -94.5126,19.74655 -21.8002,17.75701 -35.8372,44.00481 -46.5342,70.52342 -12.0511,27.68851 -21.6197,55.82475 -31.0529,84.6281 -9.7943,33.3209 -19.1824,65.81719 -25.3658,100.14325 -5.1003,30.62815 -6.4995,62.06105 -7.0411,93.0909 0,27.86273 0,55.35355 0,83.21763 1.354,28.4039 17.4221,49.84392 35.2504,69.11295 15.9778,18.94361 36.0177,33.62195 56.4188,46.54545 23.0639,13.92054 49.3776,16.25311 74.7435,22.5675 12.5475,2.92926 25.2756,5.02442 38.0939,7.05234 9.2527,21.67878 15.2105,45.31688 12.6829,69.11295 -6.5445,18.31397 -21.9356,27.58108 -38.0939,36.67217 -3.1594,1.13289 -5.5065,1.68354 -8.4402,2.82094 l 108.5948,12.69421 c 3.1594,-1.58423 6.8605,-2.64491 9.8845,-4.22915 17.8283,-12.07857 33.3096,-25.6651 38.0939,-47.95592 1.3541,-22.85319 -3.6108,-43.74392 -11.2837,-64.88154 10.9678,-1.11032 21.6197,-2.10329 32.4069,-4.22915 20.1302,-3.75523 38.3648,-14.24776 56.4187,-23.97796 12.683,-10.20005 25.9527,-21.33124 36.6948,-33.85124 l -110.0391,-8.46281 c -11.0129,10.84459 -22.1161,21.80562 -35.2504,29.61984 -8.8014,4.7667 -17.4673,9.129 -26.8102,12.69421 -23.1994,-5.44553 -47.1209,-8.44114 -69.1017,-18.33609 -20.3107,-11.48459 -40.8923,-25.39926 -56.4187,-43.72451 -16.8805,-15.78732 -31.8202,-34.21277 -33.8512,-59.23967 -0.045,-27.78149 0,-55.43705 0,-83.21763 0.4513,-30.34922 0.4513,-60.30711 5.6418,-90.26997 6.1384,-33.74111 15.6167,-66.01308 25.411,-98.73279 9.6138,-28.42104 20.4462,-57.21401 32.4069,-84.62809 10.5165,-24.11292 24.3729,-47.14304 46.5793,-60.65014 9.7943,-4.17499 21.2135,-6.53013 32.407,-8.46281 8.3951,1.57521 17.2867,2.59526 25.411,5.64187 29.8793,13.14466 55.7417,33.61519 77.587,59.23967 l 109.994,-8.46281 c -22.2967,-26.80025 -48.9264,-47.72618 -78.9863,-63.47107 -26.8553,-12.67255 -55.6965,-14.39581 -84.6281,-15.51515 -30.6917,2.14391 -64.3624,-2.68102 -97.311,-2.82094 z" id="path3996"/></g></svg>