<?xml version="1.0" encoding="UTF-8" standalone="no"?>
<!-- Created with Inkscape (http://www.inkscape.org/) -->

<svg xmlns:dc="http://purl.org/dc/elements/1.1/" xmlns:cc="http://creativecommons.org/ns#" xmlns:rdf="http://www.w3.org/1999/02/22-rdf-syntax-ns#" xmlns:svg="http://www.w3.org/2000/svg" xmlns="http://www.w3.org/2000/svg" xmlns:xlink="http://www.w3.org/1999/xlink" xmlns:sodipodi="http://sodipodi.sourceforge.net/DTD/sodipodi-0.dtd" xmlns:inkscape="http://www.inkscape.org/namespaces/inkscape" version="1.1" width="528.9820000000036" height="1000" id="svg4626" inkscape:version="0.91 r13725" sodipodi:docname="font_bold_raw.svg">
<g transform="translate(-20848.075999999997,0)"><path style="color:#000000;display:inline;overflow:visible;visibility:visible;fill:#000000;fill-opacity:1;fill-rule:nonzero;stroke:none;stroke-width:1px;marker:none;enable-background:accumulate" d="m 21207.892,19.746538 -92.121,2.378614 c -1.354,2.870585 -3.159,5.730338 -4.784,8.551274 -5.958,9.957681 -12.367,19.601222 -19.814,28.914375 -10.607,13.21417 -21.891,25.71972 -28.21,37.642127 -6.138,8.976442 -11.554,17.797632 -22.477,26.181902 l 75.285,-1.41272 c 10.065,-8.51291 17.106,-17.32597 24.508,-26.445947 8.035,-11.986047 21.394,-24.612559 34.529,-37.906618 9.162,-9.411096 17.873,-19.184174 26.178,-29.266879 2.257,-2.852531 4.514,-5.723567 6.906,-8.639287 z m -317.435,162.203852 c 0,2.81643 0,5.64865 0,8.46281 -9.884,-0.0253 -19.769,0.0415 -29.653,0 l 29.653,4.22915 c 1.354,61.44767 1.354,123.30923 1.354,184.77135 0,14.58763 -0.05,29.14276 0,43.72452 -14.623,-0.0117 -29.112,0.0451 -43.735,0 l 43.735,7.05234 c 0,60.20556 0,120.43458 -4.062,180.53994 0,44.65385 -17.963,88.01367 -14.082,132.58402 13.676,34.63659 52.989,32.35727 84.628,33.85124 89.142,1.44883 178.78,0.49197 267.967,0 l -107.196,-16.92562 c 2.708,0.0451 -26.223,0.0903 -50.777,0 -0.903,0.005 -1.354,-0.005 -2.708,0 -26.404,-0.72216 -63.55,4.42323 -81.83,-18.33609 -6.048,-43.56835 13.225,-87.35289 11.284,-131.17355 3.611,-57.01677 3.16,-113.59438 2.708,-170.66666 24.508,-0.0217 48.791,0.005 73.345,0 37.913,-0.008 76.278,-0.019 114.236,0 16.384,0.18054 32.858,1.65645 47.934,-5.64188 l -109.994,-14.10468 c -15.121,2.94731 -31.234,2.6404 -46.535,2.82094 -26.449,0.0131 -52.582,-0.006 -78.986,0 0,-14.62374 0,-29.09492 0,-43.72452 0,-57.24109 1.806,-114.84597 2.708,-172.07713 42.337,-0.13541 84.583,0.005 126.965,0 42.562,-0.0325 85.711,-0.0275 128.319,0 0.902,0.71764 5.371,1.64742 14.127,2.82093 l 19.724,-2.82093 c 5.145,0.004 10.381,-0.004 15.526,0 7.493,0.002 15.076,-0.008 22.568,0 39.764,0.0447 11.825,-2.28383 -19.724,-2.82094 l 69.102,-9.87328 c -59.308,-10.14002 -119.202,-3.04661 -179.141,-4.22915 -58.721,0.0379 -117.577,0.0108 -176.297,0 -7.041,-0.006 -14.128,0.004 -21.169,0 0,-2.81191 0,-5.64909 0,-8.46281 l -109.994,0 z" id="path5288" inkscape:connector-curvature="0"/></g></svg>