<?xml version="1.0" encoding="UTF-8" standalone="no"?>
<!-- Created with Inkscape (http://www.inkscape.org/) -->

<svg xmlns:dc="http://purl.org/dc/elements/1.1/" xmlns:cc="http://creativecommons.org/ns#" xmlns:rdf="http://www.w3.org/1999/02/22-rdf-syntax-ns#" xmlns:svg="http://www.w3.org/2000/svg" xmlns="http://www.w3.org/2000/svg" xmlns:xlink="http://www.w3.org/1999/xlink" xmlns:sodipodi="http://sodipodi.sourceforge.net/DTD/sodipodi-0.dtd" xmlns:inkscape="http://www.inkscape.org/namespaces/inkscape" version="1.1" width="528.9820000000036" height="1000" id="svg4626" inkscape:version="0.91 r13725" sodipodi:docname="font_bold_raw.svg">
<g transform="translate(-27889.133,0)"><path style="color:#000000;display:inline;overflow:visible;visibility:visible;fill:#000000;fill-opacity:1;fill-rule:nonzero;stroke:none;stroke-width:1px;marker:none;enable-background:accumulate" d="m 28140.4,20.804502 -51.274,1.322455 c -1.354,2.870585 -3.159,5.730338 -4.784,8.551275 -5.958,9.95768 -12.367,19.601221 -19.814,28.914374 -10.607,13.21417 -21.891,25.719721 -28.209,37.642127 -6.139,8.976447 -11.555,17.797177 -22.478,26.181907 l 75.376,-1.41273 c 10.065,-8.51201 17.106,-17.32597 24.508,-26.445942 6.409,-9.544244 16.339,-19.592646 26.675,-29.97279 10.336,10.363896 20.311,20.441635 26.72,29.97279 7.402,9.119972 14.443,17.934382 24.508,26.445942 l 75.285,1.41273 c -10.922,-8.38428 -16.339,-17.20546 -22.477,-26.181907 -6.319,-11.922406 -17.603,-24.427957 -28.209,-37.642127 -7.448,-9.313153 -13.857,-18.956694 -19.815,-28.914374 -1.805,-2.820937 -3.159,-5.681592 -4.784,-8.551275 l -51.228,-1.322455 z m -208.885,161.145888 c 0,2.81643 0,5.64865 0,8.46281 -9.884,-0.0253 -19.769,0.0415 -29.654,0 l 29.654,4.22915 c 1.354,61.44767 1.354,123.30923 1.354,184.77135 0,14.58763 -0.04,29.14276 0,43.72452 -14.624,-0.0117 -29.112,0.0451 -43.736,0 l 43.736,7.05234 c 0,60.20556 0,120.43458 -4.062,180.53994 0,44.65385 -17.964,88.01367 -14.082,132.58402 13.676,34.63659 52.988,32.35727 84.628,33.85124 89.142,1.44883 178.78,0.49197 267.966,0 l -107.195,-16.92562 c 2.708,0.0451 -26.224,0.0903 -50.777,0 -0.903,0.005 -1.354,-0.005 -2.708,0 -26.404,-0.72216 -63.55,4.42323 -81.83,-18.33609 -6.048,-43.56835 13.225,-87.35289 11.284,-131.17355 3.611,-57.01677 3.159,-113.59438 2.708,-170.66666 24.508,-0.0217 48.791,0.005 73.344,0 37.914,-0.008 76.278,-0.019 114.237,0 16.384,0.18054 32.858,1.65645 47.933,-5.64188 l -109.994,-14.10468 c -15.12,2.94731 -31.233,2.6404 -46.534,2.82094 -26.449,0.0131 -52.582,-0.006 -78.986,0 0,-14.62374 0,-29.09492 0,-43.72452 0,-57.24109 1.805,-114.84597 2.708,-172.07713 42.337,-0.13541 84.583,0.005 126.965,0 42.562,-0.0325 85.711,-0.0275 128.319,0 0.902,0.71764 5.371,1.64742 14.127,2.82093 l 19.724,-2.82093 c 5.145,0.004 10.381,-0.004 15.526,0 7.493,0.002 15.075,-0.008 22.568,0 39.764,0.0447 11.825,-2.28383 -19.724,-2.82094 l 69.101,-9.87328 c -59.307,-10.14002 -119.201,-3.04661 -179.14,-4.22915 -58.721,0.0379 -117.577,0.0108 -176.298,0 -7.041,-0.006 -14.127,0.004 -21.168,0 0,-2.81191 0,-5.64909 0,-8.46281 l -109.994,0 z" id="path5423" inkscape:connector-curvature="0"/></g></svg>