<?xml version="1.0" encoding="UTF-8" standalone="no"?>
<!-- Created with Inkscape (http://www.inkscape.org/) -->

<svg xmlns:dc="http://purl.org/dc/elements/1.1/" xmlns:cc="http://creativecommons.org/ns#" xmlns:rdf="http://www.w3.org/1999/02/22-rdf-syntax-ns#" xmlns:svg="http://www.w3.org/2000/svg" xmlns="http://www.w3.org/2000/svg" xmlns:xlink="http://www.w3.org/1999/xlink" xmlns:sodipodi="http://sodipodi.sourceforge.net/DTD/sodipodi-0.dtd" xmlns:inkscape="http://www.inkscape.org/namespaces/inkscape" version="1.1" width="167.40500000000247" height="1000" id="svg4626" inkscape:version="0.91 r13725" sodipodi:docname="font_bold_raw.svg">
<g transform="translate(-18151.757,0)"><path style="color:#000000;display:inline;overflow:visible;visibility:visible;fill:#000000;fill-opacity:1;fill-rule:nonzero;stroke:none;stroke-width:1px;marker:none;enable-background:accumulate" d="m 18151.757,19.746538 c 2.256,2.91572 4.603,5.787208 6.86,8.639288 8.35,10.082704 17.016,19.855783 26.178,29.266879 13.135,13.294058 26.495,25.920571 34.574,37.906617 7.402,9.119978 14.398,17.933028 24.508,26.445938 l 75.285,1.41273 c -10.922,-8.38428 -16.384,-17.20546 -22.477,-26.181903 -6.364,-11.922406 -17.648,-24.427957 -28.209,-37.642127 -7.448,-9.313153 -13.857,-18.956694 -19.86,-28.914374 -1.805,-2.820937 -3.159,-5.681592 -4.739,-8.551275 l -92.12,-2.378613 z m 48.384,148.363662 c -5.957,61.3908 -6.905,123.14359 -8.214,184.77135 0.903,77.85875 -4.92,155.50266 -9.524,233.16824 -2.708,52.69645 -4.784,105.47143 -5.867,158.23649 0,14.59304 0,29.13373 -0.452,43.72452 l 109.859,0 c 0,-14.55378 0,-29.08002 0,-43.63606 0,-52.60889 1.354,-105.25027 4.062,-157.79642 4.062,-77.80369 9.659,-155.47423 9.208,-233.43228 1.354,-61.13444 2.256,-122.62634 11.599,-183.18485 l -110.084,-1.85054 z" id="path5268" inkscape:connector-curvature="0"/></g></svg>