<?xml version="1.0" encoding="UTF-8" standalone="no"?>
<!-- Created with Inkscape (http://www.inkscape.org/) -->

<svg xmlns:dc="http://purl.org/dc/elements/1.1/" xmlns:cc="http://creativecommons.org/ns#" xmlns:rdf="http://www.w3.org/1999/02/22-rdf-syntax-ns#" xmlns:svg="http://www.w3.org/2000/svg" xmlns="http://www.w3.org/2000/svg" xmlns:xlink="http://www.w3.org/1999/xlink" xmlns:sodipodi="http://sodipodi.sourceforge.net/DTD/sodipodi-0.dtd" xmlns:inkscape="http://www.inkscape.org/namespaces/inkscape" version="1.1" width="382.2479999999923" height="1000" id="svg4626" inkscape:version="0.91 r13725" sodipodi:docname="font_bold_raw.svg">
<g transform="translate(-44818.138,0)"><path style="color:#000000;display:inline;overflow:visible;visibility:visible;fill:#000000;fill-opacity:1;fill-rule:nonzero;stroke:none;stroke-width:1px;marker:none;enable-background:accumulate" d="m 45090.392,23.977943 c -7.627,28.415182 -19.543,56.375403 -36.694,80.396697 l 110.039,7.05234 c 16.158,-25.833462 27.713,-54.105115 36.649,-83.217632 L 45090.392,23.9802 Z m -235.559,4.229148 c -7.628,28.415182 -19.544,56.375403 -36.695,80.396689 l 110.039,5.64188 c 16.159,-25.833463 27.713,-54.105115 36.65,-83.217632 l -109.994,-2.820937 z m 96.86,139.900849 c -5.958,61.39081 -6.906,123.14359 -8.17,184.77135 0.903,77.85876 -4.965,155.50267 -9.523,233.16824 -3.16,52.69645 -4.83,105.47144 -5.913,158.23649 0,14.59304 -0.451,29.13373 -0.903,43.72452 l 109.814,0 c -0.452,-14.55378 -0.452,-29.08002 0,-43.63605 0.451,-52.60889 0.902,-105.25028 4.062,-157.79643 4.062,-77.80369 9.659,-155.47423 9.207,-233.43228 1.354,-61.13443 2.257,-122.62634 11.6,-183.18485 l -109.994,-1.85053 z" id="path5569" inkscape:connector-curvature="0"/></g></svg>