<?xml version="1.0" encoding="UTF-8" standalone="no"?>
<!-- Created with Inkscape (http://www.inkscape.org/) -->

<svg xmlns:dc="http://purl.org/dc/elements/1.1/" xmlns:cc="http://creativecommons.org/ns#" xmlns:rdf="http://www.w3.org/1999/02/22-rdf-syntax-ns#" xmlns:svg="http://www.w3.org/2000/svg" xmlns="http://www.w3.org/2000/svg" xmlns:xlink="http://www.w3.org/1999/xlink" xmlns:sodipodi="http://sodipodi.sourceforge.net/DTD/sodipodi-0.dtd" xmlns:inkscape="http://www.inkscape.org/namespaces/inkscape" version="1.1" width="531.6183474160352" height="1000" id="svg4626" inkscape:version="0.91 r13725" sodipodi:docname="font_bold_raw.svg">
<g transform="translate(-18364.839,0)"><path style="color:#000000;display:inline;overflow:visible;visibility:visible;fill:#000000;fill-opacity:1;fill-rule:nonzero;stroke:none;stroke-width:1px;marker:none;enable-background:accumulate" d="m 18530.891,19.746538 c 2.256,2.91572 4.603,5.787208 6.905,8.639288 8.305,10.082704 17.016,19.855783 26.178,29.266879 13.135,13.294058 26.404,25.920571 34.438,37.906617 7.403,9.119978 14.444,17.933028 24.509,26.445938 l 75.375,1.41273 c -10.922,-8.38428 -16.339,-17.20546 -22.477,-26.181903 -6.319,-11.922406 -17.603,-24.427957 -28.209,-37.642127 -7.448,-9.313153 -13.857,-18.956694 -19.815,-28.914374 -1.805,-2.820937 -3.159,-5.681592 -4.784,-8.551275 l -92.12,-2.383127 z m 63.55,177.895482 c -15.121,0.31595 -30.105,1.92727 -44.594,4.76039 -28.345,9.36009 -52.898,27.28139 -74.743,47.25046 -24.193,25.63397 -45.632,53.19113 -62.873,83.92264 -18.822,29.02044 -29.789,61.39757 -37.462,94.85433 -5.326,25.69354 -7.628,51.83347 -9.93,77.92826 0,24.86306 3.159,49.49819 10.381,73.25634 6.725,22.53094 16.068,44.05446 25.998,65.32206 12.367,21.47974 20.536,44.89848 32.362,66.64452 8.665,18.48322 23.56,32.16635 38.274,45.84044 16.7,14.60568 37.823,19.54255 59.037,23.36097 56.328,7.48654 113.108,11.3036 169.707,16.04413 21.845,-0.40621 41.073,-9.01571 60.571,-17.71909 20.492,-11.23952 39.719,-25.59831 56.78,-41.60904 18.505,-17.22983 31.504,-39.51884 41.93,-62.3251 8.486,-20.47052 17.964,-40.00314 23.651,-61.53162 5.1,-22.51604 7.222,-45.55249 9.433,-68.49595 2.709,-24.12736 4.649,-47.96992 2.709,-72.19793 -0.452,-25.16004 -5.552,-49.50044 -11.961,-73.6973 -7.493,-23.39979 -20.221,-44.90029 -32.723,-65.93906 -9.569,-20.27283 -26.088,-33.47301 -44.007,-45.92846 l -13.901,0.27081 c -19.363,-22.87892 -42.743,-42.15201 -67.522,-58.79915 -38.952,-21.70271 -85.757,-32.14198 -131.208,-31.20633 z m 31.82,33.93925 c 27.893,17.01454 53.846,37.95853 73.976,63.82358 l 15.075,0.27081 c 13.947,9.52168 27.623,19.16657 34.935,35.26171 12.908,19.64952 24.418,41.07329 32.948,62.94209 6.319,23.61372 11.825,47.23106 12.096,71.84587 1.806,23.64712 0,46.96386 -2.708,70.52342 -2.257,22.38469 -4.062,44.88674 -9.343,66.82099 -5.732,20.80813 -15.255,39.81177 -23.289,59.76865 -10.381,21.6165 -23.064,42.42779 -41.434,58.26972 -17.287,14.78757 -35.431,29.16758 -56.329,38.52361 -13.992,6.16725 -28.48,11.01565 -43.51,12.51774 -16.068,-2.59075 -31.955,-5.92487 -45.586,-15.25066 -14.669,-12.22572 -29.609,-25.41596 -38.365,-42.66656 -13.089,-20.83611 -19.95,-44.76848 -32.678,-65.85149 -9.975,-20.85688 -19.182,-41.96245 -25.952,-64.08807 -8.125,-22.12336 -10.065,-45.66803 -10.742,-69.11294 2.256,-25.64209 4.513,-51.33699 9.523,-76.60581 7.357,-32.56489 18.325,-63.75362 36.695,-91.94493 17.332,-29.52641 38.319,-56.47741 62.737,-80.57317 15.843,-13.50168 32.949,-26.30106 52.086,-34.46824 z" id="path5270" inkscape:connector-curvature="0" sodipodi:nodetypes="ccccccccccccccccccccccccccccccccccccccccccccccccccccccccccc"/></g></svg>