<?xml version="1.0" encoding="UTF-8" standalone="no"?>
<!-- Created with Inkscape (http://www.inkscape.org/) -->

<svg xmlns:dc="http://purl.org/dc/elements/1.1/" xmlns:cc="http://creativecommons.org/ns#" xmlns:rdf="http://www.w3.org/1999/02/22-rdf-syntax-ns#" xmlns:svg="http://www.w3.org/2000/svg" xmlns="http://www.w3.org/2000/svg" xmlns:xlink="http://www.w3.org/1999/xlink" xmlns:sodipodi="http://sodipodi.sourceforge.net/DTD/sodipodi-0.dtd" xmlns:inkscape="http://www.inkscape.org/namespaces/inkscape" version="1.1" width="531.6178058966543" height="1000" id="svg4626" inkscape:version="0.91 r13725" sodipodi:docname="font_bold_raw.svg">
<g transform="translate(-22788.068,0)"><path style="color:#000000;display:inline;overflow:visible;visibility:visible;fill:#000000;fill-opacity:1;fill-rule:nonzero;stroke:none;stroke-width:1px;marker:none;enable-background:accumulate" d="m 23162.282,19.746538 -92.121,2.378614 c -1.354,2.870585 -3.159,5.730338 -4.874,8.551274 -6.003,9.957681 -12.277,19.601222 -19.724,28.914375 -10.607,13.21417 -21.891,25.71972 -28.21,37.642127 -6.138,8.991792 -11.645,17.784082 -22.567,26.181902 l 75.375,-1.41272 c 10.065,-8.51291 17.106,-17.32597 24.463,-26.445947 8.08,-11.986047 21.439,-24.612559 34.574,-37.906618 9.162,-9.411096 17.738,-19.184174 26.088,-29.266879 2.257,-2.852531 4.604,-5.723567 6.996,-8.639287 z m -144.613,177.895482 c -15.12,0.31595 -30.105,1.92727 -44.593,4.76039 -28.345,9.36009 -52.898,27.28139 -74.744,47.25046 -24.192,25.63397 -45.631,53.19113 -62.873,83.92264 -18.821,29.02044 -29.789,61.39757 -37.462,94.85433 -5.326,25.69354 -7.628,51.83347 -9.929,77.92826 0,24.86306 3.159,49.49819 10.381,73.25634 6.725,22.53094 16.068,44.05446 25.997,65.32206 12.367,21.47974 20.537,44.89848 32.362,66.64452 8.666,18.48322 23.561,32.16635 38.275,45.84044 16.7,14.60568 37.823,19.54255 59.036,23.36097 56.329,7.48654 113.108,11.3036 169.708,16.04413 21.845,-0.40621 41.073,-9.01571 60.571,-17.71909 20.491,-11.23952 39.719,-25.59831 56.78,-41.60904 18.505,-17.22983 31.504,-39.51884 41.93,-62.3251 8.485,-20.47052 17.964,-40.00314 23.651,-61.53162 5.1,-22.51604 7.221,-45.55249 9.433,-68.49595 2.708,-24.12736 4.649,-47.96992 2.708,-72.19793 -0.451,-25.16004 -5.551,-49.50044 -11.961,-73.6973 -7.492,-23.39979 -20.22,-44.90029 -32.723,-65.93906 -9.568,-20.27283 -26.088,-33.47301 -44.006,-45.92846 l -13.902,0.27081 c -19.363,-22.87892 -42.743,-42.15201 -67.522,-58.79915 -38.951,-21.70271 -85.756,-32.14198 -131.207,-31.20633 z m -20.852,17.71864 c -4.062,-0.45135 8.35,0.0149 12.502,0.70411 0.452,0.0903 0.903,0.27081 1.354,0.36108 -6.273,-0.57773 -6.815,-0.31595 -13.811,-1.05616 z m 52.672,16.22061 c 27.894,17.01454 53.846,37.95853 73.977,63.82358 l 15.075,0.27081 c 13.946,9.52168 27.622,19.16657 34.934,35.26171 12.909,19.64952 24.418,41.07329 32.949,62.94209 6.319,23.61372 11.825,47.23106 12.096,71.84587 1.805,23.64712 0,46.96386 -2.708,70.52342 -2.257,22.38469 -4.062,44.88674 -9.343,66.82099 -5.732,20.80813 -15.256,39.81177 -23.29,59.76865 -10.381,21.6165 -23.064,42.42779 -41.434,58.26972 -17.286,14.78757 -35.431,29.16758 -56.328,38.52361 -13.992,6.16725 -28.48,11.01565 -43.51,12.51774 -16.068,-2.59075 -31.956,-5.92487 -45.587,-15.25066 -14.669,-12.22572 -29.608,-25.41596 -38.364,-42.66656 -13.09,-20.83611 -19.95,-44.76848 -32.678,-65.85149 -9.975,-20.85688 -19.182,-41.96245 -25.953,-64.08807 -8.124,-22.12336 -10.065,-45.66803 -10.742,-69.11294 2.257,-25.64209 4.514,-51.33699 9.524,-76.60581 7.357,-32.56489 18.324,-63.75362 36.694,-91.94493 17.332,-29.52641 38.32,-56.47741 62.738,-80.57317 15.842,-13.50168 32.949,-26.30106 52.086,-34.46824 z" id="path5296" inkscape:connector-curvature="0"/></g></svg>