<?xml version="1.0" encoding="UTF-8" standalone="no"?>
<!-- Created with Inkscape (http://www.inkscape.org/) -->

<svg xmlns:dc="http://purl.org/dc/elements/1.1/" xmlns:cc="http://creativecommons.org/ns#" xmlns:rdf="http://www.w3.org/1999/02/22-rdf-syntax-ns#" xmlns:svg="http://www.w3.org/2000/svg" xmlns="http://www.w3.org/2000/svg" xmlns:xlink="http://www.w3.org/1999/xlink" xmlns:sodipodi="http://sodipodi.sourceforge.net/DTD/sodipodi-0.dtd" xmlns:inkscape="http://www.inkscape.org/namespaces/inkscape" version="1.1" width="531.6188058966545" height="1000" id="svg4626" inkscape:version="0.91 r13725" sodipodi:docname="font_bold_raw.svg">
<g transform="translate(-30190.204999999998,0)"><path style="color:#000000;display:inline;overflow:visible;visibility:visible;fill:#000000;fill-opacity:1;fill-rule:nonzero;stroke:none;stroke-width:1px;marker:none;enable-background:accumulate" d="m 30455.779,20.804502 -51.273,1.322455 c -1.354,2.870585 -3.159,5.730338 -4.784,8.551275 -6.003,9.95768 -12.367,19.601221 -19.814,28.914374 -10.607,13.21417 -21.891,25.719721 -28.21,37.642127 -6.138,8.976447 -11.6,17.797177 -22.477,26.181907 l 75.375,-1.41273 c 10.065,-8.51201 17.107,-17.32597 24.464,-26.445942 6.454,-9.544244 16.384,-19.592646 26.719,-29.97279 10.336,10.363896 20.311,20.441635 26.72,29.97279 7.403,9.119972 14.398,17.934382 24.509,26.445942 l 75.285,1.41273 c -10.923,-8.38428 -16.339,-17.20546 -22.477,-26.181907 -6.364,-11.922406 -17.648,-24.427957 -28.21,-37.642127 -7.447,-9.313153 -13.856,-18.956694 -19.814,-28.914374 -1.805,-2.820937 -3.159,-5.681592 -4.784,-8.551275 z m -35.972,176.837518 c -15.12,0.31595 -30.105,1.92727 -44.593,4.76039 -28.345,9.36009 -52.899,27.28139 -74.744,47.25046 -24.192,25.63397 -45.632,53.19113 -62.873,83.92264 -18.821,29.02044 -29.789,61.39757 -37.462,94.85433 -5.326,25.69354 -7.628,51.83347 -9.93,77.92826 0,24.86306 3.16,49.49819 10.381,73.25634 6.725,22.53094 16.068,44.05446 25.998,65.32206 12.367,21.47974 20.536,44.89848 32.362,66.64452 8.666,18.48322 23.56,32.16635 38.274,45.84044 16.7,14.60568 37.823,19.54255 59.037,23.36097 56.328,7.48654 113.108,11.3036 169.707,16.04413 21.846,-0.40621 41.073,-9.01571 60.572,-17.71909 20.491,-11.23952 39.718,-25.59831 56.779,-41.60904 18.506,-17.22983 31.505,-39.51884 41.931,-62.3251 8.485,-20.47052 17.963,-40.00314 23.65,-61.53162 5.101,-22.51604 7.222,-45.55249 9.434,-68.49595 2.708,-24.12736 4.649,-47.96992 2.708,-72.19793 -0.452,-25.16004 -5.552,-49.50044 -11.961,-73.6973 -7.492,-23.39979 -20.22,-44.90029 -32.723,-65.93906 -9.568,-20.27283 -26.088,-33.47301 -44.006,-45.92846 l -13.902,0.27081 c -19.363,-22.87892 -42.743,-42.15201 -67.522,-58.79915 -38.951,-21.70271 -85.756,-32.14198 -131.207,-31.20633 z m 31.82,33.93925 c 27.893,17.01454 53.846,37.95853 73.976,63.82358 l 15.075,0.27081 c 13.947,9.52168 27.623,19.16657 34.935,35.26171 12.908,19.64952 24.418,41.07329 32.948,62.94209 6.319,23.61372 11.826,47.23106 12.097,71.84587 1.805,23.64712 0,46.96386 -2.709,70.52342 -2.256,22.38469 -4.062,44.88674 -9.342,66.82099 -5.733,20.80813 -15.256,39.81177 -23.29,59.76865 -10.381,21.6165 -23.064,42.42779 -41.434,58.26972 -17.287,14.78757 -35.431,29.16758 -56.329,38.52361 -13.991,6.16725 -28.48,11.01565 -43.51,12.51774 -16.068,-2.59075 -31.955,-5.92487 -45.586,-15.25066 -14.669,-12.22572 -29.609,-25.41596 -38.365,-42.66656 -13.089,-20.83611 -19.949,-44.76848 -32.677,-65.85149 -9.975,-20.85688 -19.183,-41.96245 -25.953,-64.08807 -8.124,-22.12336 -10.065,-45.66803 -10.742,-69.11294 2.257,-25.64209 4.513,-51.33699 9.523,-76.60581 7.357,-32.56489 18.325,-63.75362 36.695,-91.94493 17.332,-29.52641 38.32,-56.47741 62.738,-80.57317 15.842,-13.50168 32.948,-26.30106 52.085,-34.46824 z" id="path5433" inkscape:connector-curvature="0" sodipodi:nodetypes="cccccccccccccscccccccccccccccccccccccccccccccccccccccccccccccccc"/></g></svg>