<?xml version="1.0" encoding="UTF-8" standalone="no"?>
<!-- Created with Inkscape (http://www.inkscape.org/) -->

<svg xmlns:dc="http://purl.org/dc/elements/1.1/" xmlns:cc="http://creativecommons.org/ns#" xmlns:rdf="http://www.w3.org/1999/02/22-rdf-syntax-ns#" xmlns:svg="http://www.w3.org/2000/svg" xmlns="http://www.w3.org/2000/svg" xmlns:xlink="http://www.w3.org/1999/xlink" xmlns:sodipodi="http://sodipodi.sourceforge.net/DTD/sodipodi-0.dtd" xmlns:inkscape="http://www.inkscape.org/namespaces/inkscape" version="1.1" width="468.4631613290694" height="1000" id="svg4626" inkscape:version="0.91 r13725" sodipodi:docname="font_bold_raw.svg">
<g transform="translate(-18962.290738827778,0)"><path style="color:#000000;display:inline;overflow:visible;visibility:visible;fill:#000000;fill-opacity:1;fill-rule:nonzero;stroke:none;stroke-width:1px;marker:none;enable-background:accumulate" d="m 19081.492,19.746538 c 2.257,2.91572 4.604,5.787208 6.906,8.639288 8.35,10.082704 17.016,19.855783 26.178,29.266879 13.134,13.294058 26.494,25.920571 34.528,37.906617 7.403,9.119978 14.444,17.933028 24.509,26.445938 l 75.285,1.41273 c -10.923,-8.38428 -16.339,-17.20546 -22.477,-26.181903 -6.319,-11.922406 -17.603,-24.427957 -28.21,-37.642127 -7.447,-9.313153 -13.811,-18.956694 -19.814,-28.914374 -1.805,-2.820937 -3.159,-5.681592 -4.784,-8.551275 l -92.121,-2.383127 z m 192.546,181.950412 c -0.903,8.80403 0.451,17.97095 0,26.7989 -0.451,9.28156 -1.805,18.94315 -2.708,28.20936 0,13.26563 3.159,25.12665 5.642,38.08265 3.159,16.64939 4.513,33.89366 5.642,50.77686 1.354,16.46434 1.805,32.88083 2.708,49.36639 1.354,17.98855 2.708,35.79204 5.642,53.59779 1.805,18.06754 2.708,36.864 2.708,55.00827 0.903,19.22434 3.159,37.35055 5.642,56.41873 1.805,17.15897 4.513,35.13623 7.041,52.18733 3.159,14.9153 5.732,29.96737 7.041,45.13498 2.708,18.01247 5.597,35.46301 7.041,53.5978 0.451,5.11605 3.611,23.78884 -1.354,26.79889 -7.312,1.02457 -15.211,-0.75826 -22.568,0 -8.62,0.18054 -18.279,-0.0429 -26.81,1.40822 -7.763,1.46688 -14.533,3.25874 -22.567,2.82093 -8.892,0.68154 -18.145,1.93629 -26.765,4.22915 -1.354,0.27081 -2.709,-0.22567 -4.063,0 -8.981,-0.77181 -17.873,-0.36108 -26.81,-1.40821 -20.04,-1.35856 -40.666,-3.86356 -60.661,-5.64187 -14.804,-2.69456 -29.564,-7.29201 -42.292,-15.51515 -5.867,-4.00799 -13.495,-7.72395 -14.127,-15.51516 -0.903,-10.69428 3.16,-20.31164 2.708,-31.0303 0,-13.45203 0,-27.45245 0,-40.90358 0,-10.08947 0,-19.52991 0,-29.61983 0,-12.11514 0,-24.55614 0,-36.67218 0,-16.46389 1.806,-33.05822 4.062,-49.36639 3.611,-23.20886 6.68,-46.98236 7.041,-70.52342 0.903,-30.6128 0.903,-61.05545 1.354,-91.68044 0.452,-30.53562 0.452,-61.21342 2.709,-91.68044 1.354,-20.59103 1.805,-41.45919 2.708,-62.0606 l -109.994,0 c 1.805,20.36806 2.256,41.66952 1.354,62.0606 -1.354,30.63944 -2.708,61.00581 -2.708,91.68044 -0.452,30.53834 0.05,61.16468 -1.354,91.68044 -0.903,23.1714 -6.094,46.32565 -9.885,69.11295 -3.159,16.69498 -3.611,33.85214 -4.062,50.77686 0,12.22571 0,24.44421 0,36.67218 0,10.08405 0,19.53667 0,29.61983 0,13.44842 0,27.45426 0,40.90358 -0.903,10.82472 -4.062,21.55873 -4.062,32.44077 -0.05,11.54012 7.086,17.20456 15.526,23.97796 12.909,9.56411 28.345,16.78932 43.691,21.15703 20.265,4.14339 41.479,4.11631 62.06,5.64187 24.96,2.19356 49.784,4.12534 74.789,5.64187 48.656,1.15997 99.297,11.20386 146.689,0 5.1,-1.8731 10.291,-1.77831 15.481,-2.82093 2.708,-0.5687 5.687,-0.69508 8.486,-1.40821 8.575,-1.88213 18.053,-2.64491 26.81,-2.82094 1.354,-0.0144 2.708,0.22567 4.062,0 2.708,-0.40622 5.822,-2.17551 8.485,-2.82094 3.611,-0.90721 7.447,-1.0697 11.284,-1.40821 8.44,-0.53711 16.926,0.007 25.366,0 10.471,0.18054 15.887,2.24772 22.567,-7.05234 4.83,-11.48324 3.16,-26.05868 1.354,-38.08264 -2.708,-18.04226 -4.784,-35.52665 -7.086,-53.5978 -0.903,-15.45241 -4.062,-31.42343 -7.041,-46.54545 -2.708,-16.69318 -5.145,-32.52969 -7.041,-49.36639 -3.159,-18.82445 -6.093,-38.79127 -7.041,-57.82921 0,-18.2571 -1.354,-35.41652 -2.708,-53.59779 -2.708,-17.74031 -4.514,-35.69275 -5.642,-53.5978 -1.354,-16.52933 0,-32.84879 -1.354,-49.36639 -1.805,-17.20997 -2.708,-35.1421 -5.642,-52.18732 -1.805,-12.2352 -6.229,-24.22846 -5.642,-36.67218 1.354,-9.07755 2.257,-17.66403 2.708,-26.7989 0.903,-8.51471 0,-18.38528 1.354,-26.7989 l -110.039,-1.40821 z" id="path5272" inkscape:connector-curvature="0"/></g></svg>