<?xml version="1.0" encoding="UTF-8" standalone="no"?>
<!-- Created with Inkscape (http://www.inkscape.org/) -->

<svg xmlns:dc="http://purl.org/dc/elements/1.1/" xmlns:cc="http://creativecommons.org/ns#" xmlns:rdf="http://www.w3.org/1999/02/22-rdf-syntax-ns#" xmlns:svg="http://www.w3.org/2000/svg" xmlns="http://www.w3.org/2000/svg" xmlns:xlink="http://www.w3.org/1999/xlink" xmlns:sodipodi="http://sodipodi.sourceforge.net/DTD/sodipodi-0.dtd" xmlns:inkscape="http://www.inkscape.org/namespaces/inkscape" version="1.1" width="467.902968627428" height="1000" id="svg4626" inkscape:version="0.91 r13725" sodipodi:docname="font_bold_raw.svg">
<g transform="translate(-13120.334,0)"><path inkscape:connector-curvature="0" style="color:#000000;display:inline;overflow:visible;visibility:visible;fill:#000000;fill-opacity:1;fill-rule:nonzero;stroke:none;stroke-width:1px;marker:none;enable-background:accumulate" d="M 13424.815,-1.8035207e-5 C 13417.187,28.415164 13405.271,56.375385 13388.165,80.396675 l 109.994,5.641874 c 16.158,-25.833461 27.758,-52.694194 36.695,-81.8071621 L 13424.815,0.00223871 Z M 13190.7,4.2291301 c -7.628,28.4151819 -19.544,56.3758539 -36.695,80.3966929 l 110.039,5.641874 c 16.158,-25.833461 27.713,-54.105113 36.65,-83.2176303 L 13190.7,4.2291301 Z m 241.201,197.4655599 c -0.903,8.80448 -0.903,17.9705 -1.354,26.7989 -0.451,9.28156 -1.806,18.94315 -2.708,28.20937 0,13.26517 4.513,25.12619 7.041,38.08264 3.159,16.64939 4.513,33.89367 5.642,50.77686 1.354,16.46389 0,32.88084 1.354,49.36639 1.354,17.98855 4.062,35.79204 7.086,53.5978 1.354,18.06753 2.708,36.864 2.708,55.00826 0.903,19.22434 3.16,37.3501 5.642,56.41873 1.805,17.15897 4.513,35.13669 7.041,52.18733 2.708,14.91576 5.777,29.96737 7.086,45.13498 2.257,18.01202 4.062,35.46301 5.642,53.5978 0.451,5.11605 3.611,23.78839 -1.354,26.7989 -7.312,1.03359 -13.766,-0.75827 -21.123,0 -8.621,0.18054 -18.325,-0.0429 -26.81,1.40821 -7.809,1.46237 -14.579,3.27229 -22.568,2.82094 -8.937,0.68153 -18.144,1.92726 -26.81,4.22914 -1.354,0.27081 -2.708,-0.22567 -4.062,0 -8.982,-0.7718 -17.828,-0.36108 -26.765,-1.40821 -20.04,-1.35405 -40.667,-3.85904 -60.662,-5.64187 -14.804,-2.69456 -29.608,-7.29246 -42.336,-15.51515 -5.823,-4.00799 -13.45,-7.7244 -14.082,-15.51515 -0.903,-10.69429 3.159,-20.3112 2.708,-31.03031 0,-13.45158 0,-27.452 0,-40.90358 0,-10.08902 0,-19.5299 0,-29.61983 0,-12.11513 0,-24.55614 0,-36.67218 0,-16.46434 1.805,-33.05821 4.062,-49.36639 3.611,-23.20931 6.68,-46.98236 7.041,-70.52341 0.903,-30.61281 0.903,-61.05545 1.354,-91.68044 0.451,-30.53563 0.451,-61.21342 2.708,-91.68044 1.354,-20.59103 1.805,-41.45874 2.708,-62.06061 l -110.039,0 c 1.805,20.36807 0.903,41.66952 0,62.06061 -1.354,30.63943 -0.903,61.00625 -1.354,91.68044 -0.451,30.53833 0,61.16512 -1.354,91.68044 -0.903,23.17185 -6.093,46.32519 -9.885,69.11294 -3.159,16.69498 -3.61,33.85169 -4.062,50.77686 0,12.22527 0,24.44466 0,36.67218 0,10.08451 0,19.53668 0,29.61983 0,13.44842 0,27.45381 0,40.90358 -0.902,10.82473 -4.062,21.55918 -4.062,32.44078 0,11.54056 7.131,17.20455 15.527,23.97796 12.908,9.56455 28.389,16.78795 43.735,21.15702 20.266,4.14339 41.479,4.11631 62.061,5.64187 24.914,2.19356 49.784,4.12534 74.744,5.64188 48.7,1.15997 99.296,11.20431 146.688,0 5.1,-1.85505 10.336,-1.77381 15.527,-2.82094 2.708,-0.57321 5.642,-0.69508 8.44,-1.40821 8.576,-1.88213 18.099,-2.6404 26.81,-2.82094 1.354,-0.0131 2.708,0.22568 4.062,0 2.708,-0.40621 4.514,-2.1755 7.041,-2.82093 3.611,-0.90722 7.448,-1.04714 11.284,-1.40822 8.44,-0.5371 16.926,0.007 25.411,0 10.426,0.18054 17.287,2.24773 23.967,-7.05234 4.829,-11.48324 1.805,-26.05868 0,-38.08264 -2.708,-18.04271 -3.16,-35.5262 -5.642,-53.5978 -0.903,-15.45196 -4.062,-31.42343 -7.041,-46.54545 -2.708,-16.69363 -6.59,-32.52924 -8.486,-49.36639 -3.159,-18.82445 -4.649,-38.79081 -5.641,-57.8292 0,-18.25665 -1.355,-35.41652 -2.709,-53.5978 -2.708,-17.7403 -4.558,-35.69274 -5.641,-53.59779 -1.355,-16.52934 0,-32.84879 -1.355,-49.36639 -1.805,-17.20997 -4.062,-35.1421 -7.041,-52.18733 -1.805,-12.23519 -4.784,-24.22846 -4.062,-36.67218 1.354,-9.07755 2.257,-17.66402 2.708,-26.79889 0.903,-8.51472 0,-18.38574 1.354,-26.7989 l -109.994,-1.40821 z" id="path3940-4"/></g></svg>