<?xml version="1.0" encoding="UTF-8" standalone="no"?>
<!-- Created with Inkscape (http://www.inkscape.org/) -->

<svg xmlns:dc="http://purl.org/dc/elements/1.1/" xmlns:cc="http://creativecommons.org/ns#" xmlns:rdf="http://www.w3.org/1999/02/22-rdf-syntax-ns#" xmlns:svg="http://www.w3.org/2000/svg" xmlns="http://www.w3.org/2000/svg" xmlns:xlink="http://www.w3.org/1999/xlink" xmlns:sodipodi="http://sodipodi.sourceforge.net/DTD/sodipodi-0.dtd" xmlns:inkscape="http://www.inkscape.org/namespaces/inkscape" version="1.1" width="459.8359999999957" height="1000" id="svg4626" inkscape:version="0.91 r13725" sodipodi:docname="font_bold_raw.svg">
<g transform="translate(-45291.694,0)"><path style="color:#000000;display:inline;overflow:visible;visibility:visible;fill:#000000;fill-opacity:1;fill-rule:nonzero;stroke:none;stroke-width:1px;marker:none;enable-background:accumulate" d="m 45591.436,23.977943 c -7.628,28.415182 -19.544,56.375403 -36.65,80.396697 l 109.994,7.05234 c 16.159,-25.833462 27.758,-54.105115 36.695,-83.217632 L 45591.436,23.9802 Z m -235.56,4.229148 c -7.627,28.415182 -19.543,56.375403 -36.649,80.396689 l 109.994,5.64188 c 16.158,-25.833463 27.758,-54.105115 36.694,-83.217632 l -110.039,-2.820937 z m 286.878,117.068869 c -13.992,32.89573 -30.917,63.87142 -46.534,95.91185 -18.776,35.78527 -35.25,72.59827 -53.62,108.60605 -1.806,3.38062 -4.062,6.49177 -5.642,9.87328 -1.354,-2.32445 -2.708,-4.81725 -4.062,-7.05234 -21.259,-28.36824 -43.465,-56.61642 -63.46,-86.03857 -23.922,-31.4338 -46.083,-64.09709 -67.703,-97.32231 l -110.039,-4.22915 c 23.787,32.1659 46.67,65.25301 70.546,97.32232 20.492,28.59166 39.719,57.77052 60.662,86.03856 13.45,17.78499 24.102,37.95446 36.649,56.41874 6.861,10.35306 13.857,21.0496 21.169,31.0303 l 16.925,0 c -3.61,7.01262 -6.544,14.10288 -9.884,21.15702 -15.797,31.28442 -28.571,63.56766 -42.292,95.91185 -9.433,25.41551 -21.845,50.692 -31.053,76.16529 -8.665,22.70966 -19.724,43.54804 -31.007,64.88154 -9.975,16.76449 -15.301,36.23211 -24.012,53.59779 -5.913,14.53573 -12.322,27.82978 -18.325,42.31405 -0.903,1.62486 -1.805,4.01702 -2.708,5.64188 l 108.595,16.92562 c 0.902,-1.75124 2.256,-3.89064 2.708,-5.64188 6.274,-14.1945 12.141,-28.09427 18.37,-42.31405 7.718,-17.7218 14.669,-35.24997 23.966,-52.18732 11.194,-21.86475 20.853,-44.59924 29.609,-67.70248 9.523,-25.11537 21.936,-49.44989 31.053,-74.75482 13.405,-32.23225 26.9,-64.67754 42.291,-95.91185 17.332,-36.26686 35.341,-71.44733 53.621,-107.19559 18.279,-36.10844 34.754,-72.77384 53.575,-108.60606 15.797,-32.05351 33.4,-63.96711 49.378,-95.91184 l -108.595,-16.92562 z" id="path5571" inkscape:connector-curvature="0"/></g></svg>