<?xml version="1.0" encoding="UTF-8" standalone="no"?>
<!-- Created with Inkscape (http://www.inkscape.org/) -->

<svg xmlns:dc="http://purl.org/dc/elements/1.1/" xmlns:cc="http://creativecommons.org/ns#" xmlns:rdf="http://www.w3.org/1999/02/22-rdf-syntax-ns#" xmlns:svg="http://www.w3.org/2000/svg" xmlns="http://www.w3.org/2000/svg" xmlns:xlink="http://www.w3.org/1999/xlink" xmlns:sodipodi="http://sodipodi.sourceforge.net/DTD/sodipodi-0.dtd" xmlns:inkscape="http://www.inkscape.org/namespaces/inkscape" version="1.1" width="465.49477777778156" height="1000" id="svg4626" inkscape:version="0.91 r13725" sodipodi:docname="font_bold_raw.svg">
<g transform="translate(-27319.331222222223,0)"><path style="color:#000000;display:inline;overflow:visible;visibility:visible;fill:#000000;fill-opacity:1;fill-rule:nonzero;stroke:none;stroke-width:1px;marker:none;enable-background:accumulate" d="m 27589.708,20.804502 -51.273,1.322455 c -1.355,2.870585 -3.16,5.730338 -4.785,8.551275 -6.003,9.95768 -12.367,19.601221 -19.814,28.914374 -10.607,13.21417 -21.891,25.719721 -28.209,37.642127 -6.139,8.976447 -11.6,17.797177 -22.478,26.181907 l 75.376,-1.41273 c 10.065,-8.51201 17.106,-17.32597 24.463,-26.445942 6.454,-9.544244 16.384,-19.592646 26.72,-29.97279 10.336,10.363896 20.311,20.441635 26.72,29.97279 7.402,9.119972 14.398,17.934382 24.508,26.445942 l 75.285,1.41273 c -10.922,-8.38428 -16.339,-17.20546 -22.477,-26.181907 -6.364,-11.922406 -17.648,-24.427957 -28.209,-37.642127 -7.448,-9.313153 -13.857,-18.956694 -19.815,-28.914374 -1.805,-2.820937 -3.159,-5.681592 -4.784,-8.551275 l -51.228,-1.322455 z m -65.852,166.787768 c -32.949,-0.13541 -64.408,3.30388 -93.068,19.74655 -21.801,17.75701 -37.282,44.00481 -47.979,70.52342 -12.006,27.68851 -21.574,55.82475 -31.008,84.6281 -9.794,33.3209 -19.227,65.81719 -25.411,100.14325 -5.1,30.62815 -6.454,62.06105 -7.041,93.0909 0,27.86273 -0.04,55.354 0,83.21763 1.354,28.40435 17.468,49.84392 35.251,69.11295 16.023,18.94361 36.017,33.6215 56.418,46.54545 23.11,13.92054 49.378,16.25311 74.789,22.5675 59.533,13.89841 123.219,18.87725 183.338,7.05234 20.131,-3.75523 38.365,-14.24641 56.419,-23.97796 12.683,-10.20006 24.508,-21.3308 35.251,-33.85124 l -109.994,-8.46281 c -11.013,10.84458 -22.117,21.80516 -35.251,29.61983 -8.801,4.76671 -17.512,9.12855 -26.81,12.69422 -23.199,-5.44554 -47.121,-8.44115 -69.102,-18.33609 -20.356,-11.4846 -39.493,-25.39926 -55.019,-43.72452 -16.881,-15.78731 -33.22,-34.21277 -35.251,-59.23967 0,-27.78148 0,-55.43704 0,-83.21763 0.452,-30.34921 0.452,-60.30711 5.642,-90.26997 6.139,-33.74111 15.617,-66.01353 25.366,-98.73278 9.659,-28.42105 20.491,-57.21401 32.452,-84.6281 10.517,-24.11291 24.328,-47.14304 46.534,-60.65013 9.885,-4.20207 22.613,-6.52968 33.852,-8.46281 8.35,1.57521 15.842,2.59526 23.966,5.64187 29.88,13.14466 57.186,33.61563 78.986,59.23967 l 108.64,-8.46281 c -22.296,-26.80025 -48.971,-47.72619 -78.986,-63.47108 -26.9,-12.67164 -55.742,-14.39445 -84.628,-15.51515 -30.692,2.14391 -64.408,-2.68102 -97.356,-2.82093 z" id="path5421" inkscape:connector-curvature="0"/></g></svg>