<?xml version="1.0" encoding="UTF-8" standalone="no"?>
<!-- Created with Inkscape (http://www.inkscape.org/) -->

<svg xmlns:dc="http://purl.org/dc/elements/1.1/" xmlns:cc="http://creativecommons.org/ns#" xmlns:rdf="http://www.w3.org/1999/02/22-rdf-syntax-ns#" xmlns:svg="http://www.w3.org/2000/svg" xmlns="http://www.w3.org/2000/svg" xmlns:xlink="http://www.w3.org/1999/xlink" xmlns:sodipodi="http://sodipodi.sourceforge.net/DTD/sodipodi-0.dtd" xmlns:inkscape="http://www.inkscape.org/namespaces/inkscape" version="1.1" width="496.6037344668075" height="1000" id="svg4626" inkscape:version="0.91 r13725" sodipodi:docname="font_bold_raw.svg">
<g transform="translate(-34659.426,0)"><path style="color:#000000;display:inline;overflow:visible;visibility:visible;fill:#000000;fill-opacity:1;fill-rule:nonzero;stroke:none;stroke-width:1px;marker:none;enable-background:accumulate" d="m 34788.558,20.804502 c 10.922,8.384275 16.384,17.205457 22.477,26.181903 6.364,11.922406 17.648,24.427505 28.209,37.641675 7.493,9.313153 13.857,18.95669 19.86,28.91437 1.805,2.82094 3.159,5.68069 4.739,8.55128 l 51.318,1.32245 51.228,-1.32245 c 1.354,-2.87059 3.16,-5.73034 4.74,-8.55128 6.003,-9.95722 12.412,-19.601217 19.859,-28.91437 10.562,-13.21417 21.845,-25.719269 28.209,-37.641675 6.094,-8.976446 11.555,-17.797628 22.478,-26.181903 l -75.286,1.408212 c -10.11,8.512007 -17.106,17.326418 -24.508,26.445942 -6.409,9.531606 -16.384,19.608895 -26.72,29.97279 -10.336,-10.379693 -20.311,-20.428546 -26.72,-29.97279 -7.402,-9.119524 -14.398,-17.933484 -24.508,-26.445942 l -75.375,-1.408212 z m -129.132,176.661038 105.797,29.61984 c 16.88,-0.18054 33.941,0.57773 50.777,1.40821 6.905,2.14843 13.991,4.5636 19.724,7.05234 21.71,9.4269 42.291,21.01259 62.06,33.85124 45.857,27.79954 78.896,69.09535 108.64,112.83747 27.532,40.42515 38.41,85.8833 40.892,133.99448 1.806,41.96787 -10.877,80.93787 -31.052,117.06887 -18.551,32.5983 -45.722,53.58336 -77.542,71.93389 -31.189,15.31069 -65.175,21.99157 -98.756,29.61983 -13.044,3.15945 -26.449,6.02372 -39.493,8.46281 2.257,-46.38026 3.611,-93.44522 8.486,-139.63636 4.964,-59.80025 7.673,-119.13018 4.062,-179.12948 -1.354,-53.49172 0,-107.44473 4.062,-160.79338 l -108.64,-14.10468 c -1.805,54.11098 -4.062,108.06082 -2.708,162.20385 3.159,59.59262 0.903,119.74402 -4.062,179.12947 -5.552,51.8935 -6.455,103.09147 -9.84,155.15152 -0.902,10.67217 0,12.60304 0,15.51515 -0.451,4.2472 -1.354,8.0909 -1.354,22.56749 l 108.595,12.69422 c -0.451,-10.8816 0,-14.05368 0,-16.92562 12.999,0.67251 26.494,0.45586 39.493,0 36.379,-2.28835 71.72,-8.72414 107.196,-16.92562 34.302,-7.71131 69.146,-16.45261 100.154,-33.85124 32.407,-19.99796 60.03,-43.91815 78.986,-77.57576 20.627,-38.03841 32.453,-78.92529 31.008,-122.71074 -2.257,-49.90666 -13.179,-97.22572 -40.892,-139.63636 -29.473,-44.79061 -64.092,-88.00916 -110.039,-117.06887 -77.136,-52.13317 -122.542,-64.50873 -225.675,-70.52342 -39.719,-3.33999 -79.979,-4.97839 -119.879,-4.22915 z" id="path5479" inkscape:connector-curvature="0"/></g></svg>