<?xml version="1.0" encoding="UTF-8" standalone="no"?>
<!-- Created with Inkscape (http://www.inkscape.org/) -->

<svg xmlns:dc="http://purl.org/dc/elements/1.1/" xmlns:cc="http://creativecommons.org/ns#" xmlns:rdf="http://www.w3.org/1999/02/22-rdf-syntax-ns#" xmlns:svg="http://www.w3.org/2000/svg" xmlns="http://www.w3.org/2000/svg" xmlns:xlink="http://www.w3.org/1999/xlink" xmlns:sodipodi="http://sodipodi.sourceforge.net/DTD/sodipodi-0.dtd" xmlns:inkscape="http://www.inkscape.org/namespaces/inkscape" version="1.1" width="528.9819999999891" height="1000" id="svg4626" inkscape:version="0.91 r13725" sodipodi:docname="font_bold_raw.svg">
<g transform="translate(-62643.027,0)"><path id="path4437" style="color:#000000;display:inline;overflow:visible;visibility:visible;fill:#000000;fill-opacity:1;fill-rule:nonzero;stroke:none;stroke-width:1px;marker:none;enable-background:accumulate" d="m 62685.409,181.93956 0,8.46281 c -9.885,-0.0253 -19.769,0.0415 -29.609,0 l 29.609,4.22915 c 1.354,61.44767 1.354,123.30923 1.354,184.77135 0.04,14.58762 0,29.14275 0,43.72451 -14.624,-0.0117 -29.112,0.0451 -43.736,0 l 43.736,7.05235 c 0,60.20555 0.04,120.43458 -4.062,180.53994 0.451,44.65385 -17.964,88.01367 -14.127,132.58402 13.721,34.63659 53.033,32.35727 84.628,33.85124 89.186,1.44883 178.825,0.49197 268.011,0 l -107.195,-16.92562 c 2.708,0.0451 -26.224,0.0903 -50.777,0 -0.903,0.005 -1.806,-0.005 -2.708,0 -26.359,-0.72216 -63.505,4.42323 -81.83,-18.33609 -6.003,-43.56835 13.27,-87.3529 11.284,-131.17355 3.611,-57.01677 3.159,-113.59438 2.708,-170.66667 24.553,-0.0217 48.836,0.005 73.344,0 37.959,-0.008 76.323,-0.019 114.282,0 16.384,0.18054 32.858,1.65646 47.933,-5.64187 l -109.994,-14.10468 c -15.12,2.94731 -31.233,2.64039 -46.579,2.82093 -26.404,0.0131 -52.537,-0.006 -78.986,0 0,-14.62373 0,-29.09491 0,-43.72451 0,-57.2411 1.805,-114.84597 2.708,-172.07714 42.382,-0.1354 84.628,0.005 126.965,0 42.607,-0.0325 85.756,-0.0275 128.364,0 0.902,0.71765 5.325,1.64743 14.082,2.82094 l 19.769,-2.82094 c 5.145,0.004 10.336,-0.004 15.481,0 7.493,0.002 15.12,-0.008 22.568,0 39.764,0.0447 11.825,-2.28383 -19.724,-2.82093 l 69.101,-9.87328 c -59.307,-10.14003 -119.201,-3.05113 -179.14,-4.22915 -58.721,0.0379 -117.577,0.0108 -176.298,0 -7.041,-0.006 -14.082,0.004 -21.168,0 l 0,-8.46281 -109.994,0 z m 174.627,-157.972449 c -7.628,28.415181 -19.543,56.375402 -36.649,80.396689 l 109.994,7.05235 c 16.158,-25.833465 27.758,-54.105117 36.694,-83.217634 l -110.039,-4.229149 z" inkscape:connector-curvature="0"/></g></svg>