<?xml version="1.0" encoding="UTF-8" standalone="no"?>
<!-- Created with Inkscape (http://www.inkscape.org/) -->

<svg xmlns:dc="http://purl.org/dc/elements/1.1/" xmlns:cc="http://creativecommons.org/ns#" xmlns:rdf="http://www.w3.org/1999/02/22-rdf-syntax-ns#" xmlns:svg="http://www.w3.org/2000/svg" xmlns="http://www.w3.org/2000/svg" xmlns:xlink="http://www.w3.org/1999/xlink" xmlns:sodipodi="http://sodipodi.sourceforge.net/DTD/sodipodi-0.dtd" xmlns:inkscape="http://www.inkscape.org/namespaces/inkscape" version="1.1" width="529.0729999999821" height="1000" id="svg4626" inkscape:version="0.91 r13725" sodipodi:docname="font_bold_raw.svg">
<g transform="translate(-46845.827000000005,0)"><path style="color:#000000;display:inline;overflow:visible;visibility:visible;fill:#000000;fill-opacity:1;fill-rule:nonzero;stroke:none;stroke-width:1px;marker:none;enable-background:accumulate" d="m 46888.209,181.95039 c 0,2.81643 0,5.64865 0,8.46281 -9.884,-0.0253 -19.769,0.0415 -29.654,0 l 29.654,4.22915 c 1.354,61.44767 1.354,123.30923 1.354,184.77135 0,14.58763 -0.05,29.14276 0,43.72452 -14.624,-0.0117 -29.112,0.0451 -43.736,0 l 43.736,7.05234 c 0,60.20556 0,120.43458 -4.062,180.53994 0.451,44.65385 -18.009,88.01367 -14.127,132.58402 13.676,34.63659 52.988,32.35727 84.628,33.85124 55.516,0.9027 111.212,0.27081 166.864,0 -4.062,6.30265 -5.461,9.21476 -34.122,53.24529 -8.892,17.15536 -16.79,34.35856 -15.752,53.06882 1.805,16.68053 6.635,32.65787 16.835,45.92845 12.773,13.96928 28.119,23.51127 48.295,27.06339 14.172,2.52756 28.705,3.45283 43.284,2.55464 l 13.586,-72.19837 c -4.83,-0.40622 -9.75,-0.31595 -14.444,-0.9704 -18.911,-2.9428 -32.091,-12.74883 -43.555,-25.91741 -8.485,-13.0562 -12.638,-26.99479 -13.134,-42.84258 0.451,-5.67573 1.354,-10.35036 3.159,-15.77965 1.354,-1.46237 3.16,-2.62685 4.062,-4.14339 4.514,-6.64071 8.531,-13.32655 12.774,-20.01105 26.765,-0.1354 53.53,0.13541 80.205,0 l -72.803,-11.46022 c 0.451,-0.4694 0.451,-0.94332 0.903,-1.40821 l -9.614,0 -25.637,-4.05312 c 2.708,0.0451 -26.223,0.0903 -50.777,0 -0.902,0.005 -1.805,-0.005 -2.708,0 -26.359,-0.72216 -63.505,4.42323 -81.83,-18.33609 -6.003,-43.56835 13.225,-87.3529 11.284,-131.17355 3.611,-57.01677 3.16,-113.59438 2.708,-170.66667 24.509,-0.0217 48.836,0.005 73.345,0 37.958,-0.008 76.323,-0.019 114.281,0 16.384,0.18054 32.859,1.65646 47.934,-5.64187 l -109.994,-14.10468 c -15.12,2.94731 -31.234,2.64039 -46.58,2.82093 -26.404,0.0131 -52.537,-0.006 -78.986,0 0,-14.62373 0,-29.09491 0,-43.72452 0,-57.24109 1.806,-114.84597 2.708,-172.07713 42.382,-0.1354 84.628,0.005 126.965,0 42.607,-0.0325 85.757,-0.0275 128.364,0 0.903,0.71765 5.326,1.64743 14.082,2.82094 l 19.769,-2.82094 c 5.146,0.004 10.336,-0.004 15.481,0 7.493,0.002 15.121,-0.008 22.568,0 39.764,0.0447 11.825,-2.28383 -19.724,-2.82094 l 69.102,-9.87282 c -59.308,-10.14003 -119.202,-3.04661 -179.141,-4.22915 -58.721,0.0379 -117.577,0.0108 -176.297,0 -7.041,-0.006 -14.128,0.004 -21.169,0 0,-2.81191 0,-5.6491 0,-8.46281 l -109.994,0 z" id="path5584" inkscape:connector-curvature="0"/></g></svg>