<?xml version="1.0" encoding="UTF-8" standalone="no"?>
<!-- Created with Inkscape (http://www.inkscape.org/) -->

<svg xmlns:dc="http://purl.org/dc/elements/1.1/" xmlns:cc="http://creativecommons.org/ns#" xmlns:rdf="http://www.w3.org/1999/02/22-rdf-syntax-ns#" xmlns:svg="http://www.w3.org/2000/svg" xmlns="http://www.w3.org/2000/svg" xmlns:xlink="http://www.w3.org/1999/xlink" xmlns:sodipodi="http://sodipodi.sourceforge.net/DTD/sodipodi-0.dtd" xmlns:inkscape="http://www.inkscape.org/namespaces/inkscape" version="1.1" width="528.9820000000109" height="1000" id="svg4626" inkscape:version="0.91 r13725" sodipodi:docname="font_bold_raw.svg">
<g transform="translate(-35291.271,0)"><path style="color:#000000;display:inline;overflow:visible;visibility:visible;fill:#000000;fill-opacity:1;fill-rule:nonzero;stroke:none;stroke-width:1px;marker:none;enable-background:accumulate" d="m 35415.979,20.804502 c 10.923,8.384275 16.339,17.205457 22.477,26.181903 6.319,11.922406 17.603,24.427505 28.21,37.641675 7.447,9.313153 13.856,18.95669 19.814,28.91437 1.805,2.82094 3.159,5.68069 4.784,8.55128 l 51.273,1.32245 51.229,-1.32245 c 1.354,-2.87059 3.159,-5.73034 4.784,-8.55128 5.958,-9.95722 12.367,-19.601217 19.814,-28.91437 10.607,-13.21417 21.891,-25.719269 28.21,-37.641675 6.138,-8.976446 11.554,-17.797628 22.477,-26.181903 l -75.285,1.408212 c -10.065,8.512007 -17.106,17.326418 -24.509,26.445942 -6.409,9.531606 -16.384,19.608895 -26.72,29.97279 -10.335,-10.379693 -20.265,-20.428546 -26.674,-29.97279 -7.402,-9.119524 -14.443,-17.933484 -24.509,-26.445942 l -75.375,-1.408212 z m -82.326,161.145888 c 0,2.81643 0,5.64865 0,8.46281 -9.885,-0.0253 -19.769,0.0415 -29.654,0 l 29.654,4.22915 c 1.354,61.44767 1.354,123.30923 1.354,184.77135 0,14.58763 -0.04,29.14276 0,43.72452 -14.624,-0.0117 -29.112,0.0451 -43.736,0 l 43.736,7.05234 c 0,60.20556 0,120.43458 -4.062,180.53994 0.451,44.65385 -18.009,88.01367 -14.128,132.58402 13.676,34.63659 52.989,32.35727 84.629,33.85124 89.186,1.44883 178.824,0.49197 268.011,0 l -107.196,-16.92562 c 2.709,0.0451 -26.223,0.0903 -50.776,0 -0.903,0.005 -1.354,-0.005 -2.708,0 -26.404,-0.72216 -63.551,4.42323 -81.83,-18.33609 -6.048,-43.56835 13.224,-87.35289 11.284,-131.17355 3.61,-57.01677 3.159,-113.59438 2.708,-170.66666 24.508,-0.0217 48.836,0.005 73.344,0 37.959,-0.008 76.323,-0.019 114.237,0 16.429,0.18054 32.858,1.65645 47.978,-5.64188 l -110.039,-14.10468 c -15.12,2.94731 -31.188,2.6404 -46.534,2.82094 -26.404,0.0131 -52.582,-0.006 -78.986,0 -0.05,-14.62374 0,-29.09492 0,-43.72452 0,-57.24109 1.805,-114.84597 2.708,-172.07713 42.336,-0.13541 84.583,0.005 126.964,0 42.563,-0.0325 85.712,-0.0275 128.319,0 0.903,0.71764 5.371,1.64742 14.127,2.82093 l 19.724,-2.82093 c 5.146,0.004 10.381,-0.004 15.527,0 7.492,0.002 15.075,-0.008 22.567,0 39.764,0.0447 11.826,-2.28383 -19.724,-2.82094 l 69.102,-9.87328 c -59.307,-10.14002 -119.201,-3.04661 -179.141,-4.22915 -58.72,0.0379 -117.576,0.0108 -176.297,0 -7.041,-0.006 -14.127,0.004 -21.168,0 0,-2.81191 0,-5.64909 0,-8.46281 l -109.994,0 z" id="path5369" inkscape:connector-curvature="0"/></g></svg>