<?xml version="1.0" encoding="UTF-8" standalone="no"?>
<!-- Created with Inkscape (http://www.inkscape.org/) -->

<svg xmlns:dc="http://purl.org/dc/elements/1.1/" xmlns:cc="http://creativecommons.org/ns#" xmlns:rdf="http://www.w3.org/1999/02/22-rdf-syntax-ns#" xmlns:svg="http://www.w3.org/2000/svg" xmlns="http://www.w3.org/2000/svg" xmlns:xlink="http://www.w3.org/1999/xlink" xmlns:sodipodi="http://sodipodi.sourceforge.net/DTD/sodipodi-0.dtd" xmlns:inkscape="http://www.inkscape.org/namespaces/inkscape" version="1.1" width="530.8188644911061" height="1000" id="svg4626" inkscape:version="0.91 r13725" sodipodi:docname="font_bold_raw.svg">
<g transform="translate(-59064.771,0)"><path style="color:#000000;display:inline;overflow:visible;visibility:visible;fill:#000000;fill-opacity:1;fill-rule:nonzero;stroke:none;stroke-width:1px;marker:none;enable-background:accumulate" d="m 59453.518,15.074164 -13.314,3.17299 c 0,0 -2.709,0.64543 -5.823,1.408212 -1.354,0.361079 -3.159,0.74924 -4.513,1.146428 -0.452,0.18054 -1.354,0.45135 -1.806,0.704106 -0.451,0.135405 -0.903,0.27081 -1.354,0.528079 -0.451,0.135405 -0.451,0.225675 -0.903,0.52808 -0.451,0.135405 -0.902,0.604808 -0.902,0.618349 0,0.01038 -1.354,1.227672 -1.354,1.232185 l -0.452,0.618349 -0.451,0.61835 c 0,0.03746 -1.354,1.796372 -1.354,2.378613 -0.451,0.586755 -0.451,1.042619 -0.451,1.408212 0,0.731187 -0.452,1.232185 -0.452,1.674508 0,0.889159 -0.451,1.557157 -0.451,2.202587 0,1.087753 -0.451,1.778319 -0.451,1.850535 l 0,0.09027 c -2.257,6.902042 -5.146,13.490847 -8.531,19.041096 l 0,0.18054 0,0.18054 c -4.062,7.09883 -6.86,12.656753 -10.336,15.867656 l 0,0.09027 0,0.18054 c -5.236,5.219862 -10.516,9.761344 -16.023,13.575701 -6.499,3.601772 -12.367,6.451144 -17.377,7.140355 -6.951,0.52808 -14.533,0.18054 -22.748,0 l -0.451,0 c -9.659,-0.45135 -18.641,-1.164482 -26.72,-3.439286 -8.847,-2.622342 -16.565,-5.62066 -22.748,-10.490273 -5.823,-4.693587 -11.103,-9.620974 -15.933,-15.338674 l 0,-0.09027 c -4.919,-5.769154 -9.343,-12.287548 -12.863,-19.129561 l 0,-0.09027 c -3.16,-5.547541 -5.732,-10.858123 -7.944,-16.132146 l -3.159,-6.875864 -7.403,0 c -2.708,4.51e-4 -6.995,-0.406215 -10.065,-0.970402 l -5.1,-0.880132 -8.485,6.964328 0.451,5.729886 c 0,3.917717 0.451,7.96452 0.903,12.165233 l 0,0.09027 c 0.902,8.162211 2.708,15.643786 5.642,22.567493 3.159,9.298258 8.034,17.089008 11.825,24.066426 4.513,8.545407 9.975,16.294178 16.158,23.272498 6.003,6.83886 12.728,13.44887 20.085,19.04155 l 0,0.0903 c 10.336,7.64677 21.349,10.89694 31.189,13.75218 10.967,2.95183 21.71,4.1795 32.271,4.76039 8.215,0.22567 16.881,0.6364 25.998,0 l 0.451,0 0.452,-0.0903 c 10.742,-1.3044 19.814,-5.71048 27.622,-9.96129 l 0.452,-0.18054 0.451,-0.18054 c 7.628,-4.82087 14.263,-10.63471 20.356,-16.39664 7.628,-6.71022 12.141,-14.76546 16.023,-21.68601 l 0,-0.0903 c 4.513,-7.22927 7.989,-14.66571 11.013,-22.391465 l 0,-0.09027 c 2.708,-7.11869 4.062,-14.078956 5.596,-20.452016 l 0,-0.09027 c 1.806,-7.556048 3.16,-14.940583 4.063,-22.743971 l 0,-0.09027 0,-0.09027 c 0.451,-3.904176 0,-7.316832 0,-7.316832 l -0.452,-13.664166 -0.451,0 z M 59231.183,190.4132 c -7.627,0.92978 -14.398,2.50048 -22.567,5.64188 -23.831,14.38587 -41.344,37.43811 -57.818,60.65013 -14.127,23.69136 -26.9,48.17122 -40.892,71.93389 -13.315,23.25851 -18.325,51.25077 -23.967,77.57575 -4.062,32.31575 -8.576,63.8308 -14.127,95.91185 -4.694,27.00922 -6.274,54.38811 -7.041,81.80716 1.354,25.85151 5.958,51.14606 15.526,74.75482 11.013,24.58773 26.855,44.99732 45.135,63.47107 18.912,19.92981 42.201,29.7065 66.258,39.49312 23.516,7.45223 48.024,15.48536 71.945,21.15702 26.224,5.46043 52.402,6.47507 78.987,7.05234 49.332,-1.84602 101.779,14.36918 148.088,-7.05234 10.245,-4.72834 16.068,-8.89114 25.411,-15.51515 28.209,-26.4983 46.218,-62.44741 62.06,-98.73278 13.586,-32.83931 21.168,-67.18162 15.527,-102.96419 -4.514,-25.96751 -18.822,-40.21301 -40.938,-47.95592 -60.3,-9.07078 -123.218,-4.2472 -183.338,-4.22915 -18.641,0.13541 -9.93,-0.1354 -28.21,0 l 98.711,16.92562 c -73.931,-0.31594 -19.589,-1.88213 14.127,1.40821 20.311,3.93577 35.205,12.3363 39.493,36.67218 6.635,33.16293 -3.159,64.08626 -15.526,94.50137 -15.752,34.55129 -32.723,70.20793 -62.061,93.09091 -9.704,5.85491 -13.405,9.20664 -23.967,12.69422 -1.354,0.49648 -1.805,0.96589 -4.062,1.40821 -8.485,-0.64543 -16.971,-1.49397 -25.411,-2.82094 -23.966,-4.72157 -46.805,-12.33313 -70.501,-18.33609 -23.515,-8.76205 -48.836,-16.75049 -67.702,-35.2617 -18.37,-16.49188 -32.678,-36.15493 -43.736,-59.23967 -9.614,-21.86294 -14.172,-44.83033 -15.526,-69.11295 0.902,-26.84674 1.354,-53.94127 5.642,-80.39669 5.416,-31.91585 10.696,-63.9134 15.526,-95.91185 5.642,-25.19525 9.298,-51.35503 22.567,-73.34435 13.631,-23.574 26.269,-47.66931 40.893,-70.52341 15.887,-21.65216 33.535,-44.86689 57.863,-55.00827 5.506,-1.34953 10.245,-2.22967 15.481,-2.82093 l 1.354,0 c 10.426,0.36108 20.672,0.45135 31.053,1.40821 30.195,3.30388 61.293,9.44449 90.27,19.74655 l 98.71,-14.10468 c -29.292,-10.57919 -59.713,-17.00731 -90.27,-21.15702 -25.366,-3.0737 -50.641,-2.60429 -76.143,-2.82094 -47.797,-0.13541 -17.015,-0.0438 -122.722,0 -8.575,0.003 -16.338,-0.92978 -23.966,0 z" id="path5719" inkscape:connector-curvature="0"/></g></svg>