<?xml version="1.0" encoding="UTF-8" standalone="no"?>
<!-- Created with Inkscape (http://www.inkscape.org/) -->

<svg xmlns:dc="http://purl.org/dc/elements/1.1/" xmlns:cc="http://creativecommons.org/ns#" xmlns:rdf="http://www.w3.org/1999/02/22-rdf-syntax-ns#" xmlns:svg="http://www.w3.org/2000/svg" xmlns="http://www.w3.org/2000/svg" xmlns:xlink="http://www.w3.org/1999/xlink" xmlns:sodipodi="http://sodipodi.sourceforge.net/DTD/sodipodi-0.dtd" xmlns:inkscape="http://www.inkscape.org/namespaces/inkscape" version="1.1" width="335.0370000000039" height="1000" id="svg4626" inkscape:version="0.91 r13725" sodipodi:docname="font_bold_raw.svg">
<g transform="translate(-61136.91799999999,0)"><path id="path4455" style="color:#000000;display:inline;overflow:visible;visibility:visible;fill:#000000;fill-opacity:1;fill-rule:nonzero;stroke:none;stroke-width:1px;marker:none;enable-background:accumulate" d="m 61137.053,42.743716 c 32.407,-1.36759 64.769,-2.432776 97.131,-4.174986 36.243,-2.071696 72.577,-3.45734 108.956,-4.10277 25.591,-1.349536 50.957,0.622863 76.323,2.256749 17.422,1.17351 34.98,1.561671 52.492,1.764778 0,0 -0.451,85.151663 -0.451,85.151663 l 0,0 c -17.964,-0.22567 -35.928,-0.71313 -53.801,-2.11683 -24.689,-1.87762 -49.378,-4.04409 -74.383,-3.03307 -36.063,0.49197 -72.126,1.2367 -108.008,3.50699 -32.046,1.97691 -64.362,2.82996 -96.137,6.22863 0,0 -2.257,-85.478897 -2.257,-85.478897 z m 231.994,127.177304 c -9.298,60.55806 -10.155,122.06621 -11.69,183.20065 0.452,77.95805 -5.145,155.69539 -9.117,233.49908 -2.708,52.54615 -3.611,105.15549 -4.062,157.76437 0,14.55604 0,29.10846 0,43.66223 0,0 -109.904,-0.0266 -109.904,-0.0266 l 0,0 c 0.451,-14.59078 0.451,-29.18247 0.903,-43.77552 0.902,-52.76505 3.159,-105.51566 5.912,-158.21211 4.559,-77.66558 10.246,-155.2955 9.524,-233.15425 1.354,-61.62776 2.257,-123.38506 8.214,-184.77586 0,0 110.085,1.81894 110.085,1.81894 z" inkscape:connector-curvature="0"/></g></svg>