<?xml version="1.0" encoding="UTF-8" standalone="no"?>
<!-- Created with Inkscape (http://www.inkscape.org/) -->

<svg xmlns:dc="http://purl.org/dc/elements/1.1/" xmlns:cc="http://creativecommons.org/ns#" xmlns:rdf="http://www.w3.org/1999/02/22-rdf-syntax-ns#" xmlns:svg="http://www.w3.org/2000/svg" xmlns="http://www.w3.org/2000/svg" xmlns:xlink="http://www.w3.org/1999/xlink" xmlns:sodipodi="http://sodipodi.sourceforge.net/DTD/sodipodi-0.dtd" xmlns:inkscape="http://www.inkscape.org/namespaces/inkscape" version="1.1" width="322.80500000000393" height="1000" id="svg4626" inkscape:version="0.91 r13725" sodipodi:docname="font_bold_raw.svg">
<g transform="translate(-29772.075,0)"><path style="color:#000000;display:inline;overflow:visible;visibility:visible;fill:#000000;fill-opacity:1;fill-rule:nonzero;stroke:none;stroke-width:1px;marker:none;enable-background:accumulate" d="m 29968.367,20.804502 -51.274,1.322455 c -1.354,2.870585 -3.159,5.730338 -4.784,8.551275 -5.958,9.95768 -12.367,19.601221 -19.814,28.914374 -10.607,13.21417 -21.891,25.719721 -28.21,37.642127 -6.138,8.976447 -11.554,17.797177 -22.477,26.181907 l 75.376,-1.41273 c 10.065,-8.51201 17.106,-17.32597 24.508,-26.445942 6.409,-9.544244 16.339,-19.592646 26.675,-29.97279 10.336,10.363896 20.31,20.441635 26.72,29.97279 7.402,9.119972 14.443,17.934382 24.508,26.445942 l 75.285,1.41273 c -10.923,-8.38428 -16.339,-17.20546 -22.477,-26.181907 -6.319,-11.922406 -17.603,-24.427957 -28.209,-37.642127 -7.448,-9.313153 -13.857,-18.956694 -19.815,-28.914374 -1.805,-2.820937 -3.159,-5.681592 -4.784,-8.551275 l -51.228,-1.322455 z m -67.838,161.145888 c 0,37.69765 0,75.29825 4.062,112.83747 3.159,42.21069 8.531,84.96119 14.127,126.94214 5.326,42.8155 6.319,85.28482 7.041,128.35262 -1.354,39.01468 2.708,78.33854 7.041,117.06887 3.611,27.41409 7.312,53.61901 -1.354,80.39669 -6.048,11.88946 -14.217,20.879 -23.966,26.7989 -9.298,-1.88213 -18.822,-3.41672 -26.811,-8.46281 l -108.594,8.46281 c 8.801,9.99469 16.97,13.79551 31.007,15.51515 61.429,15.11345 130.125,20.16135 191.824,5.64188 22.522,-8.77515 36.198,-23.63133 45.135,-45.13499 7.989,-28.30234 5.507,-55.88027 1.354,-84.6281 -4.604,-38.40852 -8.26,-76.94793 -7.041,-115.6584 -0.903,-43.41986 -1.805,-86.57612 -7.041,-129.76308 -5.461,-41.91416 -11.058,-83.37922 -14.127,-125.53168 -4.062,-37.18807 -4.514,-75.47924 -2.708,-112.83747 l -110.039,0 z" id="path5431" inkscape:connector-curvature="0"/></g></svg>