<?xml version="1.0" encoding="UTF-8" standalone="no"?>
<!-- Created with Inkscape (http://www.inkscape.org/) -->

<svg xmlns:dc="http://purl.org/dc/elements/1.1/" xmlns:cc="http://creativecommons.org/ns#" xmlns:rdf="http://www.w3.org/1999/02/22-rdf-syntax-ns#" xmlns:svg="http://www.w3.org/2000/svg" xmlns="http://www.w3.org/2000/svg" xmlns:xlink="http://www.w3.org/1999/xlink" xmlns:sodipodi="http://sodipodi.sourceforge.net/DTD/sodipodi-0.dtd" xmlns:inkscape="http://www.inkscape.org/namespaces/inkscape" version="1.1" width="478.9218569683944" height="1000" id="svg4626" inkscape:version="0.91 r13725" sodipodi:docname="font_bold_raw.svg">
<g transform="translate(-52550.44414303161,0)"><path style="color:#000000;display:inline;overflow:visible;visibility:visible;fill:#000000;fill-opacity:1;fill-rule:nonzero;stroke:none;stroke-width:1px;marker:none;enable-background:accumulate" d="m 52563.934,166.43524 c -3.611,81.30617 -5.281,162.59743 -7.087,244.01102 0,81.56749 0,162.49227 -2.708,244.01101 0.903,34.87175 -7.673,71.36203 -1.354,105.78513 1.354,3.43928 2.257,6.87902 4.062,9.87328 4.514,6.43083 11.465,11.75721 18.37,12.69421 63.505,8.66411 93.61,14.93833 146.689,7.05234 56.735,-8.83246 113.469,-11.25034 170.655,-9.87328 45.677,0.46489 91.128,9.80332 136.805,7.05235 l -95.912,-29.61984 c -44.91,1.3721 -89.052,-5.94157 -134.006,-5.64187 -50.1,-0.67703 -99.658,0.96137 -149.487,7.05234 -5.01,-29.89967 4.062,-61.39532 1.354,-91.68044 1.354,-81.64287 0,-163.7741 0,-245.42149 1.805,-80.9857 3.611,-162.07702 11.284,-242.60054 l -98.756,-12.69422 z m 152.15,665.12405 c 0.902,15.96921 0.451,31.97543 0.451,47.95592 -1.354,11.61142 -4.062,23.03193 -7.177,34.29176 -1.805,10.36886 -7.582,19.08578 -13.45,27.59237 -6.544,7.43328 -14.127,13.17941 -22.657,18.07159 -10.517,4.79244 -21.485,8.13468 -32.362,11.98921 -11.961,4.35553 -23.741,8.19877 -36.424,9.87328 -40.351,3.51601 -8.305,0.53259 96.544,-0.18054 l -107.647,16.57311 c 114.417,-0.31594 75.42,6.09771 118.569,-1.32245 12.548,-2.87961 24.508,-7.44773 36.695,-11.63625 11.239,-4.20658 22.974,-7.64452 32.948,-14.63367 8.621,-6.50982 16.971,-13.1582 22.929,-22.39101 6.093,-9.60653 11.194,-19.66125 13.405,-30.94229 3.16,-12.1711 5.913,-24.57059 6.77,-37.20116 0,-15.98049 -0.451,-31.98671 0.452,-47.95592 l 0,-0.0903 -109.046,0 z" id="path5627" inkscape:connector-curvature="0"/></g></svg>