<?xml version="1.0" encoding="UTF-8" standalone="no"?>
<!-- Created with Inkscape (http://www.inkscape.org/) -->

<svg xmlns:dc="http://purl.org/dc/elements/1.1/" xmlns:cc="http://creativecommons.org/ns#" xmlns:rdf="http://www.w3.org/1999/02/22-rdf-syntax-ns#" xmlns:svg="http://www.w3.org/2000/svg" xmlns="http://www.w3.org/2000/svg" xmlns:xlink="http://www.w3.org/1999/xlink" xmlns:sodipodi="http://sodipodi.sourceforge.net/DTD/sodipodi-0.dtd" xmlns:inkscape="http://www.inkscape.org/namespaces/inkscape" version="1.1" width="523.3909798340501" height="1000" id="svg4626" inkscape:version="0.91 r13725" sodipodi:docname="font_bold_raw.svg">
<g transform="translate(-22203.338020165946,0)"><path style="color:#000000;display:inline;overflow:visible;visibility:visible;fill:#000000;fill-opacity:1;fill-rule:nonzero;stroke:none;stroke-width:1px;marker:none;enable-background:accumulate" d="m 22575.527,19.746538 -92.121,2.378614 c -1.354,2.870585 -3.159,5.730338 -4.874,8.551274 -6.003,9.957681 -12.277,19.601222 -19.724,28.914375 -10.607,13.21417 -21.891,25.71972 -28.21,37.642127 -6.138,8.991792 -11.644,17.784082 -22.567,26.181902 l 75.375,-1.41272 c 10.065,-8.51291 17.107,-17.32597 24.464,-26.445947 8.079,-11.986047 21.439,-24.612559 34.573,-37.906618 9.162,-9.411096 17.738,-19.184174 26.088,-29.266879 2.257,-2.852531 4.604,-5.723567 6.996,-8.639287 z m -356.431,122.710742 c 1.354,25.35007 3.159,50.78544 2.708,76.16529 l -2.708,0 c 0.903,1.09227 2.257,1.72867 2.708,2.82094 0,48.37974 -3.611,96.98786 -5.642,145.27823 -1.805,93.82029 -3.159,186.92745 -7.086,280.68319 -1.805,50.0371 -8.937,100.8785 -4.062,150.92011 l 109.994,4.22915 c -8.802,-49.03555 0,-98.72962 0,-148.09917 3.159,-93.75214 4.784,-186.9112 7.041,-280.68319 0,-4.20207 0,-8.4908 0,-12.69422 2.708,3.75975 5.597,7.52807 8.485,11.28375 57.728,74.32017 113.56,150.17177 163.615,229.90633 30.917,49.47201 59.036,101.37679 87.426,152.33058 23.29,48.93625 22.252,46.26697 91.714,35.26171 36.695,9.04189 41.66,7.99701 33.852,-5.64188 1.354,-0.18054 1.354,0.18054 2.708,0 1.354,-0.18054 3.159,-19.03116 4.062,-31.0303 0,-65.13385 -2.708,-130.95329 -4.062,-196.05509 -0.903,-78.00093 2.256,-156.29885 7.041,-234.13774 2.708,-39.45746 5.506,-77.64391 8.485,-117.06887 0,-4.59204 0.903,-9.5122 1.354,-14.10469 l -109.994,-8.46281 c 0,4.5952 0,9.50904 0,14.10469 -2.708,39.52019 -5.326,78.9131 -7.086,118.47934 -3.611,78.15619 -6.138,157.29948 -5.642,235.5482 0,20.40327 0.903,40.25003 1.354,60.65014 -1.805,-2.89315 -3.611,-5.57733 -5.642,-8.46281 -50.37,-79.82754 -106.157,-156.42522 -163.614,-231.3168 -37.598,-49.96985 -74.744,-100.19696 -107.196,-153.74105 l -1.354,0 c 0.452,-23.43995 1.806,-47.07127 1.354,-70.52341 l -109.994,-5.64188 z" id="path5294" inkscape:connector-curvature="0"/></g></svg>