<?xml version="1.0" encoding="UTF-8" standalone="no"?>
<!-- Created with Inkscape (http://www.inkscape.org/) -->

<svg xmlns:dc="http://purl.org/dc/elements/1.1/" xmlns:cc="http://creativecommons.org/ns#" xmlns:rdf="http://www.w3.org/1999/02/22-rdf-syntax-ns#" xmlns:svg="http://www.w3.org/2000/svg" xmlns="http://www.w3.org/2000/svg" xmlns:xlink="http://www.w3.org/1999/xlink" xmlns:sodipodi="http://sodipodi.sourceforge.net/DTD/sodipodi-0.dtd" xmlns:inkscape="http://www.inkscape.org/namespaces/inkscape" version="1.1" width="531.617805896647" height="1000" id="svg4626" inkscape:version="0.91 r13725" sodipodi:docname="font_bold_raw.svg">
<g transform="translate(-57180.92700000001,0)"><path style="color:#000000;display:inline;overflow:visible;visibility:visible;fill:#000000;fill-opacity:1;fill-rule:nonzero;stroke:none;stroke-width:1px;marker:none;enable-background:accumulate" d="m 57487.438,19.746538 -92.12,2.378614 c -1.354,2.870585 -3.16,5.730338 -4.784,8.551274 -6.003,9.957681 -12.367,19.601222 -19.815,28.914375 -10.606,13.21417 -21.89,25.71972 -28.209,37.642127 -6.138,8.976442 -11.6,17.797632 -22.477,26.181902 l 75.285,-1.41272 c 10.065,-8.51291 17.106,-17.32597 24.463,-26.445947 8.079,-11.986047 21.439,-24.612559 34.573,-37.906618 9.163,-9.411096 17.829,-19.184174 26.179,-29.266879 2.256,-2.852531 4.513,-5.723567 6.905,-8.639287 z m 139.874,0 -92.121,2.378614 c -1.354,2.870585 -3.159,5.730338 -4.739,8.551274 -6.003,9.957681 -12.412,19.601222 -19.859,28.914375 -10.562,13.21417 -21.846,25.71972 -28.21,37.642127 -6.093,8.976442 -11.554,17.797632 -22.477,26.181902 l 75.375,-1.41272 c 10.111,-8.51291 17.107,-17.32597 24.509,-26.445947 8.079,-11.986047 21.349,-24.612559 34.483,-37.906618 9.162,-9.411096 17.828,-19.184174 26.178,-29.266879 2.257,-2.852531 4.514,-5.723567 6.861,-8.639287 z m -216.784,177.895482 c -15.12,0.31595 -30.105,1.92727 -44.593,4.76039 -28.345,9.36009 -52.898,27.28139 -74.744,47.25046 -24.192,25.63397 -45.631,53.19113 -62.873,83.92264 -18.821,29.02044 -29.789,61.39757 -37.462,94.85433 -5.326,25.69354 -7.627,51.83347 -9.929,77.92826 0,24.86306 3.159,49.49819 10.381,73.25634 6.725,22.53094 16.068,44.05446 25.997,65.32206 12.367,21.47974 20.537,44.89848 32.362,66.64452 8.711,18.48322 23.561,32.16635 38.275,45.84044 16.7,14.60568 37.823,19.54255 59.036,23.36097 56.329,7.48654 113.109,11.3036 169.708,16.04413 21.845,-0.40621 41.073,-9.01571 60.571,-17.71909 20.491,-11.23952 39.719,-25.59831 56.78,-41.60904 18.505,-17.22983 31.504,-39.51884 41.93,-62.3251 8.486,-20.47052 17.964,-40.00314 23.651,-61.53162 5.1,-22.51604 7.222,-45.55249 9.433,-68.49595 2.708,-24.12736 4.649,-47.96992 2.708,-72.19793 -0.451,-25.16004 -5.597,-49.50044 -12.006,-73.6973 -7.447,-23.39979 -20.175,-44.90029 -32.723,-65.93906 -9.523,-20.27283 -26.042,-33.47301 -43.961,-45.92846 l -13.947,0.27081 c -19.318,-22.87892 -42.697,-42.15201 -67.522,-58.79915 -38.906,-21.70271 -85.711,-32.14198 -131.162,-31.20633 z m 31.82,33.93925 c 27.894,17.01454 53.847,37.95853 73.977,63.82358 l 15.075,0.27081 c 13.947,9.52168 27.622,19.16657 34.934,35.26171 12.909,19.64952 24.418,41.07329 32.949,62.94209 6.319,23.61372 11.825,47.23106 12.096,71.84587 1.805,23.64712 0,46.96386 -2.708,70.52342 -2.257,22.38469 -4.062,44.88674 -9.343,66.82099 -5.732,20.80813 -15.256,39.81177 -23.29,59.76865 -10.381,21.6165 -23.109,42.42779 -41.434,58.26972 -17.286,14.78757 -35.431,29.16758 -56.328,38.52361 -13.992,6.16725 -28.48,11.01565 -43.555,12.51774 -16.023,-2.59075 -31.956,-5.92487 -45.587,-15.25066 -14.623,-12.22572 -29.563,-25.41596 -38.319,-42.66656 -13.135,-20.83611 -19.995,-44.76848 -32.723,-65.85149 -9.93,-20.85688 -19.182,-41.96245 -25.908,-64.08807 -8.124,-22.12336 -10.11,-45.66803 -10.742,-69.11294 2.257,-25.64209 4.514,-51.33699 9.524,-76.60581 7.357,-32.56489 18.325,-63.75362 36.649,-91.94493 17.377,-29.52641 38.365,-56.47741 62.783,-80.57317 15.843,-13.50168 32.949,-26.30106 52.086,-34.46824 z" id="path5702" inkscape:connector-curvature="0" sodipodi:nodetypes="cccscccccccccccsccccccccccccccccccccccccccccccccccccccccccccccccccccccc"/></g></svg>