<?xml version="1.0" encoding="UTF-8" standalone="no"?>
<!-- Created with Inkscape (http://www.inkscape.org/) -->

<svg xmlns:dc="http://purl.org/dc/elements/1.1/" xmlns:cc="http://creativecommons.org/ns#" xmlns:rdf="http://www.w3.org/1999/02/22-rdf-syntax-ns#" xmlns:svg="http://www.w3.org/2000/svg" xmlns="http://www.w3.org/2000/svg" xmlns:xlink="http://www.w3.org/1999/xlink" xmlns:sodipodi="http://sodipodi.sourceforge.net/DTD/sodipodi-0.dtd" xmlns:inkscape="http://www.inkscape.org/namespaces/inkscape" version="1.1" width="385.581066680199" height="1000" id="svg4626" inkscape:version="0.91 r13725" sodipodi:docname="font_bold_raw.svg">
<g transform="translate(-37625.652,0)"><path style="color:#000000;display:inline;overflow:visible;visibility:visible;fill:#000000;fill-opacity:1;fill-rule:nonzero;stroke:none;stroke-width:1px;marker:none;enable-background:accumulate" d="m 37695.296,20.804502 c 10.922,8.384275 16.339,17.205457 22.477,26.181903 6.319,11.922406 17.603,24.427505 28.209,37.641675 7.448,9.313153 13.857,18.95669 19.815,28.91437 1.805,2.82094 3.159,5.68069 4.784,8.55128 l 51.273,1.32245 51.228,-1.32245 c 1.355,-2.87059 3.16,-5.73034 4.785,-8.55128 5.958,-9.95722 12.367,-19.601217 19.814,-28.91437 10.607,-13.21417 21.891,-25.719269 28.209,-37.641675 6.139,-8.976446 11.555,-17.797628 22.478,-26.181903 l -75.286,1.408212 c -10.065,8.512007 -17.106,17.326418 -24.508,26.445942 -6.409,9.531606 -16.384,19.608895 -26.72,29.97279 -10.336,-10.379693 -20.265,-20.428546 -26.675,-29.97279 -7.402,-9.119524 -14.443,-17.933484 -24.508,-26.445942 l -75.375,-1.408212 z m -59.759,165.377298 -9.885,100.14325 c 21.214,0.70862 42.247,1.8054 63.46,2.82093 25.05,0.83951 49.694,0.99749 74.744,1.40822 0.903,43.96824 1.354,88.67399 1.354,132.58402 0,42.58124 0,84.36135 0,126.94214 0,28.65891 0,57.37921 0,86.03857 0,25.81089 0,51.76486 0,77.57576 0.903,25.55543 -1.806,52.16115 1.354,77.57575 l 110.039,-1.40821 c -3.611,-24.80799 -1.805,-51.14696 -2.708,-76.16529 0,-25.81089 0,-51.76531 0,-77.57575 -0.04,-28.65982 0,-57.37921 0,-86.03857 0,-42.58035 0,-84.36135 0,-126.94215 0,-44.37671 0.451,-89.57534 1.354,-133.99449 6.951,-0.27081 14.172,0.31595 21.123,0 23.831,-1.30891 46.895,-1.4714 70.546,1.40822 7.312,1.83699 16.655,1.62937 23.967,4.22914 l 0,1.40822 c 37.372,-4.30137 11.961,-0.18054 11.284,-67.70248 7.898,-31.36972 14.262,-38.89869 1.354,-33.85124 -9.343,0.55516 -18.822,-1.40821 -28.21,-1.40821 -24.463,-0.87562 -48.926,0.9027 -73.344,2.82093 -33.174,2.6404 -65.401,3.82294 -98.71,4.22915 -35.161,-0.0135 -70.817,-1.32697 -105.797,-4.22915 -20.536,-2.25675 -42.427,-3.90417 -62.06,-9.87328 z" id="path5487" inkscape:connector-curvature="0"/></g></svg>