<?xml version="1.0" encoding="UTF-8" standalone="no"?>
<!-- Created with Inkscape (http://www.inkscape.org/) -->

<svg xmlns:dc="http://purl.org/dc/elements/1.1/" xmlns:cc="http://creativecommons.org/ns#" xmlns:rdf="http://www.w3.org/1999/02/22-rdf-syntax-ns#" xmlns:svg="http://www.w3.org/2000/svg" xmlns="http://www.w3.org/2000/svg" xmlns:xlink="http://www.w3.org/1999/xlink" xmlns:sodipodi="http://sodipodi.sourceforge.net/DTD/sodipodi-0.dtd" xmlns:inkscape="http://www.inkscape.org/namespaces/inkscape" version="1.1" width="468.4452804873872" height="1000" id="svg4626" inkscape:version="0.91 r13725" sodipodi:docname="font_bold_raw.svg">
<g transform="translate(-57778.42400000002,0)"><path style="color:#000000;display:inline;overflow:visible;visibility:visible;fill:#000000;fill-opacity:1;fill-rule:nonzero;stroke:none;stroke-width:1px;marker:none;enable-background:accumulate" d="m 58047.112,19.746538 -92.12,2.378614 c -1.354,2.870585 -3.16,5.730338 -4.785,8.551274 -5.957,9.957681 -12.367,19.601222 -19.814,28.914375 -10.561,13.21417 -21.89,25.71972 -28.209,37.642127 -6.139,8.976442 -11.555,17.797632 -22.477,26.181902 l 75.285,-1.41272 c 10.11,-8.51291 17.106,-17.32597 24.508,-26.445947 8.034,-11.986047 21.394,-24.612559 34.528,-37.906618 9.163,-9.411096 17.874,-19.184174 26.224,-29.266879 2.256,-2.852531 4.513,-5.723567 6.86,-8.639287 z m 139.919,0 -92.121,2.378614 c -1.354,2.870585 -3.159,5.730338 -4.784,8.551274 -6.003,9.957681 -12.367,19.601222 -19.814,28.914375 -10.607,13.21417 -21.891,25.71972 -28.21,37.642127 -6.138,8.976442 -11.6,17.797632 -22.477,26.181902 l 75.33,-1.41272 c 10.11,-8.51291 17.152,-17.32597 24.509,-26.445947 8.079,-11.986047 21.348,-24.612559 34.483,-37.906618 9.162,-9.411096 17.828,-19.184174 26.178,-29.266879 2.257,-2.852531 4.513,-5.723567 6.906,-8.639287 z m -96.905,181.950412 c -0.903,8.80403 0.451,17.97095 0,26.7989 -0.452,9.28156 -1.806,18.94315 -2.708,28.20936 0,13.26563 3.159,25.12665 5.642,38.08265 3.159,16.64939 4.513,33.89366 5.641,50.77686 1.355,16.46434 1.806,32.88083 2.709,49.36639 1.354,17.98855 2.708,35.79204 5.641,53.59779 1.354,18.06754 2.709,36.864 2.709,55.00827 0.902,19.22434 3.159,37.35055 5.641,56.41873 1.806,17.15897 4.514,35.13623 7.041,52.18733 3.16,14.9153 5.778,29.96737 7.087,45.13498 2.708,18.01247 5.551,35.46301 7.041,53.5978 0.451,5.11605 3.611,23.78884 -1.354,26.79889 -7.312,1.02457 -15.211,-0.75826 -22.568,0 -8.621,0.18054 -18.325,-0.0429 -26.81,1.40822 -7.763,1.46688 -14.579,3.25874 -22.568,2.82093 -8.891,0.68154 -18.144,1.93629 -26.81,4.22915 -1.354,0.27081 -2.708,-0.22567 -4.062,0 -8.982,-0.77181 -17.828,-0.36108 -26.765,-1.40821 -20.04,-1.35856 -40.667,-3.86356 -60.661,-5.64187 -14.805,-2.69456 -29.609,-7.29201 -42.337,-15.51515 -5.822,-4.00799 -13.45,-7.72395 -14.082,-15.51516 -0.903,-10.69428 3.159,-20.31164 2.708,-31.0303 0,-13.45203 0,-27.45245 0,-40.90358 0,-10.08947 0,-19.52991 0,-29.61983 0,-12.11514 0,-24.55614 0,-36.67218 0,-16.46389 1.805,-33.05822 4.062,-49.36639 3.611,-23.20886 6.68,-46.98236 7.041,-70.52342 0.903,-30.6128 0.452,-61.05545 1.354,-91.68044 0.452,-30.53562 0.452,-61.21342 2.708,-91.68044 1.354,-20.59103 1.806,-41.45919 2.709,-62.0606 l -109.994,0 c 1.805,20.36806 2.256,41.66952 1.354,62.0606 -1.806,30.63944 -2.708,61.00581 -2.708,91.68044 -0.452,30.53834 0,61.16468 -1.355,91.68044 -0.902,23.1714 -6.093,46.32565 -9.884,69.11295 -3.16,16.69498 -3.611,33.85214 -4.062,50.77686 -0.452,12.22571 0,24.44421 0,36.67218 0,10.08405 0,19.53667 0,29.61983 0,13.44842 0,27.45426 0,40.90358 -0.903,10.82472 -4.062,21.55873 -4.062,32.44077 0,11.54012 7.086,17.20456 15.526,23.97796 12.909,9.56411 28.345,16.78932 43.691,21.15703 20.265,4.14339 41.479,4.11631 62.06,5.64187 24.96,2.19356 49.784,4.12534 74.789,5.64187 48.655,1.15997 99.297,11.20386 146.689,0 5.1,-1.8731 10.29,-1.77831 15.481,-2.82093 2.708,-0.5687 5.687,-0.69508 8.485,-1.40821 8.576,-1.88213 18.054,-2.64491 26.811,-2.82094 1.354,-0.0144 2.708,0.22567 4.062,0 2.708,-0.40622 5.777,-2.17551 8.44,-2.82094 3.611,-0.90721 7.447,-1.0697 11.284,-1.40821 8.44,-0.53711 16.925,0.007 25.411,0 10.426,0.18054 15.887,2.24772 22.567,-7.05234 4.784,-11.48324 3.16,-26.05868 1.354,-38.08264 -2.708,-18.04226 -4.784,-35.52665 -7.086,-53.5978 -0.903,-15.45241 -4.062,-31.42343 -7.041,-46.54545 -2.708,-16.69318 -5.145,-32.52969 -7.041,-49.36639 -3.16,-18.82445 -6.093,-38.79127 -7.041,-57.82921 0,-18.2571 -1.354,-35.41652 -2.708,-53.59779 -2.708,-17.74031 -4.559,-35.69275 -5.642,-53.5978 -1.354,-16.52933 -0.451,-32.84879 -1.354,-49.36639 -1.806,-17.20997 -2.708,-35.1421 -5.642,-52.18732 -1.805,-12.2352 -6.229,-24.22846 -5.642,-36.67218 1.354,-9.07755 2.257,-17.66403 2.708,-26.7989 0.903,-8.51471 0,-18.38528 1.354,-26.7989 l -110.039,-1.40821 z" id="path5704" inkscape:connector-curvature="0"/></g></svg>