<?xml version="1.0" encoding="UTF-8" standalone="no"?>
<!-- Created with Inkscape (http://www.inkscape.org/) -->

<svg xmlns:dc="http://purl.org/dc/elements/1.1/" xmlns:cc="http://creativecommons.org/ns#" xmlns:rdf="http://www.w3.org/1999/02/22-rdf-syntax-ns#" xmlns:svg="http://www.w3.org/2000/svg" xmlns="http://www.w3.org/2000/svg" xmlns:xlink="http://www.w3.org/1999/xlink" xmlns:sodipodi="http://sodipodi.sourceforge.net/DTD/sodipodi-0.dtd" xmlns:inkscape="http://www.inkscape.org/namespaces/inkscape" version="1.1" width="737.5960000000014" height="1000" id="svg4626" inkscape:version="0.91 r13725" sodipodi:docname="font_bold_raw.svg">
<g transform="translate(-31944.286,0)"><path style="color:#000000;display:inline;overflow:visible;visibility:visible;fill:#000000;fill-opacity:1;fill-rule:nonzero;stroke:none;stroke-width:1px;marker:none;enable-background:accumulate" d="m 32306.314,20.804502 -51.273,1.322455 c -1.355,2.870585 -3.16,5.730338 -4.785,8.551275 -6.003,9.95768 -12.367,19.601221 -19.814,28.914374 -10.607,13.21417 -21.891,25.719721 -28.209,37.642127 -6.139,8.976447 -11.6,17.797177 -22.478,26.181907 l 75.376,-1.41273 c 10.065,-8.51201 17.106,-17.32597 24.463,-26.445942 6.454,-9.544244 16.384,-19.592646 26.72,-29.97279 10.336,10.363896 20.311,20.441635 26.72,29.97279 7.402,9.119972 14.398,17.934382 24.508,26.445942 l 75.285,1.41273 c -10.922,-8.38428 -16.339,-17.20546 -22.477,-26.181907 -6.364,-11.922406 -17.648,-24.427957 -28.209,-37.642127 -7.448,-9.313153 -13.857,-18.956694 -19.815,-28.914374 -1.805,-2.820937 -3.159,-5.681592 -4.784,-8.551275 l -51.228,-1.322455 z m -362.028,132.936528 c 10.201,20.94128 14.985,44.90073 21.168,67.70248 11.645,44.37446 21.124,89.06531 31.008,133.99448 9.072,41.28001 19.544,83.16708 29.609,124.12122 7.312,30.90979 13.269,61.9446 19.769,93.0909 4.513,21.37007 9.253,42.69499 15.526,63.47108 5.101,16.23189 11.735,30.31897 16.926,46.54545 3.159,8.82254 5.687,17.88339 8.44,26.7989 4.92,14.02118 8.982,29.21046 12.683,43.72452 1.354,5.79533 3.16,11.02467 4.062,16.92562 -1.354,1.80991 -2.708,3.83196 -4.062,5.64187 l 83.229,12.69421 c 9.208,-13.18257 19.408,-25.91154 28.209,-39.49311 16.791,-26.42021 28.481,-56.74054 40.893,-86.03857 14.127,-34.55218 29.834,-68.3118 43.735,-102.96418 9.343,-21.85933 17.107,-43.86895 25.411,-66.29201 6.094,16.78976 12.864,33.65219 18.325,50.77686 9.343,30.6453 15.075,61.78844 22.568,93.09091 4.558,19.59445 9.839,40.03744 15.526,59.23966 3.16,12.24287 9.614,21.73972 15.481,32.44078 6.229,10.70376 11.149,21.99066 15.527,33.85123 2.257,7.59126 5.777,15.15182 8.485,22.5675 11.51,35.21341 3.16,8.83021 88.826,4.22915 1.805,-0.0903 0.903,-2.41021 1.354,-4.22915 2.257,-8.69345 3.611,-18.11899 5.642,-26.7989 9.794,-41.05478 19.679,-81.70787 29.654,-122.71074 13.044,-56.29552 29.337,-111.66035 46.534,-166.43526 13.495,-42.43998 27.487,-84.4778 40.892,-126.94215 6.59,-18.5401 11.374,-37.48415 16.926,-56.41873 3.159,-9.7451 4.874,-21.04554 7.041,-31.03031 2.256,-12.48885 5.235,-24.43969 8.485,-36.67217 2.708,-8.43076 6.364,-15.89745 9.885,-23.97796 0.902,-1.86408 3.61,-11.25261 5.642,-12.69422 l -80.431,-4.22914 84.628,-8.46281 -86.027,-5.64188 c -3.611,6.08871 -5.823,13.09321 -8.44,19.74656 -3.16,8.64831 -6.094,17.72992 -8.486,26.7989 -3.159,12.41437 -5.506,24.228 -8.44,36.67217 -2.257,9.87689 -4.83,19.71677 -7.086,29.61984 -4.062,18.98242 -8.44,39.36086 -14.082,57.8292 -11.6,42.80557 -25.321,84.5789 -38.094,126.94214 -16.384,55.2362 -30.918,110.38348 -45.135,166.43526 -4.062,15.04485 -8.486,30.13663 -12.683,45.13499 -3.16,-10.79855 -7.132,-21.42468 -9.885,-32.44077 -8.305,-31.39138 -16.339,-61.95544 -25.366,-93.09091 -9.839,-31.87387 -20.491,-62.95563 -31.053,-94.50138 -6.679,-19.81335 -14.398,-39.81853 -18.324,-60.65239 0,-1.74672 -0.903,-3.88612 -1.354,-5.64187 0,-1.60229 1.354,-4.00799 0,-4.22915 -87.968,-12.73078 -77.723,-38.73755 -88.871,0 -1.806,4.81049 -4.965,9.38221 -7.041,14.10468 -3.611,8.32154 -7.086,16.59839 -9.885,25.38843 -6.093,19.02711 -13.089,37.64123 -19.724,56.41873 -8.711,24.28308 -17.512,47.9654 -26.81,71.93389 -13.134,34.73227 -27.532,69.13551 -42.337,102.96418 -4.062,9.16286 -8.44,17.68434 -12.682,26.7989 -5.056,-14.03382 -10.472,-28.25946 -15.527,-42.31405 -6.499,-20.52152 -12.096,-40.9266 -16.926,-62.0606 -7.221,-31.25824 -14.894,-61.9568 -22.567,-93.09091 -10.787,-40.78623 -21.439,-81.49438 -31.008,-122.71074 -10.02,-44.74728 -18.821,-90.47805 -28.209,-135.40496 -5.1,-23.06217 -9.84,-46.73277 -16.926,-69.11295 l -84.628,-1.40821 z m 420.297,234.13774 c 0.451,0.48294 1.806,2.84801 1.354,2.82093 -0.903,-0.0429 -1.805,0.0451 -2.708,0 0,-1.20059 0.903,-3.46185 1.354,-2.82093 z m 139.648,380.82644 c 4.513,-0.36108 2.708,2.57269 -1.354,15.51515 -3.16,-1.95886 -6.364,-8.44521 -8.486,-14.10468 3.611,-1.02908 8.125,-1.26378 9.885,-1.40822 z" id="path5441" inkscape:connector-curvature="0"/></g></svg>