<?xml version="1.0" encoding="UTF-8" standalone="no"?>
<!-- Created with Inkscape (http://www.inkscape.org/) -->

<svg xmlns:dc="http://purl.org/dc/elements/1.1/" xmlns:cc="http://creativecommons.org/ns#" xmlns:rdf="http://www.w3.org/1999/02/22-rdf-syntax-ns#" xmlns:svg="http://www.w3.org/2000/svg" xmlns="http://www.w3.org/2000/svg" xmlns:xlink="http://www.w3.org/1999/xlink" xmlns:sodipodi="http://sodipodi.sourceforge.net/DTD/sodipodi-0.dtd" xmlns:inkscape="http://www.inkscape.org/namespaces/inkscape" version="1.1" width="459.74499999998807" height="1000" id="svg4626" inkscape:version="0.91 r13725" sodipodi:docname="font_bold_raw.svg">
<g transform="translate(-32744.213000000003,0)"><path style="color:#000000;display:inline;overflow:visible;visibility:visible;fill:#000000;fill-opacity:1;fill-rule:nonzero;stroke:none;stroke-width:1px;marker:none;enable-background:accumulate" d="m 32969.843,20.804502 -51.273,1.322455 c -1.354,2.870585 -3.16,5.730338 -4.784,8.551275 -5.958,9.95768 -12.367,19.601221 -19.815,28.914374 -10.606,13.21417 -21.89,25.719721 -28.209,37.642127 -6.138,8.976447 -11.555,17.797177 -22.477,26.181907 l 75.375,-1.41273 c 10.065,-8.51201 17.106,-17.32597 24.509,-26.445942 6.409,-9.544244 16.338,-19.592646 26.674,-29.97279 10.336,10.363896 20.311,20.441635 26.72,29.97279 7.402,9.119972 14.443,17.934382 24.509,26.445942 l 75.285,1.41273 c -10.923,-8.38428 -16.339,-17.20546 -22.478,-26.181907 -6.318,-11.922406 -17.602,-24.427957 -28.209,-37.642127 -7.447,-9.313153 -13.856,-18.956694 -19.814,-28.914374 -1.806,-2.820937 -3.16,-5.681592 -4.784,-8.551275 l -51.229,-1.322455 z m 125.385,124.473718 c -13.992,32.89573 -30.917,63.87142 -46.534,95.91184 -18.776,35.78528 -35.25,72.59827 -53.62,108.60606 -1.806,3.38061 -4.062,6.49177 -5.642,9.87328 -1.354,-2.32445 -2.708,-4.81726 -4.062,-7.05234 -21.214,-28.36824 -43.465,-56.61643 -63.46,-86.03857 -23.922,-31.43381 -46.083,-64.09709 -67.703,-97.32231 l -109.994,-4.22915 c 23.742,32.1659 46.625,65.253 70.501,97.32231 20.537,28.59166 39.764,57.77053 60.662,86.03857 13.45,17.78499 24.102,37.95446 36.649,56.41873 6.861,10.35306 13.857,21.04961 21.169,31.0303 l 16.925,0 c -3.61,7.01263 -6.544,14.10288 -9.884,21.15703 -15.752,31.28441 -28.571,63.56766 -42.292,95.91184 -9.388,25.41551 -21.8,50.69201 -31.053,76.16529 -8.62,22.70967 -19.724,43.54804 -31.007,64.88154 -9.975,16.76449 -15.256,36.23211 -23.967,53.5978 -5.913,14.53572 -12.322,27.82978 -18.37,42.31405 -0.903,1.62486 -1.805,4.01701 -2.708,5.64187 l 108.595,16.92562 c 0.902,-1.75124 2.256,-3.89063 2.708,-5.64187 6.228,-14.1945 12.096,-28.09427 18.325,-42.31405 7.763,-17.7218 14.668,-35.24997 23.966,-52.18733 11.194,-21.86474 20.898,-44.59923 29.609,-67.70248 9.523,-25.11536 21.935,-49.44989 31.053,-74.75482 13.405,-32.23224 26.9,-64.67753 42.291,-95.91184 17.332,-36.26686 35.341,-71.44733 53.621,-107.19559 18.324,-36.10844 34.799,-72.77385 53.575,-108.60606 15.797,-32.05351 33.4,-63.96711 49.377,-95.91185 l -108.594,-16.92562 z" id="path5439" inkscape:connector-curvature="0"/></g></svg>