<?xml version="1.0" encoding="UTF-8" standalone="no"?>
<!-- Created with Inkscape (http://www.inkscape.org/) -->

<svg xmlns:dc="http://purl.org/dc/elements/1.1/" xmlns:cc="http://creativecommons.org/ns#" xmlns:rdf="http://www.w3.org/1999/02/22-rdf-syntax-ns#" xmlns:svg="http://www.w3.org/2000/svg" xmlns="http://www.w3.org/2000/svg" xmlns:xlink="http://www.w3.org/1999/xlink" xmlns:sodipodi="http://sodipodi.sourceforge.net/DTD/sodipodi-0.dtd" xmlns:inkscape="http://www.inkscape.org/namespaces/inkscape" version="1.1" width="568.2489999999998" height="1000" id="svg4626" inkscape:version="0.91 r13725" sodipodi:docname="font_bold_raw.svg">
<g transform="translate(-25787.784,0)"><path style="color:#000000;display:inline;overflow:visible;visibility:visible;fill:#000000;fill-opacity:1;fill-rule:nonzero;stroke:none;stroke-width:1px;marker:none;enable-background:accumulate" d="m 26136.587,19.746538 -92.121,2.378614 c -1.354,2.870585 -3.159,5.730338 -4.784,8.551274 -5.958,9.957681 -12.277,19.601222 -19.724,28.914375 -10.561,13.21417 -21.935,25.71972 -28.299,37.642127 -6.139,8.991792 -11.51,17.784082 -22.478,26.181902 l 75.376,-1.41272 c 10.11,-8.51291 17.106,-17.32597 24.508,-26.445947 8.034,-11.986047 21.394,-24.612559 34.528,-37.906618 9.163,-9.411096 17.784,-19.184174 26.133,-29.266879 2.257,-2.852531 4.514,-5.723567 6.861,-8.639287 z m 160.184,143.867772 c -10.787,4.51349 -4.559,2.03107 -18.325,4.22914 -14.533,1.9724 -29.202,2.35154 -43.736,2.82094 -16.699,-0.97943 -36.378,-1.75575 -63.459,-5.64187 -3.611,4.06215 -6.455,8.55263 -9.885,12.69421 -17.241,1.65646 -33.445,5.05422 -50.777,5.64187 -38.951,2.19808 -78.083,3.02405 -117.08,0 -46.534,-1.73318 -93.204,-6.3708 -139.648,-9.87327 l -64.859,97.32231 c 47.031,-0.0451 94.062,3.2768 141.047,5.64187 38.726,2.5727 76.865,4.26977 115.636,2.82094 14.624,-0.18054 29.248,-2.45083 43.736,-4.22915 -0.903,1.38565 -1.805,2.84802 -2.708,4.22915 -44.187,69.29394 -85.17,139.79569 -129.763,208.74931 -37.282,59.28796 -74.022,120.34206 -110.039,180.53994 -19.995,32.40647 -38.049,65.2169 -56.419,98.73278 -0.903,2.5727 -1.805,5.89012 -2.708,8.46281 l 4.062,0 -4.062,5.64188 c 35.115,4.45031 70.546,8.08548 105.751,11.28374 l 2.708,0 c 34.303,3.08724 68.605,6.25707 102.953,8.46281 72.983,4.74369 147.005,8.14235 220.033,4.22915 25.005,-1.5707 48.611,-5.4681 73.345,-9.87328 l 63.459,-97.32231 c -24.689,5.87973 -49.558,10.16665 -74.743,12.69421 -73.119,6.1176 -146.869,4.65071 -220.033,0 -38.952,-2.49145 -78.219,-5.3846 -117.08,-9.87327 2.708,-4.70442 5.777,-9.39756 8.485,-14.10469 34.98,-60.40911 70.004,-120.25043 107.196,-179.12947 44.142,-69.29259 85.621,-140.51514 131.162,-208.74931 8.079,-11.42276 17.061,-22.30661 25.411,-33.85124 7.898,-1.02005 6.635,-0.83951 16.925,-2.82094 l 22.568,-35.2617 8.44,1.40821 c 12.954,-25.34149 20.175,-37.76851 19.769,-45.13499 l 12.683,-19.74656 z" id="path5306" inkscape:connector-curvature="0"/></g></svg>