<?xml version="1.0" encoding="UTF-8" standalone="no"?>
<!-- Created with Inkscape (http://www.inkscape.org/) -->

<svg xmlns:dc="http://purl.org/dc/elements/1.1/" xmlns:cc="http://creativecommons.org/ns#" xmlns:rdf="http://www.w3.org/1999/02/22-rdf-syntax-ns#" xmlns:svg="http://www.w3.org/2000/svg" xmlns="http://www.w3.org/2000/svg" xmlns:xlink="http://www.w3.org/1999/xlink" xmlns:sodipodi="http://sodipodi.sourceforge.net/DTD/sodipodi-0.dtd" xmlns:inkscape="http://www.inkscape.org/namespaces/inkscape" version="1.1" width="547.0819999999876" height="1000" id="svg4626" inkscape:version="0.91 r13725" sodipodi:docname="font_bold_raw.svg">
<g transform="translate(-33490.15900000001,0)"><path style="color:#000000;display:inline;overflow:visible;visibility:visible;fill:#000000;fill-opacity:1;fill-rule:nonzero;stroke:none;stroke-width:1px;marker:none;enable-background:accumulate" d="m 33669.21,20.804502 c 10.877,8.384275 16.339,17.205457 22.477,26.181903 6.319,11.922406 17.603,24.427505 28.209,37.641675 7.448,9.313153 13.812,18.95669 19.815,28.91437 1.805,2.82094 3.159,5.68069 4.784,8.55128 l 51.273,1.32245 51.229,-1.32245 c 1.354,-2.87059 3.159,-5.73034 4.784,-8.55128 5.958,-9.95722 12.367,-19.601217 19.814,-28.91437 10.562,-13.21417 21.846,-25.719269 28.21,-37.641675 6.138,-8.976446 11.554,-17.797628 22.477,-26.181903 l -75.285,1.408212 c -10.111,8.512007 -17.107,17.326418 -24.509,26.445942 -6.409,9.531606 -16.384,19.608895 -26.72,29.97279 -10.336,-10.379693 -20.265,-20.428546 -26.72,-29.97279 -7.357,-9.119524 -14.398,-17.933484 -24.463,-26.445942 l -75.375,-1.408212 z m 167.902,159.735418 -109.994,2.82094 c 3.16,22.15993 8.124,43.41625 14.082,64.88154 -18.821,39.37125 -39.132,78.32906 -59.217,117.06887 -39.764,71.28214 -70.726,145.70567 -107.195,218.62259 -26.089,49.29147 -48.837,101.70041 -71.946,152.33058 -5.551,10.76379 -8.62,21.08074 -12.683,32.44077 l 109.994,4.22915 c 2.708,-11.15512 6.139,-22.07823 11.284,-32.44078 21.575,-50.88292 44.368,-101.45667 69.147,-150.9201 1.805,-4.17048 3.611,-8.51427 5.642,-12.69422 l 40.892,5.64187 c 45.451,-0.18054 91.353,0.007 136.804,0 1.806,0.003 3.611,-0.003 5.642,0 20.175,53.70793 37.191,108.2662 52.176,163.61433 0,4.56405 6.274,15.35673 4.062,21.15702 l 111.439,0 c 0,-8.75754 -3.611,-15.97146 -7.087,-23.97796 -19.047,-61.3565 -36.017,-123.86078 -60.616,-183.36088 -29.924,-78.56331 -64.904,-155.43676 -94.513,-234.13774 -8.981,-24.47399 -18.37,-48.15812 -25.411,-73.34435 7.132,-14.20714 14.534,-27.86137 21.169,-42.31405 l -29.609,-1.40821 c -1.354,-9.15969 -3.159,-18.90885 -4.062,-28.20937 z m -50.777,194.64463 c 25.863,62.86807 53.35,125.4563 77.587,189.00275 0.452,1.38565 0.903,2.84351 1.354,4.22915 l -21.168,-2.82093 c -28.977,0.0451 -58.45,-0.008 -87.427,0 -21.664,-0.0212 -43.239,0.014 -64.904,0 30.512,-63.6128 60.12,-128.76831 94.513,-190.41323 z" id="path5365" inkscape:connector-curvature="0"/></g></svg>